<?xml version="1.0"?>
<svg width="1331.4106" height="1149.1035" xmlns="http://www.w3.org/2000/svg" xmlns:svg="http://www.w3.org/2000/svg" xmlns:xlink="http://www.w3.org/1999/xlink" preserveAspectRatio="xMidYMid meet" version="1.0">
 <metadata id="metadata48">image/svg+xml</metadata>
 <defs id="defs46">
  <filter color-interpolation-filters="sRGB" height="1.03" id="filter3680" width="1.04" x="-0.02" y="-0.02">
   <feGaussianBlur id="feGaussianBlur3682" stdDeviation="91.92"/>
  </filter>
  <symbol height="512.17" id="svg_63" version="1.1" width="660.15" xmlns="http://www.w3.org/2000/svg" xmlns:svg="http://www.w3.org/2000/svg">
   <metadata id="svg_62">image/svg+xml</metadata>
   <g class="layer">
    <title>Layer 1</title>
    <g id="svg_58" transform="translate(-111.92777,411.25231)">
     <path d="m298.51,-132.54a147.16,238.11 0 0 0 145.87,208.91a147.16,238.11 0 0 0 145.11,-200.23l-93.87,4.38l-69.11,49.59l-128,-62.65z" fill="#000000" id="svg_61" opacity="0.9" stroke="#ffffff" stroke-linejoin="bevel" stroke-miterlimit="4" stroke-width="0"/>
     <path d="m442,-401.65c-75.47,0 -102.51,119.32 -136.66,239.81c-2.41,8.75 0.46,18.13 1.21,27.12l118.86,58.18l64.17,-46.06l87.17,-4.06c1.21,-11.62 5.16,-23.84 1.91,-35.18c-34.96,-119.68 -61.19,-239.81 -136.66,-239.81z" fill="#000000" id="svg_60" opacity="0.9" stroke="#ffffff" stroke-linejoin="bevel" stroke-miterlimit="4" stroke-width="0"/>
     <path d="m340.74,-46.26c0,0 11.71,42.25 25.29,58.64c11.81,14.24 46,31.05 46,31.05c0,0 -30.21,-18.77 -41.4,-32.2c-13.82,-16.59 -29.89,-57.49 -29.89,-57.49z" fill="#ffffff" id="svg_59" stroke="#000000" stroke-width="1px"/>
    </g>
    <g id="svg_56">
     <path d="m289.5,393.12c-0.44,-0.05 -0.84,-0.06 -0.89,-0.03c-0.05,0.03 -0.09,0.01 -0.09,-0.05c0,-0.06 -0.18,-0.18 -0.4,-0.28c-0.22,-0.09 -0.65,-0.37 -0.94,-0.63c-0.33,-0.28 -0.5,-0.37 -0.46,-0.24c0.05,0.13 0.03,0.18 -0.04,0.14c-0.06,-0.04 -0.1,-0.15 -0.09,-0.23c0.03,-0.21 -0.47,-1.12 -0.62,-1.12c-0.07,0 -0.09,-0.03 -0.06,-0.08c0.03,-0.04 -0.01,-0.31 -0.1,-0.62c-0.17,-0.57 -0.4,-2.85 -0.39,-3.86c0,-0.33 -0.05,-0.64 -0.12,-0.69c-0.07,-0.05 -0.09,-0.15 -0.05,-0.21c0.07,-0.14 -0.74,-11.82 -0.84,-12.16c-0.04,-0.11 -0.06,-0.4 -0.05,-0.64c0.01,-0.25 -0.06,-1.33 -0.15,-2.4c-0.09,-1.07 -0.19,-2.44 -0.23,-3.04c-0.04,-0.61 -0.25,-3.4 -0.46,-6.22c-0.22,-2.81 -0.42,-5.66 -0.46,-6.34c-0.04,-0.68 -0.17,-2.43 -0.29,-3.89c-0.12,-1.46 -0.25,-3.29 -0.29,-4.07c-0.04,-0.78 -0.1,-1.46 -0.12,-1.51c-0.03,-0.05 -0.08,-0.75 -0.12,-1.54c-0.03,-0.79 -0.11,-1.58 -0.16,-1.74c-0.06,-0.16 -0.08,-0.33 -0.04,-0.36c0.06,-0.07 -0.61,-9.79 -0.71,-10.32c-0.03,-0.18 -0.06,-0.53 -0.06,-0.78c0,-0.25 -0.07,-1.33 -0.16,-2.39c-0.09,-1.07 -0.19,-2.5 -0.23,-3.17c-0.04,-0.67 -0.12,-1.7 -0.17,-2.26c-0.06,-0.57 -0.14,-1.7 -0.17,-2.51c-0.04,-0.81 -0.09,-1.52 -0.12,-1.58c-0.03,-0.06 -0.09,-0.76 -0.12,-1.56c-0.04,-0.93 -0.12,-1.58 -0.23,-1.83c-0.1,-0.21 -0.12,-0.34 -0.05,-0.3c0.16,0.11 0.15,0.01 -0.11,-3.17c-0.12,-1.46 -0.22,-2.86 -0.23,-3.11c0,-0.25 -0.08,-1.3 -0.17,-2.33c-0.09,-1.03 -0.17,-1.97 -0.18,-2.07c-0.03,-0.95 -0.37,-5.8 -0.42,-5.96c-0.07,-0.22 -0.13,-1.29 -0.13,-2.3c0,-0.37 -0.04,-0.74 -0.07,-0.8c-0.04,-0.07 -0.09,-0.72 -0.12,-1.45c-0.03,-0.73 -0.09,-1.45 -0.13,-1.59c-0.04,-0.15 -0.06,-0.36 -0.05,-0.49c0.05,-0.4 -0.33,-1.67 -0.47,-1.57c-0.08,0.06 -0.09,0.03 -0.04,-0.07c0.11,-0.2 -0.35,-0.98 -0.99,-1.68c-0.57,-0.62 -1.63,-1.25 -1.83,-1.11c-0.09,0.06 -0.11,0.04 -0.06,-0.04c0.05,-0.08 -0.11,-0.17 -0.41,-0.23c-0.93,-0.18 -2.39,-0.06 -2.39,0.19c0,0.06 -0.06,0.1 -0.14,0.1c-0.4,-0.01 -0.56,0.05 -0.48,0.18c0.05,0.1 0.03,0.12 -0.06,0.06c-0.33,-0.23 -1.77,1.25 -2.24,2.32c-0.16,0.35 -0.34,0.88 -0.41,1.16c-0.06,0.29 -0.28,3.26 -0.46,6.6c-0.19,3.35 -0.43,7.43 -0.52,9.07c-0.1,1.64 -0.2,3.67 -0.23,4.51c-0.03,0.84 -0.08,1.57 -0.11,1.63c-0.03,0.05 -0.08,1.03 -0.11,2.17c-0.03,1.13 -0.08,2.15 -0.11,2.25c-0.03,0.11 -0.08,0.77 -0.12,1.48c-0.04,0.71 -0.17,3.13 -0.3,5.37c-0.13,2.24 -0.23,4.23 -0.23,4.4c0,0.18 -0.1,1.95 -0.23,3.95c-0.13,2 -0.22,3.86 -0.21,4.14c0.01,0.29 -0.01,0.61 -0.05,0.71c-0.04,0.11 -0.15,1.86 -0.25,3.89c-0.1,2.03 -0.19,3.78 -0.19,3.89c-0.16,2.53 -0.26,4.34 -0.28,5.15c-0.01,0.37 -0.06,0.68 -0.11,0.68c-0.06,0 -0.07,0.15 -0.04,0.33c0.03,0.18 0.03,0.3 0,0.27c-0.03,-0.03 -0.21,0.27 -0.39,0.68c-0.89,2.02 -2.94,3.18 -4.84,2.76c-0.4,-0.09 -0.8,-0.17 -0.9,-0.19c-0.09,-0.01 -0.2,-0.05 -0.23,-0.09c-0.03,-0.04 -0.33,-0.26 -0.66,-0.5c-0.33,-0.24 -0.73,-0.6 -0.88,-0.79c-0.15,-0.2 -0.31,-0.34 -0.34,-0.31c-0.04,0.03 -0.05,0.02 -0.02,-0.02c0.08,-0.13 -0.17,-0.58 -0.28,-0.51c-0.05,0.04 -0.09,-0.01 -0.08,-0.09c0.01,-0.09 -0.08,-0.48 -0.19,-0.87c-0.21,-0.74 -0.77,-5.8 -0.76,-6.9c0,-0.37 -0.05,-0.62 -0.12,-0.62c-0.07,0 -0.09,-0.06 -0.05,-0.14c0.08,-0.14 -0.26,-4.44 -0.38,-4.79c-0.03,-0.11 -0.05,-0.25 -0.04,-0.31c0.04,-0.22 -0.37,-4.6 -0.44,-4.6c-0.03,0 -0.05,-0.29 -0.03,-0.65c0.02,-0.35 -0.01,-0.64 -0.06,-0.64c-0.06,0 -0.08,-0.3 -0.06,-0.65c0.03,-0.36 -0.01,-0.65 -0.06,-0.65c-0.06,0 -0.08,-0.2 -0.06,-0.45c0.03,-0.25 0.01,-0.56 -0.04,-0.68c-0.05,-0.13 -0.08,-0.28 -0.06,-0.35c0.04,-0.21 -0.71,-8.3 -0.78,-8.36c-0.04,-0.03 -0.08,-0.59 -0.1,-1.23c-0.02,-0.64 -0.06,-1.25 -0.1,-1.36c-0.04,-0.11 -0.08,-0.43 -0.1,-0.71c-0.02,-0.29 -0.06,-0.78 -0.09,-1.1c-0.06,-0.58 -0.09,-0.91 -0.26,-3.2c-0.05,-0.66 -0.13,-1.17 -0.18,-1.13c-0.05,0.03 -0.06,-0.04 -0.03,-0.17c0.06,-0.25 -0.6,-7.87 -0.73,-8.44c-0.04,-0.18 -0.07,-0.44 -0.06,-0.58c0.01,-0.14 -0.16,-2.06 -0.38,-4.27c-0.22,-2.21 -0.42,-4.45 -0.46,-4.99c-0.15,-2.3 -0.4,-4.04 -0.69,-4.73c-0.33,-0.81 -1.41,-2.17 -1.64,-2.07c-0.09,0.04 -0.13,0.02 -0.1,-0.04c0.09,-0.16 -0.8,-0.58 -0.98,-0.47c-0.09,0.06 -0.11,0.05 -0.07,-0.04c0.1,-0.18 -0.45,-0.31 -1.31,-0.31c-0.72,0 -1.98,0.37 -1.88,0.56c0.03,0.06 0,0.09 -0.09,0.05c-0.08,-0.03 -0.28,0.06 -0.43,0.21c-0.16,0.15 -0.22,0.22 -0.13,0.17c0.11,-0.06 0.14,-0.04 0.08,0.06c-0.05,0.08 -0.14,0.11 -0.2,0.07c-0.3,-0.21 -1.71,2.14 -1.56,2.59c0.03,0.1 0.02,0.21 -0.04,0.23c-0.12,0.05 -0.62,6.1 -0.54,6.55c0.03,0.16 0,0.33 -0.06,0.37c-0.06,0.04 -0.1,0.34 -0.1,0.68c0,0.33 -0.18,2.84 -0.39,5.59c-0.22,2.74 -0.43,5.48 -0.47,6.09c-0.04,0.61 -0.22,3.02 -0.4,5.37c-0.18,2.35 -0.36,4.77 -0.39,5.39c-0.03,0.61 -0.08,1.19 -0.11,1.29c-0.03,0.1 -0.09,0.77 -0.12,1.48c-0.04,0.71 -0.3,4.26 -0.58,7.9c-0.28,3.63 -0.51,6.72 -0.5,6.86c0.01,0.15 -0.02,0.36 -0.07,0.49c-0.05,0.12 -0.06,0.31 -0.02,0.42c0.04,0.1 0.01,0.19 -0.06,0.19c-0.07,0 -0.09,0.09 -0.06,0.19c0.04,0.11 0.01,0.19 -0.06,0.19c-0.07,0 -0.09,0.09 -0.06,0.2c0.04,0.11 0.02,0.17 -0.04,0.13c-0.09,-0.07 -0.22,0.2 -0.24,0.47c-0.01,0.18 -1.25,1.51 -1.61,1.72c-0.2,0.11 -0.33,0.26 -0.3,0.31c0.03,0.06 -0.05,0.08 -0.19,0.04c-0.19,-0.05 -0.22,-0.03 -0.15,0.1c0.05,0.1 0.05,0.14 -0.01,0.1c-0.06,-0.04 -0.44,0.01 -0.85,0.12c-0.41,0.1 -0.84,0.18 -0.95,0.17c-0.11,-0.01 -0.43,-0.03 -0.71,-0.04c-0.28,-0.01 -0.49,-0.06 -0.46,-0.11c0.07,-0.13 -0.52,-0.26 -0.68,-0.16c-0.08,0.05 -0.1,0.04 -0.05,-0.01c0.1,-0.13 -0.81,-0.75 -0.95,-0.65c-0.05,0.03 -0.15,-0.02 -0.23,-0.13c-0.08,-0.1 -0.1,-0.19 -0.06,-0.19c0.05,0 0,-0.12 -0.12,-0.26c-0.11,-0.14 -0.25,-0.22 -0.31,-0.18c-0.06,0.04 -0.09,-0.01 -0.07,-0.1c0.02,-0.09 -0.04,-0.16 -0.12,-0.14c-0.09,0.02 -0.12,-0.02 -0.08,-0.1c0.09,-0.15 -0.21,-0.68 -0.32,-0.59c-0.04,0.03 -0.06,0.03 -0.03,-0.01c0.03,-0.04 -0.05,-0.36 -0.17,-0.71c-0.12,-0.34 -0.31,-1.4 -0.42,-2.35c-0.11,-0.95 -0.23,-1.75 -0.26,-1.79c-0.04,-0.03 -0.08,-0.45 -0.09,-0.91c-0.02,-0.47 -0.06,-0.93 -0.1,-1.04c-0.04,-0.11 -0.06,-0.35 -0.05,-0.55c0.02,-0.19 -0.02,-0.43 -0.06,-0.52c-0.05,-0.09 -0.08,-0.32 -0.06,-0.52c0.02,-0.2 -0.03,-0.36 -0.1,-0.36c-0.07,0 -0.1,-0.06 -0.06,-0.14c0.08,-0.15 -0.98,-9.59 -1.09,-9.7c-0.04,-0.03 -0.08,-0.47 -0.1,-0.97c-0.02,-0.5 -0.09,-0.93 -0.15,-0.95c-0.06,-0.02 -0.08,-0.1 -0.04,-0.16c0.07,-0.12 -0.15,-2.48 -0.26,-2.83c-0.03,-0.11 -0.07,-0.4 -0.09,-0.65c-0.06,-0.92 -1.15,-10.04 -1.21,-10.1c-0.03,-0.04 -0.08,-0.42 -0.09,-0.84c-0.02,-0.43 -0.11,-1.3 -0.2,-1.94c-0.09,-0.64 -0.19,-1.51 -0.23,-1.93c-0.12,-1.54 -0.54,-4.41 -0.64,-4.45c-0.06,-0.02 -0.07,-0.13 -0.04,-0.23c0.03,-0.1 0.01,-0.18 -0.06,-0.18c-0.07,0 -0.09,-0.08 -0.06,-0.18c0.09,-0.27 -0.67,-2.28 -1.28,-3.39c-0.63,-1.14 -1.64,-2.42 -1.81,-2.3c-0.07,0.05 -0.09,0.02 -0.05,-0.04c0.12,-0.23 -1.41,-1.68 -1.59,-1.5c-0.05,0.05 -0.06,0.03 -0.03,-0.04c0.09,-0.18 -0.79,-0.75 -0.97,-0.63c-0.08,0.06 -0.1,0.03 -0.05,-0.05c0.1,-0.18 -0.34,-0.46 -0.53,-0.34c-0.07,0.05 -0.1,0.03 -0.06,-0.03c0.09,-0.16 -1.81,-0.96 -2.34,-0.99c-0.22,-0.01 -0.43,-0.07 -0.46,-0.12c-0.09,-0.14 -2.13,-0.34 -2.81,-0.27c-1.05,0.1 -2.24,0.34 -2.24,0.45c0,0.06 -0.06,0.08 -0.15,0.05c-0.41,-0.17 -4.57,2.03 -4.57,2.42c0,0.07 -0.05,0.09 -0.1,0.05c-0.06,-0.04 -0.4,0.08 -0.76,0.26c-0.37,0.18 -1.08,0.46 -1.6,0.61c-0.87,0.26 -1.27,0.28 -6.23,0.32c-5.28,0.05 -5.3,0.05 -5.98,-0.24c-0.37,-0.16 -0.74,-0.28 -0.8,-0.26c-0.06,0.02 -0.07,-0.01 -0.03,-0.06c0.05,-0.05 -0.15,-0.38 -0.44,-0.73c-0.76,-0.92 -1.01,-1.62 -1.03,-2.96c-0.01,-0.61 0.01,-1.13 0.05,-1.16c0.17,-0.16 0.47,-1.07 0.4,-1.21c-0.04,-0.09 -0.04,-0.11 0.02,-0.06c0.05,0.05 0.4,-0.23 0.77,-0.62c0.4,-0.41 0.87,-0.77 1.14,-0.86c0.25,-0.08 0.46,-0.19 0.46,-0.23c0,-0.04 1.82,-0.1 4.05,-0.12c5.9,-0.06 5.81,-0.05 6.47,-0.39c0.66,-0.33 1.12,-0.77 1.02,-0.96c-0.04,-0.08 -0.01,-0.09 0.07,-0.03c0.08,0.06 0.21,0 0.31,-0.14c0.52,-0.75 0.77,-1.64 1.48,-5.32c0.41,-2.12 0.8,-4.11 0.87,-4.41c0.06,-0.31 0.09,-0.61 0.06,-0.67c-0.03,-0.06 -0.02,-0.13 0.03,-0.16c0.13,-0.06 0.74,-3.32 0.66,-3.48c-0.04,-0.07 -0.01,-0.13 0.06,-0.13c0.08,0 0.11,-0.11 0.08,-0.26c-0.03,-0.14 -0.03,-0.26 0.02,-0.26c0.11,0 0.38,-1.53 0.3,-1.69c-0.04,-0.07 -0.03,-0.13 0.03,-0.13c0.14,0 0.38,-1.43 0.31,-1.81c-0.04,-0.22 -0.03,-0.27 0.04,-0.16c0.13,0.21 0.43,-1.32 0.3,-1.55c-0.04,-0.08 -0.03,-0.12 0.03,-0.07c0.14,0.1 0.55,-2.05 0.43,-2.26c-0.06,-0.1 -0.03,-0.11 0.06,-0.04c0.11,0.08 0.14,0.01 0.09,-0.31c-0.03,-0.22 -0.03,-0.37 0.01,-0.34c0.09,0.1 0.72,-3.08 0.66,-3.27c-0.03,-0.08 -0.01,-0.17 0.05,-0.19c0.06,-0.02 0.12,-0.27 0.14,-0.56c0.02,-0.29 0.06,-0.55 0.1,-0.58c0.07,-0.07 1.38,-6.73 1.43,-7.25c0.02,-0.18 0.06,-0.42 0.11,-0.53c0.04,-0.11 0.09,-0.37 0.1,-0.58c0.01,-0.21 0.05,-0.41 0.09,-0.45c0.12,-0.13 0.46,-2.2 0.39,-2.35c-0.05,-0.09 -0.03,-0.11 0.04,-0.07c0.13,0.09 0.31,-0.89 0.2,-1.09c-0.03,-0.07 -0.01,-0.12 0.07,-0.12c0.08,0 0.11,-0.11 0.08,-0.25c-0.03,-0.14 -0.02,-0.27 0.03,-0.29c0.08,-0.04 0.6,-2.57 0.65,-3.15c0.01,-0.14 0.05,-0.34 0.09,-0.45c0.14,-0.4 0.42,-1.99 0.37,-2.05c-0.03,-0.03 -0.01,-0.13 0.04,-0.21c0.16,-0.22 0.38,-1.6 0.29,-1.79c-0.05,-0.09 -0.04,-0.12 0.02,-0.06c0.06,0.06 0.34,-1.11 0.65,-2.69c0.3,-1.54 0.67,-3.12 0.83,-3.51c0.58,-1.42 2.2,-2.9 3.43,-3.12c0.24,-0.04 0.41,-0.13 0.37,-0.18c-0.03,-0.06 0.11,-0.08 0.32,-0.05c0.21,0.03 0.7,0.08 1.08,0.12c1,0.1 2.33,0.75 2.75,1.36c0.08,0.11 0.19,0.14 0.29,0.08c0.09,-0.06 0.12,-0.06 0.08,-0.01c-0.04,0.05 0.1,0.36 0.32,0.68c0.55,0.81 0.97,1.87 1.05,2.63c0.04,0.35 0.1,0.62 0.14,0.59c0.04,-0.03 0.08,0.35 0.09,0.84c0.01,0.49 0.06,0.99 0.1,1.12c0.05,0.13 0.08,0.38 0.06,0.57c-0.01,0.19 0.03,0.38 0.1,0.43c0.07,0.04 0.09,0.14 0.06,0.21c-0.08,0.14 0.41,4.68 0.52,4.78c0.03,0.04 0.08,0.47 0.1,0.97c0.02,0.5 0.08,0.93 0.14,0.95c0.06,0.02 0.08,0.1 0.04,0.16c-0.07,0.12 0.25,3.38 0.37,3.74c0.03,0.11 0.08,0.57 0.11,1.04c0.03,0.46 0.1,0.86 0.15,0.88c0.06,0.02 0.08,0.12 0.05,0.21c-0.06,0.18 0.84,8.28 0.96,8.62c0.04,0.11 0.06,0.25 0.05,0.31c-0.03,0.15 0.56,5.4 0.64,5.65c0.03,0.11 0.07,0.4 0.09,0.65c0.07,1.1 0.45,4.14 0.52,4.14c0.04,0 0.05,0.21 0.03,0.46c-0.03,0.32 0.02,0.54 0.17,0.73c0.12,0.16 0.15,0.23 0.07,0.18c-0.08,-0.05 -0.15,-0.05 -0.15,0.01c0,0.31 0.49,4.28 0.55,4.44c0.04,0.11 0.06,0.25 0.04,0.31c-0.06,0.26 0.37,3.56 0.46,3.5c0.05,-0.03 0.06,0.06 0.03,0.2c-0.11,0.47 0.33,3.8 0.53,3.98c0.12,0.11 0.13,0.16 0.03,0.16c-0.11,0 -0.12,0.2 -0.06,0.81c0.04,0.45 0.11,0.84 0.15,0.87c0.04,0.04 0.08,0.42 0.1,0.86c0.06,1.51 0.56,4.95 0.77,5.31c0.16,0.28 0.22,0.31 0.31,0.17c0.08,-0.14 0.1,-0.12 0.07,0.07c-0.04,0.31 0.67,0.9 0.97,0.8c0.11,-0.03 0.2,-0.01 0.2,0.06c0,0.07 0.15,0.12 0.34,0.12c0.19,0 0.34,-0.06 0.34,-0.14c0,-0.07 0.06,-0.1 0.12,-0.05c0.18,0.12 0.59,-0.06 0.5,-0.23c-0.05,-0.08 -0.03,-0.1 0.06,-0.04c0.17,0.12 0.61,-0.3 0.51,-0.48c-0.04,-0.07 -0.02,-0.09 0.06,-0.04c0.17,0.12 0.51,-0.62 0.56,-1.22c0.12,-1.27 0.96,-12.27 1.02,-13.27c0.03,-0.64 0.19,-2.68 0.34,-4.53c0.15,-1.86 0.3,-3.86 0.33,-4.47c0.03,-0.61 0.08,-1.19 0.11,-1.3c0.09,-0.32 0.67,-8.7 0.61,-8.77c-0.03,-0.03 -0.01,-0.2 0.05,-0.36c0.06,-0.16 0.12,-0.9 0.16,-1.64c0.03,-0.74 0.08,-1.42 0.11,-1.53c0.04,-0.15 0.49,-6.51 0.53,-7.38c0,-0.11 0.11,-1.36 0.23,-2.78c0.12,-1.42 0.26,-3.14 0.3,-3.82c0.17,-2.68 0.19,-3 0.51,-6.8c0.12,-1.49 0.22,-2.86 0.22,-3.04c0,-0.17 0.05,-0.82 0.11,-1.42c0.06,-0.61 0.15,-1.65 0.18,-2.33c0.04,-0.67 0.25,-3.47 0.46,-6.22c0.22,-2.74 0.4,-5.16 0.4,-5.37c0,-0.21 0.12,-1.95 0.28,-3.87c0.15,-1.91 0.26,-3.53 0.23,-3.6c-0.03,-0.06 -0.01,-0.11 0.06,-0.11c0.07,0 0.12,-0.09 0.12,-0.2c0,-0.11 0.17,-0.56 0.37,-1c0.2,-0.44 0.36,-0.85 0.34,-0.9c-0.01,-0.05 0.02,-0.08 0.07,-0.07c0.05,0.02 0.25,-0.15 0.45,-0.37c1.62,-1.82 4.36,-1.92 6.19,-0.24c0.26,0.25 0.5,0.42 0.53,0.39c0.03,-0.03 0.05,0.01 0.06,0.1c0,0.09 0.16,0.42 0.35,0.74c0.46,0.78 0.68,1.68 0.84,3.63c0.07,0.89 0.16,1.71 0.2,1.81c0.04,0.11 0.06,0.25 0.04,0.32c-0.03,0.16 0.34,4.48 0.41,4.73c0.03,0.11 0.08,0.6 0.11,1.1c0.12,2.11 0.69,7.59 0.77,7.49c0.05,-0.05 0.06,0 0.01,0.12c-0.07,0.22 0.14,3.23 0.26,3.59c0.06,0.18 0.07,0.36 0.13,1.92c0.02,0.38 0.06,0.66 0.11,0.63c0.05,-0.03 0.09,0.49 0.11,1.16c0.01,0.67 0.06,1.29 0.11,1.38c0.05,0.09 0.08,0.31 0.06,0.48c-0.01,0.18 0.15,2.1 0.38,4.27c0.22,2.17 0.4,4.04 0.41,4.14c0.04,0.91 0.25,3.34 0.31,3.5c0.03,0.11 0.06,0.25 0.04,0.31c-0.03,0.16 0.34,4.36 0.4,4.61c0.03,0.11 0.08,0.69 0.11,1.29c0.03,0.61 0.09,1.13 0.13,1.17c0.05,0.04 0.1,0.63 0.12,1.3c0.02,0.68 0.08,1.25 0.12,1.26c0.05,0.02 0.06,0.24 0.04,0.48c-0.03,0.25 -0.01,0.55 0.03,0.68c0.04,0.13 0.1,0.63 0.13,1.13c0.03,0.5 0.12,1.61 0.2,2.46c0.12,1.23 0.19,1.55 0.31,1.51c0.13,-0.03 0.14,-0.01 0.02,0.12c-0.14,0.16 -0.2,0.92 -0.08,1.05c0.03,0.04 0.09,0.59 0.12,1.22c0.03,0.63 0.09,1.17 0.14,1.21c0.05,0.04 0.1,0.6 0.12,1.24c0.02,0.64 0.06,1.25 0.1,1.36c0.03,0.11 0.08,0.46 0.09,0.78c0.09,1.78 0.47,5.42 0.57,5.35c0.06,-0.04 0.07,-0.01 0.02,0.08c-0.12,0.22 0.42,6.26 0.55,6.06c0.06,-0.09 0.07,-0.03 0.02,0.15c-0.07,0.28 0.47,6.95 0.6,7.4c0.03,0.11 0.07,0.63 0.1,1.16c0.03,0.53 0.1,0.99 0.16,1.01c0.06,0.02 0.08,0.14 0.04,0.25c-0.05,0.14 -0.03,0.18 0.06,0.12c0.09,-0.06 0.11,-0.02 0.06,0.13c-0.06,0.17 -0.03,0.2 0.13,0.13c0.17,-0.07 0.18,-0.05 0.08,0.09c-0.1,0.14 -0.09,0.23 0.07,0.38c0.31,0.31 0.71,0.51 0.84,0.42c0.06,-0.04 0.12,-0.01 0.12,0.06c0,0.08 0.15,0.14 0.34,0.14c0.19,0 0.34,-0.05 0.34,-0.12c0,-0.06 0.1,-0.09 0.22,-0.05c0.27,0.08 1.09,-0.7 1,-0.95c-0.03,-0.1 -0.02,-0.15 0.04,-0.11c0.06,0.04 0.14,-0.03 0.18,-0.16c0.06,-0.18 0.51,-7.39 0.52,-8.35c0,-0.16 0.13,-2.36 0.28,-4.88c0.36,-6 0.35,-5.93 0.75,-13.02c0.19,-3.35 0.5,-8.89 0.7,-12.3c0.19,-3.42 0.38,-6.79 0.4,-7.51c0.03,-0.71 0.07,-1.38 0.1,-1.49c0.03,-0.11 0.08,-1.02 0.12,-2.02c0.04,-0.99 0.12,-2.57 0.19,-3.49c0.07,-0.93 0.1,-1.9 0.07,-2.16c-0.03,-0.26 -0.01,-0.52 0.04,-0.59c0.05,-0.06 0.12,-1 0.16,-2.1c0.04,-1.1 0.09,-2.03 0.12,-2.08c0.03,-0.04 0.07,-0.94 0.11,-1.97c0.03,-1.04 0.09,-1.97 0.11,-2.07c0.03,-0.1 0.11,-1.37 0.18,-2.83c0.07,-1.46 0.15,-2.95 0.18,-3.3c0.03,-0.35 0.1,-1.67 0.17,-2.91c0.06,-1.25 0.14,-2.7 0.18,-3.24c0.19,-3.26 0.28,-4.88 0.34,-6.09c0.04,-0.75 0.09,-1.68 0.12,-2.07c0.03,-0.39 0.1,-1.64 0.17,-2.78c0.06,-1.14 0.3,-5.33 0.52,-9.32c0.22,-3.99 0.4,-7.37 0.38,-7.51c-0.02,-0.15 0.01,-0.38 0.05,-0.52c0.04,-0.15 0.11,-1.1 0.15,-2.14c0.04,-1.04 0.09,-2.08 0.12,-2.33c0.07,-0.63 0.63,-10.92 0.62,-11.44c0,-0.63 0.19,-2.05 0.33,-2.47c0.07,-0.2 0.09,-0.43 0.06,-0.5c-0.05,-0.08 -0.03,-0.1 0.05,-0.05c0.07,0.05 0.16,-0.03 0.2,-0.17c0.07,-0.24 1.44,-1.92 1.44,-1.76c0,0.03 0.25,-0.06 0.55,-0.21c0.39,-0.2 0.79,-0.28 1.41,-0.28c0.96,-0.01 1.73,0.07 1.73,0.19c0,0.04 0.14,0.15 0.31,0.23c0.17,0.09 0.5,0.33 0.73,0.53c0.34,0.3 0.45,0.34 0.58,0.22c0.12,-0.13 0.13,-0.12 0.03,0.04c-0.09,0.15 -0.09,0.25 0.02,0.42c0.08,0.12 0.19,0.18 0.23,0.13c0.05,-0.05 0.07,-0.03 0.06,0.03c-0.02,0.07 0.08,0.39 0.22,0.72c0.28,0.69 0.44,1.73 0.55,3.65c0.04,0.76 0.12,1.36 0.16,1.33c0.05,-0.03 0.06,0.18 0.04,0.48c-0.03,0.3 0.03,1.42 0.12,2.49c0.09,1.07 0.19,2.5 0.23,3.17c0.04,0.67 0.15,2.07 0.24,3.11c0.09,1.03 0.19,2.2 0.21,2.59c0.03,0.39 0.07,1.09 0.1,1.55c0.03,0.47 0.09,1.4 0.13,2.07c0.04,0.67 0.12,1.75 0.19,2.39c0.06,0.64 0.11,1.44 0.11,1.78c0,0.34 0.03,0.67 0.06,0.74c0.04,0.07 0.09,0.8 0.13,1.64c0.03,0.83 0.09,1.57 0.12,1.62c0.03,0.05 0.08,0.64 0.11,1.3c0.03,0.66 0.15,2.4 0.28,3.86c0.12,1.46 0.22,2.99 0.22,3.4c0,0.59 0.03,0.75 0.18,0.75c0.14,0 0.15,0.04 0.06,0.22c-0.09,0.17 -0.06,1.02 0.11,3.21c0.13,1.64 0.24,3.15 0.25,3.37c0,0.21 0.15,2.34 0.34,4.72c0.19,2.38 0.34,4.61 0.34,4.94c-0.01,0.33 0.04,0.63 0.09,0.68c0.06,0.04 0.09,0.2 0.06,0.36c-0.04,0.26 1.7,24.55 1.86,25.94c0.03,0.28 0.06,0.64 0.06,0.79c0,0.15 0.24,3.32 0.52,7.06c0.28,3.73 0.53,7.08 0.55,7.43c0.14,2.23 0.21,3.24 0.3,4.27c0.06,0.64 0.14,1.8 0.18,2.58c0.04,0.78 0.12,1.51 0.17,1.62c0.05,0.11 0.07,0.27 0.04,0.35c-0.07,0.22 0.97,14.34 1.12,15.25c0.5,3 3.19,4.74 5.78,3.76c0.3,-0.12 0.54,-0.27 0.54,-0.33c0,-0.07 0.04,-0.09 0.1,-0.06c0.14,0.1 0.97,-0.62 1.31,-1.12c0.42,-0.62 0.73,-1.37 0.87,-2.1c0.1,-0.52 0.34,-3.45 0.36,-4.34c0,-0.11 0.21,-2.87 0.46,-6.15c0.25,-3.28 0.49,-6.47 0.52,-7.09c0.03,-0.62 0.08,-1.18 0.11,-1.23c0.03,-0.05 0.09,-0.74 0.12,-1.52c0.04,-0.78 0.33,-4.8 0.64,-8.93c0.31,-4.13 0.57,-7.66 0.56,-7.84c0,-0.18 0.13,-1.93 0.29,-3.89c0.16,-1.96 0.29,-3.71 0.29,-3.89c0,-0.17 0.08,-1.25 0.17,-2.39c0.16,-1.96 1.77,-23.87 1.78,-24.28c0,-0.11 0.14,-1.84 0.3,-3.86c0.16,-2.02 0.29,-3.79 0.3,-3.95c0.02,-0.58 0.12,-1.88 0.22,-3.07c0.09,-1 0.77,-10.44 0.8,-11.13c0.01,-0.11 0.11,-1.45 0.23,-2.98c0.12,-1.53 0.25,-3.28 0.29,-3.88c0.03,-0.61 0.17,-2.38 0.29,-3.94c0.12,-1.56 0.22,-2.96 0.22,-3.11c0,-0.15 0.15,-2.25 0.34,-4.68c0.19,-2.42 0.35,-4.55 0.35,-4.72c0.01,-0.41 0.09,-1.5 0.24,-3.17c0.06,-0.71 0.32,-4.1 0.57,-7.52c0.25,-3.43 0.51,-6.39 0.57,-6.59c0.07,-0.19 0.09,-0.4 0.06,-0.46c-0.03,-0.06 -0.01,-0.13 0.05,-0.16c0.06,-0.02 0.12,-0.13 0.14,-0.22c0.04,-0.2 0.14,-0.33 0.84,-1.17c0.74,-0.89 2.02,-1.49 3.05,-1.44c0.72,0.03 1.7,0.36 2.22,0.74c0.24,0.17 0.43,0.28 0.43,0.24c0,-0.16 0.9,1.15 1.11,1.61c0.12,0.26 0.25,0.49 0.3,0.51c0.05,0.02 0.06,0.08 0.04,0.14c-0.03,0.05 0,0.32 0.06,0.61c0.06,0.28 0.12,0.61 0.12,0.73c0,0.12 0.23,2.54 0.51,5.37c0.28,2.83 0.53,5.53 0.57,6c0.04,0.46 0.14,1.54 0.23,2.39c0.09,0.86 0.19,2.02 0.23,2.58c0.04,0.56 0.11,1.11 0.16,1.23c0.05,0.11 0.07,0.26 0.05,0.33c-0.03,0.07 0.11,1.67 0.3,3.56c0.19,1.89 0.37,3.78 0.4,4.21c0.03,0.43 0.19,2.03 0.34,3.56c0.15,1.53 0.31,3.22 0.35,3.76c0.04,0.53 0.12,1.35 0.19,1.81c0.07,0.47 0.12,0.96 0.12,1.1c0,0.15 0.18,2.04 0.4,4.21c0.22,2.17 0.4,4.07 0.4,4.21c0,0.15 0.1,1.22 0.22,2.4c0.12,1.17 0.25,2.51 0.28,2.98c0.04,0.47 0.3,3.14 0.58,5.96c0.28,2.81 0.54,5.61 0.58,6.21c0.04,0.61 0.12,1.19 0.18,1.31c0.06,0.12 0.08,0.24 0.04,0.28c-0.03,0.04 0.15,2.21 0.4,4.84c0.25,2.63 0.72,7.52 1.04,10.86c0.32,3.35 0.79,8.15 1.04,10.68c0.25,2.53 0.46,4.69 0.47,4.79c0.01,0.11 0.08,0.89 0.16,1.75c0.09,0.85 0.19,1.96 0.22,2.46c0.04,0.5 0.28,2.92 0.53,5.37c0.25,2.46 0.46,4.61 0.46,4.79c0,0.18 0.11,1.25 0.23,2.4c0.12,1.14 0.23,2.21 0.23,2.39c0,0.18 0.39,4.23 0.86,9c0.47,4.77 0.86,8.84 0.86,9.04c0,0.2 0.03,0.43 0.08,0.51c0.04,0.08 0.09,0.28 0.11,0.45c0.05,0.57 0.61,1.72 1.14,2.36c0.56,0.66 1.62,1.43 2.06,1.48c0.13,0.01 0.31,0.07 0.37,0.12c0.07,0.05 0.43,0.12 0.8,0.16c1.39,0.16 2.99,-0.55 4,-1.77c0.53,-0.63 1.08,-1.77 1.15,-2.35c0.02,-0.16 0.06,-0.38 0.1,-0.48c0.03,-0.11 0.2,-1.59 0.36,-3.3c0.16,-1.71 0.58,-6.08 0.93,-9.71c0.35,-3.63 0.62,-6.76 0.6,-6.95c-0.02,-0.19 0,-0.32 0.05,-0.29c0.05,0.04 0.1,-0.21 0.12,-0.56c0.03,-0.94 0.06,-1.26 0.44,-4.96c0.19,-1.88 0.34,-3.52 0.33,-3.62c-0.01,-0.11 0.01,-0.28 0.05,-0.39c0.04,-0.11 0.12,-0.83 0.18,-1.62c0.06,-0.78 0.12,-1.51 0.13,-1.62c0.05,-0.59 0.14,-1.53 0.29,-2.91c0.09,-0.86 0.16,-1.67 0.16,-1.82c0,-0.14 0.16,-1.74 0.35,-3.56c0.19,-1.81 0.37,-3.71 0.41,-4.21c0.04,-0.5 0.24,-2.66 0.46,-4.79c0.39,-3.94 1.75,-18.22 1.77,-18.58c0.01,-0.11 0.19,-2 0.42,-4.21c0.22,-2.21 0.43,-4.37 0.46,-4.79c0.03,-0.43 0.19,-2.06 0.34,-3.62c0.15,-1.57 0.26,-2.91 0.24,-2.98c-0.03,-0.07 0,-0.22 0.05,-0.34c0.05,-0.12 0.12,-0.67 0.15,-1.23c0.03,-0.56 0.08,-1.11 0.11,-1.22c0.04,-0.16 0.61,-6.22 0.64,-6.86c0.01,-0.11 0.09,-0.89 0.18,-1.75c0.14,-1.25 0.92,-9.56 0.98,-10.29c0.02,-0.33 0.1,-1.13 0.34,-3.37c0.12,-1.18 0.23,-2.28 0.23,-2.46c0,-0.18 0.13,-1.52 0.29,-2.98c0.15,-1.46 0.31,-3.06 0.35,-3.56c0.04,-0.5 0.35,-3.76 0.69,-7.25c0.34,-3.49 0.64,-6.62 0.66,-6.96c0.02,-0.34 0.06,-0.62 0.1,-0.62c0.04,0 0.11,-0.16 0.15,-0.36c0.11,-0.49 0.71,-1.52 1.11,-1.89c0.18,-0.17 0.3,-0.34 0.28,-0.39c-0.03,-0.04 -0.02,-0.06 0.02,-0.02c0.04,0.03 0.3,-0.09 0.59,-0.26c0.28,-0.17 0.7,-0.35 0.91,-0.39c0.22,-0.05 0.41,-0.13 0.44,-0.17c0.03,-0.05 0.43,-0.05 0.89,0c0.46,0.05 0.88,0.06 0.93,0.03c0.05,-0.03 0.09,-0.01 0.09,0.04c0,0.06 0.23,0.21 0.51,0.34c0.69,0.32 1.3,0.88 1.75,1.62c0.21,0.33 0.43,0.67 0.49,0.75c0.06,0.08 0.09,0.17 0.06,0.21c-0.03,0.03 0.01,0.23 0.07,0.45c0.11,0.35 0.44,4.08 0.62,7.03c0.03,0.6 0.3,4.13 0.58,7.83c0.28,3.71 0.54,7.26 0.58,7.9c0.04,0.64 0.17,2.39 0.28,3.88c0.12,1.5 0.25,3.33 0.29,4.07c0.04,0.74 0.09,1.4 0.12,1.44c0.03,0.05 0.08,0.67 0.11,1.37c0.03,0.7 0.16,2.52 0.28,4.06c0.12,1.54 0.25,3.4 0.29,4.14c0.04,0.75 0.09,1.4 0.12,1.44c0.03,0.04 0.07,0.69 0.11,1.42c0.03,0.74 0.09,1.52 0.13,1.72c0.04,0.21 0.08,0.65 0.09,0.97c0.07,1.61 0.2,3.63 0.31,4.52c0.06,0.55 0.11,1.17 0.11,1.38c0,0.21 0.09,1.64 0.22,3.17c0.23,2.86 0.26,3.32 0.4,5.44c0.04,0.68 0.15,2.1 0.24,3.17c0.09,1.07 0.17,2.03 0.18,2.14c0.02,0.63 0.6,8.68 0.75,10.36c0.09,1.1 0.17,2.15 0.17,2.33c0,0.17 0.1,1.57 0.22,3.11c0.12,1.53 0.25,3.28 0.28,3.89c0.03,0.61 0.19,2.73 0.35,4.72c0.15,2 0.31,4.15 0.35,4.79c0.04,0.64 0.12,1.69 0.19,2.33c0.07,0.64 0.12,1.31 0.11,1.49c-0.01,0.18 0.33,4.75 0.74,10.17c0.87,11.62 0.84,11.16 0.86,11.65c0.01,0.22 0.16,2.34 0.34,4.73c0.18,2.38 0.36,4.91 0.4,5.62c0.04,0.7 0.1,1.33 0.13,1.4c0.03,0.06 0.09,0.32 0.12,0.57c0.05,0.44 0.56,1.73 0.68,1.73c0.04,0 0.03,-0.07 -0.02,-0.15c-0.05,-0.09 -0.03,-0.11 0.05,-0.05c0.08,0.05 0.11,0.15 0.07,0.22c-0.1,0.17 0.85,1.17 1.01,1.07c0.07,-0.05 0.09,-0.03 0.05,0.04c-0.09,0.16 0.98,0.71 1.45,0.75c0.17,0.01 0.35,0.07 0.39,0.11c0.15,0.17 1.06,0.08 1.8,-0.17c0.41,-0.15 1.01,-0.48 1.33,-0.75c0.56,-0.47 1.28,-1.37 1.28,-1.59c0,-0.06 0,-0.15 -0.01,-0.18c0,-0.04 0.07,-0.15 0.15,-0.25c0.09,-0.1 0.22,-0.52 0.29,-0.94c0.15,-0.88 0.64,-7.42 0.55,-7.52c-0.03,-0.03 -0.01,-0.2 0.04,-0.36c0.06,-0.16 0.13,-0.9 0.17,-1.64c0.04,-0.74 0.22,-3.29 0.41,-5.68c0.19,-2.39 0.34,-4.49 0.34,-4.67c0,-0.17 0.15,-2.3 0.34,-4.72c0.19,-2.42 0.38,-4.9 0.41,-5.5c0.04,-0.61 0.24,-3.37 0.46,-6.15c0.22,-2.78 0.43,-5.64 0.47,-6.35c0.14,-2.22 0.16,-2.57 0.22,-3.04c0.06,-0.52 1.08,-14.56 1.09,-14.95c0,-0.15 0.1,-1.51 0.23,-3.04c0.13,-1.53 0.22,-2.96 0.22,-3.17c-0.01,-0.21 0.02,-0.47 0.05,-0.58c0.1,-0.3 0.8,-10.37 0.73,-10.46c-0.03,-0.04 -0.02,-0.16 0.04,-0.29c0.06,-0.12 0.13,-0.87 0.17,-1.68c0.04,-0.8 0.09,-1.5 0.12,-1.56c0.03,-0.05 0.08,-0.73 0.12,-1.51c0.04,-0.78 0.14,-2.26 0.23,-3.29c0.14,-1.69 0.24,-2.97 0.37,-5.18c0.03,-0.39 0.19,-2.67 0.38,-5.05c0.19,-2.38 0.37,-4.86 0.4,-5.5c0.03,-0.64 0.17,-2.39 0.29,-3.89c0.12,-1.5 0.22,-2.87 0.2,-3.04c-0.01,-0.18 0.01,-0.44 0.05,-0.59c0.04,-0.14 0.11,-0.87 0.15,-1.62c0.18,-3.45 0.64,-8.65 0.82,-9.32c0.11,-0.39 0.19,-0.73 0.17,-0.75c-0.1,-0.13 1.47,-1.66 1.98,-1.91c1.68,-0.87 3.87,-0.29 4.95,1.32c0.21,0.31 0.42,0.52 0.47,0.47c0.05,-0.05 0.06,-0.03 0.02,0.05c-0.04,0.08 0.03,0.43 0.14,0.78c0.22,0.63 0.35,2.2 0.53,6.01c0.04,0.89 0.12,2.26 0.18,3.04c0.06,0.78 0.1,1.66 0.11,1.94c0,0.29 0.24,4.42 0.52,9.2c0.28,4.77 0.52,8.77 0.52,8.87c0.04,1.41 0.75,13.68 0.8,13.72c0.06,0.06 0.08,0.65 0.1,3.13c0.01,0.47 0.06,0.9 0.12,0.94c0.06,0.04 0.09,0.2 0.06,0.36c-0.06,0.34 0.52,11.6 0.62,11.88c0.04,0.11 0.06,0.43 0.05,0.71c-0.02,0.28 0.08,2.12 0.21,4.08c0.12,1.96 0.23,3.65 0.23,3.76c0.04,1.46 0.38,7.63 0.43,7.77c0.03,0.11 0.06,0.43 0.05,0.71c-0.01,0.29 0.12,2.59 0.27,5.11c0.16,2.53 0.29,4.69 0.3,4.79c0.07,2 0.28,5.55 0.33,5.51c0.04,-0.02 0.07,0.46 0.07,1.08c0.01,0.62 0.02,1.24 0.04,1.38c0.02,0.14 0.09,1.49 0.15,3c0.07,1.51 0.16,2.72 0.2,2.69c0.04,-0.02 0.07,0.48 0.08,1.14c0.01,1.64 0.02,2 0.22,4.88c0.09,1.39 0.17,2.62 0.18,2.72c0.02,1.08 0.49,9.57 0.53,9.71c0.03,0.11 0.05,0.56 0.04,1c-0.02,0.44 0.01,0.86 0.04,0.93c0.04,0.07 0.09,0.7 0.11,1.4c0.04,1.41 0.19,1.87 0.76,2.41c0.2,0.19 0.57,0.37 0.87,0.42c1.01,0.17 2.11,-0.83 2.13,-1.95c0.02,-0.81 0.09,-1.69 0.15,-1.88c0.1,-0.34 1.02,-10.64 0.96,-10.81c-0.03,-0.09 -0.01,-0.22 0.05,-0.29c0.06,-0.07 0.12,-0.68 0.13,-1.36c0.02,-0.68 0.07,-1.22 0.12,-1.18c0.05,0.03 0.09,-0.25 0.11,-0.63c0.05,-1.33 0.07,-1.59 0.12,-1.79c0.11,-0.37 0.68,-7.12 0.62,-7.32c-0.03,-0.11 -0.01,-0.19 0.06,-0.19c0.07,0 0.11,-0.23 0.08,-0.58c-0.03,-0.32 0.01,-0.58 0.06,-0.58c0.06,0 0.07,-0.32 0.04,-0.72c-0.04,-0.47 -0.03,-0.68 0.06,-0.63c0.08,0.05 0.1,-0.15 0.08,-0.58c-0.02,-0.36 -0.01,-0.66 0.03,-0.66c0.1,0 0.37,-3.33 0.29,-3.48c-0.04,-0.07 -0.02,-0.15 0.05,-0.17c0.06,-0.02 0.12,-0.63 0.14,-1.36c0.02,-0.72 0.07,-1.28 0.12,-1.25c0.05,0.03 0.1,-0.22 0.11,-0.56c0.02,-0.34 0.03,-0.86 0.05,-1.14c0.01,-0.29 0.05,-0.61 0.08,-0.71c0.05,-0.16 0.27,-2.61 0.3,-3.37c0.01,-0.11 0.24,-2.55 0.53,-5.44c0.28,-2.88 0.49,-5.43 0.47,-5.65c-0.03,-0.23 -0.01,-0.43 0.05,-0.46c0.06,-0.02 0.12,-0.6 0.14,-1.29c0.02,-0.68 0.06,-1.23 0.09,-1.21c0.06,0.04 0.43,-3.65 0.54,-5.32c0.02,-0.35 0.17,-1.93 0.33,-3.49c0.16,-1.57 0.27,-3.03 0.25,-3.26c-0.02,-0.23 -0.01,-0.39 0.03,-0.36c0.11,0.08 0.38,-3.51 0.28,-3.7c-0.05,-0.1 -0.04,-0.13 0.02,-0.09c0.14,0.09 0.67,-5.57 0.56,-5.9c-0.04,-0.13 -0.03,-0.23 0.03,-0.23c0.06,0 0.2,-1.06 0.31,-2.36c0.12,-1.3 0.28,-2.65 0.36,-3c0.08,-0.36 0.12,-0.7 0.08,-0.77c-0.03,-0.07 -0.01,-0.08 0.06,-0.04c0.06,0.05 0.19,-0.1 0.27,-0.31c0.19,-0.53 1.08,-1.54 1.72,-1.96c1.43,-0.94 2.96,-0.98 4.5,-0.1c0.36,0.21 0.67,0.36 0.69,0.35c0.02,-0.01 0.03,0 0.02,0.03c-0.02,0.03 0.21,0.33 0.49,0.68c0.54,0.64 1.03,1.67 1.15,2.39c0.08,0.46 1.54,19.2 1.55,19.8c0,0.21 0.11,1.58 0.23,3.04c0.12,1.46 0.22,2.98 0.22,3.36c0,0.55 0.03,0.67 0.12,0.52c0.09,-0.15 0.1,-0.09 0.05,0.23c-0.07,0.42 0.37,7.16 0.49,7.54c0.03,0.11 0.05,0.25 0.03,0.32c-0.06,0.29 0.51,7.29 0.59,7.24c0.05,-0.03 0.06,0.03 0.02,0.15c-0.1,0.28 0.44,7.57 0.56,7.5c0.05,-0.03 0.06,0.03 0.02,0.15c-0.08,0.22 0.16,4.27 0.28,4.59c0.03,0.11 0.05,0.29 0.04,0.4c-0.02,0.11 0.22,3.35 0.5,7.19c0.29,3.84 0.56,7.46 0.6,8.05c0.04,0.59 0.12,1.07 0.17,1.07c0.06,0 0.07,0.06 0.03,0.13c-0.09,0.17 0.06,2.99 0.16,2.92c0.04,-0.03 0.06,0.19 0.04,0.49c-0.02,0.3 0.1,2.08 0.26,3.97c0.16,1.88 0.29,3.6 0.28,3.79c0,0.2 0.14,0.66 0.32,1.03c0.61,1.26 2.09,1.63 3.16,0.79c0.74,-0.58 0.83,-0.91 1.35,-5.3c0.26,-2.2 0.46,-4.13 0.43,-4.29c-0.03,-0.16 -0.01,-0.26 0.03,-0.23c0.11,0.07 0.51,-3.51 0.42,-3.76c-0.04,-0.13 -0.02,-0.17 0.06,-0.11c0.09,0.06 0.12,-0.08 0.09,-0.44c-0.03,-0.29 -0.01,-0.5 0.03,-0.47c0.11,0.08 0.25,-1.85 0.15,-2.03c-0.06,-0.1 -0.04,-0.12 0.06,-0.05c0.11,0.08 0.14,-0.01 0.1,-0.37c-0.03,-0.26 -0.02,-0.47 0.03,-0.47c0.04,0 0.13,-0.54 0.2,-1.2c0.07,-0.66 0.24,-2.1 0.37,-3.2c0.13,-1.1 0.22,-2.11 0.19,-2.23c-0.03,-0.13 -0.02,-0.23 0.03,-0.23c0.11,0 0.51,-3.58 0.42,-3.75c-0.03,-0.06 -0.02,-0.14 0.03,-0.16c0.11,-0.05 1.23,-9.34 1.23,-10.23c0,-0.33 0.03,-0.58 0.06,-0.56c0.11,0.07 0.37,-2.76 0.27,-2.94c-0.05,-0.09 -0.03,-0.12 0.03,-0.08c0.07,0.05 0.17,-0.47 0.26,-1.24c0.08,-0.73 0.25,-2.16 0.37,-3.18c0.13,-1.02 0.21,-1.97 0.18,-2.1c-0.03,-0.14 -0.02,-0.24 0.03,-0.24c0.11,0 0.5,-3.59 0.41,-3.76c-0.04,-0.07 -0.03,-0.13 0.03,-0.13c0.12,0 0.65,-4.58 0.56,-4.86c-0.04,-0.12 -0.03,-0.17 0.03,-0.14c0.06,0.04 0.13,-0.23 0.17,-0.59c0.1,-0.94 0.66,-2.2 1.34,-3c0.32,-0.38 0.56,-0.73 0.52,-0.78c-0.03,-0.05 -0.03,-0.06 0.02,-0.03c0.04,0.03 0.34,-0.11 0.66,-0.31c0.33,-0.21 0.89,-0.46 1.24,-0.57c0.73,-0.21 1.77,-0.31 1.9,-0.17c0.12,0.15 0.56,0.1 0.73,-0.07c0.14,-0.14 0.14,-0.13 0.01,0.07c-0.13,0.19 -0.12,0.22 0.04,0.22c0.49,0 1.54,0.73 2.28,1.58c0.43,0.49 0.75,0.95 0.71,1.02c-0.03,0.07 -0.02,0.12 0.04,0.12c0.12,0 0.71,1.93 0.71,2.33c0,0.15 0.04,0.25 0.09,0.21c0.05,-0.03 0.09,0.21 0.11,0.53c0.02,0.32 0.07,0.63 0.12,0.66c0.05,0.04 0.09,0.18 0.1,0.31c0.03,0.78 0.05,0.88 0.18,0.79c0.08,-0.06 0.1,-0.03 0.04,0.06c-0.04,0.09 -0.03,0.43 0.04,0.77c0.06,0.33 0.41,2.12 0.77,3.98c0.36,1.85 0.7,3.38 0.75,3.41c0.06,0.02 0.07,0.1 0.04,0.16c-0.09,0.16 0.63,3.93 0.76,3.98c0.06,0.02 0.08,0.1 0.04,0.16c-0.03,0.06 0.04,0.65 0.16,1.31c0.57,3.07 0.75,3.84 0.86,3.77c0.06,-0.05 0.08,-0.01 0.03,0.08c-0.12,0.22 0.18,1.83 0.32,1.73c0.07,-0.04 0.08,-0.01 0.03,0.08c-0.12,0.21 0.64,4.16 0.78,4.07c0.06,-0.04 0.07,-0.01 0.03,0.07c-0.12,0.22 0.4,2.88 0.54,2.78c0.06,-0.04 0.08,-0.01 0.03,0.07c-0.09,0.17 -0.02,0.67 0.61,3.84c0.25,1.28 0.65,3.33 0.89,4.56c0.24,1.22 0.47,2.2 0.53,2.16c0.05,-0.03 0.06,0.02 0.03,0.12c-0.08,0.24 0.87,5.18 1,5.24c0.06,0.02 0.07,0.1 0.04,0.16c-0.11,0.21 0.66,4 0.8,3.91c0.09,-0.06 0.09,-0.03 0.01,0.11c-0.14,0.21 0.19,1.88 0.33,1.72c0.05,-0.05 0.06,0 0.02,0.12c-0.12,0.35 0.52,1.5 1.15,2.09c0.7,0.65 1.42,0.98 1.57,0.71c0.08,-0.14 0.1,-0.13 0.1,0.05c0,0.21 0.21,0.23 2.56,0.24c1.41,0.01 3.48,0.05 4.61,0.1c1.13,0.04 2.18,0.04 2.33,-0.01c0.16,-0.05 0.25,-0.03 0.22,0.03c-0.03,0.06 0.01,0.12 0.1,0.12c0.09,0 0.41,0.15 0.71,0.32c0.3,0.18 0.61,0.29 0.68,0.24c0.07,-0.04 0.1,-0.04 0.05,0.01c-0.05,0.06 0.12,0.36 0.36,0.67c0.55,0.7 0.78,1.24 0.95,2.18c0.25,1.42 -0.37,3.1 -1.49,4.02c-1.04,0.86 -1.11,0.86 -6.81,0.81c-5.07,-0.05 -5.12,-0.05 -6.2,-0.38c-1.12,-0.34 -2.34,-0.95 -3.97,-1.98c-1.14,-0.72 -2.67,-1.4 -2.95,-1.32c-0.12,0.03 -0.19,0.02 -0.15,-0.04c0.05,-0.09 -1.29,-0.37 -1.95,-0.41c-0.74,-0.05 -2.4,0.04 -2.99,0.16c-1.04,0.2 -2.26,0.63 -2.18,0.77c0.03,0.07 -0.01,0.09 -0.1,0.05c-0.41,-0.17 -3.52,1.98 -3.34,2.31c0.05,0.08 0.02,0.1 -0.07,0.03c-0.32,-0.23 -2.81,3.29 -2.81,3.96c0,0.12 -0.03,0.2 -0.08,0.17c-0.08,-0.06 -0.43,0.79 -0.72,1.77c-0.28,0.93 -0.56,2.68 -0.51,3.1c0.03,0.2 0.01,0.35 -0.03,0.32c-0.1,-0.07 -0.74,5.45 -0.65,5.69c0.04,0.12 0.03,0.18 -0.03,0.14c-0.12,-0.08 -0.29,1.54 -0.19,1.73c0.04,0.07 0.03,0.14 -0.03,0.14c-0.12,0 -0.54,3.55 -0.44,3.74c0.04,0.07 0.03,0.15 -0.03,0.17c-0.12,0.06 -1.22,9.49 -1.13,9.75c0.04,0.11 0.03,0.18 -0.02,0.15c-0.05,-0.03 -0.33,2.02 -0.63,4.56c-0.3,2.54 -0.78,6.62 -1.07,9.07c-0.58,4.9 -0.7,5.47 -1.49,6.56c-0.28,0.38 -0.46,0.73 -0.42,0.78c0.05,0.05 0.03,0.06 -0.04,0.02c-0.07,-0.04 -0.35,0.09 -0.63,0.31c-0.9,0.67 -2.03,0.94 -3.19,0.76c-0.89,-0.15 -1.64,-0.56 -2.4,-1.33c-0.32,-0.32 -0.62,-0.56 -0.65,-0.53c-0.04,0.03 -0.05,0.02 -0.02,-0.02c0.03,-0.04 -0.1,-0.41 -0.28,-0.81c-0.45,-0.96 -0.52,-1.39 -0.76,-4.77c-0.11,-1.58 -0.25,-2.88 -0.3,-2.88c-0.06,0 -0.06,-0.06 -0.03,-0.14c0.11,-0.2 -0.31,-5.95 -0.43,-5.95c-0.06,0 -0.07,-0.12 -0.03,-0.26c0.09,-0.33 -0.64,-10.27 -0.76,-10.33c-0.05,-0.02 -0.06,-0.13 -0.02,-0.23c0.1,-0.29 -0.33,-5.93 -0.46,-6.02c-0.06,-0.05 -0.07,-0.15 -0.03,-0.22c0.09,-0.17 -0.05,-2.88 -0.15,-2.81c-0.04,0.02 -0.07,-0.37 -0.07,-0.88c-0.01,-1.23 -0.54,-8.24 -0.62,-8.18c-0.04,0.02 -0.07,-0.34 -0.07,-0.82c-0.01,-1.04 -0.13,-3.08 -0.28,-4.49c-0.06,-0.57 -0.12,-1.25 -0.15,-1.52c-0.06,-0.64 -0.6,-1.84 -1.09,-2.46c-0.48,-0.6 -1.34,-1.2 -1.53,-1.06c-0.09,0.06 -0.11,0.04 -0.05,-0.06c0.04,-0.08 0.06,-0.15 0.05,-0.15c-0.02,0 -0.4,-0.09 -0.84,-0.19c-1.47,-0.35 -2.97,0.14 -4.02,1.3c-0.59,0.65 -1.27,2.03 -1.18,2.39c0.03,0.13 0.01,0.26 -0.04,0.28c-0.12,0.05 -0.39,2.9 -0.3,3.15c0.04,0.1 0.01,0.18 -0.06,0.18c-0.08,0 -0.11,0.27 -0.08,0.7c0.02,0.38 0.01,0.68 -0.03,0.65c-0.11,-0.07 -0.83,8.3 -0.75,8.63c0.06,0.24 0.05,0.27 -0.04,0.12c-0.09,-0.15 -0.12,-0.05 -0.12,0.39c0,0.32 0.06,0.67 0.14,0.78c0.12,0.15 0.11,0.15 -0.07,-0.01c-0.2,-0.17 -0.21,-0.15 -0.17,0.49c0.03,0.37 0.01,0.69 -0.04,0.71c-0.05,0.01 -0.1,0.57 -0.12,1.23c-0.02,0.66 -0.08,1.2 -0.13,1.2c-0.06,0 -0.08,0.29 -0.06,0.65c0.03,0.35 0.01,0.66 -0.03,0.68c-0.07,0.03 -0.83,8.12 -0.78,8.33c0.01,0.07 -0.02,0.22 -0.06,0.34c-0.05,0.13 -0.07,0.46 -0.05,0.75c0.03,0.28 0.02,0.53 -0.03,0.55c-0.1,0.05 -1.28,13.04 -1.2,13.19c0.04,0.07 0.01,0.21 -0.06,0.31c-0.07,0.1 -0.12,0.41 -0.11,0.68c0.02,0.27 -0.01,0.59 -0.06,0.72c-0.05,0.13 -0.06,0.43 -0.04,0.68c0.03,0.25 0.01,0.46 -0.03,0.46c-0.11,0 -0.37,3.59 -0.28,3.76c0.05,0.09 0.04,0.13 -0.03,0.08c-0.1,-0.07 -0.44,3.01 -0.37,3.35c0.01,0.06 -0.01,0.21 -0.04,0.31c-0.12,0.34 -0.46,4.64 -0.38,4.78c0.04,0.08 0.02,0.14 -0.05,0.14c-0.09,0 -0.12,0.23 -0.09,0.7c0.02,0.38 0.01,0.68 -0.03,0.65c-0.07,-0.05 -0.27,1.13 -0.25,1.47c0.01,0.1 -0.02,0.14 -0.05,0.1c-0.08,-0.09 -0.59,1 -0.53,1.12c0.03,0.06 0.01,0.08 -0.04,0.07c-0.06,-0.02 -0.32,0.19 -0.59,0.47c-0.27,0.29 -0.62,0.62 -0.78,0.73c-0.16,0.12 -0.28,0.25 -0.27,0.31c0.01,0.05 -0.02,0.13 -0.06,0.17c-0.05,0.05 -0.04,0.01 0.01,-0.1c0.07,-0.14 0.04,-0.16 -0.11,-0.1c-0.11,0.05 -0.25,0.09 -0.31,0.09c-0.06,0 -0.08,0.05 -0.05,0.12c0.04,0.07 -0.05,0.09 -0.19,0.04c-0.24,-0.07 -0.25,-0.06 -0.09,0.16c0.16,0.22 0.15,0.22 -0.07,0.07c-0.18,-0.13 -0.4,-0.14 -0.88,-0.04c-0.36,0.07 -0.71,0.07 -0.8,0.01c-0.08,-0.06 -0.28,-0.11 -0.45,-0.11c-0.52,-0.01 -1.87,-0.86 -2.44,-1.54c-0.29,-0.35 -0.56,-0.61 -0.59,-0.59c-0.03,0.03 -0.04,0.02 -0.02,-0.02c0.03,-0.04 -0.08,-0.4 -0.24,-0.78c-0.17,-0.41 -0.31,-1.05 -0.34,-1.51c-0.03,-0.44 -0.08,-0.88 -0.1,-0.98c-0.03,-0.1 -0.08,-0.97 -0.11,-1.94c-0.03,-0.97 -0.09,-1.94 -0.13,-2.16c-0.04,-0.21 -0.06,-0.5 -0.05,-0.64c0.01,-0.15 -0.13,-3.03 -0.33,-6.41c-0.19,-3.38 -0.38,-6.84 -0.42,-7.68c-0.04,-0.83 -0.12,-1.52 -0.17,-1.52c-0.05,0 -0.06,-0.09 -0.03,-0.2c0.09,-0.26 -0.56,-12.03 -0.66,-12.07c-0.05,-0.02 -0.06,-0.26 -0.03,-0.52c0.03,-0.26 0,-1.24 -0.06,-2.16c-0.06,-0.93 -0.15,-2.35 -0.19,-3.17c-0.04,-0.82 -0.17,-3.09 -0.28,-5.05c-0.12,-1.96 -0.25,-4.35 -0.28,-5.31c-0.04,-0.96 -0.11,-1.92 -0.15,-2.14c-0.04,-0.21 -0.06,-0.47 -0.05,-0.56c0.05,-0.29 -0.34,-6.54 -0.42,-6.68c-0.04,-0.07 -0.08,-0.27 -0.1,-0.44c-0.06,-0.61 -0.66,-1.71 -1.33,-2.42c-0.4,-0.43 -0.73,-0.68 -0.8,-0.63c-0.08,0.06 -0.1,0.04 -0.06,-0.04c0.11,-0.2 -0.93,-0.66 -1.78,-0.8c-1.86,-0.3 -3.64,0.61 -4.73,2.4c-0.24,0.39 -0.51,1 -0.6,1.36c-0.13,0.52 -0.63,6.1 -0.63,7.16c0,0.15 -0.23,3.26 -0.52,6.93c-0.28,3.67 -0.54,7.17 -0.58,7.77c-0.03,0.61 -0.14,2 -0.23,3.11c-0.09,1.1 -0.16,2.15 -0.16,2.33c0,0.18 -0.15,2.28 -0.34,4.66c-0.32,4 -0.44,5.64 -0.55,7.51c-0.02,0.39 -0.17,2.32 -0.32,4.27c-0.15,1.96 -0.31,4.08 -0.35,4.73c-0.04,0.64 -0.1,1.47 -0.13,1.84c-0.05,0.47 -0.03,0.68 0.06,0.68c0.07,0 0.13,0.06 0.13,0.14c0,0.08 -0.05,0.1 -0.11,0.06c-0.12,-0.09 -0.25,0.49 -0.24,1.1c0.01,0.24 -0.07,1.38 -0.17,2.51c-0.1,1.14 -0.16,2.23 -0.14,2.43c0.03,0.19 0.01,0.35 -0.04,0.35c-0.07,0 -0.19,1.58 -0.29,3.66c-0.02,0.41 -0.06,0.91 -0.1,1.1c-0.03,0.19 -0.09,0.91 -0.13,1.58c-0.03,0.68 -0.14,2.13 -0.23,3.24c-0.09,1.1 -0.16,2.18 -0.15,2.39c0.01,0.22 -0.01,0.48 -0.05,0.59c-0.05,0.15 -0.72,9.39 -0.77,10.49c-0.01,0.11 -0.08,1.1 -0.18,2.2c-0.17,2.01 -1.24,16.18 -1.25,16.61c-0.01,0.13 -0.05,0.23 -0.1,0.23c-0.05,0 -0.09,0.07 -0.09,0.16c0,0.09 -0.18,0.47 -0.39,0.83c-0.24,0.42 -0.35,0.72 -0.28,0.81c0.07,0.09 0.06,0.1 -0.03,0.02c-0.08,-0.07 -0.3,0.03 -0.62,0.31c-0.28,0.24 -0.72,0.52 -0.99,0.64c-0.49,0.21 -2.12,0.47 -2.22,0.35c-0.08,-0.09 -1.23,-0.55 -1.46,-0.59c-0.11,-0.01 -0.24,-0.08 -0.29,-0.14c-0.05,-0.06 -0.01,-0.06 0.09,-0.01c0.09,0.06 -0.03,-0.1 -0.29,-0.33c-0.25,-0.24 -0.49,-0.42 -0.54,-0.41c-0.05,0.02 -0.08,-0.01 -0.06,-0.06c0.01,-0.05 -0.11,-0.36 -0.28,-0.68c-0.52,-1.01 -0.63,-1.64 -0.83,-4.92c-0.1,-1.64 -0.54,-7.68 -0.59,-8.07c-0.02,-0.2 -0.11,-0.46 -0.19,-0.58c-0.11,-0.15 -0.12,-0.18 -0.01,-0.11c0.08,0.05 0.14,0.03 0.14,-0.05c0,-0.19 -1.42,-19.48 -2.36,-32.05c-0.4,-5.41 -0.76,-10.34 -0.8,-10.94c-0.04,-0.61 -0.19,-2.7 -0.35,-4.66c-0.16,-1.96 -0.29,-3.65 -0.29,-3.76c-0.01,-0.39 -0.34,-5.13 -0.39,-5.63c-0.03,-0.29 -0.08,-1.05 -0.11,-1.69c-0.04,-0.64 -0.11,-1.72 -0.18,-2.39c-0.06,-0.68 -0.3,-3.91 -0.53,-7.19c-0.23,-3.28 -0.44,-6.05 -0.48,-6.15c-0.05,-0.17 -0.12,-1.19 -0.14,-2.07c-0.02,-0.84 -0.37,-5.07 -0.48,-5.76c-0.31,-2.01 -1.45,-4.35 -2.74,-5.66c-1.45,-1.48 -3.45,-2.49 -5.28,-2.67c-1.07,-0.11 -2.82,0.04 -2.88,0.24c-0.02,0.07 -0.09,0.1 -0.15,0.06c-0.23,-0.16 -2.8,1.04 -2.68,1.26c0.03,0.06 0.02,0.11 -0.03,0.09c-0.24,-0.04 -0.4,0.05 -0.94,0.61c-0.32,0.32 -0.56,0.65 -0.51,0.73c0.04,0.08 0.02,0.1 -0.06,0.04c-0.37,-0.26 -2.26,3.05 -2.36,4.13c-0.01,0.15 -0.06,0.33 -0.09,0.4c-0.11,0.2 -0.31,1.58 -0.38,2.65c-0.03,0.53 -0.14,1.67 -0.23,2.52c-0.09,0.85 -0.2,1.93 -0.23,2.39c-0.12,1.44 -0.16,1.89 -0.62,6.54c-0.25,2.49 -0.45,4.65 -0.45,4.79c0,0.14 -0.06,0.72 -0.13,1.27c-0.07,0.56 -0.11,1.09 -0.08,1.17c0.03,0.08 0.01,0.24 -0.05,0.35c-0.05,0.11 -0.12,0.67 -0.16,1.23c-0.04,0.57 -0.12,1.46 -0.18,2c-0.2,1.82 -2.03,21.07 -2.05,21.5c-0.01,0.11 -0.06,0.62 -0.12,1.13c-0.06,0.52 -0.15,1.37 -0.19,1.88c-0.04,0.51 -0.24,2.68 -0.46,4.82c-0.22,2.14 -0.42,4.29 -0.46,4.79c-0.04,0.5 -0.17,1.9 -0.3,3.11c-0.17,1.65 -0.19,2.26 -0.1,2.44c0.07,0.14 0.08,0.21 0.01,0.16c-0.19,-0.13 -0.23,0.08 -0.3,1.34c-0.03,0.66 -0.08,1.24 -0.11,1.29c-0.03,0.05 -0.08,0.55 -0.12,1.12c-0.04,0.56 -0.25,2.78 -0.46,4.91c-0.22,2.14 -0.4,4.03 -0.4,4.21c-0.03,1.21 -0.46,4.59 -0.65,5.18c-0.22,0.69 -0.68,1.48 -1.18,2c-0.19,0.2 -0.32,0.42 -0.29,0.48c0.03,0.06 -0.02,0.07 -0.11,0.03c-0.09,-0.04 -0.28,0.05 -0.41,0.19c-0.13,0.15 -0.28,0.27 -0.33,0.26c-0.05,-0.01 -0.29,0.06 -0.55,0.14c-0.37,0.12 -0.56,0.11 -0.95,-0.05c-0.27,-0.11 -0.49,-0.17 -0.49,-0.14c0,0.03 -0.11,-0.06 -0.24,-0.21c-0.15,-0.16 -0.31,-0.24 -0.43,-0.18c-0.1,0.04 -0.15,0.04 -0.11,-0.01c0.04,-0.05 -0.17,-0.4 -0.47,-0.78c-0.78,-0.96 -1.16,-1.89 -1.24,-3.03c-0.03,-0.39 -0.08,-0.86 -0.12,-1.04c-0.04,-0.18 -0.09,-0.53 -0.1,-0.78c-0.08,-1.19 -0.2,-2.52 -0.35,-3.88c-0.09,-0.82 -0.18,-1.64 -0.18,-1.81c0,-0.18 -0.1,-1.26 -0.22,-2.4c-0.12,-1.14 -0.25,-2.48 -0.28,-2.98c-0.03,-0.49 -0.1,-1.08 -0.14,-1.29c-0.04,-0.21 -0.07,-0.5 -0.06,-0.64c0.01,-0.15 -0.14,-1.72 -0.33,-3.5c-0.19,-1.78 -0.35,-3.36 -0.35,-3.51c0,-0.15 -0.28,-3.14 -0.63,-6.67c-0.35,-3.52 -0.64,-6.49 -0.64,-6.59c-0.01,-0.21 -0.89,-9.48 -1.54,-16.26c-0.22,-2.35 -0.67,-6.86 -0.98,-10.03c-0.32,-3.17 -0.58,-5.88 -0.58,-6.02c0,-0.14 -0.07,-0.95 -0.16,-1.81c-0.09,-0.85 -0.19,-2.01 -0.23,-2.56c-0.04,-0.56 -0.12,-1.15 -0.17,-1.31c-0.06,-0.17 -0.08,-0.33 -0.05,-0.36c0.06,-0.06 -0.6,-7.06 -0.71,-7.59c-0.04,-0.19 -0.1,-0.4 -0.14,-0.47c-0.03,-0.07 -0.08,-0.26 -0.09,-0.43c-0.05,-0.48 -0.91,-2.36 -1.45,-3.15c-1.21,-1.77 -3.12,-3.18 -5.1,-3.75c-1.24,-0.36 -3.11,-0.36 -4.31,-0.01c-1.47,0.43 -2.83,1.24 -3.98,2.37c-0.34,0.33 -0.38,0.43 -0.25,0.61c0.13,0.18 0.12,0.19 -0.04,0.04c-0.16,-0.14 -0.24,-0.09 -0.56,0.36c-0.2,0.29 -0.32,0.52 -0.27,0.52c0.05,0.01 0.01,0.06 -0.11,0.14c-0.21,0.14 -0.61,0.9 -0.47,0.9c0.05,0 -0.01,0.07 -0.11,0.16c-0.45,0.38 -1.08,2.87 -1.18,4.7c-0.04,0.63 -0.17,2.41 -0.29,3.94c-0.12,1.53 -0.22,2.93 -0.22,3.11c0,0.18 -0.13,1.99 -0.29,4.01c-0.16,2.03 -0.28,3.78 -0.27,3.89c0.01,0.11 -0.02,0.37 -0.06,0.58c-0.04,0.22 -0.11,0.94 -0.14,1.62c-0.03,0.68 -0.08,1.38 -0.1,1.56c-0.05,0.3 -0.28,3.69 -0.28,4.14c0,0.11 -0.24,3.23 -0.52,6.93c-0.46,6.07 -1.89,25.49 -1.9,25.96c0,0.11 -0.08,1.04 -0.17,2.07c-0.09,1.03 -0.2,2.43 -0.24,3.11c-0.04,0.68 -0.33,4.61 -0.64,8.74c-0.31,4.13 -0.56,7.63 -0.55,7.77c0.01,0.14 -0.02,0.43 -0.06,0.64c-0.04,0.21 -0.1,0.99 -0.14,1.73c-0.03,0.74 -0.08,1.39 -0.11,1.43c-0.03,0.05 -0.08,0.75 -0.11,1.55c-0.03,0.8 -0.09,1.5 -0.12,1.55c-0.03,0.05 -0.09,0.74 -0.13,1.52c-0.04,0.78 -0.17,2.67 -0.29,4.19c-0.12,1.53 -0.19,2.82 -0.15,2.88c0.03,0.06 0.02,0.11 -0.03,0.11c-0.06,0 -0.19,0.28 -0.29,0.62c-0.11,0.34 -0.37,0.85 -0.6,1.15c-0.22,0.29 -0.37,0.57 -0.32,0.62c0.04,0.05 0.03,0.08 -0.03,0.06c-0.17,-0.05 -0.53,0.15 -0.46,0.26c0.03,0.05 -0.01,0.1 -0.09,0.11c-0.12,0.01 -0.9,0.33 -1.58,0.67c-0.1,0.04 -0.54,0.04 -0.98,0l-0.03,0.03l-0.12,0.06zm142.48,-61.82c0,-0.22 0.03,-0.29 0.06,-0.16c0.03,0.13 0.03,0.3 -0.01,0.39c-0.03,0.09 -0.06,-0.01 -0.05,-0.23l0,0zm-164.73,-10.76c0.01,-0.15 0.03,-0.18 0.07,-0.08c0.03,0.09 0.03,0.2 -0.01,0.25c-0.04,0.04 -0.07,-0.03 -0.06,-0.17zm166.9,-6.73c0.01,-0.16 0.03,-0.18 0.07,-0.08c0.03,0.1 0.03,0.21 -0.01,0.25c-0.04,0.04 -0.07,-0.03 -0.06,-0.17l0,0zm-208.2,-0.26c0,-0.15 0.03,-0.18 0.07,-0.08c0.03,0.09 0.03,0.2 -0.01,0.25c-0.04,0.04 -0.07,-0.03 -0.06,-0.17l0,0zm15.07,-5.31c0,-0.15 0.03,-0.18 0.07,-0.08c0.03,0.1 0.03,0.21 -0.01,0.25c-0.04,0.04 -0.07,-0.03 -0.06,-0.17l0,0zm177.03,-13.08c0.01,-0.15 0.03,-0.18 0.07,-0.08c0.03,0.09 0.03,0.2 -0.01,0.25c-0.04,0.04 -0.07,-0.03 -0.06,-0.17l0,0zm-142.36,-7.82c0.04,-0.07 0.09,-0.13 0.12,-0.13c0.03,0 0.05,0.06 0.05,0.13c0,0.07 -0.05,0.13 -0.12,0.13c-0.07,0 -0.09,-0.06 -0.05,-0.13zm98.64,-4.61c0.01,-0.15 0.03,-0.18 0.07,-0.08c0.03,0.09 0.03,0.2 -0.01,0.25c-0.04,0.04 -0.07,-0.03 -0.06,-0.17zm48.89,-32.89c0.01,-0.15 0.03,-0.18 0.07,-0.08c0.03,0.09 0.03,0.2 -0.01,0.25c-0.04,0.04 -0.07,-0.03 -0.06,-0.17l0,0zm-0.91,-10.03c0,-0.18 0.03,-0.25 0.06,-0.16c0.03,0.09 0.03,0.24 0,0.32c-0.03,0.09 -0.06,0.01 -0.06,-0.16zm-210.34,-5.99c0.04,-0.13 0.11,-0.2 0.14,-0.16c0.03,0.04 0,0.14 -0.08,0.23c-0.11,0.13 -0.12,0.11 -0.06,-0.07l0,0zm209.41,-7.03c0.01,-0.15 0.03,-0.18 0.07,-0.08c0.03,0.09 0.03,0.2 -0.01,0.25c-0.04,0.04 -0.06,-0.03 -0.06,-0.17l0,0zm-38.3,-61.12c0.01,-0.15 0.03,-0.18 0.07,-0.08c0.03,0.09 0.03,0.2 -0.01,0.25c-0.04,0.04 -0.07,-0.03 -0.06,-0.17l0,0z" fill="#f90000" id="svg_57" opacity="0.7" stroke-width="1.33"/>
    </g>
    <g id="svg_1">
     <g fill="#ffffff" id="svg_48" stroke-width="1.61" transform="matrix(0.621744, 0, 0, 0.621744, 114.918, 277.737)">
      <g fill="#ffffff" id="svg_55" stroke-width="1.61"/>
      <g fill="#ffffff" id="svg_51" stroke-width="0.63" transform="matrix(2.53761, 0, 0, 2.53761, -130.23, -157.706)">
       <circle cx="150.36" cy="53.38" fill="#ffffff" id="svg_54" opacity="0.9" r="32.5" stroke-linejoin="bevel" stroke-miterlimit="4" stroke-width="5.7"/>
       <text fill="#000000" font-family="sans-serif" font-size="40px" font-style="normal" font-weight="normal" id="svg_52" letter-spacing="0px" stroke-width="0.63" word-spacing="0px" x="130.97" xml:space="preserve" y="70.54">
        <tspan fill="#000000" font-size="64px" id="svg_53" stroke-width="0.63" x="130.97" y="70.54">o</tspan>
       </text>
      </g>
      <text fill="#000000" font-family="sans-serif" font-size="51.55px" font-style="normal" font-weight="normal" id="svg_49" letter-spacing="0px" stroke-width="1.61" word-spacing="0px" x="230.59" xml:space="preserve" y="-17.43">
       <tspan fill="#000000" font-family="FreeMono" font-size="17.18px" font-style="normal" font-weight="normal" id="svg_50" stroke-width="1.61" x="230.59" y="-17.43">OPEN</tspan>
      </text>
     </g>
     <g fill="#ffffff" id="svg_32" stroke-width="1.61" transform="matrix(0.621744, 0, 0, 0.621744, 30.6528, 385.99)">
      <g fill="#ffffff" id="svg_44" stroke-width="0.63" transform="matrix(2.53761, 0, 0, 2.53761, -172.101, -155.168)">
       <circle cx="260.55" cy="-43.36" fill="#ffffff" id="svg_47" opacity="0.9" r="32.5" stroke-linejoin="bevel" stroke-miterlimit="4" stroke-width="5.7"/>
       <text fill="#000000" font-family="sans-serif" font-size="40px" font-style="normal" font-weight="normal" id="svg_45" letter-spacing="0px" stroke-width="0.63" word-spacing="0px" x="244.3" xml:space="preserve" y="-26.21">
        <tspan fill="#000000" font-size="64px" id="svg_46" stroke-width="0.63" x="244.3" y="-26.21">v</tspan>
       </text>
      </g>
      <g fill="#000000" id="svg_33" stroke-width="1.17" transform="matrix(1.36962, 0, 0, 1.36962, 75.3611, -110.766)">
       <text fill="#000000" font-family="sans-serif" font-size="40px" font-style="normal" font-weight="normal" id="svg_42" letter-spacing="0px" stroke-width="1.17" word-spacing="0px" x="297.67" xml:space="preserve" y="-155.1">
        <tspan fill="#000000" font-family="FreeMono" font-size="13.33px" font-style="normal" font-weight="normal" id="svg_43" stroke-width="1.17" x="297.67" y="-155.1">V</tspan>
       </text>
       <text fill="#000000" font-family="sans-serif" font-size="40px" font-style="normal" font-weight="normal" id="svg_40" letter-spacing="0px" stroke-width="1.17" word-spacing="0px" x="297.76" xml:space="preserve" y="-146.08">
        <tspan fill="#000000" font-family="FreeMono" font-size="13.33px" font-style="normal" font-weight="normal" id="svg_41" stroke-width="1.17" x="297.76" y="-146.08">O</tspan>
       </text>
       <text fill="#000000" font-family="sans-serif" font-size="40px" font-style="normal" font-weight="normal" id="svg_38" letter-spacing="0px" stroke-width="1.17" word-spacing="0px" x="297.67" xml:space="preserve" y="-135.1">
        <tspan fill="#000000" font-family="FreeMono" font-size="13.33px" font-style="normal" font-weight="normal" id="svg_39" stroke-width="1.17" x="297.67" y="-135.1">I</tspan>
       </text>
       <text fill="#000000" font-family="sans-serif" font-size="40px" font-style="normal" font-weight="normal" id="svg_36" letter-spacing="0px" stroke-width="1.17" word-spacing="0px" x="297.67" xml:space="preserve" y="-125.1">
        <tspan fill="#000000" font-family="FreeMono" font-size="13.33px" font-style="normal" font-weight="normal" id="svg_37" stroke-width="1.17" x="297.67" y="-125.1">C</tspan>
       </text>
       <text fill="#000000" font-family="sans-serif" font-size="40px" font-style="normal" font-weight="normal" id="svg_34" letter-spacing="0px" stroke-width="1.17" word-spacing="0px" x="297.67" xml:space="preserve" y="-115.1">
        <tspan fill="#000000" font-family="FreeMono" font-size="13.33px" font-style="normal" font-weight="normal" id="svg_35" stroke-width="1.17" x="297.67" y="-115.1">E</tspan>
       </text>
      </g>
     </g>
     <g fill="#ffffff" id="svg_25" stroke-width="1.61" transform="matrix(0.621744, 0, 0, 0.621744, -16.4001, 436.733)">
      <g fill="#ffffff" id="svg_28" stroke-width="0.63" transform="matrix(2.53761, 0, 0, 2.53761, -295.809, -153.168)">
       <circle cx="367.86" cy="-36.13" fill="#ffffff" id="svg_31" opacity="0.9" r="32.5" stroke-linejoin="bevel" stroke-miterlimit="4" stroke-width="5.7"/>
       <text fill="#000000" font-family="sans-serif" font-size="40px" font-style="normal" font-weight="normal" id="svg_29" letter-spacing="0px" stroke-width="0.63" word-spacing="0px" x="348.47" xml:space="preserve" y="-18.98">
        <tspan fill="#000000" font-size="64px" id="svg_30" stroke-width="0.63" x="348.47" y="-18.98">o</tspan>
       </text>
      </g>
      <text fill="#000000" font-family="sans-serif" font-size="50.13px" font-style="normal" font-weight="normal" id="svg_26" letter-spacing="0px" stroke-width="1.61" word-spacing="0px" x="593.09" xml:space="preserve" y="-298.4">
       <tspan fill="#000000" font-family="FreeMono" font-size="16.71px" font-style="normal" font-weight="normal" id="svg_27" stroke-width="1.61" x="593.09" y="-298.4">OPERATING</tspan>
      </text>
     </g>
     <g fill="#ffffff" id="svg_2" stroke-width="1.61" transform="matrix(0.621744, 0, 0, 0.621744, 68.7872, 330.633)">
      <g fill="#ffffff" id="svg_20" stroke-width="0.63" transform="matrix(2.53761, 0, 0, 2.53761, -254.573, -155.168)">
       <circle cx="255.49" cy="63.98" fill="#ffffff" id="svg_24" opacity="0.9" r="32.5" stroke-linejoin="bevel" stroke-miterlimit="4" stroke-width="5.7"/>
       <text fill="#000000" font-family="sans-serif" font-size="40px" font-style="normal" font-weight="normal" id="svg_21" letter-spacing="0px" stroke-width="0.63" word-spacing="0px" x="237.8" xml:space="preserve" y="86.82">
        <tspan fill="#000000" font-size="64px" id="svg_23" stroke-width="0.63" x="237.8" y="86.82">S</tspan>
        <tspan fill="#000000" font-size="64px" id="svg_22" stroke-width="0.63" x="237.8" y="144.99"/>
       </text>
      </g>
      <g fill="#000000" id="svg_3" stroke-width="0.24" transform="matrix(6.83373, 0, 0, 6.83373, -1155.02, 386.754)">
       <text fill="#000000" font-family="sans-serif" font-size="40px" font-style="normal" font-weight="normal" id="svg_19" letter-spacing="0px" stroke-width="0.24" word-spacing="0px" x="180.63" xml:space="preserve" y="-1.63"/>
       <g fill="#000000" id="svg_4" stroke-width="1.13" transform="matrix(0.207535, 0, 0, 0.207535, 210.22, -68.4815)">
        <text fill="#000000" font-family="sans-serif" font-size="40px" font-style="normal" font-weight="normal" id="svg_17" letter-spacing="0px" stroke-width="1.13" word-spacing="0px" x="110.78" xml:space="preserve" y="36.3">
         <tspan fill="#000000" font-family="FreeMono" font-size="13.33px" font-style="normal" font-weight="normal" id="svg_18" stroke-width="1.13" x="110.78" y="36.3">S</tspan>
        </text>
        <text fill="#000000" font-family="sans-serif" font-size="40px" font-style="normal" font-weight="normal" id="svg_15" letter-spacing="0px" stroke-width="1.13" word-spacing="0px" x="110.86" xml:space="preserve" y="46.46">
         <tspan fill="#000000" font-family="FreeMono" font-size="13.33px" font-style="normal" font-weight="normal" id="svg_16" stroke-width="1.13" x="110.86" y="46.46">Y</tspan>
        </text>
        <text fill="#000000" font-family="sans-serif" font-size="40px" font-style="normal" font-weight="normal" id="svg_13" letter-spacing="0px" stroke-width="1.13" word-spacing="0px" x="110.78" xml:space="preserve" y="57.44">
         <tspan fill="#000000" font-family="FreeMono" font-size="13.33px" font-style="normal" font-weight="normal" id="svg_14" stroke-width="1.13" x="110.78" y="57.44">S</tspan>
        </text>
        <text fill="#000000" font-family="sans-serif" font-size="40px" font-style="normal" font-weight="normal" id="svg_11" letter-spacing="0px" stroke-width="1.13" word-spacing="0px" x="110.78" xml:space="preserve" y="67.44">
         <tspan fill="#000000" font-family="FreeMono" font-size="13.33px" font-style="normal" font-weight="normal" id="svg_12" stroke-width="1.13" x="110.78" y="67.44">T</tspan>
        </text>
        <text fill="#000000" font-family="sans-serif" font-size="40px" font-style="normal" font-weight="normal" id="svg_9" letter-spacing="0px" stroke-width="1.13" word-spacing="0px" x="110.78" xml:space="preserve" y="77.44">
         <tspan fill="#000000" font-family="FreeMono" font-size="13.33px" font-style="normal" font-weight="normal" id="svg_10" stroke-width="1.13" x="110.78" y="77.44">E</tspan>
        </text>
        <text fill="#000000" font-family="sans-serif" font-size="40px" font-style="normal" font-weight="normal" id="svg_7" letter-spacing="0px" stroke-width="1.13" word-spacing="0px" x="110.78" xml:space="preserve" y="86.59">
         <tspan fill="#000000" font-family="FreeMono" font-size="13.33px" font-style="normal" font-weight="normal" id="svg_8" stroke-width="1.13" x="110.78" y="86.59">M</tspan>
        </text>
        <text fill="#000000" font-family="sans-serif" font-size="40px" font-style="normal" font-weight="normal" id="svg_5" letter-spacing="0px" stroke-width="1.13" word-spacing="0px" x="110.55" xml:space="preserve" y="96.37">
         <tspan fill="#000000" font-family="FreeMono" font-size="13.33px" font-style="normal" font-weight="normal" id="svg_6" stroke-width="1.13" x="110.55" y="96.37">S</tspan>
        </text>
       </g>
      </g>
     </g>
    </g>
   </g>
  </symbol>
 </defs>
 <g class="layer">
  <title>Layer 1</title>
  <g id="layer1">
   <path d="m1432.9,6127.69c-888.13,-1527.92 -1616.71,-2817.8 -1616.71,-2862.09c0,-49.82 728.58,-1334.16 1616.71,-2862.08c1090.21,-1865.61 1659.24,-2790.12 1728.38,-2806.73c138.27,-38.75 6296.63,-38.75 6434.9,0c69.13,22.15 462.67,642.17 1143.39,1810.26c569.03,979.86 1308.25,2247.59 1643.3,2817.8l600.94,1040.75l-1552.89,2668.33c-861.53,1472.56 -1606.06,2740.29 -1659.25,2828.87l-101.04,149.47l-3307.86,0l-3307.85,-5.54l-1622.02,-2779.04zm8046.28,2424.74c79.77,-77.5 2999.42,-5070.92 3052.59,-5209.32c26.59,-77.51 -2978.13,-5275.76 -3089.82,-5347.73c-31.91,-22.14 -1425.25,-44.28 -3095.13,-44.28c-2823.91,0 -3041.95,5.53 -3116.41,99.64c-69.13,77.51 -2829.23,4788.6 -3004.72,5131.82c-42.55,77.51 -42.55,143.94 10.63,254.66c143.59,287.87 2909,5004.49 2988.78,5104.14c79.77,88.57 297.81,94.11 3132.36,94.11c2600.55,0 3057.9,-11.07 3121.72,-83.04z" fill="#000000" fill-opacity="0.99" filter="url(#filter3680)" id="path20-6" opacity="0.46" stroke="#000001" stroke-linecap="round" stroke-miterlimit="4" stroke-width="333.3" transform="matrix(0,-0.07137543,-0.07129087,0,896.68771,1031.3545)"/>
  </g>
  <g fill="#333333" id="g40" transform="matrix(0.1,0,0,-0.1,25.705338,898.55177)">
   <path d="m11343.4,4328.17c-7.04,-13.74 -92.31,-179.17 -192.02,-367.58l-178.63,-342.87l227.57,-370.59l228.96,-370.94l360.25,1.17c198.77,0.07 382.97,0.77 411.07,1.27l49.43,0.45l-12.61,20.74c-10.5,17.29 -68.79,19.74 -401.81,18.56l-389.73,-1.33l-210.99,351.08l-209.59,350.75l175.85,343.56c152.53,296.24 174.8,345.28 165.31,366.73c-9.67,23.71 -11.06,24.05 -23.06,-1z" fill="#333333" id="path2"/>
   <path d="m8174.25,8560.24c0,-6 -18,-39 -40,-74c-22,-35 -40,-68 -40,-75c0,-6 71,-126 157,-266l158,-255l320,2l319,3l152,250c84,138 153,256 153,263c1,7 -18,46 -41,87l-43,74l-547,1c-368,0 -548,-3 -548,-10z" fill="#333333" id="path4"/>
   <path d="m2847.45,5475.96c-5.92,-9.67 -11.38,-18.77 -17.54,-28.69c-58,-96 -105.99,-181.99 -105.99,-189.99c0,-9 135.01,-236 298.01,-506l297.99,-490l615,-3.01l615,-1.99l297,488c163,269 299,494.99 302,503.99c2.71,6.77 -42.63,89.08 -124.27,227.69l-70.4,0c75.84,-126.19 129.68,-216.64 129.68,-218.68c0,-3 -128.01,-215 -283.01,-471l-282,-465l-579.01,0l-578.99,0l-278.99,459.01c-153,253 -278,467.99 -278,477.99c0,9 50.99,102 113.99,205l7.62,12.68l-78.09,0z" fill="#333333" id="path6" stroke-width="1"/>
   <path d="m3361.64,8445.19c-96,-153 -491,-811 -494,-823c-3,-13 338,-590 483,-817l34,-53l524,0l524,0l261,431c221,364 260,433 251,450c-30,54 -494,816 -508,832c-14,16 -52,17 -533,17l-519,0l-23,-37zm1040,-21c9,-6 444,-718 482,-789c10,-20 -13,-62 -232,-425l-242,-403l-499,0l-499,0l-224,370c-123,204 -233,386 -243,406l-19,36l241,399c132,220 246,402 252,406c6,4 227,8 491,8c264,0 485,-4 492,-8z" fill="#333333" id="path8"/>
   <path d="m9229.99,1797.83c-44.16,-73.67 -76.83,-129.19 -76.83,-131.93c0,-4 -20,-40.01 -45,-80.01l-46,-72.99l227,-374c125,-205 234,-381 242,-390c14,-17 50.01,-18.01 483.01,-18.01l466.99,0l8.94,14.71l0,172.66l-58.94,-97.37l-426,2.01l-425.99,3l-203,335c-111,184 -203.01,342 -203.01,351c0,9 24,53.99 54,99.99c19,30.13 64.4,103.47 114.92,185.94l-112.09,0z" fill="#333333" id="path12" stroke-width="1"/>
   <path d="m7067.52,7621.18c-2.56,-1.06 1.5,-8.53 10.49,-22.97l14.08,-24.21l-333.69,-199.99l-333.69,-200l-7.88,-397.97c-4.47,-218.96 -10.05,-406.19 -12.08,-416.63c-3.25,-12.3 -19.89,-25.45 -56.84,-43.48c-28.66,-14.37 -48.9,-27.31 -43.79,-30.12c4.6,-1.95 24.77,5.16 45.51,17.23c19.88,11.57 41.27,20.54 45.37,19.46c11.44,-3.75 11.87,-10.45 5.6,-299.88c-2.51,-136.84 -0.1,-252.3 6.01,-256.84c5.61,-3.68 283.66,-155.4 618.27,-336.69l607.92,-328.85l208.22,115.4c126.83,70.35 211.09,112.45 214.97,107.76c4.25,-3.31 6.3,-28.72 4.4,-55.28l-4.07,-48.66l-241.35,-143.94l-241,-142.57l-10.72,-572.03c-5.56,-314.48 -7.84,-574.98 -5.83,-578.44c2.01,-3.45 37.4,-24.5 79.13,-46.5c41.23,-21.13 78.13,-44.78 81.65,-50.83c3.52,-6.05 6.35,-64.58 5.13,-130.08c-0.11,-111.14 -6.2,-156.34 -18.5,-153.09c-2.74,0.72 -94.54,49.12 -202.17,106.81c-108.99,58.06 -203.39,104.94 -210.59,105.38c-7.2,0.44 -179.46,-95.19 -382.57,-213.4c-307.68,-179.08 -369.77,-217.53 -374.11,-233.94c-6.72,-28.21 -25.07,-825.67 -18.53,-836.9c3.02,-5.19 150.27,-87.25 326.17,-182.73c176.77,-94.98 323.18,-177.55 325.69,-181.87c2.52,-4.32 177.38,92.83 431.48,240.72l426.95,248.48l1.41,41.32c0.81,22.45 4.86,43.32 9.19,45.83c4.32,2.52 24.47,-4.26 44.4,-14.64c24.53,-12.34 44.39,-14.66 57.36,-7.11l20.74,12.07l-38.99,21.27c-21.3,10.75 -48.71,26.04 -61.66,32.38c-13.46,7.21 -24.6,20.39 -26.53,29.68c-1.07,9.79 -0.5,142.03 3.25,294.63c2.88,152.1 4.31,284.82 2.38,294.11c-1.21,12.02 -42.87,39.85 -119.85,80.67c-64.02,34.47 -125.83,69.07 -136.54,75.56c-18.2,11.39 -21.2,30.47 -18.72,139.52c1.16,151.09 2.24,155.19 27.36,147.82c10.94,-2.89 183.45,-94.55 383.88,-202.36c199.57,-108.32 371.24,-200.47 381.31,-203.87c14.68,-5.34 93.47,38.2 512.65,282.16c367.32,213.78 497.59,286.15 501.62,279.24c3.52,-6.05 4.15,-100.58 1.81,-211.86c-5.28,-241.42 -4.93,-240.05 23.59,-223.45c19.02,11.07 22,41.72 27.02,237.87c3.31,145.4 0.24,236.17 -9.32,252.59c-14.87,29.53 -10.55,533.04 6.05,582.05c5.2,16.91 5.94,33.53 1.19,37.71c-4.75,4.18 -6.51,116.55 -3.85,251.15c2.65,134.61 2.62,247.97 -0.4,253.16c-5.03,8.64 -910,505.93 -978.85,538.75l-30,13.77l-254.96,-148.38c-286.94,-167 -282.11,-165.36 -277.21,-80.36l2.35,47.66l405.35,235.91c374.23,217.81 404.84,236.78 408.39,258.52c2.39,11.8 8.27,272.08 14.4,577.63c5.27,305.06 11.99,565.84 13.88,578.51c4.05,20.87 25.16,34.31 269.89,174.43l265.99,151.33l39.62,-24.37l40.52,-23.87l-7.37,-384.95c-4.03,-211.77 -4.85,-389.27 -2.34,-393.59c3.02,-5.19 213.45,-122.22 467.84,-261.11l461.79,-250.75l153.77,83.71c40.77,22.06 113.16,63.37 196.6,111.87l-33.86,58.17c-3.94,-1.79 -7.99,-6.04 -12.28,-13.05c-12.62,-20.07 -277.3,-177.59 -298.03,-175.77c-7.2,0.44 -205.13,103.93 -439.09,231.57c-303.96,164.42 -428.7,237.6 -433.65,252.08c-13.57,37.22 3.58,691.67 17.18,696.12c7.92,2.29 262.39,-130.77 566.35,-295.19c115.03,-62.07 205.56,-110.88 283.53,-152.82l-8.97,15.41c-79.41,43.35 -150.92,82.47 -246.13,134.28c-308.7,168.6 -571.95,312.76 -584.18,321.84c-20.21,14.85 -22.78,27.24 -20.09,126c2,60.17 4.5,119.47 7.25,132.64c3.51,18.05 43.38,44.14 310.64,200.21l-28.84,49.54l-344.8,-203.12l-2.44,-117.1c-1.72,-64.64 -7.96,-121.5 -14.37,-126.38c-5.91,-5.76 -26.78,-1.7 -45.34,8.32l-33.37,17.59l-252.16,-143.28c-137.92,-79.11 -256.25,-142.19 -263.09,-140.39c-6.83,1.81 -10.1,39.24 -9.34,83.65c0.77,44.41 -0.93,85.09 -3.95,90.27c-3.02,5.19 -281.22,159.15 -619.92,341.53l-614.9,332.87l-278.3,-161.97l-278.3,-161.97l-28.91,17.88c-17.52,11.21 -26.71,16.57 -29.28,15.51zm-509.22,-525.62l258.42,150.4c217.8,126.76 258.57,148.18 264.6,137.81c7.55,-12.96 3.52,-584.57 -4.22,-624.95c-4.05,-20.87 -26.38,-36.18 -257.14,-170.48c-160.75,-93.56 -256.98,-144.93 -263.45,-141.76c-5.61,3.68 -7.77,150.52 -4.21,327.31l6,321.67zm545.37,317.4l290.39,169.01l290.4,169.02l530.94,-288.01c292.38,-158.44 537.19,-294.81 543.94,-302.45c7.27,-8.5 12.41,-47.16 11.87,-87.97c-0.99,-125.54 36.7,-90.88 -347.91,-314.72l-338.8,-197.18l-8.9,-487.66c-4.45,-268.7 -10.16,-503.43 -11.26,-521.42l-2.33,-33.76l-216.06,-125.75l-215.21,-125.26l-71.37,37.15c-236.77,122.53 -1009.93,548.43 -1016.47,559.67c-4.53,7.77 -6.27,134.03 -2.6,280.8l5.45,266.96l272.31,164.28l273.21,164.79l5.51,336.43l6.89,336.07zm1324.88,-674.33c160.06,94.02 321.03,184.24 329.12,180.27c7.48,-4.9 0.7,-667.21 -9.29,-940.29l-2.72,-62.91l-324.11,-188.63c-294.72,-171.53 -324.6,-187.77 -332.15,-174.8c-10.06,17.28 6.06,955.77 15.52,983.26c4.44,11.26 163.58,109.08 323.63,203.1z" fill="#4d4d4d" id="path16" stroke-width="1"/>
   <path d="m3138.11,6990.38c-144,-237 -261,-433 -261,-438c0,-4 116,-198 258,-432l258,-425l529,0l529,0l258,425c142,234 258,428 258,432c0,4 -117,201 -261,438l-261,430l-523,0l-523,0l-261,-430zm1281,368c14,-12 459,-737 480,-783c8,-18 -28,-83 -228,-416c-130,-217 -244,-400 -252,-406c-12,-10 -126,-13 -493,-13c-440,0 -478,1 -497,18c-26,22 -482,775 -482,795c0,15 449,766 478,800c14,16 50,17 497,17c370,0 485,-3 497,-12z" fill="#333333" id="path18"/>
   <path d="m1432.9,6127.69c-888.13,-1527.92 -1616.71,-2817.8 -1616.71,-2862.09c0,-49.82 728.58,-1334.16 1616.71,-2862.08c1090.21,-1865.61 1659.24,-2790.12 1728.38,-2806.72c138.27,-38.76 6296.63,-38.76 6434.9,0c69.13,22.14 462.67,642.16 1143.39,1810.25c569.03,979.86 1308.25,2247.59 1643.3,2817.8l600.94,1040.75l-1552.89,2668.33c-861.53,1472.56 -1606.07,2740.29 -1659.25,2828.87l-101.04,149.47l-3307.86,0l-3307.85,-5.54l-1622.02,-2779.04zm8046.28,2424.74c79.77,-77.5 2999.42,-5070.92 3052.59,-5209.32c26.59,-77.51 -2978.13,-5275.76 -3089.82,-5347.73c-31.91,-22.14 -1425.25,-44.28 -3095.13,-44.28c-2823.91,0 -3041.95,5.53 -3116.41,99.64c-69.13,77.51 -2829.23,4788.6 -3004.72,5131.82c-42.55,77.51 -42.55,143.94 10.63,254.66c143.59,287.87 2909,5004.49 2988.78,5104.14c79.77,88.58 297.81,94.11 3132.36,94.11c2600.55,0 3057.9,-11.07 3121.72,-83.04z" fill="#f16300" fill-opacity="1" id="path20" opacity="0.69" stroke="#00b2ff" stroke-linecap="round" stroke-miterlimit="4" stroke-width="0"/>
   <path d="m803.08,3345.49c-5,-14 -4,-15 9,-4c17,14 19,20 6,20c-5,0 -12,-7 -15,-16z" fill="#333333" id="path22"/>
   <path d="m777.08,3301.49c-6,-11 -8,-20 -6,-20c3,0 10,9 16,20c6,11 8,20 6,20c-3,0 -10,-9 -16,-20z" fill="#333333" id="path24"/>
   <path d="m747.08,3251.49c-6,-11 -8,-20 -6,-20c3,0 10,9 16,20c6,11 8,20 6,20c-3,0 -10,-9 -16,-20z" fill="#333333" id="path26"/>
   <path d="m3403.09,6098.61l-156,-255l17,-38c9,-20 97,-169 195,-330l179,-292l408,0l407,0l161,271c144,241 192,331 166,306c-5,-5 -83,-131 -174,-280l-166,-272l-394,0l-395,0l-152,250c-83,138 -170,279 -192,314c-23,35 -41,68 -41,74c0,8 215,370 288,485c8,12 12,22 9,22c-3,0 -75,-115 -160,-255z" fill="#333333" id="path28"/>
   <path d="m5320.71,7715.01c-8,-10 -86,-134 -173,-277c-133,-219 -156,-262 -147,-280c15,-32 302,-499 320,-518c14,-17 43,-18 347,-18l332,0l167,276l168,276l-168,279l-167,279l-332,0c-304,0 -333,-1 -347,-17z" fill="#4d4d4d" id="path30"/>
   <path d="m5944.64,5385.61c-35,-51 -392,-642 -392,-650c0,-4 91,-160 202,-345l203,-338l420,0l420,0l208,340c194,317 207,342 195,364c-7,13 -101,166 -208,340l-195,316l-417,0l-417,0l-19,-27z" fill="#333333" id="path32"/>
   <path d="m10154.44,2028.09c-426,-705 -552,-914 -552,-918c0,-3 11,-5 23,-5c15,0 28,9 34,23c20,43 566,932 577,939c6,4 274,7 596,5l584,-2l96,-157l95,-157l3,56c2,31 -1,59 -6,62c-5,3 -37,53 -72,111c-35,58 -70,113 -78,123c-14,16 -57,17 -628,17l-613,0l-59,-97z" fill="#333333" id="path36"/>
   <path d="m2149.47,6242.34c-111,-183 -224,-368 -251,-411c-26,-43 -48,-80 -48,-83c0,-2 10,-4 23,-4c18,1 59,63 247,372c124,204 233,382 243,395l18,23l584,0l584,0l18,-24c10,-13 119,-190 243,-394c208,-343 227,-371 253,-372c15,0 27,3 26,8c0,4 -112,189 -248,412l-248,405l-620,3l-621,2l-203,-332z" fill="#333333" id="path38"/>
   <path d="m6003.6,3152.91l-23.98,-14.46l-205.15,330.55l-205.15,330.54l-398.05,1.7c-219.01,1.07 -406.29,3.75 -416.76,5.61c-12.35,3.06 -25.77,19.49 -44.37,56.15c-14.81,28.44 -28.06,48.48 -30.79,43.33c-1.88,-4.64 5.54,-24.69 17.93,-45.24c11.88,-19.7 21.19,-40.94 20.17,-45.06c-3.58,-11.5 -10.27,-12.03 -299.76,-10.26c-136.86,0.39 -252.27,-3.81 -256.71,-9.99c-3.59,-5.67 -150.98,-286.05 -327.06,-623.43l-319.36,-612.95l118.61,-206.4c72.31,-125.72 115.71,-209.32 111.08,-213.27c-3.24,-4.3 -28.62,-6.75 -55.21,-5.27l-48.71,3.33l-147.67,239.09l-146.29,238.75l-572.13,1.83c-314.53,0.69 -575.03,-1.08 -578.46,-3.15c-3.42,-2.07 -23.93,-37.78 -45.27,-79.85c-20.49,-41.54 -43.56,-78.81 -49.56,-82.42c-5.99,-3.62 -64.46,-7.35 -129.98,-7.15c-111.12,-1.61 -156.41,3.78 -153.35,16.13c0.68,2.75 47.64,95.29 103.65,203.8c56.36,109.88 101.77,204.99 102.09,212.19c0.33,7.21 -97.97,177.98 -219.31,379.22c-183.83,304.87 -223.24,366.35 -239.71,370.43c-28.31,6.28 -825.97,12.26 -837.1,5.54c-5.14,-3.09 -84.9,-151.62 -177.64,-328.98c-92.22,-178.21 -172.5,-325.88 -176.78,-328.46c-4.29,-2.58 95.56,-175.92 247.38,-427.69l255.08,-423.05l41.34,-0.76c22.46,-0.47 43.39,-4.2 45.98,-8.48c2.58,-4.28 -3.9,-24.53 -13.97,-44.62c-11.95,-24.72 -13.97,-44.62 -6.22,-57.46l12.39,-20.56l20.67,39.32c10.41,21.46 25.27,49.1 31.42,62.15c7,13.57 20.01,24.91 29.27,26.99c9.77,1.22 141.99,2.71 294.63,1.33c152.12,-0.52 284.86,0.11 294.11,2.19c12.01,1.4 39.18,43.47 78.8,121.08c33.47,64.55 67.12,126.88 73.44,137.7c11.11,18.37 30.14,21.67 139.22,20.88c151.08,1.19 155.2,0.17 148.23,-25.05c-2.72,-10.99 -91.7,-184.91 -196.38,-386.99c-105.21,-201.23 -194.69,-374.29 -197.93,-384.42c-5.11,-14.76 39.65,-92.87 290.09,-508.2c219.45,-363.96 293.82,-493.11 286.97,-497.24c-5.99,-3.61 -100.48,-5.71 -211.79,-5.09c-241.47,1.53 -240.1,1.19 -223.06,-27.07c11.36,-18.84 42.07,-21.35 238.27,-23.32c145.43,-1.05 236.14,3.43 252.41,13.24c29.3,15.33 532.81,18.83 582.06,2.99c16.99,-4.93 33.63,-5.41 37.74,-0.6c4.1,4.81 116.42,8.31 251.05,7.75c134.63,-0.56 247.99,1.23 253.13,4.33c8.56,5.16 491.73,917.73 523.48,987.09l13.31,30.21l-152.33,252.63c-171.43,284.31 -169.71,279.52 -84.63,275.93l47.68,-1.61l242.17,-401.64c223.59,-370.8 243.04,-401.12 264.82,-404.33c11.84,-2.2 272.18,-4.03 577.8,-5.42c305.09,-0.54 565.95,-3.22 578.64,-4.91c20.94,-3.73 34.7,-24.62 178.61,-267.15l155.43,-263.6l-23.75,-40.01l-23.23,-40.87l-385.02,1.39c-211.8,0.74 -389.3,-1.19 -393.58,-3.77c-5.14,-3.1 -118.89,-215.32 -253.82,-471.84l-243.54,-465.64l86.09,-152.44c47,-83.76 176.61,-298.71 287.61,-477l202.57,-326.26l368.9,-1.77l368.38,-0.91l209.64,-341.85c179.86,-294.41 212.03,-343.91 228.33,-345.76c11.32,-1.34 216.1,-3.98 456.2,-5.17c367.19,-2.8 437.84,0.1 447.75,16.58c22.73,35.9 397.42,754.61 405.61,775.89c6.47,20.25 -9.71,49.03 -237.59,423.09l-244.75,400.08l-213.17,1.08l-214.04,0.56l-296.04,487.1l-296.38,485.72l-117.14,0.6c-64.66,0.72 -121.6,6.08 -126.59,12.41c-5.85,5.82 -2.12,26.75 7.62,45.47l17.07,33.65l-147.18,249.9c-81.24,136.67 -146.15,254.01 -144.45,260.87c1.7,6.87 39.07,10.72 83.49,10.65c44.42,-0.08 85.06,2.24 90.2,5.34c5.14,3.1 154.76,283.65 331.86,625.15l323.29,619.99l-166.27,275.75l-166.28,275.75l17.43,29.19c21.88,35.38 20.85,37.09 -7.75,18.68zm-214.36,-6.64c-12.85,-7.75 -584.44,-12.6 -624.93,-5.48c-20.93,3.72 -36.59,25.81 -174.46,254.46c-96.04,159.29 -148.9,254.7 -145.83,261.22c3.59,5.67 150.38,10.1 327.2,9.29l321.73,-1.01l154.4,-256.06c130.12,-215.8 152.16,-256.23 141.89,-262.42zm96.8,-1132.71c-153.88,-294.8 -286.42,-541.71 -293.95,-548.58c-8.39,-7.4 -46.96,-13.14 -87.78,-13.23c-125.54,-0.96 -90.3,-38.1 -320.08,342.98l-202.42,335.7l-487.74,1.33c-268.74,0.27 -503.53,2.33 -521.54,3.15l-33.79,1.81l-129.09,214.1l-128.58,213.23l36.03,71.94c118.84,238.64 532.68,1018.32 543.81,1025.03c7.71,4.65 133.93,8.36 280.73,6.96l267.03,-1.3l168.49,-269.74l169,-270.6l336.48,-0.29l336.14,-1.67l173.5,-287.74l173.5,-287.74l-279.74,-535.34zm1529.02,-3109.02c-1.35,-11.32 -84.34,-175.8 -185.11,-365.01c-160.71,-304.77 -184.98,-343.92 -206.41,-345.17c-91.57,-5 -762.66,0.22 -777.42,5.33c-29.52,10.23 -361.9,565.33 -349.24,581.14c4.45,6.18 49.37,11.08 98.24,11.36c49.4,-0.58 93.46,3.8 97.91,9.99c4.96,5.32 102.82,191.61 218.96,413.45c116.13,221.83 218.11,407.1 225.82,411.74c11.99,7.23 392.53,11.32 438.34,5.08c11.84,-2.21 64.49,-83.72 228.18,-355.19c162.66,-269.76 212.24,-357.8 210.73,-372.72zm-908.04,839.73c2.08,-9.26 -1.15,-19.38 -5.44,-21.97c-4.28,-2.58 -89.85,-3.96 -189.49,-3.33c-99.65,0.64 -185.22,-0.74 -189.5,-3.33c-4.29,-2.58 -100.79,-183.38 -214.87,-402.8c-195.89,-376.18 -206.64,-399.02 -193.72,-426.26c7.07,-15.59 8.3,-31.19 2.31,-34.81c-11.14,-6.71 -614.98,-6.49 -652.39,1.32c-20.93,3.73 -37.62,27.53 -192.53,284.44c-107.4,178.12 -166.97,284.67 -163.9,291.19c3.93,7.04 -0.2,13.89 -12.91,21.41c-20.26,12.3 -181.87,274.51 -180.38,295.27c0.33,7.2 100.74,206.7 224.73,442.61c159.68,306.48 230.92,432.34 245.31,437.52c37.02,14.14 691.64,7.17 696.3,-6.37c2.42,-7.88 -126.67,-264.38 -286.35,-570.86c-261.64,-503.4 -326.19,-628.74 -305.84,-602.45c4.11,4.81 140.23,263.21 303.16,573.98c163.78,311.28 303.83,576.73 312.72,589.1c14.54,20.44 26.88,23.21 125.66,22.05c60.2,-1.07 119.54,-2.65 132.76,-5.2c20.93,-3.72 41.4,-35.75 282.03,-434.82c142.52,-236.35 260.27,-437.43 262.34,-446.69zm-1156.57,1718.63c-4.79,-7.55 -667.11,-11.06 -940.32,-5.31l-62.94,1.75l-193.64,321.14c-176.08,292.02 -192.78,321.65 -179.94,329.39c17.13,10.33 955.75,8.78 983.38,-0.25c22.66,-8.52 401.14,-630.41 393.46,-646.72zm909.17,-2220.46c-106.74,-204.49 -201.2,-377.06 -209.07,-385.3c-23.11,-19.78 -193.42,-16.21 -214.39,5.01c-42.28,41.07 -39.38,49.82 143.54,397.17c97.18,183.54 181.89,343.22 189.07,354.56c11.96,18.89 28.76,22.01 142.3,21.57c70.49,-0.7 131.89,-5.71 135.51,-11.71c3.1,-5.13 -81.08,-177.33 -186.96,-381.3z" fill="#4d4d4d" id="path16-3" stroke-width="1"/>
   <rect fill="#000000" height="164.94" id="rect2611-7" stroke="#000000" stroke-linecap="square" stroke-linejoin="bevel" stroke-miterlimit="4" stroke-opacity="0.2" stroke-width="3.36" width="917.06" x="422.24" y="685.45"/>
  </g>
  <use id="svg_64" transform="matrix(2.25246, 0, 0, 2.11725, -344.373, -6.82429)" x="105.66" xlink:href="#svg_63" y="15.11"/>
 </g>
</svg>