<?xml version="1.0"?>
<svg width="660.14513" height="512.16773" xmlns="http://www.w3.org/2000/svg" xmlns:svg="http://www.w3.org/2000/svg" version="1.1">

 <metadata id="metadata38">image/svg+xml</metadata>
 <g class="layer">
  <title>Layer 1</title>
  <g id="layer2" transform="translate(-111.92777,155.25231)">
   <path d="m347.74,356.81c-1.03,-0.1 -1.96,-0.12 -2.07,-0.06c-0.11,0.07 -0.2,0.03 -0.2,-0.11c0,-0.13 -0.42,-0.38 -0.94,-0.57c-0.52,-0.19 -1.5,-0.77 -2.18,-1.29c-0.76,-0.57 -1.17,-0.77 -1.07,-0.5c0.11,0.27 0.07,0.38 -0.1,0.28c-0.15,-0.09 -0.24,-0.31 -0.21,-0.48c0.08,-0.44 -1.1,-2.32 -1.45,-2.32c-0.16,0 -0.22,-0.07 -0.13,-0.16c0.08,-0.08 -0.02,-0.65 -0.23,-1.27c-0.4,-1.18 -0.93,-5.89 -0.9,-7.97c0.01,-0.69 -0.11,-1.32 -0.27,-1.42c-0.16,-0.1 -0.21,-0.3 -0.12,-0.44c0.17,-0.28 -1.71,-24.39 -1.95,-25.09c-0.09,-0.22 -0.13,-0.82 -0.11,-1.33c0.02,-0.52 -0.14,-2.74 -0.35,-4.95c-0.21,-2.2 -0.45,-5.03 -0.54,-6.28c-0.09,-1.25 -0.57,-7.02 -1.07,-12.83c-0.5,-5.8 -0.98,-11.69 -1.07,-13.09c-0.1,-1.4 -0.4,-5.01 -0.67,-8.02c-0.27,-3.01 -0.58,-6.79 -0.67,-8.4c-0.1,-1.61 -0.23,-3.02 -0.29,-3.12c-0.07,-0.11 -0.19,-1.54 -0.27,-3.18c-0.08,-1.64 -0.25,-3.26 -0.38,-3.6c-0.13,-0.34 -0.18,-0.68 -0.1,-0.75c0.14,-0.14 -1.41,-20.2 -1.65,-21.3c-0.08,-0.37 -0.14,-1.09 -0.14,-1.61c0,-0.51 -0.16,-2.74 -0.37,-4.94c-0.2,-2.2 -0.45,-5.15 -0.54,-6.55c-0.09,-1.39 -0.27,-3.5 -0.4,-4.67c-0.14,-1.18 -0.32,-3.51 -0.4,-5.19c-0.09,-1.67 -0.22,-3.14 -0.29,-3.26c-0.08,-0.12 -0.2,-1.56 -0.28,-3.21c-0.09,-1.91 -0.28,-3.27 -0.54,-3.78c-0.23,-0.43 -0.28,-0.71 -0.12,-0.61c0.37,0.23 0.36,0.03 -0.26,-6.54c-0.29,-3.01 -0.52,-5.9 -0.53,-6.41c0,-0.51 -0.18,-2.68 -0.4,-4.81c-0.22,-2.13 -0.4,-4.06 -0.41,-4.28c-0.08,-1.96 -0.87,-11.98 -0.97,-12.29c-0.16,-0.46 -0.3,-2.67 -0.31,-4.75c0,-0.77 -0.09,-1.52 -0.17,-1.66c-0.09,-0.14 -0.22,-1.49 -0.29,-3c-0.08,-1.51 -0.21,-2.99 -0.31,-3.28c-0.1,-0.3 -0.15,-0.75 -0.11,-1.01c0.12,-0.82 -0.76,-3.44 -1.09,-3.24c-0.18,0.12 -0.22,0.07 -0.1,-0.14c0.26,-0.42 -0.81,-2.03 -2.29,-3.46c-1.32,-1.27 -3.78,-2.59 -4.26,-2.29c-0.2,0.12 -0.26,0.09 -0.15,-0.09c0.11,-0.17 -0.26,-0.36 -0.96,-0.47c-2.15,-0.37 -5.55,-0.12 -5.55,0.4c0,0.12 -0.15,0.21 -0.33,0.2c-0.92,-0.03 -1.29,0.1 -1.11,0.38c0.12,0.2 0.07,0.24 -0.13,0.12c-0.77,-0.48 -4.11,2.59 -5.2,4.79c-0.37,0.73 -0.79,1.81 -0.95,2.4c-0.15,0.59 -0.64,6.72 -1.08,13.63c-0.44,6.91 -0.99,15.33 -1.21,18.72c-0.23,3.38 -0.47,7.57 -0.54,9.3c-0.08,1.74 -0.19,3.25 -0.26,3.36c-0.07,0.11 -0.18,2.12 -0.26,4.47c-0.07,2.34 -0.19,4.44 -0.26,4.65c-0.07,0.22 -0.19,1.59 -0.27,3.06c-0.09,1.47 -0.4,6.46 -0.69,11.09c-0.3,4.63 -0.54,8.72 -0.54,9.09c0,0.37 -0.24,4.03 -0.53,8.15c-0.3,4.12 -0.52,7.96 -0.49,8.55c0.03,0.59 -0.03,1.25 -0.11,1.47c-0.09,0.22 -0.35,3.83 -0.57,8.02c-0.23,4.19 -0.43,7.8 -0.44,8.02c-0.38,5.22 -0.61,8.95 -0.64,10.62c-0.02,0.77 -0.13,1.4 -0.26,1.4c-0.13,0 -0.17,0.31 -0.1,0.68c0.07,0.37 0.07,0.62 0,0.55c-0.07,-0.07 -0.48,0.56 -0.9,1.4c-2.07,4.16 -6.84,6.57 -11.25,5.69c-0.93,-0.19 -1.87,-0.36 -2.09,-0.39c-0.22,-0.03 -0.46,-0.11 -0.53,-0.19c-0.08,-0.08 -0.77,-0.54 -1.54,-1.03c-0.77,-0.49 -1.69,-1.23 -2.04,-1.64c-0.35,-0.42 -0.71,-0.71 -0.8,-0.64c-0.09,0.06 -0.11,0.04 -0.04,-0.05c0.19,-0.26 -0.39,-1.2 -0.65,-1.05c-0.12,0.08 -0.21,-0.03 -0.19,-0.19c0.03,-0.18 -0.18,-0.99 -0.44,-1.8c-0.49,-1.52 -1.8,-11.98 -1.77,-14.23c0,-0.76 -0.12,-1.27 -0.29,-1.27c-0.16,0 -0.22,-0.13 -0.12,-0.28c0.18,-0.29 -0.61,-9.16 -0.88,-9.88c-0.08,-0.22 -0.12,-0.51 -0.09,-0.65c0.1,-0.45 -0.87,-9.5 -1.03,-9.5c-0.08,0 -0.11,-0.6 -0.06,-1.34c0.05,-0.73 -0.02,-1.33 -0.13,-1.33c-0.13,0 -0.19,-0.61 -0.14,-1.34c0.06,-0.74 -0.02,-1.34 -0.15,-1.34c-0.13,0 -0.19,-0.42 -0.13,-0.93c0.07,-0.51 0.03,-1.15 -0.09,-1.4c-0.12,-0.26 -0.18,-0.58 -0.15,-0.72c0.1,-0.43 -1.66,-17.12 -1.82,-17.26c-0.09,-0.07 -0.19,-1.21 -0.23,-2.54c-0.05,-1.32 -0.15,-2.58 -0.23,-2.8c-0.09,-0.22 -0.19,-0.88 -0.23,-1.47c-0.05,-0.59 -0.14,-1.61 -0.21,-2.27c-0.14,-1.2 -0.2,-1.87 -0.6,-6.61c-0.11,-1.36 -0.3,-2.41 -0.41,-2.34c-0.12,0.07 -0.15,-0.09 -0.08,-0.36c0.13,-0.51 -1.4,-16.24 -1.69,-17.42c-0.1,-0.37 -0.16,-0.91 -0.13,-1.2c0.02,-0.29 -0.38,-4.26 -0.88,-8.82c-0.51,-4.56 -0.98,-9.19 -1.07,-10.29c-0.35,-4.74 -0.94,-8.34 -1.6,-9.77c-0.76,-1.68 -3.28,-4.48 -3.82,-4.27c-0.2,0.08 -0.31,0.04 -0.23,-0.09c0.2,-0.32 -1.87,-1.2 -2.27,-0.96c-0.2,0.13 -0.26,0.1 -0.16,-0.08c0.24,-0.37 -1.05,-0.65 -3.05,-0.65c-1.68,0 -4.61,0.77 -4.37,1.15c0.08,0.13 -0.01,0.18 -0.21,0.11c-0.19,-0.07 -0.65,0.12 -1.01,0.43c-0.37,0.3 -0.5,0.46 -0.3,0.35c0.26,-0.13 0.32,-0.09 0.19,0.12c-0.11,0.17 -0.32,0.23 -0.46,0.14c-0.7,-0.43 -3.98,4.41 -3.62,5.35c0.08,0.21 0.05,0.43 -0.09,0.47c-0.28,0.1 -1.43,12.58 -1.25,13.52c0.06,0.34 0,0.68 -0.13,0.76c-0.14,0.08 -0.24,0.71 -0.24,1.4c0,0.68 -0.41,5.87 -0.91,11.53c-0.51,5.66 -1,11.31 -1.09,12.56c-0.09,1.25 -0.51,6.24 -0.94,11.09c-0.42,4.85 -0.83,9.85 -0.91,11.12c-0.07,1.26 -0.19,2.46 -0.26,2.67c-0.07,0.21 -0.2,1.58 -0.28,3.05c-0.09,1.47 -0.69,8.8 -1.35,16.3c-0.66,7.5 -1.18,13.87 -1.16,14.16c0.03,0.3 -0.05,0.75 -0.16,1.01c-0.11,0.25 -0.13,0.64 -0.05,0.87c0.09,0.21 0.03,0.4 -0.13,0.4c-0.16,0 -0.22,0.18 -0.14,0.4c0.09,0.22 0.03,0.4 -0.13,0.4c-0.16,0 -0.22,0.18 -0.13,0.41c0.09,0.23 0.05,0.35 -0.09,0.27c-0.21,-0.14 -0.52,0.42 -0.55,0.98c-0.02,0.37 -2.91,3.12 -3.73,3.55c-0.46,0.23 -0.76,0.53 -0.69,0.65c0.08,0.13 -0.11,0.17 -0.43,0.08c-0.43,-0.11 -0.52,-0.06 -0.36,0.2c0.12,0.2 0.11,0.29 -0.03,0.21c-0.13,-0.08 -1.02,0.03 -1.98,0.25c-0.95,0.21 -1.95,0.37 -2.2,0.35c-0.26,-0.03 -1,-0.06 -1.65,-0.09c-0.64,-0.03 -1.13,-0.12 -1.07,-0.22c0.16,-0.26 -1.2,-0.54 -1.57,-0.33c-0.18,0.1 -0.23,0.09 -0.12,-0.03c0.23,-0.26 -1.88,-1.54 -2.2,-1.34c-0.12,0.07 -0.36,-0.05 -0.54,-0.27c-0.19,-0.21 -0.24,-0.39 -0.13,-0.39c0.12,0 0,-0.24 -0.27,-0.53c-0.26,-0.29 -0.58,-0.46 -0.72,-0.38c-0.13,0.08 -0.2,-0.03 -0.16,-0.21c0.04,-0.19 -0.09,-0.32 -0.28,-0.28c-0.2,0.04 -0.28,-0.05 -0.19,-0.2c0.2,-0.31 -0.49,-1.41 -0.75,-1.21c-0.1,0.07 -0.13,0.06 -0.06,-0.03c0.06,-0.09 -0.11,-0.74 -0.39,-1.46c-0.29,-0.71 -0.72,-2.89 -0.97,-4.84c-0.26,-1.96 -0.53,-3.62 -0.61,-3.69c-0.09,-0.07 -0.18,-0.92 -0.22,-1.87c-0.04,-0.96 -0.15,-1.92 -0.24,-2.14c-0.1,-0.22 -0.15,-0.73 -0.12,-1.13c0.04,-0.4 -0.04,-0.88 -0.15,-1.07c-0.12,-0.18 -0.18,-0.67 -0.13,-1.07c0.04,-0.42 -0.06,-0.74 -0.23,-0.74c-0.17,0 -0.23,-0.13 -0.13,-0.29c0.19,-0.3 -2.28,-19.79 -2.53,-20.02c-0.09,-0.07 -0.19,-0.97 -0.24,-2c-0.05,-1.03 -0.2,-1.91 -0.34,-1.96c-0.13,-0.05 -0.18,-0.2 -0.09,-0.34c0.16,-0.25 -0.34,-5.12 -0.6,-5.85c-0.08,-0.22 -0.17,-0.83 -0.2,-1.34c-0.14,-1.89 -2.67,-20.72 -2.81,-20.84c-0.08,-0.08 -0.18,-0.86 -0.22,-1.74c-0.05,-0.88 -0.25,-2.69 -0.46,-4.01c-0.21,-1.32 -0.45,-3.12 -0.53,-3.99c-0.29,-3.18 -1.25,-9.11 -1.48,-9.19c-0.13,-0.05 -0.17,-0.26 -0.09,-0.47c0.08,-0.21 0.02,-0.38 -0.14,-0.38c-0.16,0 -0.22,-0.17 -0.14,-0.38c0.21,-0.56 -1.55,-4.7 -2.98,-6.99c-1.46,-2.35 -3.8,-5 -4.2,-4.75c-0.16,0.1 -0.21,0.05 -0.12,-0.09c0.29,-0.47 -3.28,-3.46 -3.69,-3.09c-0.12,0.11 -0.15,0.07 -0.06,-0.09c0.21,-0.37 -1.84,-1.55 -2.26,-1.29c-0.18,0.12 -0.23,0.07 -0.12,-0.1c0.23,-0.37 -0.8,-0.95 -1.22,-0.7c-0.17,0.11 -0.23,0.07 -0.14,-0.07c0.2,-0.32 -4.21,-1.99 -5.44,-2.05c-0.51,-0.03 -0.99,-0.14 -1.07,-0.25c-0.22,-0.29 -4.96,-0.7 -6.54,-0.56c-2.44,0.21 -5.2,0.71 -5.2,0.93c0,0.12 -0.15,0.17 -0.34,0.1c-0.95,-0.35 -10.62,4.19 -10.62,4.99c0,0.14 -0.11,0.19 -0.24,0.11c-0.13,-0.08 -0.93,0.16 -1.77,0.53c-0.85,0.37 -2.51,0.94 -3.71,1.25c-2.03,0.53 -2.95,0.58 -14.47,0.67c-12.27,0.1 -12.31,0.1 -13.9,-0.5c-0.87,-0.34 -1.71,-0.57 -1.86,-0.53c-0.14,0.04 -0.17,-0.03 -0.07,-0.12c0.11,-0.11 -0.35,-0.79 -1.02,-1.5c-1.77,-1.9 -2.34,-3.35 -2.39,-6.1c-0.03,-1.25 0.03,-2.33 0.11,-2.4c0.39,-0.32 1.1,-2.21 0.93,-2.49c-0.1,-0.18 -0.09,-0.23 0.04,-0.12c0.12,0.1 0.92,-0.47 1.78,-1.27c0.92,-0.84 2.02,-1.58 2.64,-1.77c0.58,-0.17 1.06,-0.39 1.06,-0.47c0,-0.09 4.24,-0.2 9.42,-0.25c13.7,-0.12 13.5,-0.11 15.03,-0.81c1.53,-0.69 2.6,-1.59 2.36,-1.99c-0.1,-0.16 -0.03,-0.19 0.16,-0.07c0.19,0.12 0.49,-0.01 0.72,-0.29c1.21,-1.54 1.79,-3.38 3.45,-10.97c0.95,-4.38 1.86,-8.48 2.01,-9.11c0.15,-0.63 0.21,-1.26 0.13,-1.38c-0.08,-0.13 -0.05,-0.27 0.07,-0.32c0.3,-0.13 1.73,-6.85 1.53,-7.18c-0.09,-0.14 -0.02,-0.26 0.15,-0.26c0.19,0 0.26,-0.23 0.18,-0.54c-0.08,-0.29 -0.06,-0.53 0.05,-0.53c0.26,0 0.89,-3.16 0.69,-3.48c-0.09,-0.14 -0.06,-0.26 0.07,-0.26c0.33,0 0.89,-2.95 0.71,-3.74c-0.1,-0.46 -0.07,-0.56 0.1,-0.32c0.31,0.43 1,-2.72 0.7,-3.2c-0.1,-0.17 -0.07,-0.24 0.07,-0.15c0.32,0.2 1.27,-4.23 1.01,-4.66c-0.13,-0.2 -0.08,-0.23 0.15,-0.09c0.26,0.16 0.32,0.02 0.22,-0.63c-0.06,-0.46 -0.06,-0.77 0.02,-0.7c0.2,0.2 1.68,-6.35 1.53,-6.74c-0.07,-0.17 -0.02,-0.35 0.11,-0.4c0.13,-0.05 0.27,-0.56 0.32,-1.15c0.05,-0.59 0.15,-1.13 0.24,-1.2c0.16,-0.15 3.21,-13.88 3.32,-14.97c0.04,-0.37 0.15,-0.86 0.25,-1.09c0.09,-0.23 0.2,-0.77 0.23,-1.2c0.03,-0.43 0.12,-0.84 0.2,-0.92c0.29,-0.26 1.08,-4.55 0.9,-4.85c-0.11,-0.18 -0.08,-0.23 0.09,-0.14c0.3,0.19 0.72,-1.83 0.46,-2.24c-0.08,-0.14 -0.02,-0.25 0.16,-0.25c0.18,0 0.26,-0.22 0.18,-0.52c-0.08,-0.29 -0.05,-0.56 0.06,-0.6c0.18,-0.08 1.39,-5.3 1.5,-6.5c0.03,-0.29 0.12,-0.71 0.21,-0.93c0.32,-0.82 0.98,-4.1 0.85,-4.23c-0.08,-0.07 -0.03,-0.27 0.1,-0.43c0.37,-0.45 0.89,-3.31 0.67,-3.69c-0.11,-0.19 -0.09,-0.24 0.05,-0.12c0.13,0.12 0.78,-2.29 1.5,-5.56c0.69,-3.18 1.56,-6.44 1.93,-7.24c1.34,-2.93 5.11,-5.98 7.96,-6.43c0.55,-0.09 0.95,-0.26 0.87,-0.38c-0.07,-0.12 0.26,-0.17 0.74,-0.11c0.48,0.06 1.62,0.17 2.52,0.24c2.32,0.2 5.42,1.55 6.4,2.8c0.18,0.23 0.44,0.29 0.67,0.16c0.2,-0.12 0.29,-0.12 0.18,-0.02c-0.1,0.11 0.23,0.75 0.74,1.41c1.27,1.67 2.26,3.86 2.44,5.42c0.09,0.72 0.23,1.27 0.32,1.22c0.1,-0.06 0.18,0.72 0.2,1.74c0.03,1.01 0.13,2.05 0.24,2.31c0.12,0.26 0.18,0.79 0.15,1.18c-0.03,0.39 0.08,0.79 0.23,0.89c0.17,0.09 0.22,0.29 0.14,0.43c-0.18,0.28 0.96,9.65 1.2,9.86c0.08,0.08 0.19,0.98 0.24,2.01c0.05,1.03 0.19,1.91 0.33,1.96c0.14,0.05 0.18,0.2 0.1,0.34c-0.16,0.25 0.59,6.97 0.86,7.72c0.08,0.22 0.19,1.18 0.26,2.14c0.07,0.95 0.23,1.77 0.36,1.82c0.13,0.04 0.18,0.24 0.11,0.43c-0.14,0.37 1.96,17.08 2.23,17.79c0.09,0.22 0.13,0.51 0.11,0.63c-0.07,0.31 1.31,11.14 1.49,11.66c0.07,0.22 0.16,0.82 0.2,1.34c0.17,2.26 1.05,8.55 1.2,8.55c0.1,0 0.12,0.43 0.06,0.95c-0.07,0.66 0.05,1.12 0.39,1.51c0.28,0.32 0.35,0.48 0.17,0.38c-0.19,-0.11 -0.34,-0.1 -0.34,0.02c0,0.63 1.13,8.83 1.27,9.17c0.09,0.22 0.13,0.51 0.1,0.65c-0.13,0.53 0.87,7.34 1.06,7.22c0.11,-0.06 0.13,0.13 0.06,0.42c-0.26,0.97 0.77,7.85 1.22,8.21c0.27,0.23 0.3,0.34 0.08,0.34c-0.25,0 -0.29,0.42 -0.15,1.67c0.1,0.92 0.26,1.73 0.35,1.8c0.09,0.08 0.19,0.87 0.24,1.77c0.14,3.12 1.3,10.21 1.78,10.95c0.38,0.57 0.52,0.64 0.72,0.35c0.19,-0.29 0.23,-0.25 0.17,0.14c-0.09,0.63 1.56,1.85 2.26,1.66c0.26,-0.06 0.47,-0.03 0.47,0.12c0,0.14 0.36,0.25 0.8,0.25c0.44,0 0.8,-0.13 0.8,-0.29c0,-0.15 0.13,-0.21 0.27,-0.11c0.41,0.25 1.37,-0.13 1.17,-0.47c-0.11,-0.17 -0.06,-0.21 0.14,-0.09c0.4,0.25 1.42,-0.61 1.18,-0.99c-0.09,-0.15 -0.04,-0.19 0.13,-0.09c0.39,0.24 1.18,-1.28 1.31,-2.51c0.28,-2.63 2.24,-25.32 2.37,-27.39c0.08,-1.32 0.44,-5.53 0.79,-9.35c0.35,-3.83 0.69,-7.97 0.76,-9.22c0.08,-1.25 0.19,-2.46 0.26,-2.68c0.2,-0.67 1.55,-17.95 1.41,-18.09c-0.07,-0.07 -0.03,-0.41 0.11,-0.75c0.13,-0.34 0.29,-1.86 0.37,-3.39c0.07,-1.52 0.19,-2.94 0.26,-3.16c0.09,-0.31 1.15,-13.44 1.23,-15.23c0.01,-0.22 0.25,-2.8 0.53,-5.74c0.29,-2.94 0.6,-6.49 0.7,-7.89c0.4,-5.53 0.45,-6.19 1.18,-14.03c0.29,-3.08 0.52,-5.91 0.52,-6.28c0,-0.36 0.11,-1.69 0.26,-2.94c0.15,-1.25 0.34,-3.41 0.42,-4.81c0.09,-1.39 0.58,-7.17 1.08,-12.83c0.5,-5.65 0.92,-10.64 0.92,-11.09c0,-0.44 0.29,-4.03 0.66,-7.99c0.36,-3.95 0.6,-7.29 0.53,-7.42c-0.08,-0.12 -0.02,-0.22 0.14,-0.22c0.16,0 0.28,-0.18 0.28,-0.41c0,-0.22 0.39,-1.15 0.86,-2.07c0.47,-0.91 0.83,-1.75 0.8,-1.86c-0.03,-0.11 0.05,-0.17 0.17,-0.14c0.12,0.04 0.59,-0.31 1.05,-0.77c3.77,-3.75 10.14,-3.97 14.38,-0.5c0.61,0.51 1.17,0.86 1.24,0.8c0.07,-0.07 0.12,0.03 0.13,0.21c0,0.18 0.37,0.87 0.82,1.53c1.08,1.61 1.57,3.47 1.94,7.49c0.17,1.83 0.38,3.52 0.46,3.74c0.09,0.22 0.13,0.52 0.09,0.66c-0.08,0.34 0.79,9.24 0.96,9.76c0.07,0.22 0.18,1.24 0.25,2.27c0.29,4.35 1.6,15.66 1.8,15.46c0.11,-0.11 0.13,-0.01 0.03,0.25c-0.17,0.46 0.33,6.66 0.6,7.41c0.14,0.38 0.17,0.74 0.3,3.96c0.04,0.78 0.15,1.36 0.26,1.29c0.11,-0.06 0.22,1.01 0.25,2.39c0.03,1.38 0.14,2.66 0.26,2.85c0.11,0.18 0.18,0.63 0.15,1c-0.03,0.37 0.36,4.34 0.88,8.82c0.51,4.48 0.94,8.33 0.95,8.55c0.1,1.87 0.59,6.9 0.72,7.22c0.08,0.22 0.13,0.51 0.1,0.64c-0.08,0.33 0.78,9 0.94,9.51c0.07,0.22 0.19,1.42 0.26,2.66c0.06,1.25 0.2,2.33 0.31,2.41c0.11,0.08 0.24,1.29 0.28,2.68c0.05,1.4 0.18,2.57 0.28,2.61c0.11,0.04 0.15,0.49 0.09,1c-0.06,0.51 -0.03,1.14 0.07,1.4c0.1,0.26 0.24,1.31 0.3,2.34c0.07,1.03 0.28,3.32 0.47,5.08c0.27,2.53 0.43,3.19 0.73,3.12c0.31,-0.07 0.32,-0.03 0.05,0.25c-0.33,0.34 -0.46,1.89 -0.18,2.16c0.08,0.08 0.2,1.21 0.27,2.51c0.07,1.3 0.22,2.42 0.32,2.5c0.11,0.08 0.23,1.23 0.27,2.55c0.04,1.33 0.14,2.59 0.23,2.81c0.08,0.22 0.18,0.94 0.21,1.6c0.2,3.68 1.09,11.18 1.32,11.04c0.15,-0.09 0.17,-0.03 0.05,0.17c-0.28,0.45 0.98,12.91 1.27,12.5c0.13,-0.19 0.16,-0.07 0.05,0.3c-0.16,0.57 1.09,14.35 1.39,15.28c0.07,0.22 0.17,1.3 0.23,2.4c0.06,1.1 0.23,2.04 0.37,2.09c0.14,0.05 0.19,0.28 0.1,0.51c-0.11,0.29 -0.06,0.37 0.15,0.24c0.2,-0.13 0.25,-0.04 0.13,0.27c-0.14,0.36 -0.08,0.42 0.31,0.27c0.39,-0.14 0.42,-0.11 0.18,0.18c-0.24,0.29 -0.2,0.47 0.16,0.78c0.73,0.63 1.66,1.05 1.94,0.87c0.15,-0.09 0.27,-0.03 0.27,0.12c0,0.16 0.36,0.28 0.8,0.28c0.44,0 0.8,-0.1 0.8,-0.24c0,-0.13 0.23,-0.18 0.5,-0.11c0.63,0.17 2.53,-1.44 2.32,-1.97c-0.08,-0.21 -0.04,-0.31 0.09,-0.23c0.13,0.08 0.32,-0.06 0.42,-0.32c0.15,-0.38 1.19,-15.25 1.21,-17.24c0,-0.33 0.3,-4.87 0.65,-10.08c0.83,-12.38 0.82,-12.23 1.75,-26.86c0.44,-6.91 1.17,-18.34 1.62,-25.39c0.45,-7.06 0.88,-14.02 0.94,-15.49c0.07,-1.46 0.17,-2.84 0.24,-3.07c0.07,-0.23 0.19,-2.1 0.28,-4.16c0.09,-2.05 0.28,-5.3 0.43,-7.21c0.16,-1.91 0.23,-3.92 0.16,-4.45c-0.07,-0.54 -0.03,-1.08 0.09,-1.21c0.12,-0.12 0.29,-2.07 0.38,-4.33c0.09,-2.26 0.21,-4.19 0.27,-4.29c0.06,-0.09 0.17,-1.93 0.26,-4.07c0.08,-2.14 0.2,-4.06 0.26,-4.27c0.07,-0.2 0.26,-2.83 0.42,-5.84c0.16,-3.02 0.35,-6.08 0.42,-6.82c0.06,-0.73 0.24,-3.44 0.39,-6.01c0.15,-2.57 0.33,-5.58 0.41,-6.68c0.44,-6.73 0.65,-10.08 0.79,-12.56c0.09,-1.55 0.21,-3.47 0.28,-4.28c0.07,-0.81 0.24,-3.39 0.39,-5.74c0.14,-2.36 0.69,-11.01 1.21,-19.24c0.52,-8.23 0.92,-15.21 0.89,-15.5c-0.04,-0.3 0.02,-0.78 0.11,-1.07c0.1,-0.3 0.25,-2.28 0.34,-4.41c0.1,-2.14 0.22,-4.3 0.28,-4.81c0.16,-1.3 1.47,-22.54 1.45,-23.6c-0.01,-1.29 0.43,-4.23 0.77,-5.09c0.17,-0.42 0.22,-0.89 0.13,-1.04c-0.11,-0.16 -0.06,-0.21 0.11,-0.11c0.16,0.1 0.37,-0.06 0.46,-0.36c0.16,-0.49 3.34,-3.96 3.34,-3.64c0,0.07 0.57,-0.12 1.27,-0.43c0.91,-0.41 1.84,-0.57 3.27,-0.58c2.24,-0.03 4.01,0.15 4.01,0.4c0,0.08 0.33,0.3 0.72,0.48c0.4,0.18 1.16,0.68 1.7,1.1c0.78,0.62 1.05,0.71 1.34,0.45c0.29,-0.26 0.3,-0.25 0.06,0.08c-0.22,0.3 -0.21,0.52 0.04,0.87c0.19,0.25 0.43,0.37 0.54,0.26c0.11,-0.1 0.17,-0.07 0.13,0.07c-0.04,0.15 0.19,0.81 0.5,1.48c0.66,1.42 1.03,3.58 1.28,7.54c0.1,1.57 0.27,2.81 0.37,2.75c0.11,-0.07 0.15,0.38 0.1,1c-0.06,0.62 0.08,2.93 0.29,5.14c0.21,2.2 0.45,5.15 0.54,6.55c0.09,1.39 0.34,4.28 0.55,6.41c0.21,2.13 0.43,4.54 0.49,5.35c0.06,0.8 0.17,2.25 0.24,3.2c0.08,0.96 0.22,2.88 0.31,4.28c0.1,1.39 0.29,3.62 0.43,4.94c0.15,1.32 0.26,2.98 0.25,3.68c0,0.7 0.07,1.39 0.15,1.53c0.09,0.14 0.22,1.66 0.3,3.39c0.08,1.72 0.2,3.23 0.27,3.34c0.07,0.11 0.19,1.32 0.26,2.68c0.07,1.37 0.36,4.95 0.65,7.96c0.29,3.02 0.52,6.17 0.51,7.02c0,1.22 0.08,1.54 0.41,1.54c0.33,0 0.36,0.09 0.13,0.46c-0.22,0.35 -0.15,2.1 0.26,6.62c0.31,3.38 0.56,6.51 0.57,6.95c0,0.44 0.36,4.83 0.8,9.75c0.44,4.92 0.79,9.51 0.79,10.2c-0.02,0.68 0.09,1.31 0.22,1.4c0.14,0.08 0.2,0.42 0.14,0.75c-0.1,0.53 3.95,50.67 4.32,53.53c0.08,0.58 0.14,1.32 0.14,1.63c0,0.31 0.55,6.86 1.21,14.56c0.65,7.7 1.23,14.61 1.28,15.34c0.32,4.6 0.49,6.69 0.7,8.82c0.13,1.32 0.32,3.72 0.41,5.33c0.1,1.61 0.27,3.11 0.39,3.34c0.12,0.23 0.16,0.56 0.1,0.73c-0.16,0.45 2.25,29.6 2.6,31.47c1.17,6.19 7.42,9.79 13.43,7.75c0.69,-0.24 1.26,-0.55 1.26,-0.69c0,-0.14 0.1,-0.19 0.23,-0.12c0.32,0.2 2.25,-1.27 3.04,-2.31c0.97,-1.28 1.7,-2.83 2.03,-4.34c0.23,-1.07 0.79,-7.13 0.83,-8.96c0,-0.22 0.48,-5.93 1.07,-12.69c0.59,-6.76 1.13,-13.35 1.2,-14.64c0.07,-1.28 0.18,-2.43 0.25,-2.54c0.07,-0.11 0.2,-1.52 0.29,-3.14c0.1,-1.61 0.76,-9.91 1.49,-18.43c0.73,-8.53 1.32,-15.8 1.31,-16.17c0,-0.37 0.3,-3.98 0.67,-8.02c0.37,-4.04 0.68,-7.65 0.67,-8.02c0,-0.36 0.18,-2.59 0.4,-4.94c0.38,-4.05 4.11,-49.26 4.13,-50.11c0,-0.22 0.32,-3.8 0.69,-7.96c0.37,-4.16 0.68,-7.83 0.69,-8.15c0.05,-1.19 0.27,-3.87 0.52,-6.34c0.21,-2.06 1.79,-21.55 1.86,-22.98c0.02,-0.22 0.25,-2.99 0.54,-6.15c0.28,-3.16 0.59,-6.76 0.68,-8.01c0.08,-1.25 0.39,-4.91 0.67,-8.13c0.28,-3.22 0.51,-6.11 0.51,-6.41c0,-0.31 0.36,-4.65 0.8,-9.65c0.45,-5 0.82,-9.39 0.82,-9.75c0.03,-0.84 0.21,-3.1 0.55,-6.55c0.14,-1.47 0.74,-8.46 1.32,-15.52c0.58,-7.07 1.18,-13.19 1.33,-13.59c0.16,-0.4 0.22,-0.83 0.14,-0.95c-0.07,-0.13 -0.03,-0.27 0.12,-0.32c0.13,-0.05 0.28,-0.26 0.33,-0.46c0.1,-0.41 0.32,-0.68 1.95,-2.42c1.72,-1.83 4.7,-3.08 7.09,-2.98c1.68,0.07 3.96,0.75 5.15,1.52c0.55,0.36 1,0.58 1,0.49c0,-0.33 2.1,2.38 2.58,3.33c0.27,0.53 0.58,1.01 0.69,1.06c0.12,0.05 0.15,0.17 0.09,0.28c-0.07,0.11 0,0.67 0.15,1.25c0.15,0.58 0.27,1.25 0.27,1.5c0,0.25 0.53,5.24 1.18,11.09c0.64,5.85 1.24,11.42 1.32,12.38c0.09,0.95 0.33,3.18 0.53,4.94c0.21,1.77 0.45,4.16 0.54,5.33c0.09,1.16 0.26,2.3 0.38,2.54c0.12,0.23 0.17,0.54 0.12,0.69c-0.06,0.14 0.26,3.45 0.7,7.34c0.43,3.9 0.86,7.81 0.94,8.69c0.08,0.88 0.43,4.19 0.79,7.35c0.35,3.16 0.72,6.65 0.81,7.75c0.09,1.1 0.28,2.79 0.43,3.74c0.16,0.96 0.28,1.98 0.27,2.27c0,0.3 0.41,4.2 0.92,8.69c0.52,4.48 0.94,8.39 0.94,8.68c0,0.3 0.24,2.52 0.52,4.95c0.28,2.42 0.58,5.19 0.66,6.14c0.09,0.96 0.69,6.49 1.34,12.3c0.65,5.8 1.25,11.57 1.34,12.81c0.1,1.25 0.28,2.46 0.41,2.71c0.13,0.24 0.18,0.5 0.1,0.57c-0.07,0.08 0.35,4.57 0.94,9.99c0.59,5.43 1.68,15.51 2.42,22.42c0.75,6.91 1.84,16.83 2.42,22.05c0.59,5.22 1.08,9.67 1.09,9.89c0.03,0.22 0.19,1.84 0.38,3.61c0.2,1.76 0.43,4.04 0.52,5.07c0.09,1.03 0.64,6.02 1.22,11.09c0.58,5.07 1.06,9.52 1.06,9.89c0,0.37 0.25,2.59 0.54,4.95c0.29,2.35 0.53,4.57 0.54,4.94c0,0.37 0.9,8.73 2,18.57c1.1,9.85 2,18.25 1.99,18.66c0,0.41 0.07,0.89 0.18,1.06c0.1,0.17 0.22,0.58 0.26,0.92c0.12,1.18 1.41,3.54 2.64,4.87c1.29,1.37 3.76,2.95 4.79,3.06c0.31,0.03 0.71,0.14 0.87,0.25c0.17,0.1 1.01,0.25 1.86,0.34c3.22,0.33 6.95,-1.14 9.3,-3.65c1.22,-1.31 2.51,-3.65 2.67,-4.86c0.05,-0.33 0.15,-0.78 0.24,-1c0.08,-0.22 0.46,-3.29 0.83,-6.82c0.37,-3.53 1.34,-12.55 2.16,-20.04c0.82,-7.5 1.45,-13.96 1.39,-14.35c-0.05,-0.4 0,-0.66 0.12,-0.59c0.12,0.08 0.24,-0.44 0.27,-1.15c0.08,-1.95 0.15,-2.6 1.02,-10.24c0.44,-3.89 0.79,-7.26 0.76,-7.48c-0.03,-0.22 0.03,-0.58 0.11,-0.8c0.09,-0.22 0.28,-1.72 0.42,-3.34c0.15,-1.62 0.29,-3.12 0.31,-3.34c0.11,-1.22 0.32,-3.16 0.67,-6.01c0.21,-1.77 0.38,-3.45 0.38,-3.75c0,-0.29 0.37,-3.6 0.81,-7.35c0.44,-3.74 0.87,-7.65 0.96,-8.68c0.09,-1.03 0.56,-5.48 1.06,-9.89c0.91,-8.14 4.07,-37.61 4.11,-38.35c0.03,-0.22 0.45,-4.13 0.97,-8.68c0.51,-4.56 1,-9.01 1.08,-9.89c0.08,-0.88 0.44,-4.25 0.8,-7.48c0.36,-3.24 0.61,-6 0.56,-6.15c-0.06,-0.15 0,-0.46 0.12,-0.7c0.12,-0.24 0.28,-1.38 0.35,-2.54c0.06,-1.16 0.18,-2.29 0.25,-2.51c0.1,-0.33 1.42,-12.84 1.49,-14.16c0.03,-0.22 0.2,-1.84 0.42,-3.61c0.32,-2.59 2.14,-19.72 2.27,-21.24c0.05,-0.68 0.24,-2.34 0.8,-6.95c0.29,-2.43 0.53,-4.71 0.53,-5.08c0,-0.37 0.3,-3.13 0.67,-6.15c0.36,-3.01 0.73,-6.32 0.81,-7.35c0.09,-1.03 0.81,-7.76 1.61,-14.96c0.8,-7.2 1.49,-13.67 1.53,-14.36c0.04,-0.7 0.15,-1.27 0.24,-1.27c0.1,0 0.25,-0.34 0.35,-0.74c0.26,-1.01 1.65,-3.14 2.57,-3.91c0.41,-0.35 0.7,-0.71 0.64,-0.8c-0.07,-0.09 -0.05,-0.12 0.04,-0.05c0.09,0.06 0.7,-0.18 1.36,-0.53c0.66,-0.35 1.62,-0.72 2.12,-0.81c0.5,-0.1 0.96,-0.26 1.02,-0.36c0.07,-0.1 1,-0.1 2.07,0c1.08,0.1 2.05,0.13 2.16,0.07c0.11,-0.07 0.2,-0.03 0.2,0.09c0,0.12 0.54,0.44 1.19,0.71c1.6,0.66 3.02,1.82 4.07,3.34c0.48,0.68 0.99,1.38 1.13,1.55c0.14,0.17 0.2,0.36 0.14,0.43c-0.07,0.06 0.03,0.48 0.16,0.93c0.26,0.72 1.02,8.41 1.45,14.51c0.08,1.24 0.69,8.52 1.34,16.16c0.65,7.65 1.25,14.98 1.34,16.31c0.09,1.32 0.39,4.93 0.66,8.01c0.28,3.09 0.58,6.87 0.67,8.4c0.1,1.53 0.22,2.88 0.29,2.98c0.07,0.11 0.19,1.39 0.26,2.83c0.08,1.45 0.37,5.21 0.66,8.37c0.28,3.17 0.59,7.01 0.68,8.55c0.09,1.54 0.21,2.88 0.28,2.98c0.06,0.09 0.17,1.42 0.25,2.94c0.07,1.53 0.21,3.13 0.3,3.56c0.09,0.44 0.19,1.34 0.22,2.01c0.16,3.33 0.47,7.49 0.71,9.32c0.15,1.13 0.26,2.41 0.26,2.85c0,0.44 0.22,3.39 0.51,6.55c0.53,5.9 0.61,6.86 0.92,11.22c0.1,1.4 0.35,4.34 0.56,6.55c0.22,2.2 0.4,4.19 0.41,4.41c0.05,1.3 1.4,17.91 1.74,21.38c0.22,2.27 0.4,4.44 0.4,4.81c0,0.36 0.23,3.25 0.51,6.41c0.28,3.16 0.57,6.77 0.66,8.02c0.08,1.25 0.45,5.64 0.81,9.75c0.36,4.12 0.73,8.57 0.81,9.89c0.09,1.32 0.28,3.49 0.43,4.81c0.16,1.32 0.27,2.71 0.26,3.07c-0.03,0.37 0.77,9.81 1.72,20.98c2.03,23.99 1.96,23.04 1.99,24.05c0.03,0.45 0.37,4.83 0.8,9.76c0.42,4.92 0.84,10.14 0.93,11.6c0.09,1.45 0.23,2.75 0.31,2.88c0.08,0.13 0.2,0.66 0.27,1.18c0.11,0.91 1.3,3.58 1.59,3.58c0.09,0 0.06,-0.14 -0.05,-0.31c-0.12,-0.19 -0.07,-0.23 0.12,-0.11c0.18,0.1 0.25,0.31 0.16,0.46c-0.23,0.36 1.98,2.42 2.35,2.2c0.16,-0.1 0.21,-0.06 0.12,0.09c-0.2,0.33 2.27,1.46 3.37,1.54c0.4,0.03 0.81,0.14 0.91,0.23c0.35,0.35 2.47,0.16 4.18,-0.36c0.95,-0.3 2.34,-0.99 3.08,-1.55c1.31,-0.98 2.98,-2.83 2.98,-3.29c0,-0.13 0,-0.3 -0.03,-0.38c0,-0.08 0.16,-0.31 0.36,-0.51c0.2,-0.2 0.5,-1.07 0.67,-1.93c0.36,-1.82 1.48,-15.32 1.28,-15.51c-0.07,-0.07 -0.03,-0.41 0.1,-0.74c0.13,-0.33 0.31,-1.86 0.4,-3.38c0.09,-1.52 0.52,-6.8 0.95,-11.72c0.43,-4.93 0.78,-9.26 0.78,-9.63c0,-0.36 0.36,-4.75 0.8,-9.75c0.44,-5 0.88,-10.11 0.96,-11.36c0.09,-1.25 0.56,-6.96 1.06,-12.69c0.5,-5.73 0.99,-11.63 1.1,-13.1c0.32,-4.58 0.38,-5.31 0.51,-6.28c0.15,-1.07 2.51,-30.05 2.53,-30.86c0,-0.3 0.24,-3.12 0.53,-6.28c0.3,-3.16 0.52,-6.11 0.5,-6.55c-0.03,-0.44 0.04,-0.98 0.12,-1.2c0.23,-0.62 1.86,-21.41 1.69,-21.58c-0.08,-0.08 -0.04,-0.34 0.09,-0.59c0.13,-0.24 0.31,-1.8 0.39,-3.46c0.09,-1.66 0.21,-3.1 0.27,-3.21c0.07,-0.1 0.19,-1.5 0.29,-3.11c0.09,-1.61 0.33,-4.67 0.54,-6.8c0.33,-3.48 0.55,-6.13 0.85,-10.69c0.06,-0.81 0.45,-5.5 0.88,-10.43c0.43,-4.92 0.85,-10.03 0.94,-11.35c0.08,-1.33 0.39,-4.94 0.68,-8.02c0.28,-3.09 0.5,-5.92 0.47,-6.28c-0.03,-0.37 0.03,-0.91 0.12,-1.21c0.1,-0.29 0.25,-1.79 0.34,-3.34c0.42,-7.13 1.48,-17.86 1.91,-19.24c0.26,-0.81 0.44,-1.5 0.4,-1.54c-0.23,-0.27 3.42,-3.42 4.59,-3.95c3.9,-1.79 8.99,-0.59 11.51,2.72c0.49,0.63 0.98,1.07 1.09,0.96c0.12,-0.1 0.14,-0.06 0.05,0.1c-0.09,0.16 0.06,0.88 0.33,1.6c0.5,1.3 0.81,4.53 1.22,12.41c0.1,1.83 0.28,4.66 0.42,6.28c0.13,1.61 0.24,3.42 0.25,4c0,0.59 0.55,9.13 1.21,18.98c0.66,9.85 1.21,18.09 1.21,18.31c0.09,2.92 1.74,28.23 1.85,28.32c0.13,0.12 0.18,1.35 0.24,6.46c0.03,0.98 0.14,1.86 0.28,1.95c0.15,0.08 0.21,0.42 0.13,0.75c-0.15,0.71 1.21,23.93 1.44,24.52c0.09,0.22 0.13,0.88 0.11,1.47c-0.04,0.58 0.19,4.37 0.48,8.41c0.29,4.05 0.54,7.53 0.54,7.75c0.1,3.02 0.89,15.74 0.99,16.04c0.08,0.22 0.13,0.88 0.11,1.47c-0.03,0.59 0.27,5.34 0.63,10.55c0.37,5.22 0.68,9.67 0.69,9.89c0.16,4.13 0.65,11.45 0.76,11.37c0.09,-0.05 0.17,0.95 0.17,2.22c0.03,1.27 0.05,2.55 0.09,2.85c0.04,0.29 0.2,3.08 0.36,6.2c0.17,3.12 0.38,5.62 0.47,5.56c0.09,-0.05 0.17,1 0.18,2.35c0.03,3.38 0.05,4.13 0.5,10.07c0.22,2.87 0.4,5.4 0.41,5.62c0.05,2.22 1.14,19.74 1.24,20.04c0.08,0.22 0.12,1.15 0.1,2.07c-0.04,0.91 0.03,1.78 0.1,1.91c0.09,0.14 0.2,1.44 0.25,2.88c0.09,2.9 0.43,3.86 1.76,4.98c0.47,0.4 1.33,0.76 2.02,0.87c2.35,0.35 4.9,-1.71 4.96,-4.02c0.05,-1.68 0.2,-3.49 0.34,-3.88c0.24,-0.7 2.36,-21.95 2.22,-22.31c-0.07,-0.19 -0.03,-0.45 0.12,-0.59c0.14,-0.14 0.28,-1.4 0.31,-2.81c0.04,-1.41 0.16,-2.51 0.27,-2.44c0.11,0.07 0.22,-0.52 0.25,-1.3c0.11,-2.75 0.16,-3.29 0.29,-3.69c0.26,-0.76 1.58,-14.7 1.43,-15.1c-0.08,-0.22 -0.03,-0.4 0.14,-0.4c0.17,0 0.25,-0.47 0.19,-1.2c-0.06,-0.66 0.03,-1.2 0.14,-1.2c0.13,0 0.17,-0.67 0.09,-1.48c-0.1,-0.98 -0.06,-1.41 0.13,-1.3c0.18,0.11 0.24,-0.3 0.18,-1.2c-0.05,-0.75 -0.03,-1.37 0.06,-1.37c0.23,0 0.86,-6.87 0.67,-7.18c-0.09,-0.14 -0.04,-0.3 0.11,-0.35c0.14,-0.04 0.29,-1.3 0.33,-2.8c0.05,-1.49 0.16,-2.65 0.27,-2.59c0.11,0.07 0.23,-0.45 0.26,-1.16c0.04,-0.71 0.08,-1.77 0.11,-2.35c0.03,-0.59 0.11,-1.25 0.19,-1.47c0.12,-0.33 0.63,-5.38 0.7,-6.95c0.03,-0.22 0.56,-5.27 1.22,-11.23c0.66,-5.95 1.15,-11.2 1.09,-11.67c-0.07,-0.47 -0.03,-0.89 0.12,-0.94c0.14,-0.04 0.28,-1.24 0.32,-2.66c0.04,-1.41 0.14,-2.53 0.22,-2.49c0.14,0.08 1,-7.53 1.25,-10.97c0.05,-0.73 0.4,-3.98 0.76,-7.21c0.37,-3.23 0.63,-6.26 0.58,-6.73c-0.05,-0.47 -0.03,-0.8 0.08,-0.75c0.26,0.16 0.89,-7.25 0.65,-7.63c-0.12,-0.2 -0.1,-0.27 0.05,-0.18c0.32,0.19 1.55,-11.49 1.29,-12.17c-0.1,-0.26 -0.07,-0.47 0.07,-0.47c0.13,0 0.46,-2.19 0.73,-4.88c0.27,-2.68 0.64,-5.47 0.83,-6.2c0.18,-0.74 0.27,-1.45 0.18,-1.58c-0.08,-0.14 -0.03,-0.17 0.13,-0.08c0.15,0.1 0.43,-0.2 0.62,-0.65c0.45,-1.1 2.5,-3.17 4,-4.05c3.33,-1.95 6.87,-2.02 10.46,-0.2c0.83,0.43 1.55,0.75 1.6,0.72c0.05,-0.03 0.07,0 0.04,0.06c-0.04,0.06 0.48,0.69 1.14,1.41c1.25,1.33 2.4,3.45 2.68,4.93c0.18,0.95 3.58,39.63 3.59,40.86c0,0.44 0.25,3.26 0.54,6.28c0.29,3.01 0.52,6.14 0.52,6.94c0,1.13 0.07,1.38 0.29,1.07c0.22,-0.3 0.24,-0.19 0.11,0.48c-0.17,0.87 0.85,14.78 1.15,15.56c0.08,0.22 0.12,0.52 0.08,0.66c-0.14,0.6 1.18,15.05 1.37,14.94c0.12,-0.07 0.14,0.06 0.05,0.3c-0.23,0.58 1.03,15.63 1.29,15.47c0.11,-0.07 0.13,0.06 0.05,0.3c-0.18,0.46 0.38,8.81 0.64,9.48c0.08,0.22 0.12,0.6 0.1,0.83c-0.04,0.23 0.5,6.91 1.17,14.83c0.67,7.93 1.3,15.4 1.39,16.61c0.09,1.22 0.27,2.21 0.4,2.21c0.13,0 0.17,0.12 0.07,0.27c-0.21,0.35 0.15,6.17 0.38,6.03c0.09,-0.06 0.13,0.39 0.09,1.01c-0.04,0.61 0.24,4.29 0.61,8.19c0.37,3.89 0.67,7.42 0.66,7.83c0,0.42 0.33,1.37 0.74,2.12c1.41,2.6 4.85,3.36 7.35,1.63c1.73,-1.2 1.92,-1.87 3.14,-10.93c0.61,-4.54 1.06,-8.53 0.99,-8.86c-0.06,-0.33 -0.03,-0.54 0.07,-0.48c0.25,0.15 1.18,-7.24 0.98,-7.76c-0.1,-0.26 -0.05,-0.35 0.13,-0.23c0.21,0.12 0.27,-0.16 0.2,-0.9c-0.06,-0.6 -0.03,-1.04 0.07,-0.98c0.25,0.16 0.58,-3.81 0.35,-4.19c-0.13,-0.21 -0.09,-0.25 0.14,-0.1c0.26,0.16 0.32,-0.03 0.23,-0.77c-0.06,-0.53 -0.04,-0.97 0.06,-0.97c0.09,0 0.3,-1.11 0.46,-2.47c0.17,-1.36 0.55,-4.34 0.87,-6.61c0.3,-2.28 0.5,-4.36 0.44,-4.61c-0.07,-0.26 -0.04,-0.47 0.07,-0.47c0.25,0 1.18,-7.39 0.97,-7.73c-0.08,-0.13 -0.05,-0.28 0.07,-0.33c0.26,-0.11 2.85,-19.28 2.86,-21.11c0,-0.69 0.07,-1.2 0.15,-1.15c0.25,0.15 0.85,-5.7 0.63,-6.06c-0.11,-0.18 -0.08,-0.25 0.06,-0.16c0.16,0.1 0.4,-0.96 0.6,-2.56c0.18,-1.5 0.57,-4.45 0.87,-6.57c0.3,-2.11 0.48,-4.07 0.41,-4.34c-0.07,-0.28 -0.05,-0.5 0.07,-0.5c0.26,0 1.17,-7.4 0.95,-7.75c-0.09,-0.15 -0.06,-0.27 0.08,-0.27c0.29,0 1.52,-9.45 1.3,-10.02c-0.09,-0.24 -0.06,-0.36 0.06,-0.29c0.13,0.08 0.31,-0.47 0.39,-1.22c0.24,-1.94 1.53,-4.54 3.11,-6.2c0.74,-0.78 1.29,-1.5 1.21,-1.6c-0.07,-0.1 -0.06,-0.12 0.04,-0.06c0.09,0.07 0.78,-0.22 1.53,-0.65c0.76,-0.43 2.06,-0.95 2.89,-1.17c1.69,-0.44 4.12,-0.63 4.41,-0.35c0.29,0.3 1.29,0.21 1.69,-0.15c0.32,-0.28 0.33,-0.26 0.03,0.14c-0.3,0.4 -0.29,0.46 0.1,0.46c1.13,0 3.57,1.51 5.3,3.27c0.99,1.02 1.74,1.96 1.65,2.1c-0.08,0.14 -0.04,0.25 0.1,0.25c0.29,0 1.66,3.98 1.66,4.81c0,0.31 0.09,0.51 0.2,0.44c0.11,-0.07 0.22,0.43 0.25,1.1c0.04,0.67 0.16,1.29 0.27,1.37c0.12,0.09 0.22,0.37 0.24,0.63c0.07,1.62 0.12,1.82 0.42,1.64c0.19,-0.12 0.23,-0.07 0.1,0.13c-0.1,0.18 -0.07,0.89 0.09,1.58c0.15,0.69 0.96,4.38 1.79,8.21c0.84,3.82 1.63,6.98 1.75,7.03c0.13,0.05 0.17,0.2 0.09,0.33c-0.21,0.34 1.47,8.11 1.77,8.22c0.14,0.05 0.18,0.2 0.1,0.33c-0.08,0.12 0.1,1.35 0.38,2.71c1.33,6.34 1.74,7.93 1.99,7.78c0.15,-0.1 0.18,-0.03 0.06,0.16c-0.27,0.45 0.42,3.78 0.74,3.58c0.16,-0.09 0.18,-0.03 0.07,0.16c-0.27,0.43 1.49,8.58 1.81,8.39c0.14,-0.09 0.17,-0.03 0.07,0.15c-0.28,0.45 0.93,5.94 1.26,5.73c0.15,-0.09 0.19,-0.03 0.08,0.14c-0.22,0.36 -0.04,1.38 1.41,7.93c0.58,2.65 1.51,6.88 2.07,9.41c0.55,2.52 1.1,4.53 1.22,4.46c0.11,-0.07 0.15,0.04 0.06,0.25c-0.18,0.49 2.02,10.7 2.33,10.82c0.13,0.05 0.17,0.2 0.09,0.33c-0.26,0.43 1.54,8.26 1.86,8.07c0.2,-0.12 0.21,-0.06 0.03,0.22c-0.32,0.44 0.43,3.88 0.77,3.54c0.11,-0.11 0.13,0 0.04,0.24c-0.28,0.72 1.2,3.1 2.67,4.32c1.62,1.35 3.29,2.02 3.65,1.46c0.18,-0.28 0.23,-0.26 0.23,0.11c0,0.43 0.48,0.47 5.95,0.5c3.27,0.03 8.09,0.1 10.7,0.2c2.62,0.09 5.06,0.09 5.42,-0.03c0.37,-0.1 0.59,-0.07 0.5,0.07c-0.08,0.13 0.03,0.24 0.23,0.24c0.21,0 0.95,0.3 1.64,0.67c0.7,0.37 1.41,0.59 1.58,0.49c0.17,-0.09 0.23,-0.08 0.12,0.03c-0.11,0.12 0.27,0.74 0.84,1.39c1.27,1.44 1.81,2.55 2.2,4.49c0.59,2.93 -0.86,6.39 -3.47,8.3c-2.41,1.77 -2.59,1.78 -15.83,1.67c-11.77,-0.1 -11.9,-0.11 -14.41,-0.79c-2.6,-0.71 -5.43,-1.96 -9.22,-4.09c-2.64,-1.48 -6.2,-2.89 -6.86,-2.72c-0.27,0.07 -0.44,0.04 -0.36,-0.08c0.11,-0.18 -3,-0.76 -4.54,-0.85c-1.72,-0.1 -5.58,0.09 -6.95,0.33c-2.42,0.42 -5.25,1.31 -5.07,1.59c0.08,0.14 -0.03,0.18 -0.24,0.1c-0.95,-0.36 -8.17,4.08 -7.75,4.77c0.11,0.17 0.05,0.2 -0.16,0.07c-0.75,-0.47 -6.54,6.78 -6.54,8.18c0,0.25 -0.08,0.41 -0.18,0.35c-0.19,-0.12 -0.99,1.64 -1.67,3.65c-0.64,1.91 -1.31,5.54 -1.18,6.39c0.06,0.42 0.03,0.72 -0.06,0.67c-0.24,-0.15 -1.71,11.24 -1.51,11.75c0.09,0.24 0.06,0.37 -0.07,0.29c-0.28,-0.17 -0.68,3.18 -0.43,3.58c0.09,0.15 0.06,0.28 -0.07,0.28c-0.28,0 -1.26,7.33 -1.02,7.71c0.09,0.14 0.06,0.3 -0.06,0.35c-0.29,0.12 -2.84,19.59 -2.63,20.13c0.09,0.23 0.07,0.37 -0.05,0.3c-0.11,-0.07 -0.77,4.17 -1.46,9.41c-0.7,5.24 -1.82,13.67 -2.49,18.72c-1.34,10.12 -1.63,11.28 -3.46,13.53c-0.64,0.78 -1.08,1.51 -0.98,1.62c0.11,0.11 0.06,0.13 -0.1,0.04c-0.16,-0.09 -0.82,0.19 -1.47,0.63c-2.09,1.38 -4.72,1.94 -7.41,1.56c-2.06,-0.3 -3.8,-1.15 -5.58,-2.75c-0.74,-0.67 -1.43,-1.16 -1.52,-1.09c-0.1,0.07 -0.11,0.05 -0.05,-0.05c0.07,-0.09 -0.23,-0.85 -0.66,-1.67c-1.04,-1.99 -1.2,-2.87 -1.77,-9.85c-0.26,-3.27 -0.58,-5.94 -0.7,-5.94c-0.13,0 -0.15,-0.13 -0.06,-0.29c0.26,-0.41 -0.73,-12.28 -1.01,-12.28c-0.13,0 -0.16,-0.24 -0.07,-0.54c0.22,-0.68 -1.49,-21.2 -1.77,-21.32c-0.11,-0.05 -0.14,-0.26 -0.05,-0.48c0.23,-0.6 -0.77,-12.23 -1.07,-12.43c-0.14,-0.1 -0.17,-0.3 -0.08,-0.46c0.22,-0.35 -0.12,-5.95 -0.35,-5.8c-0.09,0.05 -0.16,-0.77 -0.17,-1.82c-0.03,-2.54 -1.25,-17 -1.44,-16.88c-0.09,0.05 -0.16,-0.71 -0.17,-1.69c-0.03,-2.15 -0.31,-6.35 -0.65,-9.26c-0.13,-1.18 -0.29,-2.58 -0.35,-3.13c-0.14,-1.32 -1.39,-3.8 -2.54,-5.08c-1.12,-1.24 -3.11,-2.47 -3.56,-2.19c-0.2,0.12 -0.25,0.08 -0.12,-0.12c0.1,-0.17 0.15,-0.3 0.11,-0.3c-0.05,0 -0.93,-0.18 -1.96,-0.4c-3.42,-0.72 -6.89,0.28 -9.33,2.69c-1.36,1.34 -2.94,4.19 -2.74,4.94c0.07,0.27 0.03,0.53 -0.09,0.57c-0.27,0.1 -0.9,5.98 -0.7,6.51c0.09,0.21 0.03,0.38 -0.13,0.38c-0.18,0 -0.25,0.55 -0.19,1.45c0.05,0.79 0.03,1.4 -0.06,1.35c-0.25,-0.15 -1.93,17.12 -1.74,17.81c0.14,0.49 0.12,0.55 -0.1,0.24c-0.21,-0.31 -0.28,-0.11 -0.28,0.81c0,0.67 0.14,1.39 0.33,1.6c0.28,0.31 0.25,0.31 -0.17,-0.02c-0.47,-0.36 -0.49,-0.3 -0.4,1.02c0.06,0.76 0.03,1.42 -0.09,1.46c-0.11,0.03 -0.23,1.18 -0.27,2.53c-0.05,1.36 -0.18,2.47 -0.3,2.48c-0.13,0 -0.19,0.6 -0.14,1.34c0.06,0.73 0.03,1.36 -0.06,1.4c-0.16,0.07 -1.93,16.75 -1.82,17.19c0.03,0.14 -0.05,0.46 -0.15,0.71c-0.11,0.26 -0.16,0.95 -0.11,1.54c0.06,0.58 0.04,1.1 -0.06,1.13c-0.23,0.11 -2.97,26.91 -2.78,27.22c0.1,0.15 0.03,0.44 -0.14,0.64c-0.17,0.21 -0.29,0.84 -0.26,1.4c0.04,0.55 -0.03,1.22 -0.14,1.48c-0.11,0.26 -0.15,0.89 -0.09,1.4c0.06,0.52 0.03,0.94 -0.06,0.94c-0.26,0 -0.87,7.4 -0.64,7.77c0.11,0.19 0.09,0.26 -0.06,0.17c-0.23,-0.14 -1.03,6.22 -0.87,6.91c0.03,0.13 -0.03,0.43 -0.1,0.65c-0.27,0.71 -1.06,9.57 -0.88,9.86c0.1,0.16 0.05,0.29 -0.12,0.29c-0.21,0 -0.28,0.48 -0.22,1.45c0.05,0.79 0.03,1.4 -0.08,1.34c-0.16,-0.1 -0.63,2.34 -0.58,3.04c0.03,0.2 -0.04,0.29 -0.12,0.21c-0.19,-0.19 -1.38,2.06 -1.22,2.32c0.07,0.12 0.03,0.17 -0.1,0.14c-0.13,-0.04 -0.75,0.4 -1.38,0.98c-0.63,0.59 -1.45,1.27 -1.82,1.51c-0.37,0.24 -0.65,0.52 -0.63,0.63c0.03,0.1 -0.05,0.27 -0.15,0.36c-0.11,0.1 -0.1,0.03 0.03,-0.2c0.17,-0.28 0.1,-0.33 -0.25,-0.2c-0.26,0.1 -0.58,0.18 -0.73,0.18c-0.14,0 -0.19,0.11 -0.11,0.24c0.09,0.14 -0.12,0.18 -0.45,0.09c-0.56,-0.14 -0.57,-0.12 -0.2,0.34c0.37,0.45 0.36,0.46 -0.16,0.14c-0.42,-0.26 -0.92,-0.28 -2.05,-0.08c-0.83,0.14 -1.66,0.15 -1.86,0.03c-0.19,-0.12 -0.66,-0.22 -1.04,-0.22c-1.2,-0.02 -4.35,-1.78 -5.66,-3.18c-0.68,-0.72 -1.29,-1.26 -1.38,-1.21c-0.08,0.06 -0.1,0.04 -0.04,-0.04c0.06,-0.09 -0.19,-0.82 -0.56,-1.62c-0.39,-0.85 -0.73,-2.17 -0.8,-3.12c-0.07,-0.91 -0.18,-1.82 -0.24,-2.02c-0.07,-0.2 -0.18,-2 -0.26,-4.01c-0.07,-2 -0.21,-4.01 -0.31,-4.45c-0.1,-0.44 -0.15,-1.04 -0.12,-1.33c0.03,-0.3 -0.31,-6.25 -0.76,-13.23c-0.45,-6.98 -0.89,-14.11 -0.98,-15.84c-0.1,-1.72 -0.27,-3.14 -0.39,-3.14c-0.12,0 -0.15,-0.18 -0.06,-0.41c0.2,-0.54 -1.3,-24.82 -1.54,-24.92c-0.11,-0.05 -0.13,-0.53 -0.07,-1.07c0.07,-0.54 0,-2.55 -0.14,-4.46c-0.14,-1.91 -0.34,-4.86 -0.43,-6.55c-0.09,-1.69 -0.39,-6.38 -0.66,-10.42c-0.27,-4.04 -0.57,-8.98 -0.66,-10.96c-0.09,-1.98 -0.25,-3.97 -0.35,-4.41c-0.1,-0.44 -0.14,-0.96 -0.11,-1.16c0.12,-0.6 -0.79,-13.5 -0.97,-13.79c-0.09,-0.14 -0.19,-0.55 -0.23,-0.91c-0.14,-1.25 -1.54,-3.53 -3.08,-5c-0.93,-0.88 -1.69,-1.41 -1.87,-1.3c-0.18,0.12 -0.24,0.08 -0.14,-0.08c0.25,-0.41 -2.17,-1.37 -4.14,-1.65c-4.32,-0.61 -8.46,1.26 -10.98,4.96c-0.55,0.81 -1.18,2.07 -1.4,2.81c-0.31,1.08 -1.46,12.58 -1.47,14.78c0,0.3 -0.54,6.73 -1.2,14.3c-0.66,7.57 -1.26,14.79 -1.35,16.04c-0.08,1.25 -0.33,4.13 -0.54,6.41c-0.21,2.28 -0.38,4.44 -0.38,4.81c0,0.37 -0.35,4.7 -0.79,9.62c-0.74,8.26 -1.02,11.64 -1.28,15.5c-0.05,0.81 -0.39,4.78 -0.74,8.82c-0.36,4.04 -0.72,8.43 -0.81,9.76c-0.09,1.32 -0.23,3.03 -0.31,3.8c-0.11,0.96 -0.06,1.41 0.15,1.41c0.16,0 0.3,0.12 0.3,0.28c0,0.16 -0.11,0.21 -0.25,0.13c-0.29,-0.18 -0.58,1.01 -0.56,2.28c0.03,0.5 -0.17,2.84 -0.4,5.19c-0.23,2.35 -0.38,4.61 -0.32,5.01c0.06,0.4 0.03,0.73 -0.09,0.73c-0.16,0 -0.45,3.26 -0.67,7.56c-0.05,0.85 -0.15,1.87 -0.23,2.27c-0.08,0.4 -0.22,1.87 -0.3,3.27c-0.08,1.4 -0.32,4.4 -0.54,6.68c-0.22,2.28 -0.37,4.5 -0.35,4.94c0.03,0.45 -0.03,0.99 -0.11,1.21c-0.11,0.3 -1.68,19.37 -1.78,21.64c-0.03,0.22 -0.19,2.27 -0.41,4.55c-0.39,4.15 -2.87,33.39 -2.91,34.27c-0.03,0.26 -0.12,0.47 -0.23,0.47c-0.12,0 -0.21,0.15 -0.21,0.34c0,0.19 -0.41,0.96 -0.91,1.71c-0.56,0.86 -0.81,1.49 -0.66,1.67c0.16,0.19 0.14,0.21 -0.07,0.04c-0.19,-0.15 -0.7,0.07 -1.45,0.64c-0.64,0.49 -1.67,1.08 -2.31,1.33c-1.13,0.43 -4.92,0.97 -5.16,0.73c-0.18,-0.18 -2.86,-1.14 -3.4,-1.22c-0.26,-0.03 -0.56,-0.16 -0.67,-0.29c-0.11,-0.12 -0.03,-0.13 0.2,-0.03c0.22,0.12 -0.08,-0.2 -0.67,-0.69c-0.58,-0.5 -1.15,-0.87 -1.26,-0.84c-0.12,0.04 -0.19,-0.03 -0.15,-0.13c0.03,-0.11 -0.26,-0.74 -0.64,-1.4c-1.21,-2.09 -1.46,-3.39 -1.92,-10.16c-0.23,-3.38 -1.25,-15.85 -1.37,-16.65c-0.05,-0.41 -0.26,-0.95 -0.45,-1.19c-0.26,-0.31 -0.27,-0.38 -0.03,-0.23c0.18,0.11 0.33,0.06 0.33,-0.1c0,-0.39 -3.3,-40.2 -5.49,-66.15c-0.94,-11.17 -1.77,-21.33 -1.85,-22.58c-0.09,-1.25 -0.45,-5.58 -0.82,-9.62c-0.37,-4.04 -0.67,-7.53 -0.68,-7.75c-0.03,-0.81 -0.79,-10.59 -0.91,-11.62c-0.07,-0.59 -0.19,-2.16 -0.26,-3.48c-0.09,-1.32 -0.26,-3.55 -0.41,-4.94c-0.14,-1.4 -0.69,-8.07 -1.22,-14.83c-0.54,-6.77 -1.03,-12.48 -1.11,-12.7c-0.11,-0.36 -0.27,-2.45 -0.32,-4.27c-0.05,-1.73 -0.87,-10.47 -1.12,-11.88c-0.73,-4.14 -3.37,-8.98 -6.37,-11.69c-3.37,-3.06 -8.01,-5.14 -12.26,-5.52c-2.48,-0.23 -6.55,0.08 -6.69,0.49c-0.05,0.15 -0.2,0.2 -0.34,0.12c-0.54,-0.34 -6.5,2.15 -6.22,2.6c0.08,0.13 0.05,0.22 -0.08,0.19c-0.56,-0.09 -0.92,0.11 -2.19,1.26c-0.75,0.67 -1.29,1.35 -1.19,1.51c0.1,0.16 0.05,0.2 -0.14,0.09c-0.85,-0.53 -5.25,6.3 -5.49,8.52c-0.03,0.31 -0.13,0.68 -0.22,0.82c-0.25,0.41 -0.72,3.27 -0.89,5.47c-0.08,1.1 -0.32,3.44 -0.53,5.21c-0.21,1.76 -0.46,3.99 -0.54,4.94c-0.28,2.98 -0.38,3.9 -1.45,13.5c-0.58,5.14 -1.05,9.59 -1.04,9.89c0,0.29 -0.13,1.48 -0.3,2.63c-0.16,1.16 -0.25,2.24 -0.18,2.41c0.06,0.16 0.03,0.49 -0.11,0.72c-0.12,0.23 -0.29,1.38 -0.38,2.54c-0.09,1.17 -0.27,3.02 -0.41,4.12c-0.46,3.76 -4.72,43.48 -4.76,44.37c-0.03,0.22 -0.14,1.27 -0.29,2.34c-0.15,1.07 -0.34,2.82 -0.43,3.88c-0.09,1.06 -0.56,5.53 -1.06,9.94c-0.5,4.41 -0.98,8.86 -1.07,9.89c-0.09,1.03 -0.4,3.92 -0.69,6.42c-0.4,3.4 -0.45,4.66 -0.23,5.03c0.17,0.29 0.18,0.43 0.03,0.33c-0.44,-0.26 -0.54,0.16 -0.7,2.77c-0.08,1.36 -0.19,2.56 -0.26,2.67c-0.07,0.1 -0.19,1.14 -0.28,2.31c-0.09,1.16 -0.58,5.73 -1.08,10.14c-0.5,4.41 -0.92,8.31 -0.93,8.68c-0.08,2.5 -1.06,9.48 -1.51,10.69c-0.52,1.43 -1.59,3.05 -2.73,4.12c-0.45,0.42 -0.75,0.87 -0.68,1c0.08,0.12 -0.04,0.15 -0.25,0.07c-0.22,-0.09 -0.65,0.1 -0.95,0.4c-0.31,0.31 -0.65,0.55 -0.76,0.54c-0.11,-0.02 -0.68,0.12 -1.27,0.28c-0.85,0.24 -1.3,0.22 -2.2,-0.1c-0.63,-0.22 -1.14,-0.35 -1.14,-0.28c0,0.06 -0.25,-0.13 -0.55,-0.44c-0.34,-0.33 -0.73,-0.49 -1,-0.38c-0.24,0.09 -0.35,0.08 -0.25,-0.03c0.1,-0.11 -0.4,-0.82 -1.1,-1.6c-1.82,-1.99 -2.7,-3.91 -2.87,-6.26c-0.07,-0.81 -0.19,-1.77 -0.27,-2.14c-0.09,-0.37 -0.2,-1.09 -0.23,-1.61c-0.18,-2.46 -0.46,-5.21 -0.82,-8.01c-0.22,-1.69 -0.41,-3.38 -0.41,-3.74c0,-0.37 -0.23,-2.6 -0.51,-4.95c-0.28,-2.35 -0.58,-5.12 -0.66,-6.15c-0.08,-1.02 -0.23,-2.23 -0.33,-2.67c-0.1,-0.44 -0.17,-1.04 -0.14,-1.33c0.03,-0.3 -0.32,-3.54 -0.76,-7.22c-0.44,-3.67 -0.81,-6.93 -0.81,-7.24c0,-0.3 -0.66,-6.49 -1.47,-13.76c-0.81,-7.26 -1.48,-13.39 -1.49,-13.61c-0.03,-0.44 -2.06,-19.57 -3.57,-33.55c-0.52,-4.84 -1.55,-14.16 -2.28,-20.7c-0.74,-6.54 -1.34,-12.13 -1.35,-12.43c0,-0.29 -0.17,-1.97 -0.38,-3.74c-0.2,-1.76 -0.45,-4.14 -0.53,-5.29c-0.09,-1.15 -0.27,-2.37 -0.4,-2.71c-0.13,-0.35 -0.19,-0.68 -0.12,-0.74c0.13,-0.13 -1.4,-14.58 -1.66,-15.67c-0.1,-0.39 -0.24,-0.82 -0.32,-0.96c-0.08,-0.14 -0.18,-0.54 -0.21,-0.88c-0.11,-1 -2.11,-4.87 -3.36,-6.51c-2.8,-3.65 -7.26,-6.57 -11.84,-7.74c-2.87,-0.74 -7.23,-0.75 -10.02,-0.03c-3.42,0.89 -6.57,2.56 -9.24,4.9c-0.79,0.69 -0.88,0.88 -0.59,1.25c0.3,0.38 0.29,0.39 -0.1,0.09c-0.38,-0.29 -0.56,-0.19 -1.29,0.74c-0.47,0.59 -0.75,1.08 -0.63,1.08c0.12,0.02 0.02,0.13 -0.25,0.28c-0.49,0.29 -1.42,1.85 -1.09,1.85c0.11,0 -0.03,0.15 -0.25,0.34c-1.05,0.78 -2.5,5.93 -2.74,9.7c-0.09,1.31 -0.39,4.98 -0.67,8.14c-0.28,3.16 -0.51,6.04 -0.51,6.41c0,0.37 -0.3,4.1 -0.68,8.28c-0.37,4.19 -0.65,7.8 -0.62,8.02c0.03,0.22 -0.04,0.76 -0.14,1.2c-0.1,0.45 -0.25,1.95 -0.32,3.34c-0.07,1.4 -0.18,2.84 -0.24,3.21c-0.11,0.61 -0.65,7.61 -0.66,8.55c0,0.22 -0.55,6.66 -1.21,14.3c-1.08,12.53 -4.38,52.6 -4.41,53.58c0,0.22 -0.19,2.15 -0.4,4.28c-0.21,2.13 -0.46,5.02 -0.55,6.41c-0.1,1.4 -0.76,9.52 -1.49,18.04c-0.73,8.53 -1.3,15.74 -1.27,16.04c0.02,0.29 -0.04,0.89 -0.14,1.33c-0.1,0.44 -0.24,2.05 -0.32,3.57c-0.07,1.53 -0.19,2.86 -0.25,2.96c-0.07,0.11 -0.19,1.54 -0.26,3.19c-0.08,1.65 -0.2,3.09 -0.27,3.2c-0.07,0.11 -0.2,1.52 -0.3,3.13c-0.09,1.61 -0.39,5.5 -0.67,8.65c-0.27,3.15 -0.44,5.83 -0.36,5.95c0.08,0.12 0.04,0.22 -0.08,0.22c-0.13,0 -0.43,0.57 -0.68,1.28c-0.25,0.7 -0.87,1.76 -1.39,2.37c-0.51,0.6 -0.85,1.18 -0.74,1.28c0.1,0.1 0.07,0.16 -0.08,0.13c-0.4,-0.1 -1.22,0.31 -1.08,0.53c0.07,0.11 -0.03,0.21 -0.2,0.22c-0.27,0.03 -2.08,0.69 -3.66,1.38c-0.23,0.09 -1.25,0.09 -2.28,0l-0.08,0.06zm331.03,-127.58c0,-0.45 0.07,-0.59 0.14,-0.33c0.07,0.26 0.06,0.62 -0.03,0.8c-0.07,0.18 -0.13,-0.03 -0.12,-0.47l0.01,0zm-382.72,-22.21c0.02,-0.31 0.08,-0.37 0.16,-0.16c0.08,0.19 0.07,0.42 -0.02,0.51c-0.09,0.09 -0.16,-0.07 -0.14,-0.35zm387.77,-13.89c0.03,-0.32 0.08,-0.38 0.17,-0.17c0.07,0.2 0.07,0.43 -0.03,0.52c-0.09,0.09 -0.16,-0.07 -0.15,-0.35l0.01,0zm-483.71,-0.54c0.01,-0.31 0.08,-0.37 0.16,-0.16c0.08,0.19 0.07,0.42 -0.02,0.51c-0.09,0.09 -0.16,-0.07 -0.15,-0.35l0.01,0zm35.01,-10.96c0.01,-0.31 0.08,-0.37 0.16,-0.16c0.08,0.2 0.07,0.43 -0.02,0.52c-0.09,0.08 -0.16,-0.07 -0.15,-0.36l0.01,0zm411.29,-26.99c0.03,-0.31 0.07,-0.37 0.16,-0.16c0.08,0.19 0.07,0.42 -0.03,0.51c-0.09,0.09 -0.16,-0.07 -0.14,-0.35l0.01,0zm-330.74,-16.14c0.09,-0.15 0.22,-0.27 0.28,-0.27c0.07,0 0.12,0.12 0.12,0.27c0,0.14 -0.12,0.26 -0.28,0.26c-0.16,0 -0.21,-0.12 -0.12,-0.26zm229.18,-9.51c0.03,-0.31 0.08,-0.38 0.17,-0.16c0.08,0.19 0.07,0.42 -0.03,0.51c-0.09,0.09 -0.16,-0.07 -0.14,-0.35zm113.58,-67.88c0.03,-0.31 0.08,-0.38 0.17,-0.16c0.07,0.19 0.07,0.42 -0.03,0.51c-0.09,0.09 -0.16,-0.07 -0.15,-0.35l0.01,0zm-2.11,-20.69c0,-0.37 0.06,-0.52 0.13,-0.34c0.08,0.19 0.08,0.49 0,0.67c-0.07,0.19 -0.13,0.03 -0.13,-0.33zm-488.68,-12.37c0.1,-0.27 0.25,-0.42 0.33,-0.33c0.08,0.08 0,0.29 -0.19,0.48c-0.26,0.26 -0.29,0.23 -0.15,-0.15l0.01,0zm486.52,-14.51c0.03,-0.31 0.07,-0.38 0.16,-0.16c0.08,0.19 0.07,0.42 -0.03,0.51c-0.09,0.09 -0.15,-0.07 -0.14,-0.35l0.01,0zm-88.99,-126.14c0.02,-0.31 0.07,-0.38 0.16,-0.16c0.08,0.19 0.07,0.42 -0.03,0.51c-0.09,0.09 -0.16,-0.07 -0.14,-0.35l0.01,0z" fill="#f90000" fill-opacity="1" id="path166" opacity="0.7" stroke-width="1.33"/>
  </g>
  <g id="layer1" transform="translate(-111.92777,411.25231)">
   <path d="m298.51,-132.54a147.16,238.11 0 0 0 145.87,208.91a147.16,238.11 0 0 0 145.11,-200.23l-93.87,4.38l-69.11,49.59l-128,-62.65z" fill="#000000" id="path179" opacity="0.9" stroke="#ffffff" stroke-linejoin="bevel" stroke-miterlimit="4" stroke-width="0"/>
   <path d="m442,-401.65c-75.47,0 -102.51,119.32 -136.66,239.81c-2.41,8.75 0.46,18.13 1.21,27.12l118.86,58.18l64.17,-46.06l87.17,-4.06c1.21,-11.62 5.16,-23.84 1.91,-35.18c-34.96,-119.68 -61.19,-239.81 -136.66,-239.81z" fill="#000000" id="ellipse195" opacity="0.9" stroke="#ffffff" stroke-linejoin="bevel" stroke-miterlimit="4" stroke-width="0"/>
   <path d="m340.74,-46.26c0,0 11.71,42.25 25.29,58.64c11.81,14.24 46,31.05 46,31.05c0,0 -30.21,-18.77 -41.4,-32.2c-13.82,-16.59 -29.89,-57.49 -29.89,-57.49z" fill="#ffffff" id="path1144" stroke="#000000" stroke-width="1px"/>
  </g>
 </g>
</svg>