<?xml version="1.0"?>
<svg width="660.14513" height="512.16773" xmlns="http://www.w3.org/2000/svg" xmlns:svg="http://www.w3.org/2000/svg" version="1.1">

 <metadata id="metadata38">image/svg+xml</metadata>
 <g class="layer">
  <title>Layer 1</title>
  <g id="layer1" transform="translate(-111.92777,411.25231)">
   <path d="m298.51,-132.54a147.16,238.11 0 0 0 145.87,208.91a147.16,238.11 0 0 0 145.11,-200.23l-93.87,4.38l-69.11,49.59l-128,-62.65z" fill="#000000" id="path179" opacity="0.9" stroke="#ffffff" stroke-linejoin="bevel" stroke-miterlimit="4" stroke-width="0"/>
   <path d="m442,-401.65c-75.47,0 -102.51,119.32 -136.66,239.81c-2.41,8.75 0.46,18.13 1.21,27.12l118.86,58.18l64.17,-46.06l87.17,-4.06c1.21,-11.62 5.16,-23.84 1.91,-35.18c-34.96,-119.68 -61.19,-239.81 -136.66,-239.81z" fill="#000000" id="ellipse195" opacity="0.9" stroke="#ffffff" stroke-linejoin="bevel" stroke-miterlimit="4" stroke-width="0"/>
   <path d="m340.74,-46.26c0,0 11.71,42.25 25.29,58.64c11.81,14.24 46,31.05 46,31.05c0,0 -30.21,-18.77 -41.4,-32.2c-13.82,-16.59 -29.89,-57.49 -29.89,-57.49z" fill="#ffffff" id="path1144" stroke="#000000" stroke-width="1px"/>
  </g>
  <g fill="#ffffff" id="layer3" stroke-width="1.61" transform="matrix(0.621744, 0, 0, 0.621744, 114.918, 277.737)"/>
 </g>
</svg>