<?xml version="1.0" encoding="UTF-8" standalone="no"?>
<!-- Created with Inkscape (http://www.inkscape.org/) -->

<svg
   width="446.05988"
   height="446.05988"
   viewBox="0 0 446.05988 446.05989"
   version="1.1"
   id="SVGRoot"
   inkscape:version="1.3 (0e150ed6c4, 2023-07-21)"
   sodipodi:docname="ovos-logo-sticker-egg-standalone-straight.svg"
   inkscape:export-filename="..\..\..\..\..\OneDrive\Desktop\ovos2.png"
   inkscape:export-xdpi="96"
   inkscape:export-ydpi="96"
   xml:space="preserve"
   xmlns:inkscape="http://www.inkscape.org/namespaces/inkscape"
   xmlns:sodipodi="http://sodipodi.sourceforge.net/DTD/sodipodi-0.dtd"
   xmlns:xlink="http://www.w3.org/1999/xlink"
   xmlns="http://www.w3.org/2000/svg"
   xmlns:svg="http://www.w3.org/2000/svg"
   xmlns:rdf="http://www.w3.org/1999/02/22-rdf-syntax-ns#"
   xmlns:cc="http://creativecommons.org/ns#"
   xmlns:dc="http://purl.org/dc/elements/1.1/"><defs
     id="defs35"><inkscape:perspective
       sodipodi:type="inkscape:persp3d"
       inkscape:vp_x="0 : 256.00001 : 1"
       inkscape:vp_y="0 : 1000 : 0"
       inkscape:vp_z="512.00006 : 256 : 1"
       inkscape:persp3d-origin="256.00003 : 170.66667 : 1"
       id="perspective1206" /><linearGradient
       inkscape:collect="always"
       id="linearGradient919"><stop
         style="stop-color:#00000a;stop-opacity:1;"
         offset="0"
         id="stop915" /><stop
         style="stop-color:#00000a;stop-opacity:0;"
         offset="1"
         id="stop917" /></linearGradient><linearGradient
       inkscape:collect="always"
       xlink:href="#linearGradient919"
       id="linearGradient921"
       x1="95"
       y1="196.15204"
       x2="210.2"
       y2="196.15204"
       gradientUnits="userSpaceOnUse" /><filter
       inkscape:label="Canvas Bumps"
       inkscape:menu-tooltip="Canvas texture with an HSL sensitive height map"
       inkscape:menu="Bumps"
       style="color-interpolation-filters:sRGB"
       id="filter1359"
       x="-0.0015626408"
       y="-0.0015626408"
       width="1.0031253"
       height="1.0031253"><feTurbulence
         type="turbulence"
         result="result1"
         numOctaves="7"
         seed="300"
         baseFrequency="0.2"
         id="feTurbulence1341" /><feDisplacementMap
         xChannelSelector="R"
         in2="result1"
         result="result7"
         id="feDisplacementMap1343"
         scale="0"
         yChannelSelector="A" /><feBlend
         in="result7"
         in2="SourceGraphic"
         mode="screen"
         result="fbSourceGraphic"
         id="feBlend1345" /><feColorMatrix
         result="fbSourceGraphicAlpha"
         values="1 0 0 -1 0 1 0 1 -1 0 1 0 0 -1 0 -0.8 -1 0 4 -2.5 "
         id="feColorMatrix1347" /><feGaussianBlur
         result="result0"
         in="fbSourceGraphicAlpha"
         stdDeviation="0.5"
         id="feGaussianBlur1349" /><feSpecularLighting
         result="result6"
         surfaceScale="5"
         specularConstant="1"
         specularExponent="5"
         id="feSpecularLighting1353"><feDistantLight
           azimuth="225"
           elevation="35"
           id="feDistantLight1351" /></feSpecularLighting><feComposite
         in2="SourceGraphic"
         k3="1"
         k2="0.5"
         operator="arithmetic"
         result="result4"
         id="feComposite1355"
         k1="0"
         k4="0" /><feComposite
         operator="in"
         result="result2"
         in="result4"
         in2="SourceGraphic"
         id="feComposite1357" /></filter><clipPath
       clipPathUnits="userSpaceOnUse"
       id="clipPath1402"><circle
         style="opacity:1;fill:none;fill-opacity:1;stroke:#000000;stroke-width:12.53924465;stroke-miterlimit:4;stroke-dasharray:none;stroke-opacity:1"
         id="circle1404"
         cx="330.07257"
         cy="256.08386"
         r="383.96539" /></clipPath><inkscape:perspective
       sodipodi:type="inkscape:persp3d"
       inkscape:vp_x="0 : 256.00001 : 1"
       inkscape:vp_y="0 : 1000 : 0"
       inkscape:vp_z="512.00006 : 256 : 1"
       inkscape:persp3d-origin="256.00003 : 170.66667 : 1"
       id="perspective1206-6" /><filter
       inkscape:label="Canvas Bumps"
       inkscape:menu-tooltip="Canvas texture with an HSL sensitive height map"
       inkscape:menu="Bumps"
       style="color-interpolation-filters:sRGB"
       id="filter1359-9"
       x="-0.0015626408"
       y="-0.0015626408"
       width="1.0031253"
       height="1.0031253"><feTurbulence
         type="turbulence"
         result="result1"
         numOctaves="7"
         seed="300"
         baseFrequency="0.2"
         id="feTurbulence1341-5" /><feDisplacementMap
         xChannelSelector="R"
         in2="result1"
         result="result7"
         id="feDisplacementMap1343-6"
         scale="0"
         yChannelSelector="A" /><feBlend
         in="result7"
         in2="SourceGraphic"
         mode="screen"
         result="fbSourceGraphic"
         id="feBlend1345-4" /><feColorMatrix
         result="fbSourceGraphicAlpha"
         values="1 0 0 -1 0 1 0 1 -1 0 1 0 0 -1 0 -0.8 -1 0 4 -2.5 "
         id="feColorMatrix1347-3" /><feGaussianBlur
         result="result0"
         in="fbSourceGraphicAlpha"
         stdDeviation="0.5"
         id="feGaussianBlur1349-2" /><feSpecularLighting
         result="result6"
         surfaceScale="5"
         specularConstant="1"
         specularExponent="5"
         id="feSpecularLighting1353-5"><feDistantLight
           azimuth="225"
           elevation="35"
           id="feDistantLight1351-4" /></feSpecularLighting><feComposite
         in2="SourceGraphic"
         k3="1"
         k2="0.5"
         operator="arithmetic"
         result="result4"
         id="feComposite1355-1"
         k1="0"
         k4="0" /><feComposite
         operator="in"
         result="result2"
         in="result4"
         in2="SourceGraphic"
         id="feComposite1357-8" /></filter><clipPath
       clipPathUnits="userSpaceOnUse"
       id="clipPath1402-0"><circle
         style="opacity:1;fill:none;fill-opacity:1;stroke:#000000;stroke-width:12.53924465;stroke-miterlimit:4;stroke-dasharray:none;stroke-opacity:1"
         id="circle1404-3"
         cx="330.07257"
         cy="256.08386"
         r="383.96539" /></clipPath></defs><sodipodi:namedview
     id="base"
     pagecolor="#ffffff"
     bordercolor="#666666"
     borderopacity="1.0"
     inkscape:pageopacity="0.0"
     inkscape:pageshadow="2"
     inkscape:zoom="0.61498033"
     inkscape:cx="492.69869"
     inkscape:cy="408.95617"
     inkscape:document-units="px"
     inkscape:current-layer="g2"
     showgrid="false"
     inkscape:window-width="1824"
     inkscape:window-height="2104"
     inkscape:window-x="10"
     inkscape:window-y="0"
     inkscape:window-maximized="0"
     inkscape:grid-bbox="true"
     showguides="true"
     fit-margin-top="1"
     fit-margin-left="1"
     fit-margin-right="1"
     fit-margin-bottom="1"
     units="px"
     inkscape:showpageshadow="0"
     inkscape:pagecheckerboard="1"
     inkscape:deskcolor="#505050"><sodipodi:guide
       position="262.87392,234.28038"
       orientation="0,-1"
       id="guide1"
       inkscape:locked="false" /><sodipodi:guide
       position="197.83814,239.31077"
       orientation="1,0"
       id="guide2"
       inkscape:locked="false" /></sodipodi:namedview><metadata
     id="metadata38"><rdf:RDF><cc:Work
         rdf:about=""><dc:format>image/svg+xml</dc:format><dc:type
           rdf:resource="http://purl.org/dc/dcmitype/StillImage" /></cc:Work></rdf:RDF></metadata><g
     inkscape:groupmode="layer"
     id="layer4"
     inkscape:label="Layer 4"
     transform="translate(-107.04263,-33.053921)"><g
       id="g1007"
       transform="matrix(0.56896469,0,0,0.56896469,142.48853,110.38119)" /><g
       id="g2"
       transform="matrix(1.5795037,0,0,1.5880123,626.7641,-48.112035)"><path
         id="path1222-3"
         style="display:inline;opacity:0;fill:#ffffff;fill-opacity:1;stroke:none;stroke-width:4.88375;stroke-linecap:butt;stroke-linejoin:bevel;stroke-miterlimit:4;stroke-dasharray:none;stroke-opacity:1;paint-order:stroke fill markers"
         d="m 334.48256,220.00469 a 27.824743,27.824743 0 0 0 -26.94668,21.12929 27.824743,27.824743 0 0 0 -9.27096,-1.59266 27.824743,27.824743 0 0 0 -27.82404,27.82404 27.824743,27.824743 0 0 0 27.82404,27.82404 27.824743,27.824743 0 0 0 0.59236,-0.0428 27.824743,27.824743 0 0 0 -0.73393,6.02603 27.824743,27.824743 0 0 0 27.82591,27.82404 27.824743,27.824743 0 0 0 27.45894,-23.48567 27.824743,27.824743 0 0 0 10.17998,2.0006 27.824743,27.824743 0 0 0 27.82591,-27.82405 27.824743,27.824743 0 0 0 -27.82591,-27.82404 27.824743,27.824743 0 0 0 -1.60384,0.1155 27.824743,27.824743 0 0 0 0.32413,-4.14837 27.824743,27.824743 0 0 0 -27.82591,-27.82591 z"
         transform="translate(-522.72875,-50.045542)" /><path
         inkscape:connector-curvature="0"
         id="path179"
         d="m -272.65107,208.86762 a 83.728377,135.47537 0 0 0 82.99106,118.8625 83.728377,135.47537 0 0 0 82.561,-113.92406 l -53.40712,2.49033 -39.31968,28.2182 z"
         style="opacity:1;fill:#000000;stroke:#ffffff;stroke-width:0;stroke-linecap:butt;stroke-linejoin:bevel;stroke-miterlimit:4;stroke-dasharray:none;stroke-opacity:1;paint-order:stroke fill markers" /><path
         sodipodi:nodetypes="sccccccs"
         inkscape:connector-curvature="0"
         id="ellipse195"
         d="m 441.99944,-401.65095 c -75.473,8.2e-4 -102.50818,119.32322 -136.65536,239.81503 -2.41839,8.74158 0.45833,18.12529 1.2025,27.11524 l 118.86087,58.18078 64.17514,-46.05602 87.16779,-4.06455 c 1.21393,-11.62418 5.15907,-23.84436 1.90622,-35.17545 -34.96022,-119.6799 -61.18346,-239.81582 -136.65716,-239.81503 z"
         style="opacity:1;fill:#000000;stroke:#000000;stroke-width:0;stroke-linecap:butt;stroke-linejoin:bevel;stroke-miterlimit:4;stroke-dasharray:none;stroke-opacity:1;paint-order:stroke fill markers"
         transform="matrix(0.56896469,0,0,0.56896469,-441.89058,289.03897)" /><path
         sodipodi:nodetypes="cacac"
         inkscape:connector-curvature="0"
         id="path1144"
         d="m 340.73876,-46.25949 c 0,0 11.70994,42.2510825 25.29568,58.64 11.80431,14.239918 45.99216,31.04471 45.99216,31.04471 0,0 -30.20407,-18.765083 -41.39294,-32.19451 -13.82594,-16.5945726 -29.8949,-57.4902 -29.8949,-57.4902 z"
         style="fill:#ffffff;stroke:#000000;stroke-width:1px;stroke-linecap:butt;stroke-linejoin:miter;stroke-opacity:1"
         transform="matrix(0.56896469,0,0,0.56896469,-441.89058,289.03897)" /><path
         inkscape:connector-curvature="0"
         id="path166"
         d="m -211.40236,268.38559 c -0.24291,-0.0231 -0.46281,-0.0293 -0.48886,-0.0138 -0.0258,0.0154 -0.0473,0.007 -0.0473,-0.0277 0,-0.0306 -0.0997,-0.093 -0.22172,-0.13863 -0.12201,-0.0456 -0.35323,-0.18631 -0.51392,-0.31291 -0.17886,-0.14094 -0.27663,-0.18829 -0.25203,-0.12223 0.0243,0.0649 0.0148,0.0915 -0.0243,0.067 -0.0353,-0.0225 -0.0582,-0.0753 -0.0505,-0.11732 0.0192,-0.10573 -0.25956,-0.56467 -0.34223,-0.56467 -0.0375,0 -0.0509,-0.0168 -0.0309,-0.0378 0.0205,-0.0206 -0.004,-0.15991 -0.0526,-0.30924 -0.0944,-0.28867 -0.22085,-1.43597 -0.21392,-1.94203 0.004,-0.16695 -0.0259,-0.32276 -0.0629,-0.34624 -0.0371,-0.0235 -0.0496,-0.0718 -0.0284,-0.1075 0.0411,-0.0678 -0.40285,-5.94085 -0.46133,-6.11028 -0.0192,-0.0536 -0.03,-0.20018 -0.0252,-0.32551 0.005,-0.12537 -0.0324,-0.6672 -0.0818,-1.20424 -0.0496,-0.53702 -0.10734,-1.22538 -0.12796,-1.52973 -0.0213,-0.30431 -0.13394,-1.71038 -0.25184,-3.12456 -0.11778,-1.41417 -0.23209,-2.84953 -0.25397,-3.18962 -0.0219,-0.34016 -0.0927,-1.21892 -0.1574,-1.95286 -0.0646,-0.73394 -0.13601,-1.65522 -0.1584,-2.04725 -0.0226,-0.39202 -0.0539,-0.73411 -0.0691,-0.76032 -0.016,-0.0259 -0.0442,-0.37445 -0.063,-0.774 -0.0193,-0.39957 -0.0594,-0.79409 -0.0895,-0.87664 -0.0305,-0.0825 -0.0415,-0.1645 -0.0245,-0.18206 0.0336,-0.0344 -0.33306,-4.92158 -0.38928,-5.18905 -0.0192,-0.0895 -0.0333,-0.26527 -0.0321,-0.39059 0,-0.12524 -0.0383,-0.66719 -0.087,-1.20423 -0.0488,-0.53702 -0.10628,-1.25469 -0.1273,-1.59486 -0.0217,-0.3401 -0.0641,-0.85268 -0.0957,-1.13911 -0.0317,-0.28643 -0.0743,-0.85466 -0.0947,-1.26276 -0.0207,-0.40811 -0.0514,-0.76562 -0.0687,-0.79444 -0.0177,-0.0288 -0.0461,-0.38023 -0.0642,-0.78098 -0.0218,-0.46714 -0.0676,-0.79788 -0.12942,-0.92152 -0.0537,-0.10614 -0.066,-0.17328 -0.0284,-0.14933 0.0883,0.0563 0.0865,0.007 -0.0608,-1.59151 -0.0675,-0.73393 -0.12307,-1.43694 -0.12346,-1.56227 0,-0.12537 -0.0432,-0.6526 -0.0948,-1.17173 -0.0517,-0.51914 -0.0956,-0.9878 -0.0977,-1.0415 -0.0192,-0.47943 -0.20567,-2.91869 -0.2297,-2.99438 -0.0358,-0.11132 -0.0695,-0.65158 -0.0732,-1.1562 0,-0.18839 -0.0194,-0.37057 -0.0401,-0.40489 -0.0207,-0.0342 -0.0514,-0.36353 -0.0683,-0.73155 -0.0173,-0.36804 -0.0496,-0.72775 -0.0726,-0.79934 -0.0231,-0.0716 -0.0345,-0.18196 -0.0255,-0.24528 0.028,-0.19955 -0.17938,-0.83767 -0.25656,-0.7885 -0.044,0.0282 -0.053,0.0154 -0.0233,-0.0338 0.0613,-0.1019 -0.19136,-0.49431 -0.54207,-0.84283 -0.31118,-0.30912 -0.89178,-0.63173 -1.00598,-0.55892 -0.0461,0.0293 -0.06,0.0212 -0.0349,-0.0209 0.0259,-0.0426 -0.0616,-0.0873 -0.22658,-0.1161 -0.50818,-0.0887 -1.30936,-0.0284 -1.30936,0.0982 0,0.0291 -0.0358,0.0513 -0.0789,0.0497 -0.21605,-0.008 -0.30388,0.0226 -0.26203,0.0926 0.0282,0.0471 0.0172,0.0574 -0.0288,0.028 -0.18387,-0.11732 -0.97204,0.63082 -1.22869,1.16625 -0.0859,0.17899 -0.18619,0.44261 -0.22281,0.58582 -0.0369,0.14321 -0.15204,1.63714 -0.2564,3.31984 -0.10443,1.68272 -0.23292,3.734 -0.2856,4.5585 -0.053,0.82441 -0.10998,1.84475 -0.12717,2.26738 -0.0176,0.42262 -0.0447,0.79013 -0.0611,0.81676 -0.0161,0.0266 -0.0436,0.51638 -0.0608,1.08832 -0.0176,0.572 -0.0452,1.08241 -0.0613,1.13428 -0.0167,0.0518 -0.0454,0.38724 -0.0648,0.74524 -0.02,0.35797 -0.0931,1.57367 -0.16343,2.70143 -0.0705,1.12779 -0.12717,2.12374 -0.12637,2.21319 0,0.0895 -0.056,0.98297 -0.12572,1.98548 -0.0699,1.0024 -0.12214,1.93976 -0.11606,2.083 0.007,0.14318 -0.007,0.30432 -0.0259,0.35802 -0.0204,0.0536 -0.0805,0.93247 -0.13418,1.95283 -0.0541,1.02038 -0.10046,1.89917 -0.10443,1.95285 -0.0898,1.27183 -0.14261,2.17992 -0.15026,2.58751 -0.004,0.18799 -0.0311,0.34175 -0.0612,0.34175 -0.0303,0 -0.041,0.0742 -0.0243,0.16498 0.0173,0.0907 0.0176,0.15103 0,0.13397 -0.0166,-0.0171 -0.1113,0.13676 -0.21063,0.34192 -0.48979,1.01145 -1.61552,1.59866 -2.6552,1.3849 -0.2194,-0.045 -0.44147,-0.0873 -0.49346,-0.0937 -0.0523,-0.007 -0.10879,-0.027 -0.12624,-0.0466 -0.0176,-0.019 -0.18048,-0.13192 -0.3625,-0.25079 -0.18205,-0.11882 -0.39889,-0.29936 -0.48186,-0.40107 -0.083,-0.10177 -0.16818,-0.17198 -0.18939,-0.15609 -0.0215,0.0158 -0.0257,0.0109 -0.0106,-0.0123 0.0451,-0.0632 -0.0917,-0.29256 -0.15149,-0.25434 -0.0292,0.0187 -0.0496,-0.007 -0.0459,-0.0469 0.007,-0.0445 -0.0432,-0.24177 -0.1047,-0.43867 -0.11553,-0.36951 -0.42281,-2.91818 -0.41788,-3.46633 0,-0.1846 -0.026,-0.30918 -0.067,-0.30918 -0.0387,0 -0.0514,-0.0307 -0.0288,-0.0686 0.0424,-0.0709 -0.14365,-2.23135 -0.2072,-2.40492 -0.02,-0.0536 -0.0293,-0.12565 -0.0222,-0.15971 0.0252,-0.10982 -0.20579,-2.31392 -0.24252,-2.31386 -0.0198,4e-5 -0.0259,-0.14644 -0.0141,-0.32548 0.0132,-0.17903 -0.004,-0.32549 -0.0315,-0.32547 -0.0295,4e-5 -0.0439,-0.14645 -0.0315,-0.32549 0.0132,-0.179 -0.004,-0.32549 -0.0349,-0.32549 -0.0309,0 -0.0448,-0.10232 -0.0308,-0.22752 0.0148,-0.12509 0.007,-0.2789 -0.0231,-0.34176 -0.0267,-0.0628 -0.0424,-0.14102 -0.035,-0.17376 0.0249,-0.10655 -0.3908,-4.17062 -0.42925,-4.20415 -0.0208,-0.0179 -0.0451,-0.2962 -0.0549,-0.61841 -0.0106,-0.32224 -0.0338,-0.62982 -0.0541,-0.68354 -0.0202,-0.0536 -0.0442,-0.21478 -0.0546,-0.35799 -0.0106,-0.1432 -0.0321,-0.39221 -0.0492,-0.55333 -0.0315,-0.29082 -0.0457,-0.4553 -0.14061,-1.60927 -0.0274,-0.3301 -0.0712,-0.58637 -0.0978,-0.56947 -0.027,0.0168 -0.0349,-0.0229 -0.0181,-0.0888 0.0316,-0.12456 -0.3298,-3.95589 -0.39999,-4.24186 -0.0226,-0.0895 -0.036,-0.22131 -0.0308,-0.29291 0.007,-0.0716 -0.088,-1.03831 -0.20695,-2.14812 -0.11884,-1.10988 -0.23199,-2.2377 -0.25143,-2.50619 -0.0834,-1.15462 -0.22253,-2.03262 -0.37721,-2.38124 -0.18115,-0.40847 -0.77413,-1.09063 -0.90349,-1.03944 -0.0473,0.0187 -0.0717,0.01 -0.0538,-0.0209 0.0476,-0.0795 -0.44202,-0.29305 -0.53542,-0.23342 -0.0484,0.0306 -0.0624,0.0232 -0.037,-0.02 0.0553,-0.0915 -0.24951,-0.15855 -0.72069,-0.15855 -0.39643,0 -1.08719,0.18824 -1.03165,0.28112 0.0184,0.0307 -0.003,0.0422 -0.0486,0.0252 -0.0452,-0.0168 -0.15311,0.0296 -0.23983,0.10395 -0.0867,0.0741 -0.11778,0.11296 -0.0691,0.0865 0.0596,-0.0319 0.0734,-0.0225 0.0432,0.028 -0.0255,0.042 -0.0739,0.0582 -0.10839,0.0363 -0.16546,-0.10559 -0.9387,1.07378 -0.85375,1.3022 0.0196,0.0517 0.0106,0.10341 -0.0223,0.11474 -0.0646,0.0232 -0.33733,3.0645 -0.29531,3.29305 0.0149,0.0814 0,0.16451 -0.0304,0.18468 -0.0317,0.0203 -0.057,0.17325 -0.0558,0.34018 0,0.16691 -0.0958,1.4313 -0.21565,2.80969 -0.11977,1.37839 -0.23484,2.75515 -0.2557,3.05947 -0.0218,0.3043 -0.12069,1.51998 -0.22174,2.70142 -0.10113,1.1815 -0.19785,2.39991 -0.21496,2.7076 -0.0172,0.30774 -0.0449,0.60063 -0.0619,0.65099 -0.0172,0.0503 -0.0472,0.38437 -0.067,0.7424 -0.0202,0.35803 -0.16324,2.14484 -0.31847,3.9708 -0.15525,1.82586 -0.27782,3.37841 -0.2724,3.45003 0.007,0.0716 -0.0119,0.18145 -0.0381,0.24407 -0.0267,0.0626 -0.0313,0.15788 -0.0119,0.21158 0.0202,0.0535 0.007,0.0977 -0.0316,0.0977 -0.0375,0 -0.0515,0.0438 -0.0315,0.0977 0.0204,0.0537 0.007,0.0977 -0.0316,0.0977 -0.0375,0 -0.051,0.0454 -0.0303,0.10095 0.0208,0.0557 0.0119,0.0845 -0.0206,0.0641 -0.0505,-0.0325 -0.12439,0.10341 -0.1306,0.24027 -0.004,0.0903 -0.68747,0.7599 -0.88113,0.86321 -0.10708,0.0572 -0.17952,0.12919 -0.16098,0.16018 0.0186,0.0308 -0.0275,0.0396 -0.10245,0.0195 -0.10139,-0.0271 -0.12307,-0.015 -0.085,0.0487 0.0288,0.048 0.0262,0.07 -0.007,0.0498 -0.0316,-0.0198 -0.24158,0.007 -0.4671,0.0607 -0.22549,0.0529 -0.4597,0.0919 -0.52037,0.0868 -0.0611,-0.007 -0.23546,-0.0154 -0.38819,-0.022 -0.15282,-0.007 -0.26655,-0.031 -0.25275,-0.0543 0.0379,-0.0628 -0.28355,-0.13178 -0.37121,-0.0798 -0.042,0.0248 -0.055,0.0206 -0.0287,-0.008 0.0546,-0.0617 -0.44389,-0.37377 -0.51958,-0.32548 -0.0275,0.0171 -0.0847,-0.0123 -0.12757,-0.0652 -0.0431,-0.0532 -0.0563,-0.0968 -0.0291,-0.0968 0.027,0 0,-0.058 -0.064,-0.12865 -0.0621,-0.0708 -0.13814,-0.11255 -0.16902,-0.0928 -0.0311,0.0198 -0.0484,-0.007 -0.0393,-0.0503 0.0106,-0.0472 -0.0205,-0.0782 -0.0662,-0.0682 -0.0461,0.01 -0.0656,-0.0123 -0.0436,-0.0487 0.0461,-0.0765 -0.11527,-0.34269 -0.17807,-0.29425 -0.0233,0.0176 -0.0293,0.0142 -0.0143,-0.007 0.0155,-0.0217 -0.0264,-0.18165 -0.0925,-0.35521 -0.0665,-0.17358 -0.16928,-0.70494 -0.22879,-1.18087 -0.0599,-0.47593 -0.12426,-0.87997 -0.14388,-0.8979 -0.0196,-0.0179 -0.0428,-0.22291 -0.0514,-0.45562 -0.009,-0.2327 -0.0341,-0.4671 -0.0568,-0.5208 -0.0227,-0.0536 -0.0348,-0.17751 -0.0268,-0.27515 0.008,-0.0977 -0.0106,-0.21482 -0.0363,-0.26036 -0.0276,-0.0456 -0.0417,-0.16338 -0.0316,-0.26183 0.0106,-0.10123 -0.0133,-0.17904 -0.0537,-0.17904 -0.0394,0 -0.0529,-0.0317 -0.0296,-0.0703 0.0444,-0.0739 -0.53875,-4.82077 -0.59896,-4.87699 -0.0196,-0.0177 -0.0443,-0.23756 -0.0557,-0.4882 -0.0119,-0.25062 -0.0469,-0.46547 -0.0793,-0.4775 -0.0326,-0.0123 -0.0426,-0.0493 -0.0226,-0.0825 0.037,-0.0615 -0.0808,-1.24597 -0.14154,-1.42535 -0.0182,-0.0536 -0.0402,-0.20018 -0.048,-0.32548 -0.0311,-0.4604 -0.62942,-5.04593 -0.66285,-5.07739 -0.0192,-0.0179 -0.0424,-0.20828 -0.0518,-0.42313 -0.0106,-0.21482 -0.058,-0.65417 -0.10747,-0.97643 -0.0496,-0.32219 -0.10588,-0.75916 -0.12492,-0.97103 -0.0698,-0.77603 -0.29507,-2.21916 -0.34965,-2.23907 -0.0311,-0.0109 -0.0406,-0.0625 -0.0219,-0.11391 0.0196,-0.0513 0.005,-0.0935 -0.0332,-0.0935 -0.0375,0 -0.0526,-0.042 -0.0334,-0.0933 0.0506,-0.13642 -0.36429,-1.14291 -0.70141,-1.70112 -0.3456,-0.57229 -0.89907,-1.21728 -0.99309,-1.15734 -0.037,0.0236 -0.049,0.0136 -0.0279,-0.0224 0.0691,-0.11528 -0.77361,-0.84335 -0.8708,-0.75242 -0.0287,0.0266 -0.0346,0.0168 -0.0132,-0.0225 0.0497,-0.0905 -0.43532,-0.37596 -0.53299,-0.31367 -0.0444,0.0282 -0.0562,0.018 -0.03,-0.025 0.0537,-0.089 -0.18875,-0.23159 -0.28686,-0.169 -0.0397,0.025 -0.0549,0.0172 -0.034,-0.0173 0.048,-0.0797 -0.99327,-0.48483 -1.28352,-0.49948 -0.11937,-0.007 -0.233,-0.0334 -0.25254,-0.0602 -0.0513,-0.0709 -1.17174,-0.17099 -1.54268,-0.13764 -0.57604,0.0517 -1.22866,0.17217 -1.22866,0.22667 0,0.0295 -0.036,0.0404 -0.0789,0.024 -0.22614,-0.0858 -2.50728,1.02007 -2.50728,1.21549 0,0.0345 -0.0255,0.0467 -0.0567,0.027 -0.0309,-0.0199 -0.21936,0.0385 -0.41859,0.12947 -0.19932,0.091 -0.59267,0.22784 -0.87417,0.30419 -0.47914,0.13001 -0.69699,0.14045 -3.41622,0.16367 -2.89564,0.0248 -2.90555,0.0244 -3.27995,-0.12305 -0.20651,-0.0813 -0.40391,-0.13924 -0.43864,-0.12879 -0.0346,0.0109 -0.0422,-0.007 -0.0165,-0.0291 0.0259,-0.0265 -0.0829,-0.191 -0.24103,-0.36555 -0.41836,-0.4616 -0.55343,-0.81583 -0.56594,-1.48486 -0.007,-0.30432 0.008,-0.56794 0.028,-0.58584 0.0921,-0.078 0.25745,-0.53671 0.21855,-0.60663 -0.0237,-0.0423 -0.0202,-0.0557 0.009,-0.0296 0.028,0.0256 0.21741,-0.11214 0.42138,-0.30695 0.21607,-0.20646 0.47549,-0.38662 0.62176,-0.43186 0.13814,-0.0426 0.25116,-0.0951 0.25138,-0.11609 0,-0.0212 1.00073,-0.048 2.22347,-0.0598 3.23358,-0.0303 3.18552,-0.028 3.54688,-0.19643 0.3605,-0.16803 0.61435,-0.38932 0.55683,-0.48534 -0.0233,-0.0386 -0.008,-0.0454 0.0382,-0.0164 0.0449,0.0286 0.11527,-0.003 0.16891,-0.0713 0.28683,-0.37576 0.42329,-0.82367 0.81439,-2.67352 0.22541,-1.06614 0.43907,-2.06442 0.47467,-2.21839 0.0358,-0.15402 0.0496,-0.30531 0.0313,-0.33622 -0.0189,-0.0308 -0.0119,-0.066 0.0165,-0.078 0.0698,-0.0307 0.4078,-1.66887 0.36073,-1.74747 -0.0214,-0.0355 -0.007,-0.0644 0.0358,-0.0644 0.0435,0 0.0609,-0.0546 0.0414,-0.13015 -0.0184,-0.0716 -0.0134,-0.13015 0.0119,-0.13015 0.0621,0 0.21027,-0.76968 0.16347,-0.84781 -0.021,-0.0349 -0.014,-0.0636 0.0164,-0.0636 0.0779,0 0.20969,-0.7182 0.16729,-0.91133 -0.0249,-0.11214 -0.0176,-0.13587 0.0238,-0.0764 0.072,0.10463 0.23554,-0.66412 0.16586,-0.78048 -0.0249,-0.0409 -0.0176,-0.057 0.0165,-0.0357 0.075,0.0479 0.29977,-1.02985 0.23678,-1.13506 -0.0296,-0.0495 -0.0174,-0.0576 0.0364,-0.0236 0.0617,0.0392 0.0743,0.007 0.0526,-0.15217 -0.0163,-0.11214 -0.0148,-0.18864 0.005,-0.16983 0.0461,0.0473 0.3944,-1.54663 0.35906,-1.64206 -0.0161,-0.0426 -0.004,-0.0864 0.027,-0.0977 0.0304,-0.0109 0.0641,-0.13765 0.0752,-0.28084 0.0119,-0.1432 0.0363,-0.27502 0.0559,-0.29291 0.0393,-0.0352 0.75896,-3.38038 0.78489,-3.64528 0.0106,-0.0895 0.0349,-0.20865 0.0576,-0.26472 0.023,-0.0561 0.0472,-0.18795 0.0553,-0.29294 0.008,-0.10504 0.0294,-0.20557 0.0484,-0.22347 0.0682,-0.0633 0.25463,-1.10937 0.21078,-1.18259 -0.026,-0.0427 -0.0173,-0.0565 0.0208,-0.0333 0.0716,0.0458 0.17038,-0.44494 0.10985,-0.546 -0.0202,-0.0337 -0.004,-0.0613 0.0379,-0.0613 0.0426,0 0.0607,-0.0543 0.0419,-0.12701 -0.0181,-0.07 -0.0119,-0.13588 0.0137,-0.14643 0.0431,-0.018 0.32757,-1.29044 0.35413,-1.5817 0.008,-0.0716 0.0288,-0.17412 0.049,-0.22787 0.0764,-0.19984 0.23245,-0.99673 0.20138,-1.02879 -0.018,-0.0183 -0.008,-0.0653 0.0238,-0.10436 0.0868,-0.11091 0.20936,-0.80829 0.15809,-0.9001 -0.0259,-0.0465 -0.0217,-0.0593 0.0106,-0.0295 0.0317,0.0296 0.18524,-0.55762 0.35431,-1.35498 0.16413,-0.77421 0.36949,-1.56774 0.45627,-1.76341 0.31653,-0.71364 1.2051,-1.45448 1.8775,-1.56543 0.13127,-0.0214 0.22427,-0.0632 0.20678,-0.0924 -0.0173,-0.0291 0.0615,-0.0415 0.1746,-0.0269 0.11355,0.014 0.38158,0.0412 0.59564,0.0598 0.54693,0.0472 1.2791,0.37773 1.50929,0.68128 0.0426,0.0561 0.10351,0.0709 0.15765,0.0385 0.0484,-0.0292 0.0686,-0.0299 0.044,-0.005 -0.0244,0.028 0.0539,0.18289 0.17272,0.34426 0.30061,0.4062 0.53381,0.93927 0.57747,1.31986 0.0204,0.17632 0.0546,0.30958 0.0755,0.29618 0.022,-0.0136 0.0426,0.17741 0.0473,0.42409 0.007,0.24666 0.0304,0.50001 0.0567,0.56305 0.0266,0.063 0.0419,0.19224 0.0346,0.28712 -0.008,0.0949 0.0182,0.19216 0.0554,0.21608 0.0379,0.024 0.0515,0.0713 0.0313,0.10545 -0.0414,0.069 0.22818,2.35131 0.28374,2.40268 0.0196,0.0179 0.0447,0.23761 0.0557,0.48819 0.0119,0.25062 0.0471,0.46551 0.0793,0.47752 0.0327,0.0123 0.0427,0.0497 0.0222,0.0832 -0.0374,0.0618 0.13962,1.69867 0.20288,1.88043 0.0189,0.0535 0.0471,0.28803 0.0631,0.52078 0.016,0.23268 0.0547,0.43231 0.0851,0.44359 0.0311,0.0109 0.0423,0.0592 0.0249,0.10627 -0.0331,0.0888 0.46222,4.15874 0.52711,4.33213 0.0205,0.0536 0.0309,0.12319 0.0243,0.15434 -0.0164,0.0739 0.31078,2.71243 0.35218,2.84002 0.0176,0.0536 0.0391,0.20021 0.0476,0.32552 0.0393,0.55061 0.24795,2.08302 0.28427,2.08302 0.0222,0 0.0287,0.10381 0.0141,0.23073 -0.0184,0.16137 0.0106,0.27235 0.0916,0.36922 0.0646,0.0761 0.0821,0.11705 0.0393,0.0909 -0.0436,-0.026 -0.0789,-0.0237 -0.0791,0.007 0,0.15394 0.26611,2.1504 0.29801,2.23333 0.0212,0.0536 0.0316,0.12469 0.0243,0.15769 -0.0298,0.1296 0.20656,1.78771 0.25043,1.7597 0.0258,-0.016 0.0319,0.0297 0.0136,0.10259 -0.0603,0.23609 0.18122,1.90995 0.28791,1.99965 0.0648,0.0546 0.071,0.0814 0.0189,0.0814 -0.059,0 -0.0674,0.10218 -0.0346,0.40681 0.0242,0.22378 0.0611,0.42151 0.082,0.43942 0.0213,0.0177 0.0463,0.21199 0.0562,0.4313 0.0337,0.75834 0.30664,2.48503 0.4218,2.66644 0.0878,0.13824 0.12268,0.15563 0.16943,0.0843 0.0452,-0.0689 0.055,-0.0604 0.0406,0.0357 -0.0226,0.15321 0.36706,0.44938 0.53237,0.40478 0.0613,-0.0165 0.11157,-0.007 0.11157,0.0289 0,0.0326 0.0853,0.0591 0.18919,0.0591 0.10417,0 0.18927,-0.0307 0.18927,-0.069 0,-0.0379 0.0288,-0.0507 0.0637,-0.0285 0.0961,0.0611 0.32287,-0.0316 0.27443,-0.11268 -0.0259,-0.0431 -0.0132,-0.0517 0.0348,-0.0214 0.094,0.0599 0.33427,-0.14971 0.27842,-0.24287 -0.0229,-0.0371 -0.0106,-0.0469 0.0303,-0.0217 0.0908,0.0578 0.27725,-0.31208 0.30796,-0.61043 0.066,-0.64164 0.52975,-6.16718 0.56008,-6.67223 0.0196,-0.32222 0.10285,-1.34747 0.18566,-2.27834 0.0828,-0.93086 0.16434,-1.94145 0.18128,-2.24578 0.0169,-0.30432 0.0439,-0.59726 0.0598,-0.65095 0.0482,-0.16308 0.36715,-4.3735 0.33386,-4.40783 -0.0176,-0.0172 -0.007,-0.0997 0.0246,-0.18246 0.0308,-0.0828 0.0698,-0.45372 0.087,-0.82448 0.0176,-0.37071 0.0448,-0.7174 0.0613,-0.77046 0.0231,-0.0753 0.27348,-3.27459 0.29036,-3.70917 0.003,-0.0536 0.0592,-0.68353 0.12598,-1.39955 0.0674,-0.71604 0.14167,-1.58018 0.16526,-1.92031 0.0939,-1.3484 0.10695,-1.50976 0.27876,-3.41749 0.0678,-0.75182 0.12254,-1.44022 0.12188,-1.52973 0,-0.0895 0.0272,-0.41172 0.062,-0.71602 0.0353,-0.30435 0.08,-0.83161 0.10033,-1.17174 0.0206,-0.34011 0.13457,-1.74615 0.25372,-3.12453 0.1191,-1.3784 0.21638,-2.59404 0.21626,-2.70145 0,-0.10736 0.0703,-0.98359 0.15654,-1.94704 0.0862,-0.96347 0.14216,-1.77636 0.12413,-1.8064 -0.0184,-0.0297 -0.003,-0.0546 0.0344,-0.0546 0.0369,0 0.0669,-0.0449 0.0669,-0.0994 0,-0.0547 0.0908,-0.28173 0.20177,-0.50449 0.1109,-0.22274 0.19606,-0.42695 0.18918,-0.45381 -0.008,-0.0269 0.0119,-0.0416 0.0391,-0.0325 0.0284,0.008 0.14058,-0.0754 0.24954,-0.18741 0.88901,-0.91376 2.3924,-0.96803 3.39229,-0.12251 0.14543,0.12292 0.27749,0.21005 0.29352,0.19351 0.0165,-0.0164 0.0293,0.007 0.03,0.0514 0,0.0447 0.0874,0.21318 0.19349,0.3743 0.25655,0.39011 0.37084,0.84419 0.45862,1.82264 0.0402,0.44753 0.0891,0.85763 0.10905,0.91134 0.0202,0.0538 0.0295,0.12619 0.0214,0.16118 -0.0194,0.0832 0.18652,2.25066 0.22585,2.3775 0.0169,0.0538 0.0437,0.3027 0.0599,0.55331 0.0681,1.05885 0.37765,3.8127 0.42331,3.76561 0.0275,-0.0282 0.0311,-0.003 0.009,0.0604 -0.0419,0.11214 0.0759,1.62175 0.14057,1.80459 0.0332,0.0934 0.0395,0.18037 0.0701,0.96401 0.009,0.19007 0.0352,0.3321 0.0611,0.31564 0.026,-0.0164 0.0529,0.24523 0.0595,0.58155 0.008,0.33634 0.0341,0.64829 0.0611,0.69331 0.0268,0.045 0.0432,0.15503 0.0365,0.24455 -0.008,0.0895 0.0857,1.05618 0.20671,2.14815 0.12096,1.09199 0.22191,2.02936 0.22457,2.08306 0.0233,0.4563 0.14068,1.67997 0.16945,1.75754 0.0205,0.0536 0.0304,0.12469 0.0233,0.15766 -0.0188,0.0806 0.18591,2.19208 0.22399,2.31583 0.0165,0.0535 0.0432,0.34528 0.0592,0.64811 0.016,0.30283 0.0494,0.56651 0.0748,0.58596 0.0255,0.0197 0.0551,0.31366 0.0661,0.65381 0.0119,0.34011 0.0411,0.62617 0.066,0.63568 0.0254,0.01 0.0349,0.11924 0.0206,0.24382 -0.0145,0.12455 -0.008,0.27781 0.0171,0.34055 0.0238,0.0627 0.0557,0.31918 0.071,0.5699 0.016,0.25068 0.0654,0.80731 0.11064,1.23693 0.0647,0.61559 0.10126,0.77673 0.17252,0.76021 0.0724,-0.0165 0.0748,-0.007 0.0132,0.0619 -0.0782,0.0823 -0.11011,0.45836 -0.0447,0.52611 0.0194,0.0195 0.0477,0.294 0.0647,0.61009 0.0168,0.31614 0.051,0.5907 0.076,0.61021 0.0254,0.0195 0.0539,0.29899 0.0635,0.62121 0.0106,0.32222 0.0337,0.62979 0.0533,0.68349 0.02,0.0536 0.0427,0.22945 0.0508,0.39058 0.0463,0.89461 0.25745,2.72148 0.31079,2.68746 0.035,-0.022 0.0403,-0.007 0.0132,0.0415 -0.0665,0.11119 0.23092,3.14504 0.29855,3.04562 0.032,-0.0468 0.0371,-0.0168 0.0132,0.0731 -0.0381,0.13844 0.25665,3.49414 0.32669,3.72127 0.0165,0.0533 0.0422,0.31695 0.056,0.58523 0.0145,0.26828 0.0539,0.49726 0.0871,0.50885 0.0337,0.0123 0.0439,0.0679 0.0229,0.12524 -0.0258,0.0686 -0.0143,0.0883 0.0349,0.0574 0.049,-0.0312 0.0598,-0.0109 0.0313,0.0656 -0.0332,0.0885 -0.0182,0.10273 0.0726,0.067 0.092,-0.0364 0.10033,-0.0277 0.0428,0.0438 -0.0554,0.0685 -0.0465,0.11227 0.0386,0.18838 0.17169,0.15455 0.39043,0.25602 0.45839,0.21271 0.0344,-0.0217 0.0617,-0.008 0.0617,0.0293 0,0.0378 0.0851,0.0689 0.18921,0.0689 0.10417,0 0.18923,-0.0265 0.18923,-0.0591 0,-0.0325 0.0535,-0.0446 0.11805,-0.0271 0.14981,0.0402 0.59633,-0.35064 0.54817,-0.48016 -0.0189,-0.0502 -0.0106,-0.0754 0.0218,-0.0558 0.0305,0.0195 0.075,-0.0154 0.0985,-0.078 0.0356,-0.0936 0.28157,-3.71478 0.28568,-4.19891 0,-0.0802 0.0694,-1.18567 0.15261,-2.45664 0.19742,-3.01384 0.19509,-2.97733 0.4146,-6.54205 0.1035,-1.68274 0.27533,-4.46552 0.38193,-6.18402 0.10654,-1.7185 0.2061,-3.41597 0.2213,-3.7722 0.0156,-0.35621 0.0406,-0.69308 0.0567,-0.74858 0.016,-0.0557 0.0455,-0.51106 0.0657,-1.01228 0.0206,-0.50123 0.067,-1.29213 0.10284,-1.75755 0.0365,-0.46542 0.0528,-0.95335 0.0365,-1.08433 -0.0168,-0.13096 -0.007,-0.26276 0.0222,-0.29292 0.0287,-0.0301 0.0686,-0.50522 0.0891,-1.05573 0.0208,-0.5505 0.0485,-1.02022 0.0629,-1.04381 0.0148,-0.0239 0.0414,-0.47021 0.0612,-0.99247 0.0196,-0.5222 0.0475,-0.98987 0.0631,-1.03921 0.0153,-0.0495 0.0595,-0.69019 0.0977,-1.42414 0.0393,-0.73393 0.0829,-1.48091 0.0986,-1.65989 0.0159,-0.17903 0.058,-0.83809 0.0935,-1.46463 0.0357,-0.62654 0.0787,-1.35887 0.0958,-1.62736 0.10496,-1.6393 0.15488,-2.45475 0.1873,-3.05949 0.0205,-0.37592 0.0496,-0.84457 0.0657,-1.04147 0.0165,-0.19693 0.0575,-0.82672 0.0914,-1.39957 0.0341,-0.57287 0.16323,-2.68142 0.28674,-4.68578 0.1236,-2.00433 0.21813,-3.70331 0.21023,-3.7755 -0.009,-0.0723 0.004,-0.18983 0.0263,-0.26144 0.0229,-0.0716 0.059,-0.55492 0.0804,-1.07407 0.0221,-0.51912 0.0514,-1.04638 0.0661,-1.1717 0.0375,-0.31628 0.34524,-5.48873 0.34231,-5.74653 -0.004,-0.31565 0.10086,-1.03157 0.18112,-1.24034 0.039,-0.1015 0.0522,-0.21583 0.0293,-0.25418 -0.0238,-0.0394 -0.0132,-0.051 0.0268,-0.0261 0.0379,0.0241 0.0866,-0.016 0.10892,-0.0888 0.0369,-0.11923 0.78844,-0.96389 0.78844,-0.88587 0,0.0179 0.13477,-0.0293 0.29953,-0.10504 0.21471,-0.0986 0.43385,-0.13884 0.77275,-0.14158 0.52686,-0.007 0.94584,0.0386 0.94602,0.0971 0,0.021 0.0763,0.0742 0.16946,0.11801 0.0933,0.0438 0.27328,0.16447 0.40008,0.26812 0.18409,0.1505 0.24786,0.17261 0.31637,0.10982 0.0701,-0.0643 0.073,-0.0607 0.0153,0.0195 -0.053,0.073 -0.0504,0.12646 0.0106,0.21054 0.044,0.0619 0.10073,0.0911 0.12611,0.0651 0.0259,-0.0262 0.0401,-0.0188 0.0315,0.0172 -0.009,0.0357 0.0445,0.19739 0.11738,0.35911 0.15566,0.34568 0.24265,0.87371 0.30246,1.83628 0.0242,0.38397 0.0639,0.6853 0.0882,0.66957 0.0249,-0.0158 0.0349,0.0948 0.0223,0.24569 -0.0134,0.15084 0.0184,0.71369 0.0678,1.2507 0.0496,0.53704 0.10761,1.25473 0.12863,1.59483 0.021,0.34015 0.079,1.04317 0.12875,1.56229 0.0497,0.51914 0.10179,1.10497 0.11567,1.30191 0.0147,0.19689 0.0399,0.54839 0.0578,0.78113 0.0181,0.2327 0.051,0.7014 0.0735,1.0415 0.023,0.34012 0.0687,0.88206 0.10205,1.20428 0.0337,0.32221 0.0604,0.7254 0.0591,0.89599 0,0.17058 0.0145,0.33786 0.0345,0.37172 0.0208,0.0338 0.0522,0.40553 0.0706,0.82593 0.0188,0.42037 0.0468,0.78666 0.0634,0.81397 0.0165,0.0272 0.044,0.32163 0.0611,0.65408 0.0174,0.33239 0.0865,1.20487 0.15391,1.93882 0.0676,0.73392 0.12175,1.50287 0.12082,1.70873 0,0.29662 0.0189,0.3743 0.0965,0.3743 0.0779,0 0.0841,0.0239 0.03,0.11391 -0.0504,0.0838 -0.034,0.51103 0.0629,1.61108 0.0722,0.82346 0.1318,1.58508 0.1323,1.69249 0,0.1075 0.0861,1.1766 0.18998,2.37595 0.10391,1.19937 0.18732,2.31729 0.1853,2.48423 -0.004,0.16692 0.0223,0.32004 0.0541,0.34018 0.0315,0.0203 0.0456,0.10313 0.0313,0.18466 -0.0235,0.12851 0.93217,12.33993 1.01969,13.03681 0.0188,0.14322 0.0336,0.32191 0.0348,0.39716 0,0.0753 0.12836,1.67169 0.28351,3.54766 0.15514,1.876 0.29183,3.55737 0.30384,3.73639 0.0755,1.12096 0.11435,1.62904 0.16468,2.14811 0.0313,0.32225 0.075,0.90616 0.0972,1.29765 0.0227,0.39151 0.0633,0.75767 0.0911,0.81371 0.0279,0.0558 0.039,0.13574 0.0248,0.17714 -0.0387,0.10969 0.52949,7.21027 0.61312,7.66689 0.27596,1.50676 1.75123,2.38537 3.16857,1.88693 0.16419,-0.0577 0.29849,-0.13315 0.29849,-0.16775 0,-0.0345 0.0245,-0.0472 0.0541,-0.0289 0.0752,0.0479 0.53109,-0.30968 0.71826,-0.56338 0.22933,-0.31089 0.40041,-0.68937 0.47817,-1.05791 0.0554,-0.26018 0.18689,-1.7353 0.19509,-2.18063 0,-0.0536 0.11527,-1.44515 0.25414,-3.092 0.13872,-1.64692 0.26589,-3.25098 0.2824,-3.56465 0.0173,-0.31363 0.0436,-0.59225 0.0601,-0.61915 0.0164,-0.0269 0.0471,-0.37081 0.0682,-0.76421 0.0221,-0.39339 0.17925,-2.41425 0.35077,-4.49078 0.17153,-2.07652 0.31128,-3.84874 0.31054,-3.93822 0,-0.0895 0.0703,-0.96828 0.15803,-1.95284 0.0876,-0.98458 0.15888,-1.86337 0.15823,-1.95288 0,-0.0895 0.0419,-0.63139 0.0939,-1.20422 0.0899,-0.98604 0.96946,-11.99795 0.97492,-12.20524 0,-0.0536 0.0742,-0.92688 0.1617,-1.9404 0.0875,-1.01353 0.16163,-1.90695 0.16459,-1.98538 0.0119,-0.28989 0.0624,-0.94099 0.12202,-1.5422 0.0497,-0.50335 0.42145,-5.25037 0.43813,-5.59815 0.007,-0.0536 0.0605,-0.72745 0.12757,-1.49719 0.0674,-0.76976 0.13954,-1.64853 0.15991,-1.95287 0.0208,-0.3043 0.092,-1.19521 0.15924,-1.97978 0.067,-0.78456 0.12148,-1.48757 0.12096,-1.56226 0,-0.0748 0.0845,-1.13175 0.18898,-2.34903 0.10469,-1.21728 0.19162,-2.28644 0.19326,-2.37597 0.007,-0.20405 0.0484,-0.75496 0.12876,-1.59483 0.0346,-0.35802 0.17454,-2.05969 0.31168,-3.78145 0.13715,-1.72179 0.27903,-3.21088 0.31517,-3.30903 0.0366,-0.0982 0.0513,-0.20285 0.0333,-0.23259 -0.0176,-0.0296 -0.007,-0.0639 0.0263,-0.0759 0.0325,-0.0123 0.0681,-0.0633 0.0793,-0.11405 0.0223,-0.0992 0.074,-0.1657 0.46028,-0.58937 0.40626,-0.44553 1.10888,-0.74968 1.67328,-0.7244 0.39603,0.0179 0.93404,0.18168 1.21419,0.37002 0.13021,0.0876 0.23657,0.14077 0.23657,0.11841 0,-0.0798 0.49505,0.57956 0.60905,0.81126 0.0641,0.13001 0.1378,0.24624 0.16402,0.25825 0.0263,0.0123 0.0353,0.0428 0.02,0.0686 -0.016,0.0256 0,0.16241 0.0362,0.30365 0.0356,0.14122 0.0638,0.30593 0.0634,0.36601 0,0.0602 0.12452,1.27576 0.27727,2.70146 0.15284,1.42569 0.29402,2.78262 0.31367,3.0153 0.0201,0.23271 0.0757,0.77464 0.12505,1.20427 0.0489,0.42963 0.10628,1.01316 0.1273,1.29674 0.0212,0.28363 0.0612,0.56191 0.089,0.61842 0.028,0.0565 0.0407,0.13219 0.028,0.16802 -0.0132,0.0357 0.0615,0.84144 0.16484,1.79009 0.10338,0.94868 0.20335,1.90064 0.2223,2.11543 0.0192,0.21484 0.10284,1.02037 0.18664,1.79012 0.0837,0.76974 0.1694,1.61923 0.19034,1.88776 0.0213,0.26851 0.0676,0.67862 0.10351,0.91133 0.0365,0.23269 0.0644,0.4817 0.0633,0.5533 0,0.0716 0.0965,1.02362 0.2173,2.11559 0.12082,1.09196 0.22016,2.04398 0.22086,2.11559 0,0.0716 0.0562,0.6135 0.12241,1.20426 0.0668,0.5907 0.13739,1.26445 0.15724,1.49717 0.0202,0.23271 0.16148,1.58017 0.31461,2.99436 0.15315,1.4142 0.29611,2.81892 0.31771,3.1216 0.0218,0.3027 0.0646,0.59911 0.0956,0.65869 0.0307,0.0596 0.0423,0.12278 0.0249,0.14049 -0.0176,0.0176 0.0824,1.11271 0.22124,2.43331 0.13887,1.32066 0.39623,3.77793 0.57186,5.46064 0.1757,1.6827 0.43267,4.09933 0.57111,5.37029 0.13841,1.27097 0.25392,2.35484 0.25677,2.40855 0.007,0.0536 0.0435,0.44913 0.09,0.87875 0.0467,0.42965 0.10192,0.98622 0.12268,1.2368 0.0214,0.25063 0.15006,1.46626 0.28732,2.70145 0.1372,1.23517 0.24987,2.319 0.25036,2.4085 0,0.0895 0.0579,0.63141 0.12677,1.20428 0.0693,0.57281 0.12651,1.11472 0.12743,1.20423 0,0.0895 0.21383,2.12536 0.4731,4.5241 0.25943,2.39874 0.47059,4.44371 0.46918,4.54439 0,0.10068 0.0176,0.21661 0.0426,0.25762 0.0249,0.0409 0.0516,0.14215 0.0606,0.22475 0.0297,0.28826 0.33272,0.8626 0.62505,1.18519 0.30238,0.33362 0.88614,0.71968 1.12858,0.74631 0.075,0.008 0.1682,0.0352 0.20718,0.0602 0.0397,0.0248 0.23646,0.0625 0.43885,0.0838 0.75881,0.0794 1.64048,-0.27808 2.19538,-0.89019 0.28755,-0.31733 0.59049,-0.88714 0.62851,-1.18242 0.0119,-0.081 0.0358,-0.1914 0.0564,-0.24508 0.0202,-0.0536 0.10827,-0.80063 0.19554,-1.6599 0.0874,-0.85927 0.31714,-3.05619 0.51074,-4.88211 0.19362,-1.82595 0.34153,-3.39885 0.32869,-3.49543 -0.0132,-0.0966 6e-5,-0.16075 0.0283,-0.14262 0.0283,0.0181 0.0574,-0.10791 0.0641,-0.28009 0.0189,-0.47465 0.034,-0.6335 0.23979,-2.49373 0.10496,-0.94874 0.18614,-1.76895 0.18039,-1.82264 -0.007,-0.0536 0.007,-0.14158 0.026,-0.19528 0.0202,-0.0536 0.0648,-0.41986 0.0992,-0.81369 0.0344,-0.39381 0.0665,-0.75998 0.0712,-0.81369 0.0267,-0.29669 0.0773,-0.769 0.15802,-1.46464 0.0496,-0.42961 0.0911,-0.83971 0.0917,-0.91133 0,-0.0716 0.0861,-0.87713 0.1898,-1.79011 0.10377,-0.91293 0.20577,-1.86496 0.22658,-2.11558 0.0209,-0.25059 0.13297,-1.33444 0.24935,-2.40851 0.21482,-1.98317 0.962,-9.16245 0.97224,-9.34108 0.007,-0.0536 0.10509,-1.00572 0.2269,-2.11561 0.12175,-1.10987 0.23685,-2.19369 0.25574,-2.40849 0.0192,-0.21481 0.10391,-1.03502 0.1886,-1.82266 0.0847,-0.78764 0.14398,-1.46138 0.13153,-1.4972 -0.0132,-0.0358 0,-0.11255 0.0296,-0.17042 0.0288,-0.0581 0.0657,-0.33623 0.0816,-0.61842 0.0159,-0.28217 0.0428,-0.55698 0.0592,-0.61069 0.025,-0.0805 0.33682,-3.12817 0.35328,-3.45001 0.007,-0.0536 0.0468,-0.44916 0.0978,-0.87881 0.075,-0.63067 0.50651,-4.80303 0.53523,-5.17501 0.0132,-0.1633 0.0586,-0.56909 0.18954,-1.69247 0.0691,-0.59075 0.12572,-1.1473 0.12572,-1.23682 6e-5,-0.0895 0.0709,-0.76322 0.15714,-1.49718 0.0865,-0.73394 0.17303,-1.53951 0.19256,-1.79011 0.0202,-0.2506 0.19034,-1.89101 0.37952,-3.64531 0.18923,-1.75432 0.35144,-3.32858 0.36035,-3.49837 0.009,-0.16982 0.0348,-0.30896 0.0574,-0.3092 0.0225,0 0.0598,-0.0812 0.0833,-0.17951 0.0592,-0.24621 0.38785,-0.76451 0.60455,-0.95273 0.0986,-0.0857 0.16665,-0.17357 0.1512,-0.19545 -0.0159,-0.0218 -0.0119,-0.0274 0.0106,-0.0123 0.0209,0.0151 0.1652,-0.0426 0.32153,-0.12851 0.15638,-0.0858 0.38124,-0.17476 0.49963,-0.1977 0.11844,-0.0229 0.22717,-0.0617 0.24178,-0.0861 0.0149,-0.0246 0.23432,-0.0246 0.48822,0 0.25378,0.0243 0.48286,0.0311 0.50884,0.0153 0.0262,-0.0157 0.0473,-0.007 0.0475,0.0236 0,0.0291 0.12704,0.10654 0.28217,0.17234 0.37744,0.16018 0.71163,0.44296 0.96,0.81245 0.11263,0.16759 0.23225,0.33819 0.26588,0.37911 0.0334,0.0409 0.0484,0.0875 0.0332,0.10341 -0.0155,0.0157 0.007,0.11787 0.0389,0.22642 0.06,0.17644 0.24004,2.04997 0.34045,3.53402 0.0206,0.30433 0.16297,2.07655 0.31651,3.93827 0.15346,1.8617 0.29615,3.64856 0.31703,3.9708 0.0214,0.32222 0.0916,1.20099 0.15686,1.95283 0.0656,0.75184 0.13653,1.67236 0.15788,2.04554 0.0218,0.37323 0.0521,0.70033 0.0681,0.72693 0.016,0.0263 0.0439,0.33636 0.0616,0.68843 0.018,0.35204 0.0874,1.26987 0.15439,2.03962 0.067,0.76975 0.13937,1.70621 0.1609,2.08104 0.0219,0.37482 0.051,0.70111 0.0653,0.7251 0.0145,0.0243 0.0412,0.34706 0.0594,0.71803 0.0184,0.37095 0.0501,0.76095 0.0715,0.86669 0.0212,0.10573 0.0448,0.32548 0.052,0.48826 0.037,0.81178 0.11131,1.82542 0.16743,2.27144 0.0349,0.27395 0.0617,0.58595 0.0607,0.69337 0,0.10736 0.0535,0.82506 0.12082,1.59481 0.12664,1.43732 0.14534,1.67149 0.21672,2.73397 0.0235,0.34013 0.083,1.05782 0.13366,1.59482 0.0506,0.53706 0.0939,1.02039 0.0958,1.0741 0.0132,0.31828 0.33192,4.36447 0.41121,5.20756 0.0523,0.55495 0.0947,1.08221 0.0944,1.17175 0,0.0895 0.0539,0.79251 0.11911,1.56225 0.0661,0.76975 0.13613,1.64851 0.15633,1.95284 0.0205,0.30431 0.10641,1.3735 0.19166,2.37596 0.0853,1.00247 0.17143,2.08628 0.19159,2.40851 0.0206,0.32224 0.0661,0.84949 0.10179,1.1717 0.0361,0.32223 0.0634,0.65907 0.0616,0.74862 -0.007,0.0895 0.17975,2.38896 0.40398,5.1099 0.48128,5.84278 0.46271,5.61111 0.47015,5.85855 0.007,0.10736 0.088,1.17659 0.18833,2.376 0.10034,1.19934 0.19969,2.47045 0.22091,2.82463 0.0215,0.3542 0.0546,0.67008 0.0731,0.70194 0.0197,0.0316 0.0471,0.16151 0.0624,0.28811 0.0267,0.22258 0.30759,0.87215 0.37717,0.87215 0.0193,0 0.0141,-0.0337 -0.0119,-0.0752 -0.0282,-0.0468 -0.018,-0.0574 0.0286,-0.028 0.041,0.0259 0.0567,0.0763 0.0358,0.11173 -0.053,0.0879 0.46853,0.59116 0.55491,0.53602 0.0386,-0.0244 0.051,-0.0139 0.0284,0.0239 -0.0471,0.0787 0.53615,0.35398 0.79497,0.37501 0.0961,0.007 0.19306,0.0333 0.21548,0.0561 0.0817,0.0843 0.58417,0.0387 0.98572,-0.0892 0.2264,-0.0722 0.55415,-0.24166 0.72826,-0.37672 0.30816,-0.23894 0.7026,-0.68977 0.7026,-0.80291 0,-0.0307 0,-0.0718 -0.007,-0.091 0,-0.0191 0.0375,-0.0754 0.0849,-0.12483 0.0479,-0.0495 0.11977,-0.26081 0.15975,-0.46962 0.085,-0.44484 0.34718,-3.7312 0.30141,-3.7784 -0.0172,-0.0173 -0.008,-0.0988 0.0237,-0.18016 0.03,-0.0815 0.0723,-0.45186 0.0943,-0.82326 0.0219,-0.37139 0.12241,-1.65657 0.22341,-2.85592 0.10099,-1.19938 0.18372,-2.25394 0.18365,-2.34342 0,-0.0895 0.0855,-1.15869 0.19014,-2.37598 0.1047,-1.21726 0.20674,-2.46219 0.22691,-2.76652 0.0205,-0.30429 0.13274,-1.69572 0.2504,-3.09199 0.11765,-1.39629 0.23401,-2.83163 0.25854,-3.18969 0.0767,-1.11674 0.0909,-1.29523 0.12135,-1.52971 0.0341,-0.26117 0.59295,-7.32094 0.59537,-7.51844 0,-0.0716 0.0586,-0.76001 0.1273,-1.52973 0.0693,-0.76975 0.12188,-1.48741 0.11725,-1.59483 -0.007,-0.10737 0.008,-0.23925 0.027,-0.29291 0.0543,-0.14943 0.4391,-5.21348 0.3997,-5.25415 -0.0192,-0.0198 -0.0106,-0.0843 0.0218,-0.14372 0.0311,-0.0595 0.0724,-0.43914 0.0924,-0.84377 0.0201,-0.40463 0.0488,-0.7564 0.0639,-0.78168 0.0159,-0.0254 0.0451,-0.36676 0.0665,-0.75877 0.0215,-0.39205 0.0789,-1.13754 0.12783,-1.65669 0.0797,-0.84573 0.12968,-1.49074 0.20154,-2.60378 0.0132,-0.1969 0.10602,-1.33932 0.20727,-2.53869 0.10139,-1.19939 0.20083,-2.44434 0.22111,-2.76654 0.0205,-0.3222 0.0925,-1.20099 0.16038,-1.95284 0.0679,-0.75184 0.11831,-1.44024 0.1121,-1.52973 -0.008,-0.0895 0.008,-0.22132 0.0293,-0.29292 0.0227,-0.0716 0.0584,-0.43778 0.0795,-0.8137 0.0978,-1.73866 0.3496,-4.35187 0.45163,-4.68683 0.0604,-0.1969 0.10245,-0.3658 0.0944,-0.37531 -0.0558,-0.0658 0.80595,-0.83275 1.08158,-0.96294 0.92159,-0.43542 2.12192,-0.14294 2.71763,0.66221 0.11448,0.15468 0.23067,0.26024 0.25822,0.23455 0.0275,-0.0255 0.0326,-0.015 0.0119,0.0246 -0.0219,0.0392 0.0139,0.21496 0.0783,0.39056 0.11593,0.31522 0.19088,1.10306 0.2874,3.02076 0.0229,0.44756 0.0665,1.13592 0.0978,1.52977 0.0313,0.39382 0.0583,0.83318 0.06,0.9764 0,0.14322 0.12982,2.223 0.28559,4.62174 0.15566,2.39873 0.28438,4.4053 0.28597,4.45899 0.0213,0.71237 0.4097,6.87623 0.43507,6.90006 0.032,0.0296 0.0427,0.32732 0.0575,1.57333 0.007,0.23878 0.0327,0.45178 0.0666,0.47329 0.0338,0.0214 0.048,0.10437 0.0312,0.18426 -0.0358,0.17145 0.28521,5.8286 0.33855,5.97108 0.0205,0.0536 0.032,0.21481 0.0254,0.35802 -0.008,0.14319 0.0457,1.06594 0.11435,2.05049 0.069,0.98455 0.12651,1.83404 0.12823,1.88774 0.0237,0.7339 0.20873,3.83303 0.23375,3.9057 0.0186,0.0536 0.03,0.21481 0.0254,0.35803 -0.007,0.14319 0.0629,1.30028 0.14923,2.57123 0.0865,1.27101 0.15878,2.35484 0.1608,2.40854 0.0377,1.00495 0.1537,2.78728 0.18124,2.76964 0.0206,-0.0123 0.0383,0.23016 0.0404,0.54006 0.007,0.30988 0.0106,0.622 0.0194,0.69361 0.009,0.0716 0.0469,0.75129 0.0859,1.51045 0.0393,0.75915 0.0884,1.36893 0.11012,1.35503 0.0223,-0.0136 0.0412,0.24377 0.0423,0.57256 0.007,0.82335 0.0134,1.00572 0.11924,2.45305 0.0513,0.69816 0.0947,1.31329 0.0957,1.367 0.0132,0.54229 0.26932,4.80829 0.29418,4.88209 0.018,0.0536 0.028,0.28029 0.0215,0.50353 -0.008,0.22319 0.007,0.43347 0.0254,0.46722 0.0205,0.0338 0.0457,0.3491 0.0572,0.70077 0.0227,0.70656 0.10272,0.94012 0.41756,1.21351 0.10985,0.0955 0.31267,0.18524 0.47459,0.21033 0.55598,0.0861 1.15668,-0.41643 1.17136,-0.97977 0.0119,-0.40715 0.048,-0.84984 0.08,-0.94385 0.0575,-0.16972 0.55715,-5.34638 0.52469,-5.43377 -0.0172,-0.0461 -0.007,-0.11064 0.0278,-0.1439 0.0325,-0.0334 0.0657,-0.34115 0.0739,-0.68425 0.009,-0.34316 0.0369,-0.61071 0.0627,-0.59464 0.0262,0.016 0.0537,-0.12619 0.0608,-0.31633 0.0254,-0.6712 0.0357,-0.80226 0.0681,-0.89888 0.0619,-0.18437 0.37333,-3.58168 0.33731,-3.67861 -0.0201,-0.0531 -0.007,-0.0969 0.0319,-0.0969 0.0416,0 0.0591,-0.11391 0.0448,-0.29292 -0.0132,-0.16112 0.007,-0.29294 0.0342,-0.29294 0.0315,0 0.0406,-0.16153 0.0211,-0.359 -0.0245,-0.2393 -0.0148,-0.34513 0.0294,-0.31741 0.043,0.0272 0.0579,-0.0737 0.0431,-0.29197 -0.0132,-0.18346 -0.007,-0.33357 0.0156,-0.33353 0.0524,6e-5 0.20183,-1.67409 0.15656,-1.74978 -0.0202,-0.034 -0.009,-0.0716 0.0256,-0.0836 0.0345,-0.0123 0.0701,-0.3189 0.0792,-0.68194 0.0106,-0.36306 0.0383,-0.64692 0.0643,-0.63083 0.026,0.016 0.0539,-0.1116 0.0611,-0.28376 0.008,-0.17218 0.0188,-0.43022 0.0248,-0.57345 0.007,-0.14318 0.0267,-0.30428 0.0455,-0.35798 0.028,-0.0793 0.14845,-1.31052 0.16587,-1.69249 0.007,-0.0536 0.13206,-1.28401 0.28802,-2.73399 0.15595,-1.45 0.27137,-2.72983 0.25634,-2.84405 -0.0159,-0.11418 -0.007,-0.21676 0.0293,-0.22783 0.0315,-0.0109 0.0648,-0.30252 0.0743,-0.6477 0.0106,-0.34516 0.0333,-0.61796 0.0526,-0.6062 0.0313,0.0191 0.23521,-1.83591 0.29394,-2.67193 0.0133,-0.179 0.0938,-0.96989 0.1804,-1.75755 0.0866,-0.78762 0.14833,-1.52523 0.13696,-1.63909 -0.0119,-0.11378 -0.007,-0.19575 0.0189,-0.182 0.0607,0.0387 0.20963,-1.76607 0.15363,-1.85951 -0.0285,-0.048 -0.0245,-0.0662 0.0119,-0.0435 0.0739,0.0471 0.3642,-2.79905 0.30239,-2.96524 -0.0234,-0.0621 -0.016,-0.11309 0.0165,-0.11309 0.0324,0 0.10999,-0.53457 0.173,-1.18798 0.0634,-0.65341 0.1509,-1.33398 0.19526,-1.51243 0.0446,-0.17844 0.0644,-0.35141 0.0447,-0.38435 -0.0202,-0.0333 -0.008,-0.0411 0.0295,-0.0179 0.0363,0.0228 0.10179,-0.0487 0.14617,-0.15926 0.10734,-0.26734 0.59111,-0.77302 0.9434,-0.98603 0.78719,-0.47602 1.62236,-0.49243 2.46885,-0.0486 0.19619,0.10287 0.36668,0.18171 0.37884,0.17512 0.0119,-0.007 0.0152,-4e-5 0.008,0.0146 -0.009,0.0147 0.11369,0.16872 0.27131,0.34259 0.29356,0.32384 0.56494,0.83983 0.63191,1.20122 0.043,0.23198 0.84547,9.6533 0.84768,9.95152 0,0.10736 0.0576,0.79578 0.12584,1.52973 0.0685,0.73394 0.124,1.49555 0.12347,1.69247 0,0.27324 0.016,0.3349 0.0675,0.26037 0.0518,-0.0741 0.0587,-0.0461 0.0271,0.11705 -0.0406,0.21143 0.20108,3.59874 0.2702,3.78869 0.02,0.0536 0.0287,0.12647 0.0205,0.16169 -0.0345,0.14663 0.27847,3.66665 0.32316,3.63815 0.0267,-0.0168 0.0313,0.0155 0.0106,0.0731 -0.0534,0.14247 0.24374,3.80676 0.30501,3.76763 0.0268,-0.0168 0.0315,0.0158 0.0106,0.0734 -0.0416,0.11159 0.0911,2.14656 0.1504,2.31062 0.0202,0.0536 0.03,0.14437 0.0237,0.2014 -0.008,0.057 0.11805,1.6828 0.27718,3.61277 0.15905,1.92994 0.3062,3.75068 0.32702,4.04606 0.0212,0.29536 0.0639,0.53704 0.0953,0.53704 0.0318,0 0.0394,0.0301 0.017,0.0674 -0.0505,0.0846 0.035,1.50134 0.0883,1.46715 0.0214,-0.0136 0.032,0.0967 0.0227,0.24535 -0.0106,0.14876 0.0553,1.0467 0.14246,1.99549 0.0876,0.94873 0.15842,1.80778 0.15743,1.90889 0,0.10109 0.0768,0.33311 0.17293,0.51552 0.33339,0.63235 1.14563,0.81813 1.73477,0.39683 0.40967,-0.29303 0.45485,-0.45505 0.74171,-2.66124 0.14395,-1.10769 0.24975,-2.07931 0.23497,-2.15913 -0.0153,-0.0798 -0.008,-0.13274 0.0165,-0.11759 0.0586,0.0372 0.27743,-1.76247 0.22997,-1.88993 -0.0242,-0.0639 -0.0119,-0.0848 0.0323,-0.0565 0.0479,0.0303 0.0623,-0.0378 0.0452,-0.21898 -0.0137,-0.14494 -0.007,-0.25166 0.0168,-0.23727 0.0597,0.0378 0.13795,-0.92904 0.0828,-1.02123 -0.0309,-0.0516 -0.02,-0.0603 0.034,-0.0258 0.0616,0.039 0.0744,-0.007 0.0543,-0.18524 -0.0153,-0.13028 -0.0106,-0.23673 0.0119,-0.23673 0.0219,0 0.0709,-0.27096 0.10985,-0.60211 0.039,-0.33118 0.13074,-1.05617 0.20399,-1.61111 0.0731,-0.55494 0.12016,-1.06026 0.10417,-1.12288 -0.0157,-0.0626 -0.008,-0.11391 0.0181,-0.11391 0.059,0 0.27735,-1.80086 0.22866,-1.88218 -0.0201,-0.0332 -0.0132,-0.0696 0.0167,-0.0813 0.0617,-0.0251 0.67304,-4.69527 0.67344,-5.14183 0,-0.16663 0.0163,-0.29244 0.0374,-0.27955 0.0575,0.0364 0.19991,-1.38876 0.1478,-1.47585 -0.0259,-0.0431 -0.02,-0.0602 0.0149,-0.0386 0.0362,0.0228 0.0933,-0.23403 0.13972,-0.6246 0.0436,-0.36489 0.13625,-1.08484 0.20634,-1.59993 0.0701,-0.51508 0.11356,-0.9911 0.0966,-1.05782 -0.0168,-0.0667 -0.0106,-0.12128 0.0165,-0.12128 0.0613,0 0.27623,-1.80261 0.22517,-1.88769 -0.0218,-0.0359 -0.0149,-0.0651 0.0168,-0.0651 0.0699,0 0.35949,-2.3019 0.30734,-2.44206 -0.0213,-0.0566 -0.0144,-0.088 0.016,-0.0692 0.0295,0.0188 0.0709,-0.11541 0.0919,-0.29832 0.0546,-0.4715 0.36122,-1.10427 0.73249,-1.50944 0.17488,-0.19083 0.30402,-0.36636 0.28694,-0.38999 -0.0174,-0.0239 -0.0139,-0.0297 0.008,-0.0136 0.021,0.0157 0.18442,-0.0558 0.36279,-0.15954 0.17813,-0.10354 0.48455,-0.23154 0.68081,-0.28419 0.39914,-0.10709 0.97343,-0.15447 1.03994,-0.0858 0.0707,0.0728 0.30549,0.0514 0.4011,-0.0363 0.0752,-0.0692 0.0759,-0.0643 0.007,0.0327 -0.0714,0.0976 -0.0683,0.11392 0.0231,0.11392 0.26677,0 0.84294,0.36719 1.25031,0.79687 0.23463,0.2474 0.4103,0.47687 0.39055,0.50998 -0.0202,0.0333 -0.0106,0.0602 0.0226,0.0602 0.0678,0 0.3906,0.97024 0.3906,1.17327 0,0.075 0.0213,0.12291 0.0472,0.10668 0.026,-0.0164 0.0539,0.10409 0.0611,0.26755 0.008,0.16344 0.0364,0.31417 0.0633,0.33496 0.0275,0.0207 0.052,0.0891 0.055,0.15171 0.0185,0.39562 0.03,0.44451 0.099,0.40062 0.0461,-0.0293 0.0562,-0.0176 0.0258,0.0318 -0.0258,0.0431 -0.0172,0.21597 0.0193,0.38431 0.0366,0.16839 0.22727,1.06774 0.42442,1.99859 0.19712,0.93086 0.38297,1.70232 0.41307,1.71431 0.0298,0.0123 0.0393,0.0482 0.0196,0.0803 -0.0485,0.0812 0.34766,1.97557 0.41894,2.00255 0.0321,0.0123 0.0427,0.0472 0.0239,0.0783 -0.0189,0.031 0.0215,0.32882 0.0891,0.66166 0.31323,1.54252 0.40965,1.93195 0.46874,1.89423 0.0365,-0.0231 0.0428,-0.007 0.0159,0.0392 -0.0654,0.10927 0.0973,0.92107 0.17474,0.8717 0.0357,-0.0222 0.0419,-0.007 0.0156,0.0382 -0.0639,0.10613 0.35242,2.09183 0.42812,2.04355 0.0332,-0.0209 0.0395,-0.007 0.0149,0.0381 -0.0648,0.10859 0.22065,1.44538 0.29823,1.39583 0.0357,-0.0224 0.0438,-0.007 0.0186,0.0344 -0.0518,0.0864 -0.009,0.33497 0.33212,1.93103 0.13778,0.64446 0.35743,1.67533 0.48821,2.2909 0.13074,0.61551 0.26048,1.10468 0.28832,1.08693 0.0278,-0.0177 0.035,0.0109 0.0156,0.0621 -0.0442,0.11814 0.47535,2.60597 0.55013,2.63576 0.03,0.0123 0.0394,0.048 0.0198,0.0802 -0.062,0.10354 0.36416,2.0118 0.43892,1.96569 0.048,-0.0297 0.049,-0.0145 0.007,0.0517 -0.0752,0.10763 0.10245,0.94561 0.18294,0.86251 0.0258,-0.0266 0.0291,0 0.008,0.0602 -0.0649,0.17417 0.28285,0.75391 0.63094,1.05222 0.38243,0.32769 0.77733,0.49089 0.86041,0.35563 0.0424,-0.0692 0.055,-0.0634 0.0559,0.0252 0,0.10478 0.11302,0.11446 1.40449,0.12128 0.77185,0.007 1.90841,0.0259 2.52574,0.0488 0.61729,0.0229 1.19224,0.022 1.2777,-0.007 0.0886,-0.0248 0.14004,-0.0177 0.11964,0.016 -0.0201,0.033 0.007,0.0596 0.0538,0.0596 0.049,0 0.22307,0.0735 0.38699,0.16352 0.16384,0.0899 0.33138,0.1438 0.37211,0.11977 0.041,-0.024 0.0542,-0.0205 0.0287,0.007 -0.025,0.0284 0.0647,0.18035 0.1986,0.33756 0.2985,0.34984 0.42749,0.62159 0.5194,1.0939 0.13878,0.71354 -0.20254,1.55519 -0.81978,2.02133 -0.56963,0.43011 -0.61117,0.43464 -3.73539,0.40684 -2.77902,-0.0248 -2.80888,-0.0263 -3.40282,-0.19263 -0.61252,-0.17147 -1.27987,-0.47692 -2.17609,-0.99602 -0.62198,-0.36024 -1.46294,-0.70425 -1.61874,-0.66223 -0.0639,0.017 -0.10232,0.008 -0.0854,-0.0202 0.0266,-0.0445 -0.70643,-0.18588 -1.07127,-0.20683 -0.40474,-0.0232 -1.31508,0.021 -1.64001,0.0797 -0.5714,0.10313 -1.23815,0.31944 -1.19697,0.38834 0.0206,0.0337 -0.007,0.0449 -0.055,0.025 -0.22399,-0.0887 -1.92977,0.99279 -1.82961,1.16004 0.026,0.0433 0.0119,0.0501 -0.039,0.0177 -0.17705,-0.11295 -1.54291,1.65189 -1.54291,1.99352 0,0.0611 -0.0194,0.099 -0.042,0.0843 -0.0453,-0.0288 -0.23461,0.39941 -0.39376,0.89011 -0.15097,0.4655 -0.30992,1.34754 -0.28039,1.55566 0.0153,0.10314 0.009,0.17618 -0.0132,0.16233 -0.0578,-0.0368 -0.4031,2.73775 -0.3566,2.86287 0.0215,0.058 0.0147,0.0895 -0.0163,0.0701 -0.065,-0.0416 -0.1607,0.77511 -0.10218,0.87279 0.0227,0.0368 0.0155,0.0668 -0.0159,0.0668 -0.0666,0 -0.29635,1.78638 -0.2416,1.87794 0.0213,0.0351 0.016,0.0737 -0.0132,0.0857 -0.0695,0.0297 -0.67036,4.7714 -0.62131,4.90309 0.0215,0.0581 0.0174,0.0914 -0.0106,0.0745 -0.0266,-0.0168 -0.18253,1.01417 -0.34676,2.29121 -0.16435,1.27703 -0.42786,3.32875 -0.58576,4.55939 -0.31636,2.46644 -0.3863,2.74827 -0.81795,3.29515 -0.15,0.19011 -0.25347,0.36788 -0.22979,0.39504 0.0241,0.027 0.0132,0.0314 -0.0249,0.0109 -0.0375,-0.0217 -0.19312,0.0468 -0.34695,0.1522 -0.493,0.3378 -1.11346,0.47262 -1.74819,0.37988 -0.4873,-0.0713 -0.89732,-0.27939 -1.31683,-0.66864 -0.17587,-0.1631 -0.33778,-0.28285 -0.35985,-0.26601 -0.0223,0.0168 -0.0266,0.0109 -0.0106,-0.0109 0.0165,-0.0229 -0.0541,-0.20621 -0.15577,-0.40686 -0.24732,-0.48472 -0.28485,-0.70013 -0.41754,-2.39892 -0.0624,-0.7966 -0.13761,-1.44838 -0.16728,-1.44838 -0.0295,0 -0.0356,-0.0311 -0.0132,-0.07 0.0597,-0.099 -0.17247,-2.98955 -0.23965,-2.98955 -0.0305,0 -0.0379,-0.0593 -0.0157,-0.13192 0.0509,-0.16535 -0.35151,-5.16581 -0.41786,-5.19375 -0.027,-0.0109 -0.0324,-0.0644 -0.0132,-0.11814 0.0543,-0.14462 -0.18213,-2.97907 -0.25194,-3.02758 -0.0331,-0.0226 -0.0411,-0.0728 -0.0181,-0.11132 0.0508,-0.0849 -0.0282,-1.44792 -0.0821,-1.41373 -0.0213,0.0136 -0.0394,-0.18536 -0.041,-0.44142 -0.007,-0.6189 -0.29487,-4.14248 -0.34036,-4.11352 -0.0202,0.0123 -0.0375,-0.17219 -0.0394,-0.41046 -0.007,-0.52354 -0.0739,-1.54611 -0.15346,-2.25582 -0.0324,-0.28643 -0.0695,-0.629 -0.0834,-0.76129 -0.0336,-0.32141 -0.32675,-0.92692 -0.59992,-1.23883 -0.26363,-0.30124 -0.73413,-0.60044 -0.83893,-0.53359 -0.0472,0.0296 -0.0586,0.0198 -0.0293,-0.0274 0.025,-0.0415 0.0366,-0.0752 0.0258,-0.0752 -0.0119,0 -0.21822,-0.0431 -0.46107,-0.0959 -0.80739,-0.17522 -1.62703,0.0688 -2.20407,0.65573 -0.32081,0.32638 -0.69285,1.01908 -0.64614,1.20319 0.0165,0.0651 0.008,0.12715 -0.0205,0.13779 -0.0634,0.0244 -0.21202,1.45759 -0.16468,1.5851 0.0196,0.0517 0.007,0.0943 -0.032,0.0943 -0.0418,0 -0.0592,0.13315 -0.0451,0.35197 0.0132,0.1936 0.007,0.34194 -0.0134,0.32973 -0.0583,-0.0375 -0.45596,4.16987 -0.41001,4.33706 0.0331,0.12018 0.0279,0.13369 -0.0238,0.0588 -0.0504,-0.0745 -0.0664,-0.027 -0.0674,0.19851 0,0.1629 0.0348,0.33724 0.0779,0.38746 0.0661,0.0763 0.0598,0.0761 -0.0389,-0.003 -0.11131,-0.0874 -0.1162,-0.0749 -0.0947,0.24734 0.0132,0.18671 0.007,0.34679 -0.0223,0.35571 -0.0249,0.008 -0.0535,0.28688 -0.0632,0.61768 -0.0106,0.33088 -0.0426,0.60181 -0.0715,0.60217 -0.0292,0.001 -0.0436,0.14713 -0.0315,0.32617 0.0119,0.17903 0.007,0.3328 -0.0153,0.34174 -0.0378,0.0164 -0.45405,4.08043 -0.42971,4.18856 0.008,0.0323 -0.0106,0.10996 -0.0353,0.17246 -0.0264,0.0625 -0.0377,0.23072 -0.0245,0.37379 0.0137,0.14302 0.008,0.26763 -0.0143,0.27691 -0.0562,0.0248 -0.70166,6.55311 -0.65583,6.62962 0.0215,0.0357 0.007,0.10627 -0.0348,0.15659 -0.0407,0.0502 -0.0678,0.2028 -0.0603,0.33888 0.008,0.13615 -0.008,0.29886 -0.0336,0.36164 -0.0263,0.0629 -0.0357,0.21664 -0.0213,0.34176 0.0148,0.12524 0.008,0.22754 -0.0141,0.22754 -0.0609,0 -0.20589,1.80423 -0.15217,1.89391 0.0271,0.045 0.0216,0.0622 -0.0137,0.04 -0.0543,-0.0345 -0.24261,1.51639 -0.20458,1.68309 0.008,0.0336 -0.007,0.10463 -0.0227,0.15841 -0.0647,0.17408 -0.25084,2.3312 -0.20761,2.40345 0.0235,0.0386 0.0106,0.0701 -0.0305,0.0701 -0.0484,0 -0.0656,0.11691 -0.0512,0.35197 0.0119,0.1936 0.007,0.3406 -0.018,0.32673 -0.0386,-0.0246 -0.14843,0.5715 -0.13681,0.74147 0.007,0.0471 -0.0106,0.07 -0.0282,0.0506 -0.0461,-0.0475 -0.32724,0.50146 -0.28934,0.5651 0.0163,0.028 0.007,0.0423 -0.0238,0.0329 -0.0294,-0.01 -0.17532,0.0986 -0.32457,0.24099 -0.14928,0.14243 -0.34266,0.30718 -0.42977,0.3661 -0.0871,0.0591 -0.15368,0.12797 -0.1479,0.15342 0.007,0.0252 -0.0119,0.0656 -0.0369,0.0895 -0.0259,0.0239 -0.0238,0.007 0.007,-0.0493 0.0395,-0.0697 0.0248,-0.0817 -0.0583,-0.0488 -0.0608,0.024 -0.1378,0.0435 -0.17172,0.0435 -0.034,0 -0.0459,0.0265 -0.0266,0.0591 0.0202,0.0326 -0.0284,0.042 -0.10668,0.0214 -0.13113,-0.0346 -0.13479,-0.0285 -0.0474,0.0816 0.0884,0.11159 0.0861,0.11391 -0.0363,0.0352 -0.0989,-0.0634 -0.21716,-0.0686 -0.48569,-0.0209 -0.19529,0.0348 -0.39188,0.0389 -0.43696,0.01 -0.0451,-0.0293 -0.15624,-0.054 -0.24698,-0.0547 -0.28253,-0.005 -1.02648,-0.43323 -1.33652,-0.77525 -0.15875,-0.17515 -0.30455,-0.30692 -0.32397,-0.29287 -0.02,0.0142 -0.024,0.008 -0.0106,-0.0123 0.0149,-0.0207 -0.0455,-0.19807 -0.13244,-0.39436 -0.0912,-0.20546 -0.17119,-0.52784 -0.18867,-0.75988 -0.0165,-0.22167 -0.0424,-0.44284 -0.0575,-0.49148 -0.0153,-0.0486 -0.0415,-0.48799 -0.0595,-0.9764 -0.0169,-0.48839 -0.0506,-0.97589 -0.0736,-1.08329 -0.0231,-0.10736 -0.0363,-0.25388 -0.0285,-0.32547 0.008,-0.0716 -0.0731,-1.5216 -0.17899,-3.22222 -0.10575,-1.70059 -0.21041,-3.43619 -0.2326,-3.85684 -0.0223,-0.42072 -0.0635,-0.76486 -0.0916,-0.76486 -0.0287,0 -0.0348,-0.0456 -0.0145,-0.10108 0.0486,-0.13111 -0.30484,-6.04418 -0.3631,-6.06983 -0.0245,-0.0109 -0.0309,-0.12783 -0.0152,-0.26037 0.016,-0.13247 0,-0.62172 -0.0333,-1.08713 -0.0344,-0.46545 -0.08,-1.1831 -0.10152,-1.59487 -0.0215,-0.41171 -0.0917,-1.55408 -0.15587,-2.53868 -0.0643,-0.98452 -0.13437,-2.18557 -0.156,-2.66886 -0.022,-0.48338 -0.0587,-0.96667 -0.0816,-1.07408 -0.0238,-0.10736 -0.0352,-0.23486 -0.0263,-0.28322 0.027,-0.14562 -0.18841,-3.28838 -0.22988,-3.35755 -0.0212,-0.0352 -0.0457,-0.13505 -0.0551,-0.22164 -0.0319,-0.30478 -0.36348,-0.86175 -0.72705,-1.21959 -0.21767,-0.21428 -0.39729,-0.34264 -0.44074,-0.31494 -0.0427,0.0271 -0.057,0.0187 -0.0328,-0.0207 0.0592,-0.0985 -0.51239,-0.33258 -0.97758,-0.40049 -1.01884,-0.14883 -1.99603,0.30674 -2.59033,1.20758 -0.12955,0.19636 -0.27799,0.50445 -0.3299,0.68465 -0.0752,0.26189 -0.3456,3.06261 -0.34744,3.60051 0,0.0716 -0.12769,1.63876 -0.28307,3.48259 -0.15543,1.84383 -0.29896,3.60135 -0.31902,3.90567 -0.0202,0.30435 -0.0771,1.00734 -0.12691,1.56228 -0.0497,0.55497 -0.09,1.0822 -0.0895,1.17172 0,0.0895 -0.0841,1.14402 -0.18795,2.34341 -0.17435,2.01235 -0.23996,2.83585 -0.30086,3.7755 -0.0132,0.19691 -0.0921,1.16356 -0.17646,2.14814 -0.0843,0.98454 -0.16976,2.05372 -0.18984,2.37598 -0.0205,0.32217 -0.0537,0.73961 -0.0735,0.92761 -0.0256,0.23262 -0.0147,0.34174 0.0345,0.34174 0.0391,0 0.0711,0.0307 0.0711,0.0688 0,0.0379 -0.0264,0.0524 -0.058,0.0317 -0.0691,-0.0439 -0.13818,0.24494 -0.13272,0.55534 0.007,0.12238 -0.0409,0.69119 -0.0952,1.26401 -0.0546,0.57285 -0.0882,1.1221 -0.0751,1.22052 0.0133,0.0985 0.007,0.17908 -0.0197,0.17908 -0.0387,0 -0.10721,0.7928 -0.1592,1.8405 -0.0119,0.20672 -0.0348,0.45572 -0.0543,0.55325 -0.02,0.0977 -0.0513,0.45576 -0.0706,0.79586 -0.0197,0.34008 -0.0769,1.07244 -0.1277,1.62736 -0.0508,0.55493 -0.0882,1.09681 -0.083,1.20426 0.007,0.10736 -0.007,0.23924 -0.0251,0.29294 -0.0259,0.0735 -0.3963,4.71786 -0.42068,5.27264 -0.007,0.0537 -0.0456,0.5517 -0.0957,1.10665 -0.0917,1.01139 -0.67821,8.1344 -0.68745,8.34843 -0.007,0.0625 -0.0274,0.11392 -0.0549,0.11392 -0.0275,0 -0.0496,0.0374 -0.0496,0.0828 0,0.0457 -0.0961,0.23348 -0.21356,0.41754 -0.13382,0.20968 -0.19271,0.36107 -0.15765,0.40536 0.0377,0.0468 0.0328,0.0509 -0.0148,0.0109 -0.0453,-0.0382 -0.16641,0.0168 -0.3429,0.15579 -0.15006,0.11828 -0.39535,0.26313 -0.54495,0.32203 -0.26819,0.10545 -1.16214,0.23602 -1.21844,0.17791 -0.0424,-0.0435 -0.6752,-0.27674 -0.80279,-0.2956 -0.0603,-0.008 -0.13087,-0.0408 -0.15764,-0.0713 -0.0271,-0.0304 -0.007,-0.0321 0.0461,-0.007 0.0522,0.028 -0.018,-0.0476 -0.1559,-0.16858 -0.13786,-0.12087 -0.2727,-0.2124 -0.29958,-0.20347 -0.0272,0.008 -0.043,-0.007 -0.0353,-0.0329 0.008,-0.0266 -0.0605,-0.18064 -0.15067,-0.34175 -0.2858,-0.50829 -0.3437,-0.82453 -0.45272,-2.47359 -0.0549,-0.82214 -0.29574,-3.8618 -0.3221,-4.0556 -0.0139,-0.1004 -0.0627,-0.23042 -0.10853,-0.28913 -0.0603,-0.0768 -0.0617,-0.093 -0.007,-0.0578 0.0445,0.0273 0.0788,0.0169 0.0788,-0.0239 0,-0.0947 -0.77901,-9.79123 -1.29439,-16.11103 -0.22187,-2.72097 -0.41936,-5.19619 -0.43885,-5.50054 -0.0198,-0.30435 -0.10615,-1.35886 -0.19252,-2.34339 -0.0863,-0.98459 -0.15837,-1.8341 -0.16015,-1.88776 -0.008,-0.19687 -0.18733,-2.57922 -0.21498,-2.83163 -0.016,-0.14322 -0.044,-0.524 -0.0627,-0.84626 -0.019,-0.3222 -0.0613,-0.86412 -0.0945,-1.20421 -0.0337,-0.34018 -0.16377,-1.9659 -0.28996,-3.61282 -0.12611,-1.64689 -0.24317,-3.03827 -0.26017,-3.09198 -0.0274,-0.0872 -0.0652,-0.59626 -0.0769,-1.04152 -0.0119,-0.41963 -0.20606,-2.54882 -0.26483,-2.89231 -0.17251,-1.00833 -0.79424,-2.18751 -1.50179,-2.84798 -0.79723,-0.74431 -1.89139,-1.25286 -2.89412,-1.34526 -0.58484,-0.0539 -1.54655,0.0198 -1.57916,0.12059 -0.0119,0.0362 -0.0479,0.0488 -0.0801,0.0281 -0.12744,-0.0813 -1.53393,0.52536 -1.4691,0.63357 0.0193,0.0312 0.0119,0.0532 -0.0176,0.048 -0.13266,-0.0239 -0.21793,0.0262 -0.51831,0.30514 -0.1772,0.16447 -0.30358,0.33007 -0.28089,0.36804 0.0245,0.0404 0.0119,0.0501 -0.0312,0.0226 -0.20153,-0.12851 -1.24085,1.53391 -1.29674,2.0741 -0.008,0.076 -0.0313,0.16671 -0.0523,0.20149 -0.0598,0.0993 -0.16868,0.79464 -0.20901,1.3308 -0.0204,0.2685 -0.0771,0.83971 -0.12638,1.26933 -0.0493,0.42966 -0.10694,0.97157 -0.12796,1.20428 -0.0661,0.72626 -0.089,0.94874 -0.34191,3.28729 -0.13558,1.25308 -0.24599,2.3369 -0.24542,2.40847 0,0.0716 -0.0305,0.36075 -0.0689,0.6426 -0.0393,0.28177 -0.0591,0.5454 -0.0444,0.58584 0.0147,0.0402 0.007,0.11978 -0.0251,0.17624 -0.028,0.0565 -0.0681,0.3348 -0.0892,0.61842 -0.0213,0.28359 -0.0645,0.73533 -0.0964,1.00385 -0.10893,0.91595 -1.11459,10.5905 -1.12325,10.80575 -0.007,0.0536 -0.0336,0.31105 -0.069,0.57183 -0.036,0.26079 -0.0817,0.68556 -0.10206,0.94386 -0.0208,0.25834 -0.13299,1.34847 -0.25041,2.42253 -0.11738,1.07411 -0.23072,2.15789 -0.25192,2.40855 -0.0212,0.25062 -0.0946,0.95363 -0.16329,1.56225 -0.0936,0.83011 -0.10734,1.1368 -0.0551,1.22734 0.0407,0.0692 0.0431,0.10341 0.008,0.0803 -0.10285,-0.0656 -0.12823,0.0383 -0.16449,0.67401 -0.0193,0.33164 -0.0468,0.62372 -0.0621,0.6491 -0.0155,0.0251 -0.0452,0.27863 -0.0665,0.56284 -0.0218,0.28423 -0.13551,1.39557 -0.25385,2.46961 -0.11831,1.07409 -0.21727,2.0261 -0.2201,2.11559 -0.0188,0.60959 -0.25061,2.30987 -0.35564,2.60384 -0.12426,0.34787 -0.37725,0.74153 -0.64433,1.00264 -0.10628,0.10395 -0.1786,0.21344 -0.16069,0.24337 0.0184,0.0296 -0.0106,0.0378 -0.0605,0.0173 -0.0513,-0.0203 -0.15202,0.0242 -0.22403,0.0984 -0.0722,0.0743 -0.15231,0.13342 -0.17831,0.13138 -0.0262,-0.007 -0.16088,0.0288 -0.29963,0.0683 -0.20129,0.0579 -0.30662,0.0525 -0.5204,-0.0255 -0.14741,-0.054 -0.26807,-0.0848 -0.26807,-0.0683 0,0.0162 -0.0595,-0.031 -0.13114,-0.10559 -0.079,-0.0816 -0.17198,-0.11896 -0.23452,-0.0943 -0.0574,0.0225 -0.0839,0.0209 -0.0604,-0.007 0.0243,-0.0248 -0.0931,-0.19941 -0.26005,-0.38803 -0.4295,-0.485 -0.63737,-0.95343 -0.67749,-1.52663 -0.0144,-0.19694 -0.0428,-0.43125 -0.0636,-0.52078 -0.0211,-0.0895 -0.0452,-0.26524 -0.0543,-0.39053 -0.0412,-0.60087 -0.10721,-1.27069 -0.1934,-1.95289 -0.0521,-0.41171 -0.0947,-0.82181 -0.0947,-0.9113 0,-0.0895 -0.0554,-0.63142 -0.12161,-1.20426 -0.0668,-0.57284 -0.13711,-1.24654 -0.15619,-1.49719 -0.0193,-0.25065 -0.0547,-0.54355 -0.0777,-0.65094 -0.0238,-0.10737 -0.0387,-0.25388 -0.0328,-0.32548 0.007,-0.0716 -0.075,-0.86253 -0.17967,-1.75754 -0.10457,-0.89508 -0.19012,-1.68827 -0.19,-1.76266 0,-0.0745 -0.15625,-1.58297 -0.34742,-3.3524 -0.19116,-1.76938 -0.34984,-3.26102 -0.35255,-3.31477 -0.007,-0.10682 -0.48519,-4.76843 -0.84105,-8.17246 -0.12333,-1.17981 -0.3663,-3.44859 -0.53998,-5.0418 -0.17367,-1.5932 -0.31616,-2.9553 -0.31679,-3.02691 0,-0.0716 -0.0413,-0.48165 -0.09,-0.91129 -0.0489,-0.42963 -0.10601,-1.01012 -0.12664,-1.28999 -0.0213,-0.27982 -0.0629,-0.57704 -0.0935,-0.66051 -0.0309,-0.0835 -0.0437,-0.16436 -0.0292,-0.17984 0.0311,-0.0315 -0.32989,-3.55043 -0.39124,-3.81592 -0.0223,-0.0951 -0.0559,-0.20074 -0.0746,-0.23502 -0.0189,-0.0341 -0.042,-0.13083 -0.0502,-0.21455 -0.025,-0.24193 -0.498,-1.18615 -0.79396,-1.58485 -0.65946,-0.88845 -1.71236,-1.59933 -2.79357,-1.88618 -0.67845,-0.17999 -1.70687,-0.18226 -2.36535,-0.007 -0.80717,0.21698 -1.5515,0.62462 -2.17964,1.19379 -0.18743,0.16984 -0.20808,0.21498 -0.13976,0.30527 0.0701,0.0928 0.0674,0.0955 -0.0237,0.0225 -0.0891,-0.0719 -0.1314,-0.0468 -0.30495,0.17902 -0.11078,0.14435 -0.17772,0.26334 -0.14878,0.26442 0.0291,0.003 0.007,0.0316 -0.0583,0.0682 -0.11699,0.0704 -0.33441,0.45047 -0.25763,0.45047 0.0251,0 -0.007,0.0368 -0.0596,0.0814 -0.24606,0.19106 -0.5889,1.44447 -0.64624,2.36226 -0.0204,0.3208 -0.0911,1.21308 -0.15799,1.9828 -0.0668,0.76978 -0.12108,1.47279 -0.12056,1.56231 0,0.0895 -0.0711,0.99759 -0.15929,2.01792 -0.088,1.02036 -0.15489,1.89917 -0.14843,1.95286 0.008,0.0538 -0.009,0.18552 -0.032,0.29292 -0.0238,0.1075 -0.058,0.47357 -0.0747,0.81367 -0.0173,0.34012 -0.0435,0.69167 -0.0586,0.78116 -0.0249,0.14839 -0.15212,1.85307 -0.15558,2.08305 0,0.0536 -0.12902,1.62086 -0.28505,3.48253 -0.2556,3.05178 -1.03334,12.8112 -1.04006,13.05156 0,0.0537 -0.0442,0.52241 -0.0942,1.04152 -0.0502,0.51914 -0.10932,1.22218 -0.131,1.56227 -0.0223,0.34011 -0.17974,2.3174 -0.35104,4.39391 -0.17129,2.07653 -0.30667,3.83407 -0.30087,3.90571 0.007,0.0716 -0.009,0.21804 -0.0318,0.32543 -0.0233,0.1075 -0.0571,0.49883 -0.075,0.86975 -0.0181,0.37096 -0.0452,0.69527 -0.0609,0.72065 -0.0152,0.0254 -0.0426,0.37501 -0.0608,0.77696 -0.018,0.40189 -0.0461,0.75278 -0.0624,0.77977 -0.0165,0.0269 -0.0477,0.3698 -0.0705,0.76183 -0.0231,0.39204 -0.0939,1.34039 -0.15866,2.10748 -0.0646,0.76702 -0.10311,1.41879 -0.0854,1.44834 0.018,0.0293 0.0106,0.0536 -0.0201,0.0536 -0.0287,0 -0.10007,0.13987 -0.15898,0.31078 -0.0592,0.17092 -0.20639,0.4307 -0.32795,0.5773 -0.12149,0.14653 -0.20076,0.28741 -0.17594,0.31303 0.0254,0.0252 0.0171,0.0394 -0.0181,0.0306 -0.0937,-0.0235 -0.28749,0.0763 -0.25464,0.1311 0.016,0.0262 -0.007,0.0495 -0.0479,0.0517 -0.0637,0.007 -0.48932,0.16922 -0.8645,0.3362 -0.0524,0.0232 -0.29333,0.0232 -0.53612,0 z m 78.13233,-31.07628 c 0,-0.10736 0.0159,-0.14346 0.0316,-0.0801 0.0161,0.0633 0.0153,0.15123 -0.007,0.19528 -0.017,0.0441 -0.0301,-0.007 -0.0291,-0.11514 z m -90.33263,-5.4083 c 0.004,-0.0759 0.018,-0.0911 0.0386,-0.0393 0.0181,0.0468 0.0163,0.10313 -0.007,0.12482 -0.0216,0.0217 -0.0363,-0.0168 -0.0333,-0.0854 z m 91.52377,-3.38493 c 0.007,-0.0758 0.0181,-0.0911 0.0386,-0.0392 0.0184,0.0468 0.0167,0.10314 -0.007,0.12483 -0.0213,0.0217 -0.0363,-0.0166 -0.0332,-0.0855 z m -114.16817,-0.13015 c 0.003,-0.0759 0.018,-0.0913 0.0386,-0.0392 0.0185,0.0469 0.0163,0.10313 -0.007,0.12482 -0.0215,0.0214 -0.0363,-0.0166 -0.0336,-0.0854 z m 8.26302,-2.66888 c 0.003,-0.0759 0.0181,-0.0911 0.0386,-0.0392 0.0182,0.0469 0.0165,0.10314 -0.007,0.12483 -0.021,0.0212 -0.0364,-0.0168 -0.0336,-0.0855 z m 97.07445,-6.5746 c 0.007,-0.0757 0.0182,-0.0911 0.0381,-0.039 0.0185,0.0468 0.0163,0.103 -0.007,0.12469 -0.0209,0.0214 -0.0363,-0.0168 -0.0332,-0.0855 z m -78.06191,-3.9328 c 0.0216,-0.0357 0.0515,-0.0651 0.0666,-0.0651 0.0155,0 0.0282,0.0292 0.0282,0.0651 0,0.036 -0.03,0.0651 -0.067,0.0651 -0.0369,0 -0.049,-0.0291 -0.0279,-0.0651 z m 54.09288,-2.3163 c 0.007,-0.0759 0.0181,-0.0913 0.0383,-0.0393 0.0188,0.0468 0.0163,0.10314 -0.007,0.12483 -0.0212,0.0214 -0.0365,-0.0168 -0.0332,-0.0855 z m 26.8075,-16.53409 c 0.007,-0.0759 0.0181,-0.0913 0.0382,-0.0393 0.0186,0.0469 0.0167,0.10313 -0.007,0.12482 -0.0212,0.0214 -0.0363,-0.0166 -0.0332,-0.0854 z m -0.49964,-5.03944 c 0,-0.0895 0.0148,-0.12619 0.032,-0.0814 0.0175,0.0447 0.0175,0.11801 0,0.16277 -0.0176,0.0447 -0.032,0.007 -0.032,-0.0813 z m -115.34096,-3.01343 c 0.0238,-0.0643 0.0592,-0.10041 0.0783,-0.0804 0.0197,0.0201 3e-5,0.0726 -0.0431,0.11678 -0.0623,0.0639 -0.0697,0.0562 -0.0357,-0.0364 z m 114.83131,-3.53402 c 0.007,-0.0759 0.0181,-0.0913 0.0386,-0.0392 0.0188,0.0469 0.0163,0.10314 -0.007,0.12483 -0.0213,0.0217 -0.0366,-0.0168 -0.0331,-0.0854 z m -21.0044,-30.72476 c 0.007,-0.0759 0.0181,-0.0913 0.0386,-0.0391 0.0186,0.0469 0.0159,0.10314 -0.007,0.12483 -0.0206,0.0214 -0.0363,-0.0166 -0.0333,-0.0854 z"
         style="opacity:0.51;fill:#f90000;fill-opacity:0.99639;stroke:none;stroke-width:0.319694;stroke-opacity:1" /><text
         xml:space="preserve"
         style="font-style:normal;font-weight:normal;font-size:42.4327px;line-height:1.25;font-family:sans-serif;letter-spacing:0px;word-spacing:0px;display:inline;fill:#ffffff;fill-opacity:1;stroke:none;stroke-width:0.672367"
         x="-223.07338"
         y="213.1492"
         id="text1301-6"><tspan
           id="tspan1299-2"
           sodipodi:role="line"
           x="-223.07338"
           y="213.1492"
           style="font-style:normal;font-variant:normal;font-weight:normal;font-stretch:normal;font-size:67.8926px;font-family:'Franklin Gothic Medium';-inkscape-font-specification:'Franklin Gothic Medium, ';fill:#ffffff;fill-opacity:1;stroke-width:0.672367">v</tspan></text><text
         xml:space="preserve"
         style="font-style:normal;font-weight:normal;font-size:42.4327px;line-height:1.25;font-family:sans-serif;letter-spacing:0px;word-spacing:0px;display:inline;fill:#ffffff;fill-opacity:1;stroke:none;stroke-width:0.674427;stroke-dasharray:none"
         x="-261.76746"
         y="212.44695"
         id="text1289-8"><tspan
           sodipodi:role="line"
           id="tspan1287-4"
           x="-261.76746"
           y="212.44695"
           style="font-style:normal;font-variant:normal;font-weight:normal;font-stretch:normal;font-size:67.8926px;font-family:'Franklin Gothic Medium';-inkscape-font-specification:'Franklin Gothic Medium, ';fill:#ffffff;fill-opacity:1;stroke-width:0.674427;stroke-dasharray:none">o</tspan></text><text
         xml:space="preserve"
         style="font-style:normal;font-weight:normal;font-size:42.4327px;line-height:1.25;font-family:sans-serif;letter-spacing:0px;word-spacing:0px;display:inline;fill:#ffffff;fill-opacity:1;stroke:none;stroke-width:0.672367"
         x="-190.3972"
         y="212.60397"
         id="text1289-2-8"
         inkscape:label="text1289-2"><tspan
           sodipodi:role="line"
           id="tspan1287-6-8"
           x="-190.3972"
           y="212.60397"
           style="font-style:normal;font-variant:normal;font-weight:normal;font-stretch:normal;font-size:67.8926px;font-family:'Franklin Gothic Medium';-inkscape-font-specification:'Franklin Gothic Medium, ';fill:#ffffff;fill-opacity:1;stroke-width:0.672367">o</tspan></text><text
         id="text1293-9"
         y="212.3354"
         x="-150.66019"
         style="font-style:normal;font-weight:normal;font-size:41.4205px;line-height:1.25;font-family:sans-serif;letter-spacing:0px;word-spacing:0px;display:inline;fill:#ffffff;fill-opacity:1;stroke:none;stroke-width:0.656327"
         xml:space="preserve"
         inkscape:transform-center-x="-17.456442"
         inkscape:transform-center-y="4.8818828"><tspan
           style="font-style:normal;font-variant:normal;font-weight:normal;font-stretch:normal;font-size:66.6807px;font-family:'Franklin Gothic Medium';-inkscape-font-specification:'Franklin Gothic Medium, ';fill:#ffffff;fill-opacity:1;stroke-width:0.656327"
           y="212.3354"
           x="-150.66019"
           id="tspan1291-0"
           sodipodi:role="line">s</tspan><tspan
           y="272.68829"
           x="-150.66019"
           sodipodi:role="line"
           id="tspan1295-5"
           style="font-size:66.2727px;fill:#ffffff;fill-opacity:1;stroke-width:0.656327" /></text></g></g></svg>
