<?xml version="1.0"?>
<svg width="660.14513" height="512.16773" xmlns="http://www.w3.org/2000/svg" xmlns:svg="http://www.w3.org/2000/svg" version="1.1">
 <metadata id="metadata38">image/svg+xml</metadata>

 <g class="layer">
  <title>Layer 1</title>
  <g id="layer1" transform="translate(-111.92777,411.25231)">
   <path d="m298.51,-132.54a147.16,238.11 0 0 0 145.87,208.91a147.16,238.11 0 0 0 145.11,-200.23l-93.87,4.38l-69.11,49.59l-128,-62.65z" fill="#000000" id="path179" opacity="0.9" stroke="#ffffff" stroke-linejoin="bevel" stroke-miterlimit="4" stroke-width="0"/>
   <path d="m442,-401.65c-75.47,0 -102.51,119.32 -136.66,239.81c-2.41,8.75 0.46,18.13 1.21,27.12l118.86,58.18l64.17,-46.06l87.17,-4.06c1.21,-11.62 5.16,-23.84 1.91,-35.18c-34.96,-119.68 -61.19,-239.81 -136.66,-239.81z" fill="#000000" id="ellipse195" opacity="0.9" stroke="#ffffff" stroke-linejoin="bevel" stroke-miterlimit="4" stroke-width="0"/>
   <path d="m340.74,-46.26c0,0 11.71,42.25 25.29,58.64c11.81,14.24 46,31.05 46,31.05c0,0 -30.21,-18.77 -41.4,-32.2c-13.82,-16.59 -29.89,-57.49 -29.89,-57.49z" fill="#ffffff" id="path1144" stroke="#000000" stroke-width="1px"/>
  </g>
  <g id="layer2">
   <path d="m289.5,393.12c-0.44,-0.05 -0.84,-0.06 -0.89,-0.03c-0.05,0.03 -0.09,0.01 -0.09,-0.05c0,-0.06 -0.18,-0.18 -0.4,-0.28c-0.22,-0.09 -0.65,-0.37 -0.94,-0.63c-0.33,-0.28 -0.5,-0.37 -0.46,-0.24c0.05,0.13 0.03,0.18 -0.04,0.14c-0.06,-0.04 -0.1,-0.15 -0.09,-0.23c0.03,-0.21 -0.47,-1.12 -0.62,-1.12c-0.07,0 -0.09,-0.03 -0.06,-0.08c0.03,-0.04 -0.01,-0.31 -0.1,-0.62c-0.17,-0.57 -0.4,-2.85 -0.39,-3.86c0,-0.33 -0.05,-0.64 -0.12,-0.69c-0.07,-0.05 -0.09,-0.15 -0.05,-0.21c0.07,-0.14 -0.74,-11.82 -0.84,-12.16c-0.04,-0.11 -0.06,-0.4 -0.05,-0.64c0.01,-0.25 -0.06,-1.33 -0.15,-2.4c-0.09,-1.07 -0.19,-2.44 -0.23,-3.04c-0.04,-0.61 -0.25,-3.4 -0.46,-6.22c-0.22,-2.81 -0.42,-5.66 -0.46,-6.34c-0.04,-0.68 -0.17,-2.43 -0.29,-3.89c-0.12,-1.46 -0.25,-3.29 -0.29,-4.07c-0.04,-0.78 -0.1,-1.46 -0.12,-1.51c-0.03,-0.05 -0.08,-0.75 -0.12,-1.54c-0.03,-0.79 -0.11,-1.58 -0.16,-1.74c-0.06,-0.16 -0.08,-0.33 -0.04,-0.36c0.06,-0.07 -0.61,-9.79 -0.71,-10.32c-0.03,-0.18 -0.06,-0.53 -0.06,-0.78c0,-0.25 -0.07,-1.33 -0.16,-2.39c-0.09,-1.07 -0.19,-2.5 -0.23,-3.17c-0.04,-0.67 -0.12,-1.7 -0.17,-2.26c-0.06,-0.57 -0.14,-1.7 -0.17,-2.51c-0.04,-0.81 -0.09,-1.52 -0.12,-1.58c-0.03,-0.06 -0.09,-0.76 -0.12,-1.56c-0.04,-0.93 -0.12,-1.58 -0.23,-1.83c-0.1,-0.21 -0.12,-0.34 -0.05,-0.3c0.16,0.11 0.15,0.01 -0.11,-3.17c-0.12,-1.46 -0.22,-2.86 -0.23,-3.11c0,-0.25 -0.08,-1.3 -0.17,-2.33c-0.09,-1.03 -0.17,-1.97 -0.18,-2.07c-0.03,-0.95 -0.37,-5.8 -0.42,-5.96c-0.07,-0.22 -0.13,-1.29 -0.13,-2.3c0,-0.37 -0.04,-0.74 -0.07,-0.8c-0.04,-0.07 -0.09,-0.72 -0.12,-1.45c-0.03,-0.73 -0.09,-1.45 -0.13,-1.59c-0.04,-0.15 -0.06,-0.36 -0.05,-0.49c0.05,-0.4 -0.33,-1.67 -0.47,-1.57c-0.08,0.06 -0.09,0.03 -0.04,-0.07c0.11,-0.2 -0.35,-0.98 -0.99,-1.68c-0.57,-0.62 -1.63,-1.25 -1.83,-1.11c-0.09,0.06 -0.11,0.04 -0.06,-0.04c0.05,-0.08 -0.11,-0.17 -0.41,-0.23c-0.93,-0.18 -2.39,-0.06 -2.39,0.19c0,0.06 -0.06,0.1 -0.14,0.1c-0.4,-0.01 -0.56,0.05 -0.48,0.18c0.05,0.1 0.03,0.12 -0.06,0.06c-0.33,-0.23 -1.77,1.25 -2.24,2.32c-0.16,0.35 -0.34,0.88 -0.41,1.16c-0.06,0.29 -0.28,3.26 -0.46,6.6c-0.19,3.35 -0.43,7.43 -0.52,9.07c-0.1,1.64 -0.2,3.67 -0.23,4.51c-0.03,0.84 -0.08,1.57 -0.11,1.63c-0.03,0.05 -0.08,1.03 -0.11,2.17c-0.03,1.13 -0.08,2.15 -0.11,2.25c-0.03,0.11 -0.08,0.77 -0.12,1.48c-0.04,0.71 -0.17,3.13 -0.3,5.37c-0.13,2.24 -0.23,4.23 -0.23,4.4c0,0.18 -0.1,1.95 -0.23,3.95c-0.13,2 -0.22,3.86 -0.21,4.14c0.01,0.29 -0.01,0.61 -0.05,0.71c-0.04,0.11 -0.15,1.86 -0.25,3.89c-0.1,2.03 -0.19,3.78 -0.19,3.89c-0.16,2.53 -0.26,4.34 -0.28,5.15c-0.01,0.37 -0.06,0.68 -0.11,0.68c-0.06,0 -0.07,0.15 -0.04,0.33c0.03,0.18 0.03,0.3 0,0.27c-0.03,-0.03 -0.21,0.27 -0.39,0.68c-0.89,2.02 -2.94,3.18 -4.84,2.76c-0.4,-0.09 -0.8,-0.17 -0.9,-0.19c-0.09,-0.01 -0.2,-0.05 -0.23,-0.09c-0.03,-0.04 -0.33,-0.26 -0.66,-0.5c-0.33,-0.24 -0.73,-0.6 -0.88,-0.79c-0.15,-0.2 -0.31,-0.34 -0.34,-0.31c-0.04,0.03 -0.05,0.02 -0.02,-0.02c0.08,-0.13 -0.17,-0.58 -0.28,-0.51c-0.05,0.04 -0.09,-0.01 -0.08,-0.09c0.01,-0.09 -0.08,-0.48 -0.19,-0.87c-0.21,-0.74 -0.77,-5.8 -0.76,-6.9c0,-0.37 -0.05,-0.62 -0.12,-0.62c-0.07,0 -0.09,-0.06 -0.05,-0.14c0.08,-0.14 -0.26,-4.44 -0.38,-4.79c-0.03,-0.11 -0.05,-0.25 -0.04,-0.31c0.04,-0.22 -0.37,-4.6 -0.44,-4.6c-0.03,0 -0.05,-0.29 -0.03,-0.65c0.02,-0.35 -0.01,-0.64 -0.06,-0.64c-0.06,0 -0.08,-0.3 -0.06,-0.65c0.03,-0.36 -0.01,-0.65 -0.06,-0.65c-0.06,0 -0.08,-0.2 -0.06,-0.45c0.03,-0.25 0.01,-0.56 -0.04,-0.68c-0.05,-0.13 -0.08,-0.28 -0.06,-0.35c0.04,-0.21 -0.71,-8.3 -0.78,-8.36c-0.04,-0.03 -0.08,-0.59 -0.1,-1.23c-0.02,-0.64 -0.06,-1.25 -0.1,-1.36c-0.04,-0.11 -0.08,-0.43 -0.1,-0.71c-0.02,-0.29 -0.06,-0.78 -0.09,-1.1c-0.06,-0.58 -0.09,-0.91 -0.26,-3.2c-0.05,-0.66 -0.13,-1.17 -0.18,-1.13c-0.05,0.03 -0.06,-0.04 -0.03,-0.17c0.06,-0.25 -0.6,-7.87 -0.73,-8.44c-0.04,-0.18 -0.07,-0.44 -0.06,-0.58c0.01,-0.14 -0.16,-2.06 -0.38,-4.27c-0.22,-2.21 -0.42,-4.45 -0.46,-4.99c-0.15,-2.3 -0.4,-4.04 -0.69,-4.73c-0.33,-0.81 -1.41,-2.17 -1.64,-2.07c-0.09,0.04 -0.13,0.02 -0.1,-0.04c0.09,-0.16 -0.8,-0.58 -0.98,-0.47c-0.09,0.06 -0.11,0.05 -0.07,-0.04c0.1,-0.18 -0.45,-0.31 -1.31,-0.31c-0.72,0 -1.98,0.37 -1.88,0.56c0.03,0.06 0,0.09 -0.09,0.05c-0.08,-0.03 -0.28,0.06 -0.43,0.21c-0.16,0.15 -0.22,0.22 -0.13,0.17c0.11,-0.06 0.14,-0.04 0.08,0.06c-0.05,0.08 -0.14,0.11 -0.2,0.07c-0.3,-0.21 -1.71,2.14 -1.56,2.59c0.03,0.1 0.02,0.21 -0.04,0.23c-0.12,0.05 -0.62,6.1 -0.54,6.55c0.03,0.16 0,0.33 -0.06,0.37c-0.06,0.04 -0.1,0.34 -0.1,0.68c0,0.33 -0.18,2.84 -0.39,5.59c-0.22,2.74 -0.43,5.48 -0.47,6.09c-0.04,0.61 -0.22,3.02 -0.4,5.37c-0.18,2.35 -0.36,4.77 -0.39,5.39c-0.03,0.61 -0.08,1.19 -0.11,1.29c-0.03,0.1 -0.09,0.77 -0.12,1.48c-0.04,0.71 -0.3,4.26 -0.58,7.9c-0.28,3.63 -0.51,6.72 -0.5,6.86c0.01,0.15 -0.02,0.36 -0.07,0.49c-0.05,0.12 -0.06,0.31 -0.02,0.42c0.04,0.1 0.01,0.19 -0.06,0.19c-0.07,0 -0.09,0.09 -0.06,0.19c0.04,0.11 0.01,0.19 -0.06,0.19c-0.07,0 -0.09,0.09 -0.06,0.2c0.04,0.11 0.02,0.17 -0.04,0.13c-0.09,-0.07 -0.22,0.2 -0.24,0.47c-0.01,0.18 -1.25,1.51 -1.61,1.72c-0.2,0.11 -0.33,0.26 -0.3,0.31c0.03,0.06 -0.05,0.08 -0.19,0.04c-0.19,-0.05 -0.22,-0.03 -0.15,0.1c0.05,0.1 0.05,0.14 -0.01,0.1c-0.06,-0.04 -0.44,0.01 -0.85,0.12c-0.41,0.1 -0.84,0.18 -0.95,0.17c-0.11,-0.01 -0.43,-0.03 -0.71,-0.04c-0.28,-0.01 -0.49,-0.06 -0.46,-0.11c0.07,-0.13 -0.52,-0.26 -0.68,-0.16c-0.08,0.05 -0.1,0.04 -0.05,-0.01c0.1,-0.13 -0.81,-0.75 -0.95,-0.65c-0.05,0.03 -0.15,-0.02 -0.23,-0.13c-0.08,-0.1 -0.1,-0.19 -0.06,-0.19c0.05,0 0,-0.12 -0.12,-0.26c-0.11,-0.14 -0.25,-0.22 -0.31,-0.18c-0.06,0.04 -0.09,-0.01 -0.07,-0.1c0.02,-0.09 -0.04,-0.16 -0.12,-0.14c-0.09,0.02 -0.12,-0.02 -0.08,-0.1c0.09,-0.15 -0.21,-0.68 -0.32,-0.59c-0.04,0.03 -0.06,0.03 -0.03,-0.01c0.03,-0.04 -0.05,-0.36 -0.17,-0.71c-0.12,-0.34 -0.31,-1.4 -0.42,-2.35c-0.11,-0.95 -0.23,-1.75 -0.26,-1.79c-0.04,-0.03 -0.08,-0.45 -0.09,-0.91c-0.02,-0.47 -0.06,-0.93 -0.1,-1.04c-0.04,-0.11 -0.06,-0.35 -0.05,-0.55c0.02,-0.19 -0.02,-0.43 -0.06,-0.52c-0.05,-0.09 -0.08,-0.32 -0.06,-0.52c0.02,-0.2 -0.03,-0.36 -0.1,-0.36c-0.07,0 -0.1,-0.06 -0.06,-0.14c0.08,-0.15 -0.98,-9.59 -1.09,-9.7c-0.04,-0.03 -0.08,-0.47 -0.1,-0.97c-0.02,-0.5 -0.09,-0.93 -0.15,-0.95c-0.06,-0.02 -0.08,-0.1 -0.04,-0.16c0.07,-0.12 -0.15,-2.48 -0.26,-2.83c-0.03,-0.11 -0.07,-0.4 -0.09,-0.65c-0.06,-0.92 -1.15,-10.04 -1.21,-10.1c-0.03,-0.04 -0.08,-0.42 -0.09,-0.84c-0.02,-0.43 -0.11,-1.3 -0.2,-1.94c-0.09,-0.64 -0.19,-1.51 -0.23,-1.93c-0.12,-1.54 -0.54,-4.41 -0.64,-4.45c-0.06,-0.02 -0.07,-0.13 -0.04,-0.23c0.03,-0.1 0.01,-0.18 -0.06,-0.18c-0.07,0 -0.09,-0.08 -0.06,-0.18c0.09,-0.27 -0.67,-2.28 -1.28,-3.39c-0.63,-1.14 -1.64,-2.42 -1.81,-2.3c-0.07,0.05 -0.09,0.02 -0.05,-0.04c0.12,-0.23 -1.41,-1.68 -1.59,-1.5c-0.05,0.05 -0.06,0.03 -0.03,-0.04c0.09,-0.18 -0.79,-0.75 -0.97,-0.63c-0.08,0.06 -0.1,0.03 -0.05,-0.05c0.1,-0.18 -0.34,-0.46 -0.53,-0.34c-0.07,0.05 -0.1,0.03 -0.06,-0.03c0.09,-0.16 -1.81,-0.96 -2.34,-0.99c-0.22,-0.01 -0.43,-0.07 -0.46,-0.12c-0.09,-0.14 -2.13,-0.34 -2.81,-0.27c-1.05,0.1 -2.24,0.34 -2.24,0.45c0,0.06 -0.06,0.08 -0.15,0.05c-0.41,-0.17 -4.57,2.03 -4.57,2.42c0,0.07 -0.05,0.09 -0.1,0.05c-0.06,-0.04 -0.4,0.08 -0.76,0.26c-0.37,0.18 -1.08,0.46 -1.6,0.61c-0.87,0.26 -1.27,0.28 -6.23,0.32c-5.28,0.05 -5.3,0.05 -5.98,-0.24c-0.37,-0.16 -0.74,-0.28 -0.8,-0.26c-0.06,0.02 -0.07,-0.01 -0.03,-0.06c0.05,-0.05 -0.15,-0.38 -0.44,-0.73c-0.76,-0.92 -1.01,-1.62 -1.03,-2.96c-0.01,-0.61 0.01,-1.13 0.05,-1.16c0.17,-0.16 0.47,-1.07 0.4,-1.21c-0.04,-0.09 -0.04,-0.11 0.02,-0.06c0.05,0.05 0.4,-0.23 0.77,-0.62c0.4,-0.41 0.87,-0.77 1.14,-0.86c0.25,-0.08 0.46,-0.19 0.46,-0.23c0,-0.04 1.82,-0.1 4.05,-0.12c5.9,-0.06 5.81,-0.05 6.47,-0.39c0.66,-0.33 1.12,-0.77 1.02,-0.96c-0.04,-0.08 -0.01,-0.09 0.07,-0.03c0.08,0.06 0.21,0 0.31,-0.14c0.52,-0.75 0.77,-1.64 1.48,-5.32c0.41,-2.12 0.8,-4.11 0.87,-4.41c0.06,-0.31 0.09,-0.61 0.06,-0.67c-0.03,-0.06 -0.02,-0.13 0.03,-0.16c0.13,-0.06 0.74,-3.32 0.66,-3.48c-0.04,-0.07 -0.01,-0.13 0.06,-0.13c0.08,0 0.11,-0.11 0.08,-0.26c-0.03,-0.14 -0.03,-0.26 0.02,-0.26c0.11,0 0.38,-1.53 0.3,-1.69c-0.04,-0.07 -0.03,-0.13 0.03,-0.13c0.14,0 0.38,-1.43 0.31,-1.81c-0.04,-0.22 -0.03,-0.27 0.04,-0.16c0.13,0.21 0.43,-1.32 0.3,-1.55c-0.04,-0.08 -0.03,-0.12 0.03,-0.07c0.14,0.1 0.55,-2.05 0.43,-2.26c-0.06,-0.1 -0.03,-0.11 0.06,-0.04c0.11,0.08 0.14,0.01 0.09,-0.31c-0.03,-0.22 -0.03,-0.37 0.01,-0.34c0.09,0.1 0.72,-3.08 0.66,-3.27c-0.03,-0.08 -0.01,-0.17 0.05,-0.19c0.06,-0.02 0.12,-0.27 0.14,-0.56c0.02,-0.29 0.06,-0.55 0.1,-0.58c0.07,-0.07 1.38,-6.73 1.43,-7.25c0.02,-0.18 0.06,-0.42 0.11,-0.53c0.04,-0.11 0.09,-0.37 0.1,-0.58c0.01,-0.21 0.05,-0.41 0.09,-0.45c0.12,-0.13 0.46,-2.2 0.39,-2.35c-0.05,-0.09 -0.03,-0.11 0.04,-0.07c0.13,0.09 0.31,-0.89 0.2,-1.09c-0.03,-0.07 -0.01,-0.12 0.07,-0.12c0.08,0 0.11,-0.11 0.08,-0.25c-0.03,-0.14 -0.02,-0.27 0.03,-0.29c0.08,-0.04 0.6,-2.57 0.65,-3.15c0.01,-0.14 0.05,-0.34 0.09,-0.45c0.14,-0.4 0.42,-1.99 0.37,-2.05c-0.03,-0.03 -0.01,-0.13 0.04,-0.21c0.16,-0.22 0.38,-1.6 0.29,-1.79c-0.05,-0.09 -0.04,-0.12 0.02,-0.06c0.06,0.06 0.34,-1.11 0.65,-2.69c0.3,-1.54 0.67,-3.12 0.83,-3.51c0.58,-1.42 2.2,-2.9 3.43,-3.12c0.24,-0.04 0.41,-0.13 0.37,-0.18c-0.03,-0.06 0.11,-0.08 0.32,-0.05c0.21,0.03 0.7,0.08 1.08,0.12c1,0.1 2.33,0.75 2.75,1.36c0.08,0.11 0.19,0.14 0.29,0.08c0.09,-0.06 0.12,-0.06 0.08,-0.01c-0.04,0.05 0.1,0.36 0.32,0.68c0.55,0.81 0.97,1.87 1.05,2.63c0.04,0.35 0.1,0.62 0.14,0.59c0.04,-0.03 0.08,0.35 0.09,0.84c0.01,0.49 0.06,0.99 0.1,1.12c0.05,0.13 0.08,0.38 0.06,0.57c-0.01,0.19 0.03,0.38 0.1,0.43c0.07,0.04 0.09,0.14 0.06,0.21c-0.08,0.14 0.41,4.68 0.52,4.78c0.03,0.04 0.08,0.47 0.1,0.97c0.02,0.5 0.08,0.93 0.14,0.95c0.06,0.02 0.08,0.1 0.04,0.16c-0.07,0.12 0.25,3.38 0.37,3.74c0.03,0.11 0.08,0.57 0.11,1.04c0.03,0.46 0.1,0.86 0.15,0.88c0.06,0.02 0.08,0.12 0.05,0.21c-0.06,0.18 0.84,8.28 0.96,8.62c0.04,0.11 0.06,0.25 0.05,0.31c-0.03,0.15 0.56,5.4 0.64,5.65c0.03,0.11 0.07,0.4 0.09,0.65c0.07,1.1 0.45,4.14 0.52,4.14c0.04,0 0.05,0.21 0.03,0.46c-0.03,0.32 0.02,0.54 0.17,0.73c0.12,0.16 0.15,0.23 0.07,0.18c-0.08,-0.05 -0.15,-0.05 -0.15,0.01c0,0.31 0.49,4.28 0.55,4.44c0.04,0.11 0.06,0.25 0.04,0.31c-0.06,0.26 0.37,3.56 0.46,3.5c0.05,-0.03 0.06,0.06 0.03,0.2c-0.11,0.47 0.33,3.8 0.53,3.98c0.12,0.11 0.13,0.16 0.03,0.16c-0.11,0 -0.12,0.2 -0.06,0.81c0.04,0.45 0.11,0.84 0.15,0.87c0.04,0.04 0.08,0.42 0.1,0.86c0.06,1.51 0.56,4.95 0.77,5.31c0.16,0.28 0.22,0.31 0.31,0.17c0.08,-0.14 0.1,-0.12 0.07,0.07c-0.04,0.31 0.67,0.9 0.97,0.8c0.11,-0.03 0.2,-0.01 0.2,0.06c0,0.07 0.15,0.12 0.34,0.12c0.19,0 0.34,-0.06 0.34,-0.14c0,-0.07 0.06,-0.1 0.12,-0.05c0.18,0.12 0.59,-0.06 0.5,-0.23c-0.05,-0.08 -0.03,-0.1 0.06,-0.04c0.17,0.12 0.61,-0.3 0.51,-0.48c-0.04,-0.07 -0.02,-0.09 0.06,-0.04c0.17,0.12 0.51,-0.62 0.56,-1.22c0.12,-1.27 0.96,-12.27 1.02,-13.27c0.03,-0.64 0.19,-2.68 0.34,-4.53c0.15,-1.86 0.3,-3.86 0.33,-4.47c0.03,-0.61 0.08,-1.19 0.11,-1.3c0.09,-0.32 0.67,-8.7 0.61,-8.77c-0.03,-0.03 -0.01,-0.2 0.05,-0.36c0.06,-0.16 0.12,-0.9 0.16,-1.64c0.03,-0.74 0.08,-1.42 0.11,-1.53c0.04,-0.15 0.49,-6.51 0.53,-7.38c0,-0.11 0.11,-1.36 0.23,-2.78c0.12,-1.42 0.26,-3.14 0.3,-3.82c0.17,-2.68 0.19,-3 0.51,-6.8c0.12,-1.49 0.22,-2.86 0.22,-3.04c0,-0.17 0.05,-0.82 0.11,-1.42c0.06,-0.61 0.15,-1.65 0.18,-2.33c0.04,-0.67 0.25,-3.47 0.46,-6.22c0.22,-2.74 0.4,-5.16 0.4,-5.37c0,-0.21 0.12,-1.95 0.28,-3.87c0.15,-1.91 0.26,-3.53 0.23,-3.6c-0.03,-0.06 -0.01,-0.11 0.06,-0.11c0.07,0 0.12,-0.09 0.12,-0.2c0,-0.11 0.17,-0.56 0.37,-1c0.2,-0.44 0.36,-0.85 0.34,-0.9c-0.01,-0.05 0.02,-0.08 0.07,-0.07c0.05,0.02 0.25,-0.15 0.45,-0.37c1.62,-1.82 4.36,-1.92 6.19,-0.24c0.26,0.25 0.5,0.42 0.53,0.39c0.03,-0.03 0.05,0.01 0.06,0.1c0,0.09 0.16,0.42 0.35,0.74c0.46,0.78 0.68,1.68 0.84,3.63c0.07,0.89 0.16,1.71 0.2,1.81c0.04,0.11 0.06,0.25 0.04,0.32c-0.03,0.16 0.34,4.48 0.41,4.73c0.03,0.11 0.08,0.6 0.11,1.1c0.12,2.11 0.69,7.59 0.77,7.49c0.05,-0.05 0.06,0 0.01,0.12c-0.07,0.22 0.14,3.23 0.26,3.59c0.06,0.18 0.07,0.36 0.13,1.92c0.02,0.38 0.06,0.66 0.11,0.63c0.05,-0.03 0.09,0.49 0.11,1.16c0.01,0.67 0.06,1.29 0.11,1.38c0.05,0.09 0.08,0.31 0.06,0.48c-0.01,0.18 0.15,2.1 0.38,4.27c0.22,2.17 0.4,4.04 0.41,4.14c0.04,0.91 0.25,3.34 0.31,3.5c0.03,0.11 0.06,0.25 0.04,0.31c-0.03,0.16 0.34,4.36 0.4,4.61c0.03,0.11 0.08,0.69 0.11,1.29c0.03,0.61 0.09,1.13 0.13,1.17c0.05,0.04 0.1,0.63 0.12,1.3c0.02,0.68 0.08,1.25 0.12,1.26c0.05,0.02 0.06,0.24 0.04,0.48c-0.03,0.25 -0.01,0.55 0.03,0.68c0.04,0.13 0.1,0.63 0.13,1.13c0.03,0.5 0.12,1.61 0.2,2.46c0.12,1.23 0.19,1.55 0.31,1.51c0.13,-0.03 0.14,-0.01 0.02,0.12c-0.14,0.16 -0.2,0.92 -0.08,1.05c0.03,0.04 0.09,0.59 0.12,1.22c0.03,0.63 0.09,1.17 0.14,1.21c0.05,0.04 0.1,0.6 0.12,1.24c0.02,0.64 0.06,1.25 0.1,1.36c0.03,0.11 0.08,0.46 0.09,0.78c0.09,1.78 0.47,5.42 0.57,5.35c0.06,-0.04 0.07,-0.01 0.02,0.08c-0.12,0.22 0.42,6.26 0.55,6.06c0.06,-0.09 0.07,-0.03 0.02,0.15c-0.07,0.28 0.47,6.95 0.6,7.4c0.03,0.11 0.07,0.63 0.1,1.16c0.03,0.53 0.1,0.99 0.16,1.01c0.06,0.02 0.08,0.14 0.04,0.25c-0.05,0.14 -0.03,0.18 0.06,0.12c0.09,-0.06 0.11,-0.02 0.06,0.13c-0.06,0.17 -0.03,0.2 0.13,0.13c0.17,-0.07 0.18,-0.05 0.08,0.09c-0.1,0.14 -0.09,0.23 0.07,0.38c0.31,0.31 0.71,0.51 0.84,0.42c0.06,-0.04 0.12,-0.01 0.12,0.06c0,0.08 0.15,0.14 0.34,0.14c0.19,0 0.34,-0.05 0.34,-0.12c0,-0.06 0.1,-0.09 0.22,-0.05c0.27,0.08 1.09,-0.7 1,-0.95c-0.03,-0.1 -0.02,-0.15 0.04,-0.11c0.06,0.04 0.14,-0.03 0.18,-0.16c0.06,-0.18 0.51,-7.39 0.52,-8.35c0,-0.16 0.13,-2.36 0.28,-4.88c0.36,-6 0.35,-5.93 0.75,-13.02c0.19,-3.35 0.5,-8.89 0.7,-12.3c0.19,-3.42 0.38,-6.79 0.4,-7.51c0.03,-0.71 0.07,-1.38 0.1,-1.49c0.03,-0.11 0.08,-1.02 0.12,-2.02c0.04,-0.99 0.12,-2.57 0.19,-3.49c0.07,-0.93 0.1,-1.9 0.07,-2.16c-0.03,-0.26 -0.01,-0.52 0.04,-0.59c0.05,-0.06 0.12,-1 0.16,-2.1c0.04,-1.1 0.09,-2.03 0.12,-2.08c0.03,-0.04 0.07,-0.94 0.11,-1.97c0.03,-1.04 0.09,-1.97 0.11,-2.07c0.03,-0.1 0.11,-1.37 0.18,-2.83c0.07,-1.46 0.15,-2.95 0.18,-3.3c0.03,-0.35 0.1,-1.67 0.17,-2.91c0.06,-1.25 0.14,-2.7 0.18,-3.24c0.19,-3.26 0.28,-4.88 0.34,-6.09c0.04,-0.75 0.09,-1.68 0.12,-2.07c0.03,-0.39 0.1,-1.64 0.17,-2.78c0.06,-1.14 0.3,-5.33 0.52,-9.32c0.22,-3.99 0.4,-7.37 0.38,-7.51c-0.02,-0.15 0.01,-0.38 0.05,-0.52c0.04,-0.15 0.11,-1.1 0.15,-2.14c0.04,-1.04 0.09,-2.08 0.12,-2.33c0.07,-0.63 0.63,-10.92 0.62,-11.44c0,-0.63 0.19,-2.05 0.33,-2.47c0.07,-0.2 0.09,-0.43 0.06,-0.5c-0.05,-0.08 -0.03,-0.1 0.05,-0.05c0.07,0.05 0.16,-0.03 0.2,-0.17c0.07,-0.24 1.44,-1.92 1.44,-1.76c0,0.03 0.25,-0.06 0.55,-0.21c0.39,-0.2 0.79,-0.28 1.41,-0.28c0.96,-0.01 1.73,0.07 1.73,0.19c0,0.04 0.14,0.15 0.31,0.23c0.17,0.09 0.5,0.33 0.73,0.53c0.34,0.3 0.45,0.34 0.58,0.22c0.12,-0.13 0.13,-0.12 0.03,0.04c-0.09,0.15 -0.09,0.25 0.02,0.42c0.08,0.12 0.19,0.18 0.23,0.13c0.05,-0.05 0.07,-0.03 0.06,0.03c-0.02,0.07 0.08,0.39 0.22,0.72c0.28,0.69 0.44,1.73 0.55,3.65c0.04,0.76 0.12,1.36 0.16,1.33c0.05,-0.03 0.06,0.18 0.04,0.48c-0.03,0.3 0.03,1.42 0.12,2.49c0.09,1.07 0.19,2.5 0.23,3.17c0.04,0.67 0.15,2.07 0.24,3.11c0.09,1.03 0.19,2.2 0.21,2.59c0.03,0.39 0.07,1.09 0.1,1.55c0.03,0.47 0.09,1.4 0.13,2.07c0.04,0.67 0.12,1.75 0.19,2.39c0.06,0.64 0.11,1.44 0.11,1.78c0,0.34 0.03,0.67 0.06,0.74c0.04,0.07 0.09,0.8 0.13,1.64c0.03,0.83 0.09,1.57 0.12,1.62c0.03,0.05 0.08,0.64 0.11,1.3c0.03,0.66 0.15,2.4 0.28,3.86c0.12,1.46 0.22,2.99 0.22,3.4c0,0.59 0.03,0.75 0.18,0.75c0.14,0 0.15,0.04 0.06,0.22c-0.09,0.17 -0.06,1.02 0.11,3.21c0.13,1.64 0.24,3.15 0.25,3.37c0,0.21 0.15,2.34 0.34,4.72c0.19,2.38 0.34,4.61 0.34,4.94c-0.01,0.33 0.04,0.63 0.09,0.68c0.06,0.04 0.09,0.2 0.06,0.36c-0.04,0.26 1.7,24.55 1.86,25.94c0.03,0.28 0.06,0.64 0.06,0.79c0,0.15 0.24,3.32 0.52,7.06c0.28,3.73 0.53,7.08 0.55,7.43c0.14,2.23 0.21,3.24 0.3,4.27c0.06,0.64 0.14,1.8 0.18,2.58c0.04,0.78 0.12,1.51 0.17,1.62c0.05,0.11 0.07,0.27 0.04,0.35c-0.07,0.22 0.97,14.34 1.12,15.25c0.5,3 3.19,4.74 5.78,3.76c0.3,-0.12 0.54,-0.27 0.54,-0.33c0,-0.07 0.04,-0.09 0.1,-0.06c0.14,0.1 0.97,-0.62 1.31,-1.12c0.42,-0.62 0.73,-1.37 0.87,-2.1c0.1,-0.52 0.34,-3.45 0.36,-4.34c0,-0.11 0.21,-2.87 0.46,-6.15c0.25,-3.28 0.49,-6.47 0.52,-7.09c0.03,-0.62 0.08,-1.18 0.11,-1.23c0.03,-0.05 0.09,-0.74 0.12,-1.52c0.04,-0.78 0.33,-4.8 0.64,-8.93c0.31,-4.13 0.57,-7.66 0.56,-7.84c0,-0.18 0.13,-1.93 0.29,-3.89c0.16,-1.96 0.29,-3.71 0.29,-3.89c0,-0.17 0.08,-1.25 0.17,-2.39c0.16,-1.96 1.77,-23.87 1.78,-24.28c0,-0.11 0.14,-1.84 0.3,-3.86c0.16,-2.02 0.29,-3.79 0.3,-3.95c0.02,-0.58 0.12,-1.88 0.22,-3.07c0.09,-1 0.77,-10.44 0.8,-11.13c0.01,-0.11 0.11,-1.45 0.23,-2.98c0.12,-1.53 0.25,-3.28 0.29,-3.88c0.03,-0.61 0.17,-2.38 0.29,-3.94c0.12,-1.56 0.22,-2.96 0.22,-3.11c0,-0.15 0.15,-2.25 0.34,-4.68c0.19,-2.42 0.35,-4.55 0.35,-4.72c0.01,-0.41 0.09,-1.5 0.24,-3.17c0.06,-0.71 0.32,-4.1 0.57,-7.52c0.25,-3.43 0.51,-6.39 0.57,-6.59c0.07,-0.19 0.09,-0.4 0.06,-0.46c-0.03,-0.06 -0.01,-0.13 0.05,-0.16c0.06,-0.02 0.12,-0.13 0.14,-0.22c0.04,-0.2 0.14,-0.33 0.84,-1.17c0.74,-0.89 2.02,-1.49 3.05,-1.44c0.72,0.03 1.7,0.36 2.22,0.74c0.24,0.17 0.43,0.28 0.43,0.24c0,-0.16 0.9,1.15 1.11,1.61c0.12,0.26 0.25,0.49 0.3,0.51c0.05,0.02 0.06,0.08 0.04,0.14c-0.03,0.05 0,0.32 0.06,0.61c0.06,0.28 0.12,0.61 0.12,0.73c0,0.12 0.23,2.54 0.51,5.37c0.28,2.83 0.53,5.53 0.57,6c0.04,0.46 0.14,1.54 0.23,2.39c0.09,0.86 0.19,2.02 0.23,2.58c0.04,0.56 0.11,1.11 0.16,1.23c0.05,0.11 0.07,0.26 0.05,0.33c-0.03,0.07 0.11,1.67 0.3,3.56c0.19,1.89 0.37,3.78 0.4,4.21c0.03,0.43 0.19,2.03 0.34,3.56c0.15,1.53 0.31,3.22 0.35,3.76c0.04,0.53 0.12,1.35 0.19,1.81c0.07,0.47 0.12,0.96 0.12,1.1c0,0.15 0.18,2.04 0.4,4.21c0.22,2.17 0.4,4.07 0.4,4.21c0,0.15 0.1,1.22 0.22,2.4c0.12,1.17 0.25,2.51 0.28,2.98c0.04,0.47 0.3,3.14 0.58,5.96c0.28,2.81 0.54,5.61 0.58,6.21c0.04,0.61 0.12,1.19 0.18,1.31c0.06,0.12 0.08,0.24 0.04,0.28c-0.03,0.04 0.15,2.21 0.4,4.84c0.25,2.63 0.72,7.52 1.04,10.86c0.32,3.35 0.79,8.15 1.04,10.68c0.25,2.53 0.46,4.69 0.47,4.79c0.01,0.11 0.08,0.89 0.16,1.75c0.09,0.85 0.19,1.96 0.22,2.46c0.04,0.5 0.28,2.92 0.53,5.37c0.25,2.46 0.46,4.61 0.46,4.79c0,0.18 0.11,1.25 0.23,2.4c0.12,1.14 0.23,2.21 0.23,2.39c0,0.18 0.39,4.23 0.86,9c0.47,4.77 0.86,8.84 0.86,9.04c0,0.2 0.03,0.43 0.08,0.51c0.04,0.08 0.09,0.28 0.11,0.45c0.05,0.57 0.61,1.72 1.14,2.36c0.56,0.66 1.62,1.43 2.06,1.48c0.13,0.01 0.31,0.07 0.37,0.12c0.07,0.05 0.43,0.12 0.8,0.16c1.39,0.16 2.99,-0.55 4,-1.77c0.53,-0.63 1.08,-1.77 1.15,-2.35c0.02,-0.16 0.06,-0.38 0.1,-0.48c0.03,-0.11 0.2,-1.59 0.36,-3.3c0.16,-1.71 0.58,-6.08 0.93,-9.71c0.35,-3.63 0.62,-6.76 0.6,-6.95c-0.02,-0.19 0,-0.32 0.05,-0.29c0.05,0.04 0.1,-0.21 0.12,-0.56c0.03,-0.94 0.06,-1.26 0.44,-4.96c0.19,-1.88 0.34,-3.52 0.33,-3.62c-0.01,-0.11 0.01,-0.28 0.05,-0.39c0.04,-0.11 0.12,-0.83 0.18,-1.62c0.06,-0.78 0.12,-1.51 0.13,-1.62c0.05,-0.59 0.14,-1.53 0.29,-2.91c0.09,-0.86 0.16,-1.67 0.16,-1.82c0,-0.14 0.16,-1.74 0.35,-3.56c0.19,-1.81 0.37,-3.71 0.41,-4.21c0.04,-0.5 0.24,-2.66 0.46,-4.79c0.39,-3.94 1.75,-18.22 1.77,-18.58c0.01,-0.11 0.19,-2 0.42,-4.21c0.22,-2.21 0.43,-4.37 0.46,-4.79c0.03,-0.43 0.19,-2.06 0.34,-3.62c0.15,-1.57 0.26,-2.91 0.24,-2.98c-0.03,-0.07 0,-0.22 0.05,-0.34c0.05,-0.12 0.12,-0.67 0.15,-1.23c0.03,-0.56 0.08,-1.11 0.11,-1.22c0.04,-0.16 0.61,-6.22 0.64,-6.86c0.01,-0.11 0.09,-0.89 0.18,-1.75c0.14,-1.25 0.92,-9.56 0.98,-10.29c0.02,-0.33 0.1,-1.13 0.34,-3.37c0.12,-1.18 0.23,-2.28 0.23,-2.46c0,-0.18 0.13,-1.52 0.29,-2.98c0.15,-1.46 0.31,-3.06 0.35,-3.56c0.04,-0.5 0.35,-3.76 0.69,-7.25c0.34,-3.49 0.64,-6.62 0.66,-6.96c0.02,-0.34 0.06,-0.62 0.1,-0.62c0.04,0 0.11,-0.16 0.15,-0.36c0.11,-0.49 0.71,-1.52 1.11,-1.89c0.18,-0.17 0.3,-0.34 0.28,-0.39c-0.03,-0.04 -0.02,-0.06 0.02,-0.02c0.04,0.03 0.3,-0.09 0.59,-0.26c0.28,-0.17 0.7,-0.35 0.91,-0.39c0.22,-0.05 0.41,-0.13 0.44,-0.17c0.03,-0.05 0.43,-0.05 0.89,0c0.46,0.05 0.88,0.06 0.93,0.03c0.05,-0.03 0.09,-0.01 0.09,0.04c0,0.06 0.23,0.21 0.51,0.34c0.69,0.32 1.3,0.88 1.75,1.62c0.21,0.33 0.43,0.67 0.49,0.75c0.06,0.08 0.09,0.17 0.06,0.21c-0.03,0.03 0.01,0.23 0.07,0.45c0.11,0.35 0.44,4.08 0.62,7.03c0.03,0.6 0.3,4.13 0.58,7.83c0.28,3.71 0.54,7.26 0.58,7.9c0.04,0.64 0.17,2.39 0.28,3.88c0.12,1.5 0.25,3.33 0.29,4.07c0.04,0.74 0.09,1.4 0.12,1.44c0.03,0.05 0.08,0.67 0.11,1.37c0.03,0.7 0.16,2.52 0.28,4.06c0.12,1.54 0.25,3.4 0.29,4.14c0.04,0.75 0.09,1.4 0.12,1.44c0.03,0.04 0.07,0.69 0.11,1.42c0.03,0.74 0.09,1.52 0.13,1.72c0.04,0.21 0.08,0.65 0.09,0.97c0.07,1.61 0.2,3.63 0.31,4.52c0.06,0.55 0.11,1.17 0.11,1.38c0,0.21 0.09,1.64 0.22,3.17c0.23,2.86 0.26,3.32 0.4,5.44c0.04,0.68 0.15,2.1 0.24,3.17c0.09,1.07 0.17,2.03 0.18,2.14c0.02,0.63 0.6,8.68 0.75,10.36c0.09,1.1 0.17,2.15 0.17,2.33c0,0.17 0.1,1.57 0.22,3.11c0.12,1.53 0.25,3.28 0.28,3.89c0.03,0.61 0.19,2.73 0.35,4.72c0.15,2 0.31,4.15 0.35,4.79c0.04,0.64 0.12,1.69 0.19,2.33c0.07,0.64 0.12,1.31 0.11,1.49c-0.01,0.18 0.33,4.75 0.74,10.17c0.87,11.62 0.84,11.16 0.86,11.65c0.01,0.22 0.16,2.34 0.34,4.73c0.18,2.38 0.36,4.91 0.4,5.62c0.04,0.7 0.1,1.33 0.13,1.4c0.03,0.06 0.09,0.32 0.12,0.57c0.05,0.44 0.56,1.73 0.68,1.73c0.04,0 0.03,-0.07 -0.02,-0.15c-0.05,-0.09 -0.03,-0.11 0.05,-0.05c0.08,0.05 0.11,0.15 0.07,0.22c-0.1,0.17 0.85,1.17 1.01,1.07c0.07,-0.05 0.09,-0.03 0.05,0.04c-0.09,0.16 0.98,0.71 1.45,0.75c0.17,0.01 0.35,0.07 0.39,0.11c0.15,0.17 1.06,0.08 1.8,-0.17c0.41,-0.15 1.01,-0.48 1.33,-0.75c0.56,-0.47 1.28,-1.37 1.28,-1.59c0,-0.06 0,-0.15 -0.01,-0.18c0,-0.04 0.07,-0.15 0.15,-0.25c0.09,-0.1 0.22,-0.52 0.29,-0.94c0.15,-0.88 0.64,-7.42 0.55,-7.52c-0.03,-0.03 -0.01,-0.2 0.04,-0.36c0.06,-0.16 0.13,-0.9 0.17,-1.64c0.04,-0.74 0.22,-3.29 0.41,-5.68c0.19,-2.39 0.34,-4.49 0.34,-4.67c0,-0.17 0.15,-2.3 0.34,-4.72c0.19,-2.42 0.38,-4.9 0.41,-5.5c0.04,-0.61 0.24,-3.37 0.46,-6.15c0.22,-2.78 0.43,-5.64 0.47,-6.35c0.14,-2.22 0.16,-2.57 0.22,-3.04c0.06,-0.52 1.08,-14.56 1.09,-14.95c0,-0.15 0.1,-1.51 0.23,-3.04c0.13,-1.53 0.22,-2.96 0.22,-3.17c-0.01,-0.21 0.02,-0.47 0.05,-0.58c0.1,-0.3 0.8,-10.37 0.73,-10.46c-0.03,-0.04 -0.02,-0.16 0.04,-0.29c0.06,-0.12 0.13,-0.87 0.17,-1.68c0.04,-0.8 0.09,-1.5 0.12,-1.56c0.03,-0.05 0.08,-0.73 0.12,-1.51c0.04,-0.78 0.14,-2.26 0.23,-3.29c0.14,-1.69 0.24,-2.97 0.37,-5.18c0.03,-0.39 0.19,-2.67 0.38,-5.05c0.19,-2.38 0.37,-4.86 0.4,-5.5c0.03,-0.64 0.17,-2.39 0.29,-3.89c0.12,-1.5 0.22,-2.87 0.2,-3.04c-0.01,-0.18 0.01,-0.44 0.05,-0.59c0.04,-0.14 0.11,-0.87 0.15,-1.62c0.18,-3.45 0.64,-8.65 0.82,-9.32c0.11,-0.39 0.19,-0.73 0.17,-0.75c-0.1,-0.13 1.47,-1.66 1.98,-1.91c1.68,-0.87 3.87,-0.29 4.95,1.32c0.21,0.31 0.42,0.52 0.47,0.47c0.05,-0.05 0.06,-0.03 0.02,0.05c-0.04,0.08 0.03,0.43 0.14,0.78c0.22,0.63 0.35,2.2 0.53,6.01c0.04,0.89 0.12,2.26 0.18,3.04c0.06,0.78 0.1,1.66 0.11,1.94c0,0.29 0.24,4.42 0.52,9.2c0.28,4.77 0.52,8.77 0.52,8.87c0.04,1.41 0.75,13.68 0.8,13.72c0.06,0.06 0.08,0.65 0.1,3.13c0.01,0.47 0.06,0.9 0.12,0.94c0.06,0.04 0.09,0.2 0.06,0.36c-0.06,0.34 0.52,11.6 0.62,11.88c0.04,0.11 0.06,0.43 0.05,0.71c-0.02,0.28 0.08,2.12 0.21,4.08c0.12,1.96 0.23,3.65 0.23,3.76c0.04,1.46 0.38,7.63 0.43,7.77c0.03,0.11 0.06,0.43 0.05,0.71c-0.01,0.29 0.12,2.59 0.27,5.11c0.16,2.53 0.29,4.69 0.3,4.79c0.07,2 0.28,5.55 0.33,5.51c0.04,-0.02 0.07,0.46 0.07,1.08c0.01,0.62 0.02,1.24 0.04,1.38c0.02,0.14 0.09,1.49 0.15,3c0.07,1.51 0.16,2.72 0.2,2.69c0.04,-0.02 0.07,0.48 0.08,1.14c0.01,1.64 0.02,2 0.22,4.88c0.09,1.39 0.17,2.62 0.18,2.72c0.02,1.08 0.49,9.57 0.53,9.71c0.03,0.11 0.05,0.56 0.04,1c-0.02,0.44 0.01,0.86 0.04,0.93c0.04,0.07 0.09,0.7 0.11,1.4c0.04,1.41 0.19,1.87 0.76,2.41c0.2,0.19 0.57,0.37 0.87,0.42c1.01,0.17 2.11,-0.83 2.13,-1.95c0.02,-0.81 0.09,-1.69 0.15,-1.88c0.1,-0.34 1.02,-10.64 0.96,-10.81c-0.03,-0.09 -0.01,-0.22 0.05,-0.29c0.06,-0.07 0.12,-0.68 0.13,-1.36c0.02,-0.68 0.07,-1.22 0.12,-1.18c0.05,0.03 0.09,-0.25 0.11,-0.63c0.05,-1.33 0.07,-1.59 0.12,-1.79c0.11,-0.37 0.68,-7.12 0.62,-7.32c-0.03,-0.11 -0.01,-0.19 0.06,-0.19c0.07,0 0.11,-0.23 0.08,-0.58c-0.03,-0.32 0.01,-0.58 0.06,-0.58c0.06,0 0.07,-0.32 0.04,-0.72c-0.04,-0.47 -0.03,-0.68 0.06,-0.63c0.08,0.05 0.1,-0.15 0.08,-0.58c-0.02,-0.36 -0.01,-0.66 0.03,-0.66c0.1,0 0.37,-3.33 0.29,-3.48c-0.04,-0.07 -0.02,-0.15 0.05,-0.17c0.06,-0.02 0.12,-0.63 0.14,-1.36c0.02,-0.72 0.07,-1.28 0.12,-1.25c0.05,0.03 0.1,-0.22 0.11,-0.56c0.02,-0.34 0.03,-0.86 0.05,-1.14c0.01,-0.29 0.05,-0.61 0.08,-0.71c0.05,-0.16 0.27,-2.61 0.3,-3.37c0.01,-0.11 0.24,-2.55 0.53,-5.44c0.28,-2.88 0.49,-5.43 0.47,-5.65c-0.03,-0.23 -0.01,-0.43 0.05,-0.46c0.06,-0.02 0.12,-0.6 0.14,-1.29c0.02,-0.68 0.06,-1.23 0.09,-1.21c0.06,0.04 0.43,-3.65 0.54,-5.32c0.02,-0.35 0.17,-1.93 0.33,-3.49c0.16,-1.57 0.27,-3.03 0.25,-3.26c-0.02,-0.23 -0.01,-0.39 0.03,-0.36c0.11,0.08 0.38,-3.51 0.28,-3.7c-0.05,-0.1 -0.04,-0.13 0.02,-0.09c0.14,0.09 0.67,-5.57 0.56,-5.9c-0.04,-0.13 -0.03,-0.23 0.03,-0.23c0.06,0 0.2,-1.06 0.31,-2.36c0.12,-1.3 0.28,-2.65 0.36,-3c0.08,-0.36 0.12,-0.7 0.08,-0.77c-0.03,-0.07 -0.01,-0.08 0.06,-0.04c0.06,0.05 0.19,-0.1 0.27,-0.31c0.19,-0.53 1.08,-1.54 1.72,-1.96c1.43,-0.94 2.96,-0.98 4.5,-0.1c0.36,0.21 0.67,0.36 0.69,0.35c0.02,-0.01 0.03,0 0.02,0.03c-0.02,0.03 0.21,0.33 0.49,0.68c0.54,0.64 1.03,1.67 1.15,2.39c0.08,0.46 1.54,19.2 1.55,19.8c0,0.21 0.11,1.58 0.23,3.04c0.12,1.46 0.22,2.98 0.22,3.36c0,0.55 0.03,0.67 0.12,0.52c0.09,-0.15 0.1,-0.09 0.05,0.23c-0.07,0.42 0.37,7.16 0.49,7.54c0.03,0.11 0.05,0.25 0.03,0.32c-0.06,0.29 0.51,7.29 0.59,7.24c0.05,-0.03 0.06,0.03 0.02,0.15c-0.1,0.28 0.44,7.57 0.56,7.5c0.05,-0.03 0.06,0.03 0.02,0.15c-0.08,0.22 0.16,4.27 0.28,4.59c0.03,0.11 0.05,0.29 0.04,0.4c-0.02,0.11 0.22,3.35 0.5,7.19c0.29,3.84 0.56,7.46 0.6,8.05c0.04,0.59 0.12,1.07 0.17,1.07c0.06,0 0.07,0.06 0.03,0.13c-0.09,0.17 0.06,2.99 0.16,2.92c0.04,-0.03 0.06,0.19 0.04,0.49c-0.02,0.3 0.1,2.08 0.26,3.97c0.16,1.88 0.29,3.6 0.28,3.79c0,0.2 0.14,0.66 0.32,1.03c0.61,1.26 2.09,1.63 3.16,0.79c0.74,-0.58 0.83,-0.91 1.35,-5.3c0.26,-2.2 0.46,-4.13 0.43,-4.29c-0.03,-0.16 -0.01,-0.26 0.03,-0.23c0.11,0.07 0.51,-3.51 0.42,-3.76c-0.04,-0.13 -0.02,-0.17 0.06,-0.11c0.09,0.06 0.12,-0.08 0.09,-0.44c-0.03,-0.29 -0.01,-0.5 0.03,-0.47c0.11,0.08 0.25,-1.85 0.15,-2.03c-0.06,-0.1 -0.04,-0.12 0.06,-0.05c0.11,0.08 0.14,-0.01 0.1,-0.37c-0.03,-0.26 -0.02,-0.47 0.03,-0.47c0.04,0 0.13,-0.54 0.2,-1.2c0.07,-0.66 0.24,-2.1 0.37,-3.2c0.13,-1.1 0.22,-2.11 0.19,-2.23c-0.03,-0.13 -0.02,-0.23 0.03,-0.23c0.11,0 0.51,-3.58 0.42,-3.75c-0.03,-0.06 -0.02,-0.14 0.03,-0.16c0.11,-0.05 1.23,-9.34 1.23,-10.23c0,-0.33 0.03,-0.58 0.06,-0.56c0.11,0.07 0.37,-2.76 0.27,-2.94c-0.05,-0.09 -0.03,-0.12 0.03,-0.08c0.07,0.05 0.17,-0.47 0.26,-1.24c0.08,-0.73 0.25,-2.16 0.37,-3.18c0.13,-1.02 0.21,-1.97 0.18,-2.1c-0.03,-0.14 -0.02,-0.24 0.03,-0.24c0.11,0 0.5,-3.59 0.41,-3.76c-0.04,-0.07 -0.03,-0.13 0.03,-0.13c0.12,0 0.65,-4.58 0.56,-4.86c-0.04,-0.12 -0.03,-0.17 0.03,-0.14c0.06,0.04 0.13,-0.23 0.17,-0.59c0.1,-0.94 0.66,-2.2 1.34,-3c0.32,-0.38 0.56,-0.73 0.52,-0.78c-0.03,-0.05 -0.03,-0.06 0.02,-0.03c0.04,0.03 0.34,-0.11 0.66,-0.31c0.33,-0.21 0.89,-0.46 1.24,-0.57c0.73,-0.21 1.77,-0.31 1.9,-0.17c0.12,0.15 0.56,0.1 0.73,-0.07c0.14,-0.14 0.14,-0.13 0.01,0.07c-0.13,0.19 -0.12,0.22 0.04,0.22c0.49,0 1.54,0.73 2.28,1.58c0.43,0.49 0.75,0.95 0.71,1.02c-0.03,0.07 -0.02,0.12 0.04,0.12c0.12,0 0.71,1.93 0.71,2.33c0,0.15 0.04,0.25 0.09,0.21c0.05,-0.03 0.09,0.21 0.11,0.53c0.02,0.32 0.07,0.63 0.12,0.66c0.05,0.04 0.09,0.18 0.1,0.31c0.03,0.78 0.05,0.88 0.18,0.79c0.08,-0.06 0.1,-0.03 0.04,0.06c-0.04,0.09 -0.03,0.43 0.04,0.77c0.06,0.33 0.41,2.12 0.77,3.98c0.36,1.85 0.7,3.38 0.75,3.41c0.06,0.02 0.07,0.1 0.04,0.16c-0.09,0.16 0.63,3.93 0.76,3.98c0.06,0.02 0.08,0.1 0.04,0.16c-0.03,0.06 0.04,0.65 0.16,1.31c0.57,3.07 0.75,3.84 0.86,3.77c0.06,-0.05 0.08,-0.01 0.03,0.08c-0.12,0.22 0.18,1.83 0.32,1.73c0.07,-0.04 0.08,-0.01 0.03,0.08c-0.12,0.21 0.64,4.16 0.78,4.07c0.06,-0.04 0.07,-0.01 0.03,0.07c-0.12,0.22 0.4,2.88 0.54,2.78c0.06,-0.04 0.08,-0.01 0.03,0.07c-0.09,0.17 -0.02,0.67 0.61,3.84c0.25,1.28 0.65,3.33 0.89,4.56c0.24,1.22 0.47,2.2 0.53,2.16c0.05,-0.03 0.06,0.02 0.03,0.12c-0.08,0.24 0.87,5.18 1,5.24c0.06,0.02 0.07,0.1 0.04,0.16c-0.11,0.21 0.66,4 0.8,3.91c0.09,-0.06 0.09,-0.03 0.01,0.11c-0.14,0.21 0.19,1.88 0.33,1.72c0.05,-0.05 0.06,0 0.02,0.12c-0.12,0.35 0.52,1.5 1.15,2.09c0.7,0.65 1.42,0.98 1.57,0.71c0.08,-0.14 0.1,-0.13 0.1,0.05c0,0.21 0.21,0.23 2.56,0.24c1.41,0.01 3.48,0.05 4.61,0.1c1.13,0.04 2.18,0.04 2.33,-0.01c0.16,-0.05 0.25,-0.03 0.22,0.03c-0.03,0.06 0.01,0.12 0.1,0.12c0.09,0 0.41,0.15 0.71,0.32c0.3,0.18 0.61,0.29 0.68,0.24c0.07,-0.04 0.1,-0.04 0.05,0.01c-0.05,0.06 0.12,0.36 0.36,0.67c0.55,0.7 0.78,1.24 0.95,2.18c0.25,1.42 -0.37,3.1 -1.49,4.02c-1.04,0.86 -1.11,0.86 -6.81,0.81c-5.07,-0.05 -5.12,-0.05 -6.2,-0.38c-1.12,-0.34 -2.34,-0.95 -3.97,-1.98c-1.14,-0.72 -2.67,-1.4 -2.95,-1.32c-0.12,0.03 -0.19,0.02 -0.15,-0.04c0.05,-0.09 -1.29,-0.37 -1.95,-0.41c-0.74,-0.05 -2.4,0.04 -2.99,0.16c-1.04,0.2 -2.26,0.63 -2.18,0.77c0.03,0.07 -0.01,0.09 -0.1,0.05c-0.41,-0.17 -3.52,1.98 -3.34,2.31c0.05,0.08 0.02,0.1 -0.07,0.03c-0.32,-0.23 -2.81,3.29 -2.81,3.96c0,0.12 -0.03,0.2 -0.08,0.17c-0.08,-0.06 -0.43,0.79 -0.72,1.77c-0.28,0.93 -0.56,2.68 -0.51,3.1c0.03,0.2 0.01,0.35 -0.03,0.32c-0.1,-0.07 -0.74,5.45 -0.65,5.69c0.04,0.12 0.03,0.18 -0.03,0.14c-0.12,-0.08 -0.29,1.54 -0.19,1.73c0.04,0.07 0.03,0.14 -0.03,0.14c-0.12,0 -0.54,3.55 -0.44,3.74c0.04,0.07 0.03,0.15 -0.03,0.17c-0.12,0.06 -1.22,9.49 -1.13,9.75c0.04,0.11 0.03,0.18 -0.02,0.15c-0.05,-0.03 -0.33,2.02 -0.63,4.56c-0.3,2.54 -0.78,6.62 -1.07,9.07c-0.58,4.9 -0.7,5.47 -1.49,6.56c-0.28,0.38 -0.46,0.73 -0.42,0.78c0.05,0.05 0.03,0.06 -0.04,0.02c-0.07,-0.04 -0.35,0.09 -0.63,0.31c-0.9,0.67 -2.03,0.94 -3.19,0.76c-0.89,-0.15 -1.64,-0.56 -2.4,-1.33c-0.32,-0.32 -0.62,-0.56 -0.65,-0.53c-0.04,0.03 -0.05,0.02 -0.02,-0.02c0.03,-0.04 -0.1,-0.41 -0.28,-0.81c-0.45,-0.96 -0.52,-1.39 -0.76,-4.77c-0.11,-1.58 -0.25,-2.88 -0.3,-2.88c-0.06,0 -0.06,-0.06 -0.03,-0.14c0.11,-0.2 -0.31,-5.95 -0.43,-5.95c-0.06,0 -0.07,-0.12 -0.03,-0.26c0.09,-0.33 -0.64,-10.27 -0.76,-10.33c-0.05,-0.02 -0.06,-0.13 -0.02,-0.23c0.1,-0.29 -0.33,-5.93 -0.46,-6.02c-0.06,-0.05 -0.07,-0.15 -0.03,-0.22c0.09,-0.17 -0.05,-2.88 -0.15,-2.81c-0.04,0.02 -0.07,-0.37 -0.07,-0.88c-0.01,-1.23 -0.54,-8.24 -0.62,-8.18c-0.04,0.02 -0.07,-0.34 -0.07,-0.82c-0.01,-1.04 -0.13,-3.08 -0.28,-4.49c-0.06,-0.57 -0.12,-1.25 -0.15,-1.52c-0.06,-0.64 -0.6,-1.84 -1.09,-2.46c-0.48,-0.6 -1.34,-1.2 -1.53,-1.06c-0.09,0.06 -0.11,0.04 -0.05,-0.06c0.04,-0.08 0.06,-0.15 0.05,-0.15c-0.02,0 -0.4,-0.09 -0.84,-0.19c-1.47,-0.35 -2.97,0.14 -4.02,1.3c-0.59,0.65 -1.27,2.03 -1.18,2.39c0.03,0.13 0.01,0.26 -0.04,0.28c-0.12,0.05 -0.39,2.9 -0.3,3.15c0.04,0.1 0.01,0.18 -0.06,0.18c-0.08,0 -0.11,0.27 -0.08,0.7c0.02,0.38 0.01,0.68 -0.03,0.65c-0.11,-0.07 -0.83,8.3 -0.75,8.63c0.06,0.24 0.05,0.27 -0.04,0.12c-0.09,-0.15 -0.12,-0.05 -0.12,0.39c0,0.32 0.06,0.67 0.14,0.78c0.12,0.15 0.11,0.15 -0.07,-0.01c-0.2,-0.17 -0.21,-0.15 -0.17,0.49c0.03,0.37 0.01,0.69 -0.04,0.71c-0.05,0.01 -0.1,0.57 -0.12,1.23c-0.02,0.66 -0.08,1.2 -0.13,1.2c-0.06,0 -0.08,0.29 -0.06,0.65c0.03,0.35 0.01,0.66 -0.03,0.68c-0.07,0.03 -0.83,8.12 -0.78,8.33c0.01,0.07 -0.02,0.22 -0.06,0.34c-0.05,0.13 -0.07,0.46 -0.05,0.75c0.03,0.28 0.02,0.53 -0.03,0.55c-0.1,0.05 -1.28,13.04 -1.2,13.19c0.04,0.07 0.01,0.21 -0.06,0.31c-0.07,0.1 -0.12,0.41 -0.11,0.68c0.02,0.27 -0.01,0.59 -0.06,0.72c-0.05,0.13 -0.06,0.43 -0.04,0.68c0.03,0.25 0.01,0.46 -0.03,0.46c-0.11,0 -0.37,3.59 -0.28,3.76c0.05,0.09 0.04,0.13 -0.03,0.08c-0.1,-0.07 -0.44,3.01 -0.37,3.35c0.01,0.06 -0.01,0.21 -0.04,0.31c-0.12,0.34 -0.46,4.64 -0.38,4.78c0.04,0.08 0.02,0.14 -0.05,0.14c-0.09,0 -0.12,0.23 -0.09,0.7c0.02,0.38 0.01,0.68 -0.03,0.65c-0.07,-0.05 -0.27,1.13 -0.25,1.47c0.01,0.1 -0.02,0.14 -0.05,0.1c-0.08,-0.09 -0.59,1 -0.53,1.12c0.03,0.06 0.01,0.08 -0.04,0.07c-0.06,-0.02 -0.32,0.19 -0.59,0.47c-0.27,0.29 -0.62,0.62 -0.78,0.73c-0.16,0.12 -0.28,0.25 -0.27,0.31c0.01,0.05 -0.02,0.13 -0.06,0.17c-0.05,0.05 -0.04,0.01 0.01,-0.1c0.07,-0.14 0.04,-0.16 -0.11,-0.1c-0.11,0.05 -0.25,0.09 -0.31,0.09c-0.06,0 -0.08,0.05 -0.05,0.12c0.04,0.07 -0.05,0.09 -0.19,0.04c-0.24,-0.07 -0.25,-0.06 -0.09,0.16c0.16,0.22 0.15,0.22 -0.07,0.07c-0.18,-0.13 -0.4,-0.14 -0.88,-0.04c-0.36,0.07 -0.71,0.07 -0.8,0.01c-0.08,-0.06 -0.28,-0.11 -0.45,-0.11c-0.52,-0.01 -1.87,-0.86 -2.44,-1.54c-0.29,-0.35 -0.56,-0.61 -0.59,-0.59c-0.03,0.03 -0.04,0.02 -0.02,-0.02c0.03,-0.04 -0.08,-0.4 -0.24,-0.78c-0.17,-0.41 -0.31,-1.05 -0.34,-1.51c-0.03,-0.44 -0.08,-0.88 -0.1,-0.98c-0.03,-0.1 -0.08,-0.97 -0.11,-1.94c-0.03,-0.97 -0.09,-1.94 -0.13,-2.16c-0.04,-0.21 -0.06,-0.5 -0.05,-0.64c0.01,-0.15 -0.13,-3.03 -0.33,-6.41c-0.19,-3.38 -0.38,-6.84 -0.42,-7.68c-0.04,-0.83 -0.12,-1.52 -0.17,-1.52c-0.05,0 -0.06,-0.09 -0.03,-0.2c0.09,-0.26 -0.56,-12.03 -0.66,-12.07c-0.05,-0.02 -0.06,-0.26 -0.03,-0.52c0.03,-0.26 0,-1.24 -0.06,-2.16c-0.06,-0.93 -0.15,-2.35 -0.19,-3.17c-0.04,-0.82 -0.17,-3.09 -0.28,-5.05c-0.12,-1.96 -0.25,-4.35 -0.28,-5.31c-0.04,-0.96 -0.11,-1.92 -0.15,-2.14c-0.04,-0.21 -0.06,-0.47 -0.05,-0.56c0.05,-0.29 -0.34,-6.54 -0.42,-6.68c-0.04,-0.07 -0.08,-0.27 -0.1,-0.44c-0.06,-0.61 -0.66,-1.71 -1.33,-2.42c-0.4,-0.43 -0.73,-0.68 -0.8,-0.63c-0.08,0.06 -0.1,0.04 -0.06,-0.04c0.11,-0.2 -0.93,-0.66 -1.78,-0.8c-1.86,-0.3 -3.64,0.61 -4.73,2.4c-0.24,0.39 -0.51,1 -0.6,1.36c-0.13,0.52 -0.63,6.1 -0.63,7.16c0,0.15 -0.23,3.26 -0.52,6.93c-0.28,3.67 -0.54,7.17 -0.58,7.77c-0.03,0.61 -0.14,2 -0.23,3.11c-0.09,1.1 -0.16,2.15 -0.16,2.33c0,0.18 -0.15,2.28 -0.34,4.66c-0.32,4 -0.44,5.64 -0.55,7.51c-0.02,0.39 -0.17,2.32 -0.32,4.27c-0.15,1.96 -0.31,4.08 -0.35,4.73c-0.04,0.64 -0.1,1.47 -0.13,1.84c-0.05,0.47 -0.03,0.68 0.06,0.68c0.07,0 0.13,0.06 0.13,0.14c0,0.08 -0.05,0.1 -0.11,0.06c-0.12,-0.09 -0.25,0.49 -0.24,1.1c0.01,0.24 -0.07,1.38 -0.17,2.51c-0.1,1.14 -0.16,2.23 -0.14,2.43c0.03,0.19 0.01,0.35 -0.04,0.35c-0.07,0 -0.19,1.58 -0.29,3.66c-0.02,0.41 -0.06,0.91 -0.1,1.1c-0.03,0.19 -0.09,0.91 -0.13,1.58c-0.03,0.68 -0.14,2.13 -0.23,3.24c-0.09,1.1 -0.16,2.18 -0.15,2.39c0.01,0.22 -0.01,0.48 -0.05,0.59c-0.05,0.15 -0.72,9.39 -0.77,10.49c-0.01,0.11 -0.08,1.1 -0.18,2.2c-0.17,2.01 -1.24,16.18 -1.25,16.61c-0.01,0.13 -0.05,0.23 -0.1,0.23c-0.05,0 -0.09,0.07 -0.09,0.16c0,0.09 -0.18,0.47 -0.39,0.83c-0.24,0.42 -0.35,0.72 -0.28,0.81c0.07,0.09 0.06,0.1 -0.03,0.02c-0.08,-0.07 -0.3,0.03 -0.62,0.31c-0.28,0.24 -0.72,0.52 -0.99,0.64c-0.49,0.21 -2.12,0.47 -2.22,0.35c-0.08,-0.09 -1.23,-0.55 -1.46,-0.59c-0.11,-0.01 -0.24,-0.08 -0.29,-0.14c-0.05,-0.06 -0.01,-0.06 0.09,-0.01c0.09,0.06 -0.03,-0.1 -0.29,-0.33c-0.25,-0.24 -0.49,-0.42 -0.54,-0.41c-0.05,0.02 -0.08,-0.01 -0.06,-0.06c0.01,-0.05 -0.11,-0.36 -0.28,-0.68c-0.52,-1.01 -0.63,-1.64 -0.83,-4.92c-0.1,-1.64 -0.54,-7.68 -0.59,-8.07c-0.02,-0.2 -0.11,-0.46 -0.19,-0.58c-0.11,-0.15 -0.12,-0.18 -0.01,-0.11c0.08,0.05 0.14,0.03 0.14,-0.05c0,-0.19 -1.42,-19.48 -2.36,-32.05c-0.4,-5.41 -0.76,-10.34 -0.8,-10.94c-0.04,-0.61 -0.19,-2.7 -0.35,-4.66c-0.16,-1.96 -0.29,-3.65 -0.29,-3.76c-0.01,-0.39 -0.34,-5.13 -0.39,-5.63c-0.03,-0.29 -0.08,-1.05 -0.11,-1.69c-0.04,-0.64 -0.11,-1.72 -0.18,-2.39c-0.06,-0.68 -0.3,-3.91 -0.53,-7.19c-0.23,-3.28 -0.44,-6.05 -0.48,-6.15c-0.05,-0.17 -0.12,-1.19 -0.14,-2.07c-0.02,-0.84 -0.37,-5.07 -0.48,-5.76c-0.31,-2.01 -1.45,-4.35 -2.74,-5.66c-1.45,-1.48 -3.45,-2.49 -5.28,-2.67c-1.07,-0.11 -2.82,0.04 -2.88,0.24c-0.02,0.07 -0.09,0.1 -0.15,0.06c-0.23,-0.16 -2.8,1.04 -2.68,1.26c0.03,0.06 0.02,0.11 -0.03,0.09c-0.24,-0.04 -0.4,0.05 -0.94,0.61c-0.32,0.32 -0.56,0.65 -0.51,0.73c0.04,0.08 0.02,0.1 -0.06,0.04c-0.37,-0.26 -2.26,3.05 -2.36,4.13c-0.01,0.15 -0.06,0.33 -0.09,0.4c-0.11,0.2 -0.31,1.58 -0.38,2.65c-0.03,0.53 -0.14,1.67 -0.23,2.52c-0.09,0.85 -0.2,1.93 -0.23,2.39c-0.12,1.44 -0.16,1.89 -0.62,6.54c-0.25,2.49 -0.45,4.65 -0.45,4.79c0,0.14 -0.06,0.72 -0.13,1.27c-0.07,0.56 -0.11,1.09 -0.08,1.17c0.03,0.08 0.01,0.24 -0.05,0.35c-0.05,0.11 -0.12,0.67 -0.16,1.23c-0.04,0.57 -0.12,1.46 -0.18,2c-0.2,1.82 -2.03,21.07 -2.05,21.5c-0.01,0.11 -0.06,0.62 -0.12,1.13c-0.06,0.52 -0.15,1.37 -0.19,1.88c-0.04,0.51 -0.24,2.68 -0.46,4.82c-0.22,2.14 -0.42,4.29 -0.46,4.79c-0.04,0.5 -0.17,1.9 -0.3,3.11c-0.17,1.65 -0.19,2.26 -0.1,2.44c0.07,0.14 0.08,0.21 0.01,0.16c-0.19,-0.13 -0.23,0.08 -0.3,1.34c-0.03,0.66 -0.08,1.24 -0.11,1.29c-0.03,0.05 -0.08,0.55 -0.12,1.12c-0.04,0.56 -0.25,2.78 -0.46,4.91c-0.22,2.14 -0.4,4.03 -0.4,4.21c-0.03,1.21 -0.46,4.59 -0.65,5.18c-0.22,0.69 -0.68,1.48 -1.18,2c-0.19,0.2 -0.32,0.42 -0.29,0.48c0.03,0.06 -0.02,0.07 -0.11,0.03c-0.09,-0.04 -0.28,0.05 -0.41,0.19c-0.13,0.15 -0.28,0.27 -0.33,0.26c-0.05,-0.01 -0.29,0.06 -0.55,0.14c-0.37,0.12 -0.56,0.11 -0.95,-0.05c-0.27,-0.11 -0.49,-0.17 -0.49,-0.14c0,0.03 -0.11,-0.06 -0.24,-0.21c-0.15,-0.16 -0.31,-0.24 -0.43,-0.18c-0.1,0.04 -0.15,0.04 -0.11,-0.01c0.04,-0.05 -0.17,-0.4 -0.47,-0.78c-0.78,-0.96 -1.16,-1.89 -1.24,-3.03c-0.03,-0.39 -0.08,-0.86 -0.12,-1.04c-0.04,-0.18 -0.09,-0.53 -0.1,-0.78c-0.08,-1.19 -0.2,-2.52 -0.35,-3.88c-0.09,-0.82 -0.18,-1.64 -0.18,-1.81c0,-0.18 -0.1,-1.26 -0.22,-2.4c-0.12,-1.14 -0.25,-2.48 -0.28,-2.98c-0.03,-0.49 -0.1,-1.08 -0.14,-1.29c-0.04,-0.21 -0.07,-0.5 -0.06,-0.64c0.01,-0.15 -0.14,-1.72 -0.33,-3.5c-0.19,-1.78 -0.35,-3.36 -0.35,-3.51c0,-0.15 -0.28,-3.14 -0.63,-6.67c-0.35,-3.52 -0.64,-6.49 -0.64,-6.59c-0.01,-0.21 -0.89,-9.48 -1.54,-16.26c-0.22,-2.35 -0.67,-6.86 -0.98,-10.03c-0.32,-3.17 -0.58,-5.88 -0.58,-6.02c0,-0.14 -0.07,-0.95 -0.16,-1.81c-0.09,-0.85 -0.19,-2.01 -0.23,-2.56c-0.04,-0.56 -0.12,-1.15 -0.17,-1.31c-0.06,-0.17 -0.08,-0.33 -0.05,-0.36c0.06,-0.06 -0.6,-7.06 -0.71,-7.59c-0.04,-0.19 -0.1,-0.4 -0.14,-0.47c-0.03,-0.07 -0.08,-0.26 -0.09,-0.43c-0.05,-0.48 -0.91,-2.36 -1.45,-3.15c-1.21,-1.77 -3.12,-3.18 -5.1,-3.75c-1.24,-0.36 -3.11,-0.36 -4.31,-0.01c-1.47,0.43 -2.83,1.24 -3.98,2.37c-0.34,0.33 -0.38,0.43 -0.25,0.61c0.13,0.18 0.12,0.19 -0.04,0.04c-0.16,-0.14 -0.24,-0.09 -0.56,0.36c-0.2,0.29 -0.32,0.52 -0.27,0.52c0.05,0.01 0.01,0.06 -0.11,0.14c-0.21,0.14 -0.61,0.9 -0.47,0.9c0.05,0 -0.01,0.07 -0.11,0.16c-0.45,0.38 -1.08,2.87 -1.18,4.7c-0.04,0.63 -0.17,2.41 -0.29,3.94c-0.12,1.53 -0.22,2.93 -0.22,3.11c0,0.18 -0.13,1.99 -0.29,4.01c-0.16,2.03 -0.28,3.78 -0.27,3.89c0.01,0.11 -0.02,0.37 -0.06,0.58c-0.04,0.22 -0.11,0.94 -0.14,1.62c-0.03,0.68 -0.08,1.38 -0.1,1.56c-0.05,0.3 -0.28,3.69 -0.28,4.14c0,0.11 -0.24,3.23 -0.52,6.93c-0.46,6.07 -1.89,25.49 -1.9,25.96c0,0.11 -0.08,1.04 -0.17,2.07c-0.09,1.03 -0.2,2.43 -0.24,3.11c-0.04,0.68 -0.33,4.61 -0.64,8.74c-0.31,4.13 -0.56,7.63 -0.55,7.77c0.01,0.14 -0.02,0.43 -0.06,0.64c-0.04,0.21 -0.1,0.99 -0.14,1.73c-0.03,0.74 -0.08,1.39 -0.11,1.43c-0.03,0.05 -0.08,0.75 -0.11,1.55c-0.03,0.8 -0.09,1.5 -0.12,1.55c-0.03,0.05 -0.09,0.74 -0.13,1.52c-0.04,0.78 -0.17,2.67 -0.29,4.19c-0.12,1.53 -0.19,2.82 -0.15,2.88c0.03,0.06 0.02,0.11 -0.03,0.11c-0.06,0 -0.19,0.28 -0.29,0.62c-0.11,0.34 -0.37,0.85 -0.6,1.15c-0.22,0.29 -0.37,0.57 -0.32,0.62c0.04,0.05 0.03,0.08 -0.03,0.06c-0.17,-0.05 -0.53,0.15 -0.46,0.26c0.03,0.05 -0.01,0.1 -0.09,0.11c-0.12,0.01 -0.9,0.33 -1.58,0.67c-0.1,0.04 -0.54,0.04 -0.98,0l-0.03,0.03zm142.48,-61.82c0,-0.22 0.03,-0.29 0.06,-0.16c0.03,0.13 0.03,0.3 -0.01,0.39c-0.03,0.09 -0.06,-0.01 -0.05,-0.23l0,0zm-164.73,-10.76c0.01,-0.15 0.03,-0.18 0.07,-0.08c0.03,0.09 0.03,0.2 -0.01,0.25c-0.04,0.04 -0.07,-0.03 -0.06,-0.17zm166.9,-6.73c0.01,-0.16 0.03,-0.18 0.07,-0.08c0.03,0.1 0.03,0.21 -0.01,0.25c-0.04,0.04 -0.07,-0.03 -0.06,-0.17l0,0zm-208.2,-0.26c0,-0.15 0.03,-0.18 0.07,-0.08c0.03,0.09 0.03,0.2 -0.01,0.25c-0.04,0.04 -0.07,-0.03 -0.06,-0.17l0,0zm15.07,-5.31c0,-0.15 0.03,-0.18 0.07,-0.08c0.03,0.1 0.03,0.21 -0.01,0.25c-0.04,0.04 -0.07,-0.03 -0.06,-0.17l0,0zm177.03,-13.08c0.01,-0.15 0.03,-0.18 0.07,-0.08c0.03,0.09 0.03,0.2 -0.01,0.25c-0.04,0.04 -0.07,-0.03 -0.06,-0.17l0,0zm-142.36,-7.82c0.04,-0.07 0.09,-0.13 0.12,-0.13c0.03,0 0.05,0.06 0.05,0.13c0,0.07 -0.05,0.13 -0.12,0.13c-0.07,0 -0.09,-0.06 -0.05,-0.13zm98.64,-4.61c0.01,-0.15 0.03,-0.18 0.07,-0.08c0.03,0.09 0.03,0.2 -0.01,0.25c-0.04,0.04 -0.07,-0.03 -0.06,-0.17zm48.89,-32.89c0.01,-0.15 0.03,-0.18 0.07,-0.08c0.03,0.09 0.03,0.2 -0.01,0.25c-0.04,0.04 -0.07,-0.03 -0.06,-0.17l0,0zm-0.91,-10.03c0,-0.18 0.03,-0.25 0.06,-0.16c0.03,0.09 0.03,0.24 0,0.32c-0.03,0.09 -0.06,0.01 -0.06,-0.16zm-210.34,-5.99c0.04,-0.13 0.11,-0.2 0.14,-0.16c0.03,0.04 0,0.14 -0.08,0.23c-0.11,0.13 -0.12,0.11 -0.06,-0.07l0,0zm209.41,-7.03c0.01,-0.15 0.03,-0.18 0.07,-0.08c0.03,0.09 0.03,0.2 -0.01,0.25c-0.04,0.04 -0.06,-0.03 -0.06,-0.17l0,0zm-38.3,-61.12c0.01,-0.15 0.03,-0.18 0.07,-0.08c0.03,0.09 0.03,0.2 -0.01,0.25c-0.04,0.04 -0.07,-0.03 -0.06,-0.17l0,0z" fill="#f90000" id="path166" opacity="0.7" stroke-width="1.33"/>
  </g>
  <g fill="#ffffff" id="layer3" stroke-width="1.61" transform="matrix(1, 0, 0, 1, 0, 0) matrix(0.621744, 0, 0, 0.621744, 114.918, 277.737)"/>
  <g fill="#ffffff" id="g1337" stroke-width="0.63" transform="matrix(1, 0, 0, 1, 0, 0) matrix(1.57774, 0, 0, 1.57774, 33.9483, 179.684)">
   <circle cx="150.36" cy="53.38" fill="#ffffff" id="circle1281" opacity="0.9" r="32.5" stroke-linejoin="bevel" stroke-miterlimit="4" stroke-width="5.7"/>
   <text fill="#000000" font-family="sans-serif" font-size="40px" font-style="normal" font-weight="normal" id="text1289" letter-spacing="0px" stroke-width="0.63" word-spacing="0px" x="130.97" xml:space="preserve" y="70.54">
    <tspan fill="#000000" font-size="64px" id="tspan1287" stroke-width="0.63" x="130.97" y="70.54">o</tspan>
   </text>
  </g>
  <g fill="#ffffff" id="g1332" stroke-width="0.63" transform="matrix(1.57774, 0, 0, 1.57774, -76.35, 289.515)">
   <circle cx="260.55" cy="-43.36" fill="#ffffff" id="path1222" opacity="0.9" r="32.5" stroke-linejoin="bevel" stroke-miterlimit="4" stroke-width="5.7"/>
   <text fill="#000000" font-family="sans-serif" font-size="40px" font-style="normal" font-weight="normal" id="text1301" letter-spacing="0px" stroke-width="0.63" word-spacing="0px" x="244.3" xml:space="preserve" y="-26.21">
    <tspan fill="#000000" font-size="64px" id="tspan1299" stroke-width="0.63" x="244.3" y="-26.21">v</tspan>
   </text>
  </g>
  <g fill="#ffffff" id="g1342" stroke-width="0.63" transform="matrix(1, 0, 0, 1, 0, 0) matrix(1.57774, 0, 0, 1.57774, -200.318, 341.502)">
   <circle cx="367.86" cy="-36.13" fill="#ffffff" id="circle1283" opacity="0.9" r="32.5" stroke-linejoin="bevel" stroke-miterlimit="4" stroke-width="5.7"/>
   <text fill="#000000" font-family="sans-serif" font-size="40px" font-style="normal" font-weight="normal" id="text1289-2" letter-spacing="0px" stroke-width="0.63" word-spacing="0px" x="348.47" xml:space="preserve" y="-18.98">
    <tspan fill="#000000" font-size="64px" id="tspan1287-6" stroke-width="0.63" x="348.47" y="-18.98">o</tspan>
   </text>
  </g>
  <g fill="#ffffff" id="g1327" stroke-width="0.63" transform="matrix(1, 0, 0, 1, 0, 0) matrix(1.57774, 0, 0, 1.57774, -89.492, 234.158)">
   <circle cx="255.49" cy="63.98" fill="#ffffff" id="circle1285" opacity="0.9" r="32.5" stroke-linejoin="bevel" stroke-miterlimit="4" stroke-width="5.7"/>
   <text fill="#000000" font-family="sans-serif" font-size="40px" font-style="normal" font-weight="normal" id="text1293" letter-spacing="0px" stroke-width="0.63" word-spacing="0px" x="237.8" xml:space="preserve" y="86.82">
    <tspan fill="#000000" font-size="64px" id="tspan1291" stroke-width="0.63" x="237.8" y="86.82">S</tspan>
    <tspan fill="#000000" font-size="64px" id="tspan1295" stroke-width="0.63" x="237.8" y="144.99"/>
   </text>
  </g>
 </g>
</svg>