<?xml version="1.0" encoding="UTF-8" standalone="no"?>
<!-- Created with Inkscape (http://www.inkscape.org/) -->

<svg
   width="446.05988"
   height="446.05988"
   viewBox="0 0 446.05988 446.05989"
   version="1.1"
   id="SVGRoot"
   inkscape:version="1.3 (0e150ed6c4, 2023-07-21)"
   sodipodi:docname="ovos-logo-sticker-egg-standalone.svg"
   inkscape:export-filename="..\..\..\..\..\OneDrive\Desktop\crossblack.png"
   inkscape:export-xdpi="96"
   inkscape:export-ydpi="96"
   xmlns:inkscape="http://www.inkscape.org/namespaces/inkscape"
   xmlns:sodipodi="http://sodipodi.sourceforge.net/DTD/sodipodi-0.dtd"
   xmlns:xlink="http://www.w3.org/1999/xlink"
   xmlns="http://www.w3.org/2000/svg"
   xmlns:svg="http://www.w3.org/2000/svg"
   xmlns:rdf="http://www.w3.org/1999/02/22-rdf-syntax-ns#"
   xmlns:cc="http://creativecommons.org/ns#"
   xmlns:dc="http://purl.org/dc/elements/1.1/">
  <defs
     id="defs35">
    <inkscape:perspective
       sodipodi:type="inkscape:persp3d"
       inkscape:vp_x="0 : 256.00001 : 1"
       inkscape:vp_y="0 : 1000 : 0"
       inkscape:vp_z="512.00006 : 256 : 1"
       inkscape:persp3d-origin="256.00003 : 170.66667 : 1"
       id="perspective1206" />
    <linearGradient
       inkscape:collect="always"
       id="linearGradient919">
      <stop
         style="stop-color:#00000a;stop-opacity:1;"
         offset="0"
         id="stop915" />
      <stop
         style="stop-color:#00000a;stop-opacity:0;"
         offset="1"
         id="stop917" />
    </linearGradient>
    <linearGradient
       inkscape:collect="always"
       xlink:href="#linearGradient919"
       id="linearGradient921"
       x1="95"
       y1="196.15204"
       x2="210.2"
       y2="196.15204"
       gradientUnits="userSpaceOnUse" />
    <filter
       inkscape:label="Canvas Bumps"
       inkscape:menu-tooltip="Canvas texture with an HSL sensitive height map"
       inkscape:menu="Bumps"
       style="color-interpolation-filters:sRGB"
       id="filter1359"
       x="-0.0015626408"
       y="-0.0015626408"
       width="1.0031253"
       height="1.0031253">
      <feTurbulence
         type="turbulence"
         result="result1"
         numOctaves="7"
         seed="300"
         baseFrequency="0.2"
         id="feTurbulence1341" />
      <feDisplacementMap
         xChannelSelector="R"
         in2="result1"
         result="result7"
         id="feDisplacementMap1343"
         scale="0"
         yChannelSelector="A" />
      <feBlend
         in="result7"
         in2="SourceGraphic"
         mode="screen"
         result="fbSourceGraphic"
         id="feBlend1345" />
      <feColorMatrix
         result="fbSourceGraphicAlpha"
         values="1 0 0 -1 0 1 0 1 -1 0 1 0 0 -1 0 -0.8 -1 0 4 -2.5 "
         id="feColorMatrix1347" />
      <feGaussianBlur
         result="result0"
         in="fbSourceGraphicAlpha"
         stdDeviation="0.5"
         id="feGaussianBlur1349" />
      <feSpecularLighting
         result="result6"
         surfaceScale="5"
         specularConstant="1"
         specularExponent="5"
         id="feSpecularLighting1353">
        <feDistantLight
           azimuth="225"
           elevation="35"
           id="feDistantLight1351" />
      </feSpecularLighting>
      <feComposite
         in2="SourceGraphic"
         k3="1"
         k2="0.5"
         operator="arithmetic"
         result="result4"
         id="feComposite1355"
         k1="0"
         k4="0" />
      <feComposite
         operator="in"
         result="result2"
         in="result4"
         in2="SourceGraphic"
         id="feComposite1357" />
    </filter>
    <clipPath
       clipPathUnits="userSpaceOnUse"
       id="clipPath1402">
      <circle
         style="opacity:1;fill:none;fill-opacity:1;stroke:#000000;stroke-width:12.53924465;stroke-miterlimit:4;stroke-dasharray:none;stroke-opacity:1"
         id="circle1404"
         cx="330.07257"
         cy="256.08386"
         r="383.96539" />
    </clipPath>
  </defs>
  <sodipodi:namedview
     id="base"
     pagecolor="#ffffff"
     bordercolor="#666666"
     borderopacity="1.0"
     inkscape:pageopacity="0.0"
     inkscape:pageshadow="2"
     inkscape:zoom="1.739427"
     inkscape:cx="-28.170196"
     inkscape:cy="175.63255"
     inkscape:document-units="px"
     inkscape:current-layer="layer4"
     showgrid="false"
     inkscape:window-width="3840"
     inkscape:window-height="2126"
     inkscape:window-x="-11"
     inkscape:window-y="-11"
     inkscape:window-maximized="1"
     inkscape:grid-bbox="true"
     showguides="true"
     fit-margin-top="1"
     fit-margin-left="1"
     fit-margin-right="1"
     fit-margin-bottom="1"
     units="px"
     inkscape:showpageshadow="0"
     inkscape:pagecheckerboard="1"
     inkscape:deskcolor="#505050">
    <sodipodi:guide
       position="262.87392,234.28038"
       orientation="0,-1"
       id="guide1"
       inkscape:locked="false" />
    <sodipodi:guide
       position="197.83814,239.31077"
       orientation="1,0"
       id="guide2"
       inkscape:locked="false" />
  </sodipodi:namedview>
  <metadata
     id="metadata38">
    <rdf:RDF>
      <cc:Work
         rdf:about="">
        <dc:format>image/svg+xml</dc:format>
        <dc:type
           rdf:resource="http://purl.org/dc/dcmitype/StillImage" />
      </cc:Work>
    </rdf:RDF>
  </metadata>
  <g
     inkscape:groupmode="layer"
     id="layer2"
     inkscape:label="Layer 2"
     transform="translate(-218.9704,122.19839)" />
  <g
     inkscape:label="Layer 1"
     inkscape:groupmode="layer"
     id="layer1"
     transform="translate(-218.9704,378.19839)" />
  <g
     inkscape:groupmode="layer"
     id="layer4"
     inkscape:label="Layer 4"
     transform="translate(-107.04263,-33.053921)">
    <g
       id="g1007"
       transform="matrix(0.94364294,0,0,0.94364294,19.794959,25.994573)">
      <path
         inkscape:connector-curvature="0"
         id="path179"
         d="M 186.082,270.12371 A 147.15918,238.10857 0 0 0 331.94529,479.03387 147.15918,238.10857 0 0 0 477.05271,278.8034 l -93.86719,4.37695 -69.10742,49.59571 z"
         style="opacity:1;fill:#000000;stroke:#ffffff;stroke-width:0;stroke-linecap:butt;stroke-linejoin:bevel;stroke-miterlimit:4;stroke-dasharray:none;stroke-opacity:1;paint-order:stroke fill markers" />
      <path
         sodipodi:nodetypes="sccccccs"
         inkscape:connector-curvature="0"
         id="ellipse195"
         d="m 441.99944,-401.65095 c -75.473,8.2e-4 -102.50818,119.32322 -136.65536,239.81503 -2.41839,8.74158 0.45833,18.12529 1.2025,27.11524 l 118.86087,58.18078 64.17514,-46.05602 87.16779,-4.06455 c 1.21393,-11.62418 5.15907,-23.84436 1.90622,-35.17545 -34.96022,-119.6799 -61.18346,-239.81582 -136.65716,-239.81503 z"
         style="opacity:1;fill:#000000;stroke:#000000;stroke-width:0;stroke-linecap:butt;stroke-linejoin:bevel;stroke-miterlimit:4;stroke-dasharray:none;stroke-opacity:1;paint-order:stroke fill markers"
         transform="translate(-111.92777,411.25231)" />
      <path
         sodipodi:nodetypes="cacac"
         inkscape:connector-curvature="0"
         id="path1144"
         d="m 340.73876,-46.25949 c 0,0 11.70994,42.2510825 25.29568,58.64 11.80431,14.239918 45.99216,31.04471 45.99216,31.04471 0,0 -30.20407,-18.765083 -41.39294,-32.19451 -13.82594,-16.5945726 -29.8949,-57.4902 -29.8949,-57.4902 z"
         style="fill:#ffffff;stroke:#000000;stroke-width:1px;stroke-linecap:butt;stroke-linejoin:miter;stroke-opacity:1"
         transform="translate(-111.92777,411.25231)" />
      <path
         inkscape:connector-curvature="0"
         id="path166"
         d="m 291.25498,343.60358 c -0.42382,-0.0287 -0.80752,-0.0365 -0.85299,-0.0171 -0.045,0.0193 -0.0825,0.009 -0.0825,-0.0346 0,-0.0382 -0.17393,-0.11607 -0.38687,-0.17295 -0.21285,-0.0568 -0.61634,-0.2324 -0.89671,-0.39035 -0.31208,-0.17581 -0.48266,-0.23489 -0.43974,-0.15242 0.0424,0.081 0.0258,0.11424 -0.0424,0.0836 -0.0615,-0.0281 -0.10151,-0.0939 -0.0882,-0.14631 0.0335,-0.13194 -0.45288,-0.70443 -0.59713,-0.70443 -0.0655,0 -0.0889,-0.021 -0.0541,-0.0472 0.0359,-0.0257 -0.007,-0.19949 -0.0918,-0.38577 -0.16473,-0.36012 -0.38535,-1.79137 -0.37326,-2.42268 0.007,-0.20826 -0.0453,-0.40264 -0.10978,-0.43193 -0.0649,-0.0293 -0.0865,-0.0896 -0.0496,-0.13404 0.0718,-0.0845 -0.70294,-7.4112 -0.80498,-7.62256 -0.0335,-0.0669 -0.0524,-0.24972 -0.044,-0.40606 0.008,-0.15632 -0.0565,-0.83234 -0.14282,-1.50229 -0.0865,-0.66993 -0.18718,-1.52866 -0.22324,-1.90833 -0.0371,-0.37964 -0.2337,-2.1337 -0.43942,-3.89789 -0.20553,-1.76417 -0.40495,-3.55478 -0.44313,-3.97903 -0.0384,-0.42436 -0.16172,-1.52061 -0.27463,-2.4362 -0.11276,-0.91559 -0.23733,-2.06487 -0.27639,-2.55393 -0.0394,-0.48905 -0.0941,-0.91582 -0.12062,-0.9485 -0.0279,-0.0323 -0.077,-0.46713 -0.10992,-0.96556 -0.0335,-0.49847 -0.10354,-0.99063 -0.15609,-1.09361 -0.0533,-0.10303 -0.0724,-0.20521 -0.0427,-0.22711 0.0585,-0.0429 -0.58112,-6.13966 -0.67922,-6.47333 -0.0335,-0.11164 -0.0581,-0.33093 -0.056,-0.48726 0,-0.1563 -0.067,-0.83232 -0.15184,-1.50228 -0.085,-0.66994 -0.18533,-1.56523 -0.22205,-1.98958 -0.038,-0.42427 -0.11181,-1.06372 -0.16704,-1.42104 -0.0553,-0.35732 -0.12956,-1.06619 -0.16509,-1.57529 -0.0363,-0.50911 -0.0897,-0.95511 -0.1198,-0.99106 -0.0309,-0.0358 -0.0804,-0.47434 -0.11209,-0.97428 -0.0379,-0.58275 -0.11791,-0.99535 -0.22583,-1.14958 -0.0937,-0.13238 -0.11507,-0.21617 -0.0496,-0.18629 0.15415,0.0703 0.15095,0.009 -0.10626,-1.98541 -0.11791,-0.91558 -0.21472,-1.79257 -0.21544,-1.94893 0,-0.15632 -0.0755,-0.81411 -0.16544,-1.46172 -0.0904,-0.64762 -0.16685,-1.23227 -0.17039,-1.29928 -0.0335,-0.59808 -0.35885,-3.64104 -0.40079,-3.73547 -0.0626,-0.13887 -0.12143,-0.81283 -0.1278,-1.44236 0,-0.23501 -0.0339,-0.46228 -0.0698,-0.5051 -0.0363,-0.0428 -0.0897,-0.4535 -0.11926,-0.91261 -0.0301,-0.45914 -0.0865,-0.90785 -0.12659,-0.99718 -0.0404,-0.0893 -0.0603,-0.22698 -0.0444,-0.30597 0.0488,-0.24895 -0.31301,-1.045 -0.44766,-0.98367 -0.0767,0.0352 -0.0924,0.0192 -0.0407,-0.0423 0.10694,-0.12716 -0.33387,-0.61665 -0.9458,-1.05142 -0.54295,-0.38563 -1.55602,-0.78809 -1.75528,-0.69725 -0.0805,0.0365 -0.10476,0.0265 -0.0609,-0.0261 0.0453,-0.0531 -0.10747,-0.10891 -0.39534,-0.1448 -0.8867,-0.11059 -2.28462,-0.0355 -2.28462,0.1226 0,0.0362 -0.0626,0.064 -0.13769,0.0619 -0.37697,-0.0104 -0.53023,0.0283 -0.45721,0.11554 0.0491,0.0587 0.0298,0.0717 -0.0504,0.0349 -0.32079,-0.14633 -1.69606,0.78693 -2.14385,1.45489 -0.14986,0.22329 -0.32487,0.55215 -0.38876,0.73082 -0.0645,0.17864 -0.26532,2.04232 -0.44739,4.14147 -0.1822,2.09918 -0.4064,4.65816 -0.49831,5.68672 -0.0926,1.02846 -0.19194,2.30133 -0.22201,2.82854 -0.0306,0.52723 -0.0779,0.9857 -0.10653,1.01892 -0.0282,0.0331 -0.0762,0.64417 -0.10625,1.35768 -0.0306,0.71356 -0.0789,1.35031 -0.10694,1.41501 -0.0291,0.0647 -0.0793,0.48307 -0.11316,0.92968 -0.0347,0.44657 -0.16242,1.96314 -0.28515,3.37003 -0.12306,1.40691 -0.22199,2.64936 -0.22044,2.76095 0,0.11164 -0.0977,1.22625 -0.21927,2.47688 -0.12198,1.2505 -0.21313,2.41985 -0.20243,2.59853 0.0122,0.17862 -0.0108,0.37964 -0.0453,0.44662 -0.0355,0.067 -0.14053,1.16327 -0.23412,2.43616 -0.0943,1.27292 -0.17535,2.36921 -0.18212,2.43618 -0.15662,1.5866 -0.24882,2.71945 -0.26218,3.22791 -0.007,0.23452 -0.0542,0.42633 -0.1068,0.42633 -0.053,0 -0.0716,0.0926 -0.0424,0.20581 0.0302,0.1132 0.0306,0.18841 0,0.16719 -0.029,-0.0213 -0.19422,0.1706 -0.36753,0.42655 -0.8546,1.26178 -2.81882,1.99431 -4.63288,1.72766 -0.38282,-0.0562 -0.7703,-0.1089 -0.86101,-0.11698 -0.0912,-0.009 -0.18992,-0.0338 -0.22022,-0.0582 -0.0306,-0.0238 -0.31492,-0.16454 -0.6325,-0.31285 -0.31766,-0.14831 -0.69599,-0.37345 -0.84078,-0.50034 -0.14476,-0.12689 -0.29345,-0.21455 -0.33046,-0.19471 -0.0375,0.0198 -0.0447,0.0136 -0.0179,-0.0148 0.0786,-0.0788 -0.16013,-0.36497 -0.26434,-0.3173 -0.051,0.0234 -0.0865,-0.009 -0.0801,-0.0586 0.0108,-0.0555 -0.0755,-0.30161 -0.18273,-0.54723 -0.20151,-0.46097 -0.73775,-3.64043 -0.72915,-4.32424 0,-0.2303 -0.0455,-0.3857 -0.11682,-0.3857 -0.0675,0 -0.0899,-0.0383 -0.0504,-0.0857 0.0741,-0.0885 -0.25063,-2.78361 -0.36151,-3.00015 -0.0347,-0.0669 -0.0512,-0.15666 -0.0389,-0.19922 0.0441,-0.13696 -0.35908,-2.88661 -0.42315,-2.88654 -0.0347,6e-5 -0.0453,-0.18268 -0.0248,-0.40603 0.0222,-0.22333 -0.007,-0.40604 -0.0549,-0.40603 -0.0514,5e-5 -0.0766,-0.1827 -0.055,-0.40604 0.0222,-0.22332 -0.007,-0.40605 -0.0609,-0.40605 -0.0541,0 -0.0782,-0.12768 -0.0538,-0.28383 0.0258,-0.15603 0.0108,-0.34793 -0.0404,-0.42635 -0.0465,-0.0783 -0.074,-0.17592 -0.0611,-0.21677 0.0432,-0.13295 -0.68189,-5.20283 -0.74897,-5.24467 -0.0363,-0.0222 -0.0788,-0.36951 -0.0958,-0.77144 -0.0182,-0.402 -0.0591,-0.7857 -0.0943,-0.85273 -0.0352,-0.0669 -0.0771,-0.26794 -0.0953,-0.44658 -0.0186,-0.17865 -0.056,-0.48928 -0.0858,-0.69027 -0.055,-0.36281 -0.0798,-0.56801 -0.24536,-2.00758 -0.0477,-0.4118 -0.12442,-0.73149 -0.17074,-0.71041 -0.047,0.021 -0.0609,-0.0286 -0.0317,-0.11086 0.0552,-0.15532 -0.57544,-4.93495 -0.69789,-5.2917 -0.0394,-0.11164 -0.0626,-0.27608 -0.0538,-0.36541 0.0108,-0.0893 -0.15359,-1.29529 -0.3611,-2.67977 -0.20738,-1.38458 -0.40479,-2.79152 -0.4387,-3.12648 -0.14564,-1.44038 -0.38828,-2.53568 -0.65816,-2.97058 -0.31608,-0.50956 -1.35074,-1.36055 -1.57644,-1.2967 -0.0827,0.0234 -0.12496,0.0117 -0.0939,-0.0261 0.0831,-0.0992 -0.77125,-0.36558 -0.93421,-0.2912 -0.0843,0.0381 -0.10883,0.029 -0.0645,-0.025 0.0964,-0.11425 -0.43536,-0.19778 -1.25749,-0.19778 -0.6917,0 -1.89698,0.23484 -1.80003,0.3507 0.032,0.0382 -0.005,0.0525 -0.085,0.0316 -0.0789,-0.021 -0.26714,0.037 -0.41844,0.12977 -0.15132,0.0923 -0.20554,0.14094 -0.12048,0.10785 0.10395,-0.0399 0.12794,-0.0281 0.0754,0.0349 -0.0445,0.0525 -0.12889,0.0726 -0.18908,0.0453 -0.28869,-0.13169 -1.63786,1.33955 -1.48966,1.6245 0.0343,0.0645 0.0182,0.12898 -0.0389,0.14312 -0.11276,0.0289 -0.5886,3.82296 -0.51527,4.10808 0.026,0.1016 0,0.20522 -0.053,0.23037 -0.0554,0.0254 -0.0993,0.21614 -0.0974,0.42438 0,0.20822 -0.16721,1.78555 -0.37627,3.50508 -0.209,1.71954 -0.40978,3.43704 -0.44615,3.81668 -0.0381,0.37963 -0.21048,1.89616 -0.38691,3.37001 -0.17641,1.47393 -0.34521,2.99388 -0.37507,3.37772 -0.0298,0.38392 -0.0785,0.7493 -0.10802,0.81212 -0.0298,0.0627 -0.0824,0.4795 -0.11709,0.92613 -0.0354,0.44665 -0.28483,2.67571 -0.55569,4.95358 -0.27087,2.27775 -0.48473,4.21454 -0.47529,4.30388 0.0108,0.0893 -0.021,0.22637 -0.0664,0.30449 -0.0465,0.0781 -0.0548,0.19695 -0.021,0.26395 0.0352,0.0668 0.0108,0.12181 -0.0552,0.12181 -0.0655,0 -0.09,0.0546 -0.0549,0.12181 0.0355,0.067 0.0122,0.12181 -0.0552,0.12181 -0.0655,0 -0.0889,0.0568 -0.0529,0.12599 0.0363,0.0694 0.0214,0.10537 -0.0361,0.0799 -0.0882,-0.0406 -0.21711,0.12897 -0.22795,0.29971 -0.007,0.11269 -1.19951,0.94798 -1.53741,1.07686 -0.18684,0.0713 -0.31324,0.16117 -0.2809,0.19982 0.0325,0.0385 -0.0481,0.0494 -0.17865,0.0243 -0.17701,-0.034 -0.21467,-0.0187 -0.1483,0.0608 0.0504,0.0598 0.0455,0.0872 -0.0122,0.0621 -0.0552,-0.0247 -0.42152,0.009 -0.81502,0.0758 -0.39342,0.0661 -0.80208,0.11477 -0.90795,0.10825 -0.10653,-0.009 -0.41083,-0.0192 -0.67731,-0.0274 -0.26667,-0.009 -0.4651,-0.0387 -0.44102,-0.0677 0.0663,-0.0782 -0.49473,-0.1644 -0.64768,-0.0996 -0.0733,0.0309 -0.096,0.0256 -0.0502,-0.0104 0.0953,-0.077 -0.77451,-0.46628 -0.90658,-0.40604 -0.0478,0.0214 -0.14795,-0.0148 -0.22264,-0.0814 -0.0752,-0.0664 -0.0981,-0.1209 -0.0507,-0.1209 0.047,0 0,-0.0724 -0.11168,-0.1605 -0.10829,-0.0883 -0.24103,-0.14037 -0.29491,-0.11569 -0.0542,0.0247 -0.0843,-0.009 -0.0685,-0.0627 0.0182,-0.0589 -0.0359,-0.0976 -0.1156,-0.0852 -0.0805,0.0117 -0.11453,-0.0148 -0.0762,-0.0608 0.0805,-0.0955 -0.20109,-0.42753 -0.31069,-0.36709 -0.0407,0.0219 -0.0512,0.0178 -0.0249,-0.009 0.027,-0.0271 -0.0462,-0.22661 -0.16156,-0.44311 -0.11615,-0.21655 -0.29537,-0.87943 -0.39922,-1.47315 -0.10449,-0.59372 -0.2168,-1.09777 -0.25103,-1.12012 -0.0341,-0.0222 -0.0745,-0.27809 -0.0898,-0.56839 -0.016,-0.29029 -0.0595,-0.5827 -0.0992,-0.64969 -0.0396,-0.0669 -0.0607,-0.22144 -0.0469,-0.34325 0.0141,-0.12182 -0.0179,-0.26799 -0.0634,-0.3248 -0.0482,-0.0568 -0.0727,-0.20381 -0.0552,-0.32664 0.0194,-0.12624 -0.0232,-0.22336 -0.0936,-0.22336 -0.0687,0 -0.0923,-0.0394 -0.0516,-0.0876 0.0774,-0.0922 -0.94003,-6.0139 -1.04508,-6.08402 -0.034,-0.022 -0.0772,-0.29637 -0.0972,-0.60903 -0.0209,-0.31265 -0.0817,-0.58067 -0.13839,-0.59568 -0.0571,-0.0148 -0.0741,-0.0615 -0.0394,-0.10303 0.0647,-0.0767 -0.14085,-1.55436 -0.24694,-1.77814 -0.0318,-0.0669 -0.0701,-0.2497 -0.0838,-0.40604 -0.0542,-0.57432 -1.09824,-6.29478 -1.15659,-6.33402 -0.0335,-0.0222 -0.074,-0.25983 -0.0903,-0.52786 -0.0182,-0.26798 -0.10124,-0.81607 -0.1874,-1.21808 -0.0865,-0.40194 -0.18472,-0.94705 -0.21794,-1.21136 -0.12171,-0.9681 -0.51484,-2.76839 -0.61007,-2.79322 -0.0542,-0.0141 -0.0707,-0.078 -0.0384,-0.14212 0.034,-0.0639 0.008,-0.1166 -0.058,-0.1166 -0.0655,0 -0.0918,-0.0524 -0.0583,-0.11634 0.0884,-0.17012 -0.63562,-1.42577 -1.22384,-2.12213 -0.60304,-0.71393 -1.56875,-1.51856 -1.73279,-1.44379 -0.0648,0.0294 -0.0855,0.0163 -0.0485,-0.028 0.12049,-0.1438 -1.34983,-1.05206 -1.51942,-0.93864 -0.05,0.0331 -0.0606,0.0209 -0.0232,-0.028 0.0869,-0.11282 -0.75957,-0.469 -0.92997,-0.3913 -0.0774,0.0352 -0.0981,0.0224 -0.0523,-0.0311 0.0936,-0.11098 -0.32934,-0.28891 -0.5005,-0.21083 -0.0693,0.0311 -0.0958,0.0214 -0.0594,-0.0217 0.0838,-0.0994 -1.73308,-0.60483 -2.23954,-0.62311 -0.20821,-0.009 -0.40656,-0.0417 -0.44063,-0.0751 -0.0894,-0.0885 -2.04449,-0.2133 -2.69173,-0.17168 -1.0051,0.0645 -2.1438,0.21477 -2.1438,0.28275 0,0.0368 -0.0628,0.0504 -0.13771,0.03 -0.39456,-0.10707 -4.37477,1.27254 -4.37477,1.51633 0,0.043 -0.0445,0.0583 -0.0989,0.0336 -0.0541,-0.0247 -0.38274,0.0481 -0.73036,0.1615 -0.34778,0.11348 -1.0341,0.28425 -1.52528,0.3795 -0.83602,0.16217 -1.21615,0.1752 -5.96076,0.20417 -5.05241,0.0309 -5.06972,0.0304 -5.72296,-0.15345 -0.36033,-0.10147 -0.70476,-0.17369 -0.76535,-0.16064 -0.0606,0.0132 -0.0736,-0.009 -0.0289,-0.0362 0.0453,-0.033 -0.14459,-0.23827 -0.42055,-0.45602 -0.72999,-0.57584 -0.96566,-1.01775 -0.98749,-1.85235 -0.0122,-0.37965 0.0141,-0.70851 0.0488,-0.73084 0.16084,-0.0973 0.44922,-0.66954 0.38135,-0.75677 -0.0413,-0.0527 -0.0354,-0.0694 0.0159,-0.037 0.0489,0.0321 0.37936,-0.13994 0.73523,-0.38293 0.377,-0.25755 0.82967,-0.48231 1.0849,-0.53874 0.24102,-0.0531 0.43821,-0.11854 0.43862,-0.14485 0,-0.0264 1.7461,-0.0598 3.87956,-0.0745 5.64208,-0.0378 5.55823,-0.0349 6.18871,-0.24505 0.62902,-0.20962 1.07196,-0.48568 0.97161,-0.60544 -0.0407,-0.0481 -0.0141,-0.0568 0.0667,-0.0205 0.0785,0.0357 0.20105,-0.004 0.29473,-0.089 0.50048,-0.46875 0.73858,-1.02753 1.42099,-3.33519 0.39329,-1.33002 0.76608,-2.57536 0.82822,-2.76744 0.0626,-0.19215 0.0865,-0.38088 0.0546,-0.41944 -0.0331,-0.0385 -0.0209,-0.0823 0.0289,-0.0973 0.12185,-0.0383 0.71153,-2.08191 0.62943,-2.17998 -0.0373,-0.0442 -0.0108,-0.0803 0.0626,-0.0803 0.0759,0 0.10625,-0.0681 0.0721,-0.16242 -0.032,-0.0893 -0.0233,-0.16239 0.0213,-0.16239 0.10828,0 0.36686,-0.96016 0.28523,-1.05763 -0.0367,-0.0435 -0.0244,-0.0793 0.0286,-0.0793 0.13574,0 0.36586,-0.89595 0.29189,-1.13688 -0.0432,-0.13988 -0.0306,-0.16956 0.0415,-0.0953 0.12564,0.1306 0.41097,-0.82849 0.2894,-0.97365 -0.0432,-0.0511 -0.0306,-0.0711 0.0289,-0.0446 0.13078,0.0597 0.52305,-1.28474 0.41314,-1.41599 -0.0518,-0.0618 -0.0303,-0.0719 0.0634,-0.0295 0.10761,0.0489 0.12957,0.008 0.0918,-0.18982 -0.0285,-0.13998 -0.0258,-0.23534 0.008,-0.21187 0.0805,0.059 0.68818,-1.92942 0.62651,-2.04847 -0.0282,-0.0531 -0.007,-0.10772 0.047,-0.12181 0.053,-0.0139 0.11181,-0.17172 0.13133,-0.35034 0.0202,-0.17864 0.0634,-0.3431 0.0976,-0.36542 0.0684,-0.0439 1.32425,-4.21701 1.36949,-4.54748 0.0179,-0.11164 0.0608,-0.26028 0.10056,-0.33023 0.0401,-0.0699 0.0824,-0.23446 0.0964,-0.36543 0.0141,-0.13101 0.0512,-0.25646 0.0844,-0.2788 0.11913,-0.079 0.44428,-1.38392 0.36778,-1.47527 -0.0454,-0.0532 -0.0301,-0.0705 0.0363,-0.0414 0.12495,0.0571 0.29729,-0.55506 0.19173,-0.68113 -0.0354,-0.0421 -0.007,-0.0763 0.0663,-0.0763 0.0741,0 0.10585,-0.0677 0.073,-0.1585 -0.0317,-0.0873 -0.0218,-0.16944 0.0241,-0.18267 0.0752,-0.0224 0.57155,-1.60981 0.61788,-1.97317 0.0141,-0.0893 0.0504,-0.21721 0.0857,-0.28425 0.1335,-0.24931 0.40559,-1.24342 0.35138,-1.28342 -0.0314,-0.0228 -0.0141,-0.0815 0.0415,-0.13016 0.15147,-0.13833 0.36531,-1.00834 0.27584,-1.12287 -0.0453,-0.058 -0.0379,-0.0741 0.0191,-0.0368 0.0553,0.037 0.32324,-0.69563 0.61822,-1.69034 0.28639,-0.96582 0.64472,-1.95574 0.79612,-2.19984 0.55231,-0.89026 2.10269,-1.81445 3.27593,-1.95287 0.22905,-0.0268 0.39132,-0.0788 0.3608,-0.11529 -0.0302,-0.0362 0.10734,-0.0518 0.30465,-0.0336 0.19803,0.0176 0.6658,0.0514 1.03929,0.0745 0.95431,0.0589 2.23183,0.47121 2.63345,0.84988 0.0744,0.0699 0.18053,0.0885 0.2751,0.048 0.0843,-0.0364 0.11968,-0.0373 0.0769,-0.006 -0.0427,0.0349 0.0941,0.22814 0.30138,0.42946 0.5245,0.50673 0.93138,1.17173 1.00756,1.64651 0.0355,0.21997 0.0953,0.38621 0.13174,0.36949 0.0384,-0.0164 0.0741,0.22133 0.0827,0.52906 0.0108,0.3077 0.053,0.62376 0.0989,0.7024 0.0464,0.0786 0.073,0.23981 0.0604,0.35818 -0.0141,0.11842 0.0319,0.23972 0.0966,0.26955 0.0661,0.03 0.09,0.0891 0.0546,0.13152 -0.0724,0.0861 0.39811,2.93326 0.49506,2.99734 0.034,0.0222 0.0779,0.29642 0.0972,0.60901 0.0209,0.31266 0.082,0.58073 0.13839,0.5957 0.0571,0.0149 0.0744,0.0619 0.0389,0.10382 -0.0652,0.0771 0.24363,2.11909 0.35399,2.34584 0.0329,0.0668 0.082,0.35931 0.10991,0.64966 0.0279,0.29028 0.0954,0.53931 0.14865,0.55339 0.0542,0.0141 0.0739,0.0738 0.0435,0.13266 -0.0579,0.11085 0.8065,5.18801 0.91973,5.40432 0.0359,0.0669 0.0541,0.15365 0.0424,0.19253 -0.0286,0.0922 0.54227,3.38375 0.61451,3.54292 0.0306,0.067 0.0684,0.24976 0.0831,0.40607 0.0684,0.6869 0.43262,2.59857 0.49599,2.59857 0.0389,0 0.0502,0.1295 0.0248,0.28784 -0.032,0.20131 0.0179,0.33976 0.15979,0.46061 0.11276,0.0949 0.14317,0.14606 0.0684,0.11334 -0.0762,-0.0325 -0.1377,-0.0296 -0.13789,0.008 0,0.19203 0.46433,2.68261 0.51997,2.78606 0.0369,0.0669 0.0552,0.15556 0.0424,0.19672 -0.0518,0.16175 0.36041,2.23016 0.43697,2.19523 0.045,-0.0199 0.0554,0.0372 0.0239,0.12794 -0.10517,0.29453 0.31622,2.38267 0.50237,2.49457 0.1129,0.0681 0.12388,0.10159 0.0331,0.10159 -0.10287,0 -0.1175,0.12743 -0.0605,0.5075 0.0423,0.27915 0.10653,0.52582 0.143,0.54815 0.0371,0.022 0.0808,0.26447 0.0981,0.53806 0.0588,0.94602 0.53501,3.10005 0.73596,3.32637 0.15308,0.17245 0.21413,0.19415 0.29562,0.10511 0.0789,-0.0859 0.096,-0.0754 0.0708,0.0447 -0.0394,0.19114 0.64044,0.56061 0.92888,0.50497 0.10693,-0.0206 0.19459,-0.009 0.19459,0.036 0,0.0407 0.14865,0.0737 0.33011,0.0737 0.18173,0 0.33026,-0.0383 0.33026,-0.0861 0,-0.0474 0.0501,-0.0634 0.11113,-0.0356 0.16754,0.0763 0.56332,-0.0395 0.47882,-0.14063 -0.0453,-0.0538 -0.0225,-0.0645 0.0606,-0.0268 0.16403,0.0747 0.58322,-0.18675 0.48579,-0.30299 -0.0399,-0.0462 -0.0179,-0.0585 0.053,-0.027 0.15837,0.0721 0.48376,-0.38932 0.53732,-0.76151 0.11507,-0.80045 0.92437,-7.69354 0.97728,-8.3236 0.034,-0.40194 0.17948,-1.68095 0.32396,-2.8422 0.14439,-1.16126 0.28672,-2.42195 0.31627,-2.80161 0.0294,-0.37964 0.0764,-0.74508 0.10436,-0.81207 0.0842,-0.20345 0.64062,-5.45592 0.58255,-5.49875 -0.0306,-0.0215 -0.0122,-0.12442 0.043,-0.22761 0.0538,-0.10328 0.12184,-0.56602 0.15182,-1.02853 0.0306,-0.46248 0.0782,-0.89497 0.10693,-0.96116 0.0404,-0.0939 0.47717,-4.08503 0.50661,-4.62717 0.005,-0.0669 0.10341,-0.85271 0.21994,-1.74595 0.11777,-0.89326 0.24719,-1.97126 0.28835,-2.39557 0.1637,-1.68213 0.1866,-1.88343 0.48639,-4.26331 0.11818,-0.9379 0.21391,-1.79667 0.21272,-1.90833 0,-0.11164 0.0476,-0.51364 0.10815,-0.89325 0.0615,-0.37966 0.13965,-1.03741 0.17501,-1.46173 0.036,-0.42429 0.23479,-2.17832 0.44268,-3.89785 0.20775,-1.71955 0.37757,-3.23606 0.37737,-3.37005 0,-0.13398 0.12265,-1.22701 0.2731,-2.42892 0.15043,-1.20193 0.24806,-2.216 0.21665,-2.25349 -0.032,-0.0372 -0.005,-0.0681 0.0599,-0.0681 0.0645,0 0.11669,-0.056 0.11669,-0.12416 0,-0.0683 0.15855,-0.35144 0.35205,-0.62933 0.19357,-0.27787 0.34212,-0.53261 0.33009,-0.56613 -0.0141,-0.0336 0.0197,-0.0519 0.0683,-0.0405 0.0496,0.0104 0.24529,-0.094 0.43543,-0.2338 1.55114,-1.13991 4.17433,-1.20761 5.91897,-0.15279 0.25375,0.15338 0.48416,0.26202 0.51212,0.2414 0.029,-0.0205 0.0512,0.009 0.0523,0.0641 0,0.0558 0.15254,0.26596 0.3376,0.46694 0.44763,0.48667 0.64705,1.05313 0.8002,2.27374 0.0701,0.55831 0.15554,1.06991 0.19024,1.1369 0.0354,0.067 0.0514,0.15748 0.0373,0.20108 -0.0339,0.10381 0.32546,2.80768 0.39407,2.96592 0.0294,0.067 0.0764,0.37761 0.10449,0.69025 0.11872,1.32092 0.65892,4.75634 0.73858,4.69758 0.0481,-0.0352 0.0542,-0.004 0.0159,0.0754 -0.0732,0.13993 0.13241,2.02313 0.24527,2.25122 0.0577,0.11659 0.0691,0.22501 0.12225,1.20258 0.0159,0.23713 0.0614,0.41432 0.10652,0.39377 0.0457,-0.0204 0.0923,0.30592 0.10382,0.7255 0.0141,0.41956 0.0595,0.80873 0.10652,0.86489 0.0469,0.0562 0.0754,0.1934 0.0636,0.30508 -0.0141,0.11164 0.14953,1.31759 0.36066,2.67981 0.21095,1.36225 0.3872,2.53163 0.39185,2.59861 0.0407,0.56924 0.24545,2.09576 0.29566,2.19253 0.0359,0.0669 0.053,0.1555 0.0407,0.19668 -0.0327,0.10055 0.32439,2.73462 0.39083,2.88899 0.0289,0.0668 0.0755,0.43074 0.10341,0.80851 0.0279,0.37778 0.0862,0.70672 0.13065,0.73099 0.0444,0.0245 0.0961,0.39129 0.1152,0.81562 0.0205,0.42429 0.0718,0.78116 0.11506,0.79302 0.0442,0.0118 0.0609,0.14875 0.036,0.30415 -0.0253,0.15538 -0.0141,0.34657 0.0297,0.42484 0.0415,0.0783 0.0972,0.39818 0.12374,0.71095 0.0279,0.31272 0.11412,1.00711 0.19298,1.54307 0.11276,0.76795 0.17659,0.96897 0.301,0.94837 0.12632,-0.0206 0.13038,-0.008 0.022,0.0772 -0.13664,0.10264 -0.19217,0.57181 -0.0779,0.65634 0.0337,0.0243 0.0833,0.36677 0.11276,0.76109 0.0294,0.39435 0.0889,0.73688 0.13268,0.76121 0.0445,0.0243 0.0942,0.373 0.11059,0.77497 0.0179,0.40196 0.0588,0.78566 0.093,0.85265 0.0348,0.0669 0.0744,0.28623 0.0885,0.48724 0.0808,1.11603 0.44918,3.39505 0.54224,3.3526 0.0611,-0.0274 0.0703,-0.008 0.0225,0.0517 -0.11615,0.13865 0.40293,3.92344 0.52092,3.7994 0.0558,-0.0585 0.0649,-0.021 0.0222,0.0912 -0.0664,0.1727 0.4478,4.35893 0.57001,4.64227 0.0289,0.0666 0.0736,0.39539 0.0977,0.73008 0.0254,0.33468 0.0941,0.62032 0.152,0.63479 0.0588,0.0145 0.0766,0.0848 0.0399,0.15618 -0.045,0.0857 -0.0249,0.11008 0.0609,0.0717 0.0856,-0.0391 0.10436,-0.0132 0.0546,0.0819 -0.0579,0.11046 -0.0317,0.12807 0.12672,0.0836 0.16051,-0.0455 0.17499,-0.0346 0.0745,0.0546 -0.0966,0.0854 -0.0811,0.14007 0.0672,0.235 0.29959,0.1928 0.68124,0.3194 0.79982,0.26537 0.0599,-0.0271 0.10788,-0.0104 0.10788,0.0366 0,0.0472 0.14847,0.0859 0.33014,0.0859 0.18169,0 0.33019,-0.033 0.33019,-0.0737 0,-0.0406 0.0934,-0.0557 0.20591,-0.0338 0.26142,0.0502 1.04051,-0.43743 0.95647,-0.59899 -0.0329,-0.0627 -0.0179,-0.094 0.0381,-0.0696 0.0533,0.0243 0.13079,-0.0193 0.1718,-0.0973 0.0622,-0.11673 0.4913,-4.63417 0.49848,-5.23813 0,-0.10003 0.12103,-1.47912 0.26628,-3.06466 0.34446,-3.75975 0.34041,-3.71421 0.7234,-8.16117 0.18065,-2.09923 0.48041,-5.57074 0.66641,-7.71456 0.18581,-2.14382 0.3596,-4.26141 0.38613,-4.70581 0.0271,-0.44438 0.0709,-0.86461 0.0989,-0.93385 0.0278,-0.0694 0.0793,-0.63754 0.11453,-1.2628 0.036,-0.62529 0.11682,-1.61195 0.17946,-2.19255 0.0636,-0.58062 0.0919,-1.18931 0.0636,-1.35269 -0.0294,-0.16335 -0.0122,-0.32781 0.0388,-0.36544 0.0502,-0.0376 0.11967,-0.63025 0.15537,-1.31701 0.0363,-0.68675 0.0847,-1.27273 0.10978,-1.30216 0.0258,-0.0298 0.0724,-0.58657 0.10693,-1.2381 0.0342,-0.65143 0.0828,-1.23486 0.10992,-1.29642 0.0268,-0.0617 0.10381,-0.86099 0.17039,-1.7766 0.0684,-0.91557 0.14459,-1.84742 0.17215,-2.07071 0.0278,-0.22333 0.10124,-1.04551 0.16297,-1.82713 0.0622,-0.78159 0.13735,-1.69516 0.16722,-2.03011 0.18316,-2.04502 0.27024,-3.06231 0.32683,-3.8167 0.0359,-0.46897 0.0865,-1.05362 0.11452,-1.29925 0.0289,-0.24566 0.10043,-1.03133 0.15926,-1.74596 0.0595,-0.71463 0.28482,-3.34506 0.50032,-5.84549 0.21562,-2.50039 0.38058,-4.61986 0.36683,-4.70992 -0.0159,-0.0901 0.007,-0.23681 0.0461,-0.32614 0.04,-0.0893 0.10286,-0.69228 0.14016,-1.3399 0.0385,-0.6476 0.0899,-1.30537 0.11547,-1.4617 0.0655,-0.39456 0.6024,-6.84718 0.59728,-7.16878 -0.007,-0.39379 0.17604,-1.28689 0.31603,-1.54732 0.068,-0.12664 0.0911,-0.26925 0.0511,-0.31708 -0.0415,-0.0492 -0.0225,-0.0636 0.0468,-0.0325 0.0661,0.0301 0.15112,-0.0199 0.19012,-0.11073 0.0644,-0.1487 1.37568,-1.20245 1.37568,-1.10513 0,0.0223 0.23516,-0.0367 0.52266,-0.13113 0.37461,-0.12311 0.75699,-0.17319 1.34832,-0.17662 0.91926,-0.008 1.65032,0.0481 1.65066,0.12117 0,0.0262 0.13309,0.0926 0.29565,0.14726 0.1628,0.0547 0.47684,0.20516 0.69808,0.33449 0.3212,0.18775 0.43247,0.21533 0.55202,0.13695 0.12239,-0.0802 0.12727,-0.0758 0.0268,0.0243 -0.0926,0.091 -0.0878,0.15769 0.0179,0.26264 0.0767,0.0773 0.1757,0.11374 0.2201,0.0811 0.0453,-0.0326 0.0698,-0.0234 0.0549,0.0215 -0.0159,0.0446 0.0777,0.24624 0.2047,0.44798 0.2716,0.43124 0.4234,1.08996 0.52774,2.29076 0.0423,0.47901 0.11141,0.85491 0.15377,0.8353 0.0432,-0.0198 0.0609,0.1183 0.0389,0.30648 -0.0232,0.18817 0.032,0.89033 0.11818,1.56025 0.0865,0.66996 0.1877,1.56527 0.22451,1.98954 0.0367,0.42433 0.13787,1.30136 0.22469,1.94895 0.0867,0.64763 0.17772,1.37845 0.20172,1.62414 0.0256,0.24561 0.0695,0.68412 0.10084,0.97445 0.0317,0.29028 0.0889,0.87501 0.12835,1.29927 0.0401,0.42431 0.1198,1.10037 0.17807,1.50235 0.0587,0.40195 0.1053,0.90493 0.103,1.11773 0,0.21279 0.0253,0.42148 0.0602,0.46372 0.0363,0.0423 0.0911,0.5059 0.12319,1.03034 0.0327,0.52441 0.0816,0.98136 0.11059,1.01543 0.0289,0.034 0.077,0.40124 0.10653,0.81597 0.0304,0.41466 0.15076,1.50306 0.26855,2.41868 0.11791,0.91556 0.21245,1.87482 0.21071,2.13162 0,0.37004 0.0331,0.46694 0.16845,0.46694 0.13592,0 0.14671,0.0298 0.0525,0.14213 -0.0878,0.10447 -0.0594,0.63749 0.10978,2.00981 0.12591,1.02727 0.22999,1.97738 0.23085,2.11137 0,0.13402 0.15007,1.46781 0.33149,2.964 0.18138,1.49622 0.32683,2.89081 0.32332,3.09907 -0.007,0.20824 0.0389,0.39924 0.0943,0.42436 0.0549,0.0254 0.0795,0.12872 0.0546,0.23038 -0.0412,0.1604 1.62645,15.39401 1.77918,16.26338 0.0327,0.17866 0.0586,0.40158 0.0607,0.49544 0,0.0939 0.22405,2.08543 0.49467,4.42572 0.27071,2.34029 0.50923,4.4378 0.53017,4.66113 0.13173,1.39841 0.19962,2.03222 0.28734,2.67977 0.0546,0.40199 0.13078,1.13042 0.16949,1.6188 0.0396,0.48842 0.11046,0.94519 0.15891,1.0151 0.0485,0.0696 0.068,0.16934 0.0432,0.22099 -0.0675,0.1369 0.92387,8.99479 1.06979,9.56443 0.48151,1.87967 3.05561,2.97573 5.52864,2.35393 0.28647,-0.072 0.52081,-0.16619 0.52081,-0.20926 0,-0.043 0.0427,-0.0589 0.0943,-0.036 0.13119,0.0597 0.92669,-0.38633 1.25326,-0.70282 0.40014,-0.38784 0.69864,-0.85999 0.83432,-1.31974 0.0966,-0.32457 0.3261,-2.16478 0.3404,-2.72035 0,-0.0669 0.20118,-1.8028 0.44342,-3.85725 0.24206,-2.05452 0.46395,-4.0556 0.49275,-4.44687 0.0302,-0.39128 0.0762,-0.73884 0.10503,-0.77241 0.0286,-0.0336 0.0821,-0.46257 0.119,-0.95334 0.0385,-0.49074 0.31276,-3.01178 0.61204,-5.60223 0.29929,-2.59047 0.54313,-4.8013 0.54184,-4.91293 0,-0.11165 0.12266,-1.20793 0.27573,-2.43617 0.15289,-1.22825 0.27722,-2.32453 0.27608,-2.43619 0,-0.11164 0.0731,-0.78767 0.16368,-1.50228 0.15696,-1.23007 1.69155,-14.9674 1.70109,-15.22599 0,-0.0669 0.12943,-1.15629 0.28213,-2.42065 0.15273,-1.26437 0.28203,-2.37891 0.28718,-2.47676 0.0202,-0.36164 0.10883,-1.17389 0.213,-1.92389 0.0867,-0.62792 0.73537,-6.54981 0.76446,-6.98368 0.0109,-0.0669 0.10572,-0.90748 0.22253,-1.86773 0.11778,-0.96029 0.24348,-2.05654 0.279,-2.4362 0.0363,-0.37962 0.16067,-1.49102 0.27787,-2.46976 0.11696,-0.97875 0.21186,-1.85576 0.21092,-1.94893 0,-0.0932 0.14742,-1.41185 0.32974,-2.9304 0.18263,-1.51857 0.33437,-2.85234 0.33723,-2.96402 0.0108,-0.25454 0.0844,-0.94182 0.22463,-1.98954 0.0603,-0.44663 0.30457,-2.56947 0.54385,-4.71735 0.23932,-2.14793 0.48686,-4.00556 0.54994,-4.12801 0.0638,-0.12246 0.0894,-0.25305 0.058,-0.29015 -0.0306,-0.037 -0.0122,-0.0797 0.0461,-0.0947 0.0568,-0.0149 0.11872,-0.0789 0.13838,-0.14227 0.0389,-0.12378 0.12916,-0.20671 0.80314,-0.73525 0.70883,-0.55579 1.93481,-0.93523 2.91958,-0.90369 0.69101,0.0222 1.62975,0.22666 2.11856,0.46161 0.22708,0.10916 0.41278,0.1756 0.41278,0.14778 0,-0.0996 0.86378,0.723 1.06269,1.01204 0.11195,0.1622 0.24043,0.3072 0.2862,0.32218 0.0461,0.0151 0.0617,0.0534 0.0348,0.0857 -0.0278,0.0319 0,0.20262 0.0633,0.3788 0.0621,0.17619 0.11141,0.38165 0.1106,0.4566 0,0.075 0.21731,1.5915 0.4838,3.37006 0.26668,1.77855 0.51302,3.47131 0.54731,3.76159 0.035,0.2903 0.13214,0.96637 0.21811,1.50231 0.0854,0.53597 0.18555,1.26392 0.22209,1.61769 0.0369,0.35382 0.1068,0.70098 0.15519,0.77147 0.0488,0.0704 0.0712,0.16486 0.0488,0.20961 -0.0225,0.0447 0.10734,1.04968 0.28764,2.23313 0.18025,1.18347 0.3548,2.37103 0.38786,2.63899 0.0335,0.26802 0.17948,1.27291 0.32566,2.23318 0.14599,0.96024 0.29558,2.01998 0.3321,2.35496 0.0371,0.33497 0.11791,0.84658 0.18069,1.13688 0.0637,0.29029 0.11249,0.60094 0.11046,0.69024 0,0.0893 0.16843,1.27697 0.37913,2.63921 0.21075,1.36221 0.38416,2.54985 0.38538,2.63917 0,0.0893 0.0981,0.76535 0.21355,1.50233 0.11656,0.7369 0.23974,1.57739 0.27438,1.86771 0.0354,0.29031 0.28174,1.97126 0.54892,3.73545 0.26723,1.7642 0.51667,3.5166 0.55438,3.89419 0.0381,0.37761 0.11276,0.7474 0.16667,0.82172 0.0535,0.0744 0.0739,0.15316 0.0432,0.17526 -0.0306,0.0219 0.14371,1.3881 0.38602,3.03554 0.2423,1.64753 0.69134,4.71295 0.9978,6.81213 0.30655,2.09918 0.75491,5.11391 0.99649,6.69944 0.2415,1.58552 0.44305,2.93764 0.44804,3.00465 0.0108,0.0669 0.0759,0.56029 0.15713,1.09623 0.0815,0.53599 0.17771,1.23031 0.214,1.54292 0.0373,0.31265 0.26183,1.82915 0.50131,3.37005 0.23942,1.54087 0.43599,2.89294 0.43686,3.00459 0,0.11164 0.10096,0.78769 0.22118,1.50234 0.12089,0.71457 0.22082,1.39061 0.22232,1.50226 0,0.11164 0.37312,2.65139 0.8255,5.6438 0.45264,2.99243 0.82108,5.54353 0.81863,5.66912 0,0.1256 0.0306,0.27022 0.0741,0.32138 0.0432,0.0511 0.09,0.17734 0.10572,0.28038 0.0518,0.35961 0.58055,1.0761 1.09062,1.47851 0.52759,0.4162 1.54615,0.89782 1.96918,0.93103 0.13078,0.0104 0.29347,0.0439 0.36148,0.0751 0.0693,0.0309 0.41258,0.078 0.76573,0.10447 1.32399,0.0991 2.86235,-0.3469 3.83057,-1.11052 0.50172,-0.39586 1.03031,-1.1067 1.09664,-1.47505 0.0197,-0.10108 0.0626,-0.23877 0.0984,-0.30574 0.0354,-0.0669 0.18897,-0.9988 0.3412,-2.07073 0.15236,-1.07194 0.55334,-3.81259 0.89114,-6.09041 0.33784,-2.27787 0.59592,-4.24006 0.57352,-4.36055 -0.0225,-0.1205 1.1e-4,-0.20052 0.0495,-0.1779 0.0493,0.0226 0.10002,-0.13467 0.11194,-0.34942 0.0329,-0.59213 0.0594,-0.7903 0.4184,-3.11093 0.18314,-1.18354 0.32479,-2.20676 0.31474,-2.27374 -0.0122,-0.0669 0.0122,-0.17662 0.0455,-0.24361 0.0354,-0.0669 0.11289,-0.52377 0.17304,-1.01507 0.0599,-0.49128 0.11601,-0.94807 0.12428,-1.01508 0.0466,-0.37011 0.13499,-0.95932 0.27574,-1.82714 0.0865,-0.53593 0.15889,-1.04752 0.16014,-1.13686 0,-0.0893 0.15004,-1.09423 0.33115,-2.23316 0.1811,-1.13889 0.35903,-2.32655 0.39534,-2.63918 0.0363,-0.31262 0.23203,-1.66471 0.43509,-3.00461 0.3748,-2.474 1.67852,-11.43014 1.69639,-11.65297 0.0122,-0.0669 0.18344,-1.25463 0.39589,-2.63921 0.21249,-1.38457 0.41329,-2.73664 0.44625,-3.00461 0.0335,-0.26797 0.18124,-1.29118 0.32905,-2.27375 0.14796,-0.98258 0.25123,-1.82307 0.22947,-1.86776 -0.0222,-0.0446 0,-0.14034 0.0516,-0.2126 0.0504,-0.0724 0.11453,-0.41944 0.1423,-0.77146 0.0278,-0.35202 0.0745,-0.69484 0.1034,-0.76185 0.0437,-0.10042 0.5877,-3.90237 0.61642,-4.30388 0.0122,-0.0669 0.0816,-0.56032 0.17076,-1.09631 0.13078,-0.78675 0.88377,-5.99176 0.93389,-6.45582 0.0228,-0.20371 0.10219,-0.70993 0.33071,-2.11135 0.12048,-0.73694 0.21939,-1.43125 0.21942,-1.54291 1.1e-4,-0.11164 0.1236,-0.95212 0.2742,-1.86773 0.15094,-0.9156 0.30189,-1.92053 0.33597,-2.23315 0.0354,-0.31264 0.33211,-2.35904 0.66221,-4.54753 0.33018,-2.1885 0.6132,-4.15239 0.62876,-4.36421 0.0159,-0.21185 0.0607,-0.38542 0.10002,-0.38572 0.0392,0 0.10423,-0.10121 0.14529,-0.22393 0.10341,-0.30716 0.67674,-0.95373 1.05486,-1.18854 0.17215,-0.10681 0.29079,-0.21651 0.26382,-0.24382 -0.0278,-0.0272 -0.0209,-0.0342 0.0179,-0.0151 0.0363,0.0189 0.28824,-0.0531 0.56101,-0.16025 0.27286,-0.10707 0.66521,-0.21801 0.87179,-0.24664 0.20659,-0.0287 0.39637,-0.077 0.42187,-0.10732 0.026,-0.0306 0.40884,-0.0306 0.85184,0 0.44282,0.0304 0.84252,0.0388 0.88786,0.019 0.0455,-0.0196 0.0825,-0.009 0.0828,0.0295 0,0.0361 0.22175,0.13288 0.49234,0.21498 0.65859,0.19984 1.24166,0.55261 1.67503,1.01354 0.19654,0.20906 0.40524,0.42189 0.46392,0.47294 0.0583,0.0511 0.0843,0.10916 0.0579,0.12897 -0.027,0.0196 0.0122,0.14697 0.0679,0.28246 0.10477,0.2201 0.41883,2.55733 0.59403,4.40868 0.036,0.37964 0.28436,2.59049 0.55224,4.91298 0.26778,2.32247 0.51675,4.55157 0.55318,4.95355 0.0374,0.40198 0.15979,1.49824 0.27369,2.43616 0.11439,0.93792 0.23823,2.08626 0.27549,2.55181 0.0381,0.4656 0.0908,0.87365 0.11873,0.90684 0.0278,0.0328 0.0764,0.41962 0.10747,0.8588 0.0313,0.43918 0.15255,1.58418 0.26939,2.54442 0.11683,0.96027 0.24317,2.1285 0.28075,2.59611 0.0384,0.46759 0.0889,0.87463 0.11385,0.90455 0.0253,0.0302 0.072,0.43296 0.10354,0.89574 0.032,0.46276 0.0874,0.94929 0.12483,1.08121 0.0369,0.13196 0.0782,0.40602 0.0907,0.60909 0.0645,1.01269 0.19413,2.27721 0.29212,2.83362 0.0608,0.34174 0.10761,0.73095 0.10584,0.86497 0,0.13398 0.0934,1.02927 0.21078,1.98953 0.2211,1.79304 0.2536,2.08517 0.37814,3.41062 0.0409,0.42431 0.14495,1.31963 0.23322,1.98953 0.0884,0.66997 0.16369,1.27292 0.16722,1.33993 0.0225,0.39705 0.57914,5.44467 0.71749,6.49642 0.0915,0.69231 0.16509,1.35006 0.16475,1.46175 0,0.11163 0.0941,0.98866 0.20778,1.94891 0.1152,0.96025 0.23753,2.05651 0.27277,2.43617 0.0358,0.37961 0.18561,1.71343 0.33442,2.96401 0.14866,1.25057 0.29911,2.60262 0.33428,3.00459 0.036,0.40199 0.11548,1.05974 0.17753,1.46171 0.0629,0.40197 0.1106,0.82217 0.10748,0.93389 -0.0122,0.11163 0.31366,2.98022 0.70489,6.37459 0.83977,7.28884 0.80736,6.99982 0.82033,7.30851 0.0122,0.134 0.1536,1.46779 0.32864,2.96405 0.17498,1.49619 0.34842,3.08189 0.38543,3.52373 0.0375,0.44186 0.0953,0.83592 0.12767,0.87566 0.0343,0.0395 0.082,0.20149 0.10883,0.35942 0.0465,0.27768 0.53671,1.088 0.65812,1.088 0.0337,0 0.0248,-0.0421 -0.0205,-0.0938 -0.0491,-0.0585 -0.0313,-0.0717 0.0499,-0.0349 0.0717,0.0322 0.0989,0.0951 0.0623,0.13939 -0.0924,0.10955 0.81749,0.73747 0.96824,0.66869 0.0672,-0.0305 0.0889,-0.0173 0.0497,0.0298 -0.0821,0.0982 0.93548,0.44159 1.38706,0.46784 0.16775,0.009 0.33689,0.0415 0.376,0.0699 0.14264,0.10525 1.01928,0.0484 1.71992,-0.11124 0.39501,-0.09 0.96688,-0.30146 1.2707,-0.46996 0.53767,-0.29807 1.2259,-0.86049 1.2259,-1.00163 0,-0.0383 0,-0.0896 -0.0122,-0.11346 0,-0.0238 0.0655,-0.094 0.14812,-0.15569 0.0836,-0.0618 0.20897,-0.32536 0.27871,-0.58584 0.1483,-0.55496 0.60581,-4.65468 0.52593,-4.71356 -0.0301,-0.0217 -0.0141,-0.12325 0.0413,-0.22474 0.0523,-0.10158 0.12618,-0.5637 0.16439,-1.02702 0.0383,-0.4633 0.21363,-2.06656 0.38979,-3.56275 0.17623,-1.49623 0.32056,-2.81177 0.32046,-2.92341 0,-0.11163 0.14918,-1.44546 0.33175,-2.96403 0.18278,-1.51853 0.36074,-3.07157 0.39593,-3.45123 0.0359,-0.3796 0.2316,-2.1154 0.4369,-3.85724 0.20524,-1.74187 0.40829,-3.53245 0.45113,-3.97912 0.13377,-1.39313 0.15854,-1.6158 0.21163,-1.90832 0.0595,-0.32581 1.0346,-9.13286 1.03881,-9.37923 0,-0.0893 0.10219,-0.94811 0.22216,-1.90834 0.12089,-0.96026 0.21266,-1.85554 0.20461,-1.98953 -0.0122,-0.134 0.0141,-0.29846 0.047,-0.36543 0.0949,-0.1864 0.76617,-6.50379 0.69741,-6.55452 -0.0335,-0.0247 -0.0179,-0.10524 0.0381,-0.17928 0.0542,-0.0742 0.12645,-0.54783 0.1612,-1.0526 0.0351,-0.50478 0.0851,-0.94362 0.1114,-0.97516 0.0278,-0.0317 0.0787,-0.45752 0.11615,-0.94657 0.0375,-0.48908 0.13768,-1.41907 0.22301,-2.0667 0.13911,-1.05505 0.22628,-1.85969 0.35166,-3.24821 0.0232,-0.24563 0.18492,-1.67082 0.36165,-3.16702 0.17681,-1.49623 0.35043,-3.04929 0.38581,-3.45124 0.0358,-0.40194 0.16139,-1.49824 0.27983,-2.43617 0.11859,-0.93793 0.2064,-1.79669 0.1955,-1.90833 -0.0141,-0.11164 0.0141,-0.27609 0.0511,-0.36542 0.0396,-0.0893 0.10205,-0.54613 0.13858,-1.0151 0.17074,-2.16895 0.60996,-5.42893 0.78801,-5.84679 0.1053,-0.24563 0.17869,-0.45635 0.16473,-0.4682 -0.0974,-0.082 1.40625,-1.03886 1.88717,-1.20127 1.60804,-0.54318 3.70242,-0.17832 4.74182,0.82612 0.19971,0.19296 0.4025,0.32464 0.45057,0.2926 0.0481,-0.0319 0.0571,-0.0187 0.0201,0.0306 -0.0383,0.0488 0.0244,0.26817 0.13644,0.48723 0.20224,0.39324 0.33309,1.37606 0.50147,3.7684 0.0399,0.55833 0.11615,1.41705 0.17076,1.90837 0.0546,0.49129 0.10164,1.03939 0.10476,1.21806 0,0.17866 0.22658,2.77319 0.49832,5.7656 0.27157,2.99241 0.49618,5.4956 0.49895,5.56259 0.0371,0.88867 0.71486,8.57807 0.75913,8.6078 0.0558,0.037 0.0744,0.40833 0.10015,1.96273 0.0122,0.29789 0.0571,0.56358 0.11615,0.59044 0.0591,0.0268 0.0839,0.13015 0.0545,0.22985 -0.0626,0.21388 0.49765,7.27115 0.59073,7.44889 0.0358,0.067 0.0557,0.26799 0.0444,0.44664 -0.0141,0.17863 0.0797,1.32976 0.19953,2.55798 0.12035,1.22823 0.22074,2.28796 0.22383,2.35496 0.0413,0.91552 0.36419,4.78169 0.40786,4.87234 0.0325,0.0669 0.0525,0.26799 0.0443,0.44665 -0.0122,0.17861 0.10978,1.62208 0.26038,3.20759 0.15076,1.58559 0.27705,2.93766 0.28054,3.00465 0.0657,1.25368 0.26819,3.47714 0.31624,3.45513 0.036,-0.0158 0.0669,0.28712 0.0705,0.67371 0.0122,0.38657 0.0194,0.77595 0.0339,0.86527 0.0159,0.0893 0.0819,0.93725 0.1499,1.88429 0.0684,0.94705 0.15431,1.70774 0.19217,1.6904 0.0389,-0.0168 0.072,0.30411 0.0739,0.71427 0.0122,1.02713 0.0232,1.25463 0.20805,3.06018 0.0894,0.87094 0.16509,1.6383 0.16703,1.70531 0.0222,0.67651 0.46994,5.99834 0.51329,6.09039 0.0313,0.0669 0.0488,0.34967 0.0377,0.62816 -0.0141,0.27843 0.0122,0.54075 0.0442,0.58286 0.0358,0.0423 0.0798,0.43551 0.0999,0.87422 0.0396,0.88142 0.17925,1.17278 0.72856,1.51383 0.19166,0.11907 0.54558,0.2311 0.8281,0.2624 0.97009,0.10732 2.01822,-0.51949 2.04382,-1.22227 0.0205,-0.50792 0.0838,-1.06018 0.13964,-1.17744 0.10042,-0.21173 0.97214,-6.66959 0.91549,-6.77861 -0.0298,-0.0575 -0.0122,-0.13802 0.0484,-0.17952 0.0566,-0.0416 0.11466,-0.42558 0.12902,-0.85361 0.0159,-0.42808 0.0644,-0.76185 0.10924,-0.74179 0.0455,0.0199 0.0936,-0.1575 0.10612,-0.39464 0.0443,-0.83732 0.0622,-1.00081 0.11872,-1.12134 0.10802,-0.23001 0.65141,-4.46814 0.58857,-4.58906 -0.0351,-0.0663 -0.0122,-0.12091 0.0554,-0.12091 0.0727,0 0.103,-0.14204 0.0782,-0.36541 -0.0225,-0.201 0.0122,-0.36544 0.0598,-0.36544 0.0548,0 0.0708,-0.2015 0.0369,-0.44786 -0.0427,-0.29852 -0.0257,-0.43054 0.0514,-0.39597 0.075,0.034 0.10097,-0.0919 0.0752,-0.36423 -0.0221,-0.22886 -0.0122,-0.41612 0.0272,-0.41606 0.0912,5e-5 0.35216,-2.08843 0.27317,-2.18286 -0.0354,-0.0424 -0.0159,-0.0893 0.0447,-0.10434 0.0602,-0.0149 0.12225,-0.39782 0.13821,-0.85072 0.0179,-0.45292 0.0668,-0.80702 0.11209,-0.78697 0.0455,0.0199 0.094,-0.13919 0.10652,-0.35398 0.0141,-0.21479 0.0327,-0.53671 0.0432,-0.71538 0.0122,-0.17861 0.0465,-0.37959 0.0793,-0.44657 0.0489,-0.0989 0.25903,-1.63488 0.28944,-2.11138 0.0122,-0.0669 0.23039,-1.60179 0.50253,-3.41063 0.27209,-1.80889 0.47349,-3.40547 0.44726,-3.54795 -0.0276,-0.14254 -0.0122,-0.27041 0.0512,-0.28423 0.055,-0.0139 0.1129,-0.37739 0.12957,-0.808 0.0182,-0.43058 0.0581,-0.7709 0.0919,-0.75624 0.0547,0.0238 0.41041,-2.29027 0.51287,-3.33321 0.0233,-0.2233 0.16385,-1.20994 0.31477,-2.19255 0.15113,-0.98256 0.25882,-1.90272 0.23899,-2.04476 -0.0209,-0.142 -0.0122,-0.2442 0.0329,-0.22704 0.10585,0.0483 0.36577,-2.20317 0.26807,-2.31972 -0.0499,-0.0598 -0.0428,-0.0826 0.021,-0.0543 0.12889,0.0587 0.63549,-3.49181 0.52763,-3.69913 -0.0408,-0.0775 -0.0278,-0.14098 0.0289,-0.14098 0.0567,0 0.19191,-0.66689 0.30185,-1.48201 0.1106,-0.81512 0.26331,-1.66413 0.34071,-1.88675 0.0777,-0.22261 0.11236,-0.43838 0.0779,-0.47947 -0.0354,-0.0415 -0.0141,-0.0513 0.0514,-0.0222 0.0634,0.0284 0.17772,-0.0608 0.25504,-0.19868 0.18723,-0.33352 1.03138,-0.96434 1.64609,-1.23006 1.37351,-0.59385 2.83075,-0.61431 4.30773,-0.0606 0.34232,0.12833 0.63979,0.22667 0.661,0.21845 0.0213,-0.009 0.0266,-5e-5 0.0141,0.0183 -0.0159,0.0185 0.19841,0.21046 0.47339,0.42737 0.51222,0.40399 0.98572,1.04769 1.10256,1.49852 0.075,0.28939 1.47522,12.04247 1.47907,12.41449 0,0.13398 0.10056,0.99273 0.21962,1.90834 0.11954,0.91559 0.21629,1.8657 0.21547,2.11135 0,0.34087 0.0279,0.41779 0.11791,0.32483 0.0905,-0.0925 0.10232,-0.0576 0.0473,0.14594 -0.0709,0.26375 0.35084,4.48941 0.47146,4.72639 0.0347,0.0669 0.0502,0.15775 0.0359,0.20169 -0.0602,0.18292 0.48589,4.57414 0.56383,4.53859 0.0466,-0.021 0.0546,0.0194 0.0191,0.0912 -0.0931,0.17773 0.42527,4.74893 0.5322,4.70011 0.0468,-0.021 0.0549,0.0198 0.0194,0.0916 -0.0726,0.13922 0.15891,2.67784 0.26243,2.88251 0.0352,0.0669 0.0523,0.18008 0.0413,0.25124 -0.0141,0.0711 0.20609,2.09929 0.48365,4.5069 0.27753,2.4076 0.53426,4.67897 0.5706,5.04746 0.0369,0.36846 0.1114,0.66996 0.16632,0.66996 0.0554,0 0.0688,0.0376 0.0297,0.0841 -0.0882,0.10551 0.0611,1.87293 0.15414,1.83028 0.0374,-0.0168 0.0558,0.12063 0.0396,0.30609 -0.0179,0.18556 0.0964,1.30575 0.24859,2.48936 0.15289,1.18353 0.27643,2.2552 0.27468,2.38133 0,0.12611 0.13404,0.41556 0.30174,0.6431 0.58171,0.78887 1.99894,1.02064 3.02688,0.49506 0.7148,-0.36557 0.79364,-0.56767 1.29415,-3.31989 0.25119,-1.38185 0.43578,-2.59394 0.41,-2.69351 -0.0268,-0.0995 -0.0141,-0.16553 0.029,-0.14666 0.10219,0.0464 0.48407,-2.19868 0.40126,-2.35768 -0.042,-0.0797 -0.0214,-0.10577 0.0562,-0.0704 0.0836,0.0379 0.10856,-0.0472 0.0789,-0.27318 -0.0241,-0.18081 -0.0122,-0.31395 0.0294,-0.29598 0.10436,0.0472 0.24072,-1.15898 0.14441,-1.27399 -0.0539,-0.0643 -0.0348,-0.0752 0.0594,-0.0322 0.10748,0.0487 0.1297,-0.008 0.0949,-0.23109 -0.0268,-0.16245 -0.0179,-0.29531 0.0217,-0.29531 0.0383,0 0.1236,-0.33802 0.19158,-0.75114 0.068,-0.41315 0.22818,-1.31757 0.35592,-2.00985 0.12767,-0.69229 0.20954,-1.32268 0.18177,-1.40079 -0.0274,-0.0781 -0.0141,-0.14211 0.0317,-0.14211 0.10287,0 0.48395,-2.24656 0.39899,-2.348 -0.0351,-0.0413 -0.0222,-0.0867 0.0291,-0.10146 0.10761,-0.0313 1.17434,-5.85735 1.17503,-6.41443 0,-0.20787 0.0285,-0.36482 0.0652,-0.34875 0.10015,0.0455 0.34881,-1.73246 0.25788,-1.84112 -0.0453,-0.0537 -0.0348,-0.0751 0.026,-0.0481 0.0632,0.0284 0.16279,-0.29196 0.24383,-0.77918 0.0762,-0.4552 0.2377,-1.35335 0.36,-1.99592 0.12225,-0.64255 0.19816,-1.23639 0.16862,-1.31962 -0.0294,-0.0832 -0.0186,-0.1513 0.029,-0.1513 0.10693,0 0.48198,-2.24876 0.3929,-2.35488 -0.0381,-0.0448 -0.026,-0.0813 0.0294,-0.0813 0.12198,0 0.62721,-2.87161 0.53624,-3.04646 -0.0371,-0.0707 -0.0251,-0.10981 0.0278,-0.0862 0.0514,0.0235 0.12374,-0.14394 0.16032,-0.37215 0.0953,-0.58821 0.63024,-1.37757 1.27807,-1.88303 0.30512,-0.23805 0.53047,-0.45702 0.50065,-0.48651 -0.0304,-0.0298 -0.0243,-0.0372 0.0141,-0.0169 0.0366,0.0196 0.32178,-0.0696 0.633,-0.19899 0.31082,-0.12925 0.84546,-0.28886 1.18791,-0.35455 0.69644,-0.13357 1.69848,-0.1927 1.81454,-0.10707 0.12333,0.0909 0.533,0.0642 0.69984,-0.0453 0.13119,-0.0862 0.13241,-0.0802 0.0122,0.0408 -0.12456,0.12168 -0.11927,0.14213 0.0404,0.14213 0.46548,0 1.47079,0.45807 2.18161,0.9941 0.40937,0.30862 0.71588,0.5949 0.68145,0.6362 -0.0352,0.0414 -0.0191,0.0751 0.0394,0.0751 0.11832,0 0.68153,1.21039 0.68153,1.46366 0,0.0935 0.0371,0.15342 0.0824,0.13312 0.0454,-0.0203 0.0941,0.12991 0.10653,0.33378 0.0141,0.20387 0.0634,0.39191 0.11045,0.41785 0.0478,0.0259 0.0907,0.11112 0.096,0.18926 0.0323,0.49353 0.0525,0.55451 0.17287,0.49977 0.0805,-0.0367 0.0981,-0.0219 0.045,0.0396 -0.045,0.0537 -0.0301,0.26943 0.0337,0.47944 0.064,0.21007 0.39653,1.332 0.74055,2.49323 0.34395,1.16126 0.66821,2.12364 0.72072,2.13861 0.0518,0.0148 0.0684,0.0601 0.0341,0.1003 -0.0846,0.10133 0.60662,2.46452 0.73098,2.49816 0.0561,0.0148 0.0744,0.0589 0.0417,0.0977 -0.0329,0.0387 0.0375,0.4102 0.15538,0.82543 0.54655,1.92427 0.71477,2.41009 0.81789,2.36304 0.0637,-0.0287 0.0747,-0.008 0.0276,0.0489 -0.11425,0.13632 0.16965,1.14904 0.3049,1.08745 0.0622,-0.0278 0.0732,-0.008 0.0271,0.0476 -0.11141,0.1324 0.61493,2.60956 0.74701,2.54933 0.0577,-0.026 0.069,-0.008 0.0259,0.0475 -0.11316,0.13547 0.38498,1.80311 0.52034,1.7413 0.0622,-0.0279 0.0764,-0.009 0.0325,0.043 -0.0903,0.10772 -0.016,0.41788 0.57949,2.40896 0.24041,0.80396 0.62366,2.08998 0.85185,2.85788 0.22815,0.76786 0.45449,1.37809 0.50309,1.35595 0.0484,-0.022 0.0611,0.0132 0.0271,0.0775 -0.0769,0.14735 0.82941,3.25092 0.95987,3.2881 0.0525,0.0151 0.0687,0.06 0.0346,0.10002 -0.10815,0.12912 0.63541,2.50972 0.76583,2.4522 0.0838,-0.0372 0.0855,-0.018 0.0122,0.0645 -0.13132,0.13427 0.17873,1.17965 0.3192,1.07599 0.045,-0.0332 0.0507,0 0.0141,0.0751 -0.1133,0.21728 0.49353,0.9405 1.10088,1.31264 0.66729,0.4088 1.35631,0.61238 1.50128,0.44365 0.074,-0.0862 0.096,-0.0792 0.0976,0.0316 0,0.13073 0.19717,0.14286 2.45059,0.15133 1.34676,0.009 3.32986,0.0323 4.40702,0.061 1.07706,0.0286 2.08025,0.0274 2.22938,-0.008 0.15464,-0.0309 0.24432,-0.022 0.20871,0.0199 -0.0351,0.0412 0.0122,0.0744 0.0939,0.0744 0.0855,0 0.38921,0.0918 0.67522,0.20397 0.28589,0.11217 0.57821,0.17941 0.64928,0.14939 0.0716,-0.03 0.0946,-0.0256 0.0501,0.009 -0.0436,0.0355 0.11276,0.22499 0.34651,0.42111 0.52083,0.43644 0.74589,0.77544 0.90626,1.36464 0.24215,0.89015 -0.35338,1.9401 -1.4304,2.52162 -0.99389,0.53656 -1.06637,0.5422 -6.51761,0.50752 -4.84895,-0.0309 -4.90105,-0.0328 -5.93736,-0.24031 -1.06876,-0.2139 -2.23315,-0.59495 -3.79694,-1.24254 -1.08524,-0.44939 -2.55258,-0.87854 -2.82442,-0.82612 -0.11141,0.0214 -0.17844,0.0104 -0.149,-0.0251 0.0464,-0.0555 -1.23259,-0.23189 -1.86919,-0.25802 -0.70619,-0.029 -2.2946,0.0262 -2.86153,0.0994 -0.99701,0.1286 -2.16037,0.39851 -2.08852,0.48444 0.036,0.0421 -0.0122,0.0561 -0.096,0.0312 -0.39083,-0.11059 -3.36713,1.2385 -3.19235,1.44715 0.0454,0.054 0.021,0.0624 -0.068,0.0222 -0.30888,-0.14088 -2.69208,2.06072 -2.69208,2.4869 0,0.0763 -0.0339,0.12364 -0.0733,0.10524 -0.079,-0.0358 -0.40935,0.49828 -0.68705,1.11042 -0.26343,0.58071 -0.54075,1.68104 -0.48925,1.94068 0.0268,0.12873 0.0159,0.21978 -0.0229,0.2025 -0.10083,-0.0459 -0.70336,3.41534 -0.6222,3.57141 0.0375,0.0724 0.0255,0.11164 -0.0285,0.0875 -0.11344,-0.0518 -0.28043,0.96696 -0.17836,1.08881 0.0396,0.0459 0.027,0.0835 -0.0276,0.0835 -0.11615,0 -0.51707,2.2285 -0.42153,2.34272 0.0371,0.0438 0.0279,0.0919 -0.0229,0.10681 -0.1213,0.0372 -1.16966,5.9523 -1.08407,6.11659 0.0375,0.0724 0.0303,0.11398 -0.0179,0.093 -0.0464,-0.021 -0.31849,1.26516 -0.60505,2.85829 -0.28677,1.59307 -0.74655,4.15259 -1.02206,5.6878 -0.552,3.0769 -0.67405,3.42846 -1.42719,4.1107 -0.26172,0.23715 -0.44225,0.45893 -0.40094,0.49282 0.042,0.0336 0.0225,0.0391 -0.0435,0.0132 -0.0655,-0.027 -0.33695,0.0583 -0.60536,0.18986 -0.8602,0.42141 -1.94281,0.58961 -3.0503,0.4739 -0.85026,-0.0889 -1.56568,-0.34852 -2.29765,-0.83412 -0.30685,-0.20347 -0.58935,-0.35285 -0.6279,-0.33185 -0.0389,0.0209 -0.0464,0.0143 -0.0184,-0.0143 0.029,-0.0287 -0.0943,-0.25725 -0.27179,-0.50755 -0.43153,-0.60469 -0.497,-0.87343 -0.72853,-2.99265 -0.10883,-0.99375 -0.24013,-1.80686 -0.29187,-1.80686 -0.0514,0 -0.0621,-0.0388 -0.022,-0.0873 0.10422,-0.1235 -0.30094,-3.72946 -0.41816,-3.72946 -0.0533,0 -0.0663,-0.0741 -0.0274,-0.16458 0.0886,-0.20626 -0.61335,-6.44434 -0.72911,-6.47919 -0.047,-0.0141 -0.0565,-0.0803 -0.022,-0.14732 0.0949,-0.18041 -0.31779,-3.71637 -0.43959,-3.77688 -0.0576,-0.0283 -0.0718,-0.0909 -0.0317,-0.13884 0.0885,-0.10589 -0.0491,-1.80625 -0.14333,-1.76361 -0.0371,0.0163 -0.0687,-0.23122 -0.0714,-0.55067 -0.0122,-0.77207 -0.5145,-5.16772 -0.59386,-5.13159 -0.0352,0.0153 -0.0655,-0.21481 -0.0687,-0.51207 -0.0122,-0.65309 -0.12902,-1.92875 -0.26774,-2.81411 -0.0565,-0.35733 -0.12143,-0.78468 -0.14564,-0.94971 -0.0585,-0.40096 -0.57013,-1.15634 -1.04679,-1.54545 -0.45998,-0.37579 -1.28094,-0.74904 -1.46379,-0.66565 -0.0824,0.037 -0.10219,0.0247 -0.0512,-0.0342 0.0436,-0.0516 0.0638,-0.0938 0.045,-0.0938 -0.0205,0 -0.38076,-0.0537 -0.80449,-0.11959 -1.40875,-0.2186 -2.83892,0.0857 -3.84572,0.81801 -0.55977,0.40715 -1.20894,1.27129 -1.12742,1.50097 0.0289,0.0813 0.0141,0.15858 -0.0358,0.17189 -0.11087,0.0304 -0.36994,1.81836 -0.28737,1.97743 0.0343,0.0645 0.0122,0.1175 -0.0558,0.1175 -0.0728,0 -0.10328,0.16616 -0.0788,0.43909 0.022,0.24151 0.0122,0.42657 -0.0233,0.41133 -0.10178,-0.0468 -0.79558,5.2019 -0.71539,5.41046 0.0579,0.14992 0.0488,0.16684 -0.0415,0.0733 -0.0878,-0.0929 -0.11575,-0.0336 -0.11751,0.24765 0,0.2032 0.0607,0.42068 0.13574,0.48334 0.1152,0.0951 0.10435,0.0949 -0.0676,-0.004 -0.19433,-0.10916 -0.20277,-0.0934 -0.16511,0.30857 0.0222,0.23291 0.0122,0.4326 -0.0389,0.44373 -0.0432,0.0104 -0.0935,0.35789 -0.11032,0.77056 -0.0187,0.41277 -0.0741,0.75076 -0.12483,0.75119 -0.0511,0.002 -0.0762,0.18355 -0.055,0.40691 0.0215,0.22334 0.0122,0.41516 -0.0268,0.42632 -0.066,0.0204 -0.79225,5.09032 -0.74976,5.22522 0.0141,0.0404 -0.0179,0.13718 -0.0615,0.21515 -0.0461,0.078 -0.0657,0.28781 -0.0427,0.46627 0.0241,0.17845 0.0141,0.33389 -0.0249,0.34546 -0.0981,0.0309 -1.2243,8.17499 -1.14433,8.27043 0.0375,0.0447 0.0122,0.13257 -0.0607,0.19535 -0.0711,0.0627 -0.11818,0.25299 -0.10517,0.42275 0.0141,0.16982 -0.0141,0.37282 -0.0586,0.45115 -0.0458,0.0784 -0.0622,0.27025 -0.0371,0.42635 0.0258,0.15617 0.0141,0.28384 -0.0248,0.28384 -0.10625,0 -0.35923,2.25077 -0.2655,2.36266 0.0473,0.0562 0.0375,0.0776 -0.0241,0.0498 -0.0949,-0.043 -0.42332,1.89169 -0.35698,2.09964 0.0141,0.0419 -0.0122,0.1306 -0.0396,0.19763 -0.11276,0.21715 -0.43767,2.90815 -0.36224,2.99828 0.0409,0.0481 0.0179,0.0875 -0.0533,0.0875 -0.0844,0 -0.11439,0.14591 -0.0892,0.43908 0.0215,0.24152 0.0122,0.42492 -0.0314,0.40759 -0.0672,-0.0306 -0.25897,0.71295 -0.23869,0.92499 0.0122,0.0587 -0.0179,0.0872 -0.0489,0.0631 -0.0805,-0.0592 -0.57099,0.62555 -0.50485,0.70495 0.0285,0.0349 0.0122,0.0529 -0.0415,0.0409 -0.0512,-0.0117 -0.30588,0.12299 -0.56633,0.30064 -0.26043,0.17767 -0.59786,0.3832 -0.74985,0.45671 -0.15201,0.0737 -0.26814,0.15971 -0.25808,0.19139 0.0122,0.0315 -0.0202,0.0819 -0.0644,0.11164 -0.0453,0.0298 -0.0415,0.008 0.0122,-0.0615 0.0691,-0.087 0.0435,-0.10199 -0.10178,-0.0609 -0.10626,0.03 -0.24046,0.0543 -0.29964,0.0543 -0.0594,0 -0.08,0.033 -0.0464,0.0737 0.0354,0.0407 -0.0496,0.0525 -0.18605,0.0268 -0.22884,-0.0432 -0.2352,-0.0356 -0.0829,0.10172 0.15432,0.13916 0.15024,0.14205 -0.0634,0.0439 -0.17251,-0.0792 -0.37889,-0.0857 -0.84746,-0.0261 -0.34072,0.0433 -0.68376,0.0485 -0.76242,0.0117 -0.0786,-0.0366 -0.2726,-0.0675 -0.43092,-0.0682 -0.49297,-0.006 -1.79105,-0.54044 -2.33202,-0.96711 -0.27699,-0.21851 -0.53137,-0.38288 -0.56525,-0.36536 -0.0348,0.0178 -0.0419,0.0104 -0.0179,-0.0149 0.026,-0.0259 -0.0793,-0.2471 -0.23106,-0.49196 -0.15926,-0.25632 -0.2987,-0.65849 -0.32921,-0.94796 -0.029,-0.27653 -0.0741,-0.55244 -0.10042,-0.61311 -0.0266,-0.0605 -0.0724,-0.60878 -0.10395,-1.21806 -0.0296,-0.60927 -0.0884,-1.21743 -0.12849,-1.35139 -0.0404,-0.13397 -0.0634,-0.31672 -0.0499,-0.40604 0.0141,-0.0893 -0.12767,-1.89818 -0.31229,-4.01971 -0.18448,-2.12148 -0.36714,-4.28663 -0.40587,-4.81139 -0.0389,-0.52485 -0.11059,-0.95416 -0.15995,-0.95416 -0.0501,0 -0.0606,-0.0568 -0.0253,-0.12611 0.085,-0.16363 -0.53188,-7.54009 -0.63352,-7.57209 -0.0428,-0.0137 -0.0539,-0.15953 -0.0266,-0.32482 0.0279,-0.16525 0,-0.77558 -0.0581,-1.35618 -0.0599,-0.58065 -0.13965,-1.47592 -0.17719,-1.98959 -0.0376,-0.51361 -0.15997,-1.93872 -0.27197,-3.167 -0.11208,-1.22819 -0.23445,-2.72649 -0.27219,-3.32939 -0.0384,-0.60302 -0.10232,-1.20593 -0.14229,-1.33991 -0.0415,-0.13396 -0.0614,-0.293 -0.0461,-0.35333 0.047,-0.18166 -0.32875,-4.10224 -0.4011,-4.18852 -0.037,-0.0439 -0.0798,-0.16844 -0.0961,-0.27651 -0.0554,-0.3802 -0.63421,-1.07503 -1.26857,-1.52143 -0.3798,-0.26731 -0.69322,-0.42744 -0.76904,-0.39288 -0.0744,0.034 -0.0992,0.0234 -0.0573,-0.0259 0.10341,-0.12285 -0.894,-0.41489 -1.70573,-0.49961 -1.77771,-0.18565 -3.48272,0.38268 -4.51968,1.50646 -0.22606,0.24498 -0.48504,0.62931 -0.5756,0.8541 -0.13133,0.32671 -0.60304,3.82061 -0.60624,4.49162 0,0.0893 -0.22272,2.04436 -0.49393,4.34453 -0.27119,2.30018 -0.52161,4.49268 -0.55664,4.87231 -0.0354,0.37967 -0.13445,1.25666 -0.22136,1.94895 -0.0867,0.69231 -0.15697,1.35003 -0.15626,1.4617 0,0.11164 -0.14671,1.42718 -0.32794,2.92341 -0.30421,2.5104 -0.41868,3.53772 -0.52496,4.70992 -0.0226,0.24564 -0.16066,1.45153 -0.30788,2.6798 -0.14706,1.22821 -0.2962,2.56202 -0.33124,2.96402 -0.0359,0.40191 -0.0936,0.92268 -0.12821,1.15719 -0.0447,0.29021 -0.0255,0.42633 0.0603,0.42633 0.0684,0 0.12401,0.0383 0.12401,0.0858 0,0.0474 -0.0462,0.0653 -0.10124,0.0395 -0.12048,-0.0547 -0.24112,0.30556 -0.23158,0.69278 0.0122,0.1527 -0.0711,0.86226 -0.16597,1.57685 -0.0953,0.71464 -0.15377,1.39983 -0.13119,1.5226 0.0233,0.12286 0.0122,0.22339 -0.0344,0.22339 -0.0675,0 -0.18706,0.98902 -0.27777,2.29602 -0.0201,0.25789 -0.0606,0.56851 -0.0949,0.69019 -0.0348,0.1218 -0.0896,0.56856 -0.1232,0.99283 -0.0344,0.42425 -0.13417,1.33787 -0.22278,2.03013 -0.0885,0.69228 -0.15379,1.36827 -0.14495,1.5023 0.0122,0.13396 -0.0122,0.29846 -0.0439,0.36544 -0.0453,0.0917 -0.69148,5.88554 -0.73401,6.57761 -0.0122,0.067 -0.0795,0.68825 -0.16702,1.38055 -0.16016,1.26169 -1.18339,10.14764 -1.19951,10.41464 -0.0122,0.078 -0.0477,0.14211 -0.0956,0.14211 -0.0481,0 -0.0865,0.0466 -0.0865,0.1033 0,0.057 -0.16774,0.29128 -0.37261,0.52089 -0.23349,0.26157 -0.33626,0.45044 -0.27508,0.50567 0.0657,0.0585 0.0573,0.0636 -0.0258,0.0143 -0.0793,-0.0478 -0.29037,0.021 -0.59831,0.19435 -0.26183,0.14747 -0.68983,0.32825 -0.95085,0.40172 -0.46796,0.13157 -2.02774,0.29444 -2.12599,0.22193 -0.074,-0.0543 -1.1781,-0.34521 -1.40071,-0.36875 -0.10517,-0.0104 -0.22844,-0.051 -0.27507,-0.0889 -0.0473,-0.0379 -0.0122,-0.04 0.0805,-0.009 0.0911,0.0349 -0.0313,-0.0595 -0.27201,-0.2103 -0.24053,-0.15083 -0.47579,-0.26497 -0.52273,-0.25383 -0.0476,0.0104 -0.075,-0.009 -0.0615,-0.0409 0.0141,-0.0331 -0.10558,-0.22534 -0.26291,-0.42633 -0.49866,-0.63409 -0.5997,-1.0286 -0.78993,-3.08579 -0.0956,-1.02563 -0.51602,-4.81758 -0.562,-5.05937 -0.0243,-0.1252 -0.10924,-0.28743 -0.18942,-0.36068 -0.10517,-0.0959 -0.10774,-0.11607 -0.0122,-0.0723 0.0777,0.0341 0.13751,0.0211 0.13751,-0.0298 0,-0.11817 -1.35924,-12.21454 -2.25849,-20.09849 -0.38713,-3.39439 -0.73173,-6.48222 -0.76572,-6.86188 -0.0346,-0.3797 -0.18514,-1.69519 -0.33594,-2.92339 -0.15058,-1.22826 -0.27631,-2.28803 -0.27942,-2.35496 -0.0141,-0.2456 -0.32687,-3.21758 -0.3751,-3.53247 -0.0279,-0.17866 -0.077,-0.65367 -0.10924,-1.05569 -0.0332,-0.40195 -0.10693,-1.07801 -0.16491,-1.50227 -0.0587,-0.42436 -0.28577,-2.45243 -0.50593,-4.50697 -0.2201,-2.05448 -0.42428,-3.79023 -0.45395,-3.85723 -0.0477,-0.10877 -0.11357,-0.74385 -0.13417,-1.2993 -0.0205,-0.52348 -0.35956,-3.17964 -0.4621,-3.60816 -0.301,-1.25787 -1.38581,-2.7289 -2.62039,-3.55284 -1.39102,-0.92852 -3.30016,-1.56293 -5.04976,-1.67821 -1.02044,-0.0672 -2.69847,0.0247 -2.75538,0.15052 -0.0215,0.0451 -0.0833,0.0609 -0.13982,0.0351 -0.22233,-0.10146 -2.67645,0.65538 -2.56335,0.79037 0.0337,0.0391 0.0207,0.0664 -0.0306,0.0598 -0.2315,-0.0298 -0.38026,0.0326 -0.90435,0.38066 -0.3092,0.20518 -0.52972,0.41177 -0.49014,0.45914 0.0427,0.0504 0.0213,0.0625 -0.0545,0.0283 -0.35164,-0.16035 -2.16508,1.91354 -2.26258,2.58743 -0.0141,0.0948 -0.0546,0.20796 -0.0914,0.25137 -0.10436,0.12388 -0.29433,0.99131 -0.36472,1.66017 -0.0355,0.33494 -0.13445,1.04752 -0.22051,1.58348 -0.0862,0.536 -0.18653,1.21203 -0.22331,1.50234 -0.1152,0.906 -0.1552,1.18354 -0.59661,4.10088 -0.23655,1.56321 -0.42919,2.91527 -0.4282,3.00455 0,0.0893 -0.0531,0.45004 -0.12022,0.80165 -0.0684,0.35149 -0.103,0.68039 -0.0774,0.73082 0.0256,0.0502 0.0122,0.14937 -0.0438,0.21988 -0.0488,0.0704 -0.11872,0.41765 -0.15574,0.77146 -0.0371,0.3538 -0.11262,0.91733 -0.16824,1.2523 -0.19007,1.14266 -1.9448,13.21162 -1.95991,13.48015 -0.0122,0.0669 -0.0586,0.38804 -0.12035,0.71335 -0.0628,0.32535 -0.14247,0.85524 -0.17806,1.17747 -0.0363,0.32229 -0.23207,1.68221 -0.43694,3.02211 -0.20486,1.33994 -0.40259,2.69195 -0.43956,3.00466 -0.0369,0.31264 -0.16509,1.18964 -0.28491,1.9489 -0.16333,1.03555 -0.18718,1.41815 -0.0961,1.53109 0.071,0.0862 0.0752,0.12899 0.0141,0.10017 -0.17951,-0.0819 -0.22378,0.0478 -0.28701,0.84081 -0.0337,0.41372 -0.0816,0.77809 -0.10829,0.80976 -0.027,0.0313 -0.0789,0.34759 -0.11587,0.70214 -0.0381,0.35457 -0.23645,1.74097 -0.44291,3.08083 -0.20651,1.33993 -0.37911,2.52755 -0.38404,2.6392 -0.0327,0.76045 -0.43729,2.88154 -0.62054,3.24828 -0.21689,0.43396 -0.65823,0.92505 -1.12426,1.25078 -0.18546,0.12964 -0.31161,0.26628 -0.28035,0.30361 0.032,0.037 -0.0179,0.0472 -0.10572,0.0217 -0.0894,-0.0254 -0.26523,0.0301 -0.39087,0.12273 -0.1259,0.0927 -0.26577,0.16647 -0.31114,0.16384 -0.0455,-0.008 -0.28069,0.0358 -0.52278,0.0853 -0.35123,0.0721 -0.53499,0.0654 -0.90801,-0.0319 -0.25721,-0.0673 -0.46774,-0.10577 -0.46774,-0.0853 0,0.0202 -0.10382,-0.0387 -0.22875,-0.13171 -0.13805,-0.10173 -0.30008,-0.14845 -0.4092,-0.11751 -0.10003,0.028 -0.14654,0.0261 -0.10531,-0.009 0.0424,-0.031 -0.16227,-0.24877 -0.45373,-0.48407 -0.74942,-0.60502 -1.11213,-1.18939 -1.18211,-1.90447 -0.0251,-0.24567 -0.0745,-0.53797 -0.111,-0.64968 -0.037,-0.11163 -0.0789,-0.33086 -0.0949,-0.48717 -0.072,-0.74959 -0.18705,-1.58519 -0.33743,-2.43623 -0.0908,-0.5136 -0.16509,-1.0252 -0.16528,-1.13685 0,-0.11164 -0.0966,-0.78768 -0.21217,-1.5023 -0.11642,-0.71461 -0.23924,-1.55507 -0.2725,-1.86775 -0.0337,-0.31267 -0.0954,-0.67807 -0.13558,-0.81203 -0.0415,-0.13401 -0.0675,-0.31673 -0.0573,-0.40605 0.0122,-0.0893 -0.13079,-1.07598 -0.3135,-2.19252 -0.18245,-1.1166 -0.33173,-2.1061 -0.33153,-2.1989 0,-0.0929 -0.27264,-1.97476 -0.60617,-4.18212 -0.33355,-2.2073 -0.61042,-4.06813 -0.61517,-4.13516 -0.0108,-0.13318 -0.84654,-5.94861 -1.46749,-10.19512 -0.21514,-1.47182 -0.63913,-4.30212 -0.94215,-6.28964 -0.30303,-1.9875 -0.55167,-3.68673 -0.55277,-3.77606 0,-0.0893 -0.072,-0.60086 -0.15713,-1.13684 -0.0854,-0.53595 -0.18486,-1.26011 -0.22093,-1.60925 -0.0371,-0.34908 -0.10978,-0.71985 -0.16313,-0.82398 -0.0539,-0.1042 -0.0764,-0.20503 -0.051,-0.22435 0.0542,-0.0394 -0.57558,-4.42917 -0.68263,-4.76036 -0.0392,-0.11855 -0.0976,-0.25041 -0.1301,-0.29318 -0.0329,-0.0425 -0.0733,-0.16322 -0.0877,-0.26765 -0.0436,-0.30181 -0.86894,-1.47972 -1.38532,-1.97708 -1.15065,-1.10835 -2.98779,-1.99517 -4.87433,-2.35302 -1.18378,-0.22453 -2.97819,-0.22737 -4.12715,-0.009 -1.40835,0.27068 -2.70709,0.77921 -3.80311,1.48924 -0.32703,0.21188 -0.36306,0.26819 -0.24387,0.38083 0.12238,0.11569 0.11777,0.11921 -0.0413,0.028 -0.15536,-0.0896 -0.2293,-0.0585 -0.53208,0.22334 -0.19323,0.18007 -0.31009,0.32851 -0.25959,0.32986 0.0508,0.004 0.0108,0.0395 -0.10178,0.0851 -0.20411,0.0878 -0.5835,0.56196 -0.44951,0.56196 0.0438,0 -0.0109,0.0459 -0.10409,0.1016 -0.42934,0.23835 -1.02753,1.80197 -1.12759,2.94691 -0.0355,0.40019 -0.1589,1.51331 -0.27564,2.47353 -0.11642,0.96031 -0.21125,1.83732 -0.21044,1.94899 0,0.11163 -0.12415,1.24448 -0.27793,2.51734 -0.1536,1.27289 -0.27026,2.36922 -0.25901,2.43619 0.0141,0.067 -0.016,0.23145 -0.0558,0.36543 -0.0415,0.13401 -0.10124,0.59077 -0.13024,1.01505 -0.0302,0.4243 -0.0759,0.86285 -0.10219,0.97449 -0.0435,0.18512 -0.26541,2.3117 -0.27146,2.59859 0,0.0669 -0.22522,2.02203 -0.49735,4.34446 -0.44602,3.80708 -1.80302,15.98192 -1.81473,16.28177 0,0.067 -0.077,0.6517 -0.1644,1.2993 -0.0877,0.64763 -0.19063,1.52466 -0.22861,1.94893 -0.0389,0.42429 -0.31363,2.89095 -0.6125,5.4814 -0.2989,2.59045 -0.53511,4.78297 -0.52499,4.87233 0.0109,0.0894 -0.0159,0.27202 -0.0554,0.40599 -0.0407,0.13403 -0.0996,0.62229 -0.13078,1.08501 -0.0317,0.46277 -0.079,0.86735 -0.10626,0.89901 -0.0266,0.0317 -0.0741,0.46783 -0.10625,0.96926 -0.0315,0.50136 -0.0805,0.93909 -0.10884,0.97276 -0.0289,0.0335 -0.0833,0.46132 -0.12306,0.95039 -0.0404,0.48906 -0.16385,1.67212 -0.27682,2.62907 -0.11276,0.95685 -0.18001,1.76993 -0.149,1.8068 0.0315,0.0367 0.0179,0.0669 -0.035,0.0669 -0.0501,0 -0.17463,0.1745 -0.27737,0.3877 -0.1034,0.21324 -0.36012,0.53731 -0.57222,0.7202 -0.21209,0.18279 -0.35029,0.35854 -0.30697,0.3905 0.0442,0.0316 0.0297,0.0492 -0.0317,0.0381 -0.16351,-0.0293 -0.50164,0.0952 -0.44431,0.16353 0.0279,0.0326 -0.0122,0.0618 -0.0836,0.0645 -0.11114,0.009 -0.8538,0.2111 -1.50842,0.41942 -0.0912,0.0289 -0.51182,0.0289 -0.93544,0 z m 136.32807,-38.76756 c 0,-0.13396 0.0276,-0.17895 0.0552,-0.0999 0.0282,0.0789 0.0267,0.18865 -0.0122,0.24362 -0.0297,0.0549 -0.0524,-0.009 -0.0508,-0.14366 z m -157.6156,-6.74683 c 0.007,-0.0945 0.0313,-0.11372 0.0672,-0.049 0.0317,0.0585 0.0285,0.12859 -0.0108,0.15572 -0.0375,0.027 -0.0634,-0.0209 -0.0583,-0.10656 z m 159.69393,-4.2227 c 0.0122,-0.0946 0.0317,-0.11372 0.0672,-0.0489 0.032,0.0585 0.029,0.1286 -0.0122,0.15567 -0.0371,0.027 -0.0634,-0.0208 -0.058,-0.10668 z m -199.20466,-0.16243 c 0.005,-0.0945 0.0314,-0.11387 0.0672,-0.0489 0.0323,0.0586 0.0285,0.12859 -0.0108,0.15565 -0.0376,0.0268 -0.0634,-0.0208 -0.0585,-0.10655 z m 14.41758,-3.32942 c 0.005,-0.0947 0.0317,-0.11372 0.0672,-0.0489 0.0317,0.0585 0.0289,0.1286 -0.0108,0.15569 -0.0366,0.0265 -0.0634,-0.021 -0.0585,-0.10668 z m 169.37896,-8.20179 c 0.0122,-0.0945 0.0319,-0.11372 0.0664,-0.0487 0.0324,0.0585 0.0283,0.1286 -0.0122,0.15563 -0.0363,0.0268 -0.0634,-0.021 -0.0579,-0.10668 z m -136.20519,-4.90616 c 0.0377,-0.0445 0.09,-0.0813 0.11629,-0.0813 0.027,0 0.0489,0.0364 0.0489,0.0813 0,0.0449 -0.0523,0.0813 -0.11682,0.0813 -0.0644,0 -0.0857,-0.0362 -0.0485,-0.0813 z m 94.38319,-2.88958 c 0.0122,-0.0946 0.0317,-0.11385 0.067,-0.049 0.0327,0.0585 0.0285,0.12859 -0.0122,0.15566 -0.037,0.0268 -0.0636,-0.0209 -0.058,-0.10668 z m 46.77465,-20.62624 c 0.0122,-0.0945 0.0317,-0.11385 0.0667,-0.049 0.0325,0.0585 0.029,0.12859 -0.0122,0.15566 -0.0369,0.0268 -0.0634,-0.0208 -0.058,-0.10655 z m -0.87176,-6.28668 c 0,-0.11164 0.0258,-0.15734 0.0558,-0.10159 0.0304,0.0558 0.0304,0.14722 0,0.20304 -0.0306,0.0559 -0.0558,0.009 -0.0558,-0.10146 z m -201.25102,-3.75925 c 0.0416,-0.0801 0.10341,-0.1252 0.13664,-0.10016 0.0344,0.025 4e-5,0.0905 -0.0752,0.14563 -0.10869,0.0795 -0.12143,0.0702 -0.0622,-0.0455 z m 200.36176,-4.40867 c 0.0122,-0.0947 0.0317,-0.11386 0.0672,-0.0489 0.0327,0.0585 0.0283,0.12859 -0.0122,0.15564 -0.0371,0.027 -0.0638,-0.021 -0.0579,-0.10656 z m -36.64921,-38.32904 c 0.0122,-0.0946 0.0317,-0.11386 0.0672,-0.0488 0.0325,0.0585 0.0276,0.12859 -0.0122,0.15563 -0.036,0.0268 -0.0634,-0.0208 -0.0583,-0.10656 z"
         style="opacity:1;fill:#f90000;fill-opacity:0.99639;stroke:none;stroke-width:0.471664;stroke-opacity:1" />
      <g
         style="display:inline;stroke-width:1.60838"
         transform="matrix(0.62174357,0,0,0.62174357,45.659113,358.56556)"
         id="g271"
         inkscape:label="g271">
        <path
           id="path1222"
           style="opacity:0.71;fill:#ffffff;fill-opacity:1;stroke:none;stroke-width:14.4754;stroke-linecap:butt;stroke-linejoin:bevel;stroke-miterlimit:4;stroke-dasharray:none;stroke-opacity:1;paint-order:stroke fill markers"
           d="m 468.25703,-291.02941 a 82.472229,82.472229 0 0 0 -79.86967,62.62697 82.472229,82.472229 0 0 0 -27.47901,-4.72063 82.472229,82.472229 0 0 0 -82.47015,82.47015 82.472229,82.472229 0 0 0 82.47015,82.470157 82.472229,82.472229 0 0 0 1.75575,-0.126987 82.472229,82.472229 0 0 0 -2.17536,17.861079 82.472229,82.472229 0 0 0 82.47568,82.470154 82.472229,82.472229 0 0 0 81.388,-69.611281 82.472229,82.472229 0 0 0 30.17335,5.929768 82.472229,82.472229 0 0 0 82.47568,-82.47015 82.472229,82.472229 0 0 0 -82.47568,-82.47016 82.472229,82.472229 0 0 0 -4.75375,0.34232 82.472229,82.472229 0 0 0 0.96069,-12.29571 82.472229,82.472229 0 0 0 -82.47568,-82.47568 z" />
        <text
           xml:space="preserve"
           style="font-style:normal;font-weight:normal;font-size:101.504px;line-height:1.25;font-family:sans-serif;letter-spacing:0px;word-spacing:0px;fill:#000000;fill-opacity:1;stroke:none;stroke-width:1.60838"
           x="420.50681"
           y="-160.96849"
           id="text1301"><tspan
             id="tspan1299"
             sodipodi:role="line"
             x="420.50681"
             y="-160.96849"
             style="font-size:162.407px;fill:#000000;stroke-width:1.60838">v</tspan></text>
        <text
           xml:space="preserve"
           style="font-style:normal;font-weight:normal;font-size:101.504px;line-height:1.25;font-family:sans-serif;letter-spacing:0px;word-spacing:0px;fill:#000000;fill-opacity:1;stroke:none;stroke-width:1.61331;stroke-dasharray:none"
           x="311.69943"
           y="-107.12824"
           id="text1289"><tspan
             sodipodi:role="line"
             id="tspan1287"
             x="311.69943"
             y="-107.12824"
             style="font-size:162.407px;fill:#000000;fill-opacity:1;stroke-width:1.61331;stroke-dasharray:none">o</tspan></text>
        <text
           xml:space="preserve"
           style="font-style:normal;font-weight:normal;font-size:101.504px;line-height:1.25;font-family:sans-serif;letter-spacing:0px;word-spacing:0px;fill:#000000;fill-opacity:1;stroke:none;stroke-width:1.60838"
           x="505.31857"
           y="-70.605316"
           id="text1289-2"
           inkscape:label="text1289-2"><tspan
             sodipodi:role="line"
             id="tspan1287-6"
             x="505.31857"
             y="-70.605316"
             style="font-size:162.407px;fill:#000000;stroke-width:1.60838">o</tspan></text>
        <text
           id="text1293"
           y="-4.5225205"
           x="403.78558"
           style="font-style:normal;font-weight:normal;font-size:97px;line-height:1.25;font-family:sans-serif;letter-spacing:0px;word-spacing:0px;fill:#000000;fill-opacity:1;stroke:none;stroke-width:1.53701"
           xml:space="preserve"
           inkscape:transform-center-x="-23.984508"
           inkscape:transform-center-y="6.7075319"><tspan
             style="font-size:156.155px;fill:#000000;stroke-width:1.53701"
             y="-4.5225205"
             x="403.78558"
             id="tspan1291"
             sodipodi:role="line">s</tspan><tspan
             y="136.70233"
             x="403.78558"
             sodipodi:role="line"
             id="tspan1295"
             style="font-size:155.2px;fill:#000000;stroke-width:1.53701" /></text>
      </g>
    </g>
  </g>
</svg>
